G04 #@! TF.GenerationSoftware,KiCad,Pcbnew,9.0.5*
G04 #@! TF.CreationDate,2025-11-12T01:12:09-05:00*
G04 #@! TF.ProjectId,Power Board,506f7765-7220-4426-9f61-72642e6b6963,rev?*
G04 #@! TF.SameCoordinates,Original*
G04 #@! TF.FileFunction,Paste,Top*
G04 #@! TF.FilePolarity,Positive*
%FSLAX46Y46*%
G04 Gerber Fmt 4.6, Leading zero omitted, Abs format (unit mm)*
G04 Created by KiCad (PCBNEW 9.0.5) date 2025-11-12 01:12:09*
%MOMM*%
%LPD*%
G01*
G04 APERTURE LIST*
G04 Aperture macros list*
%AMRoundRect*
0 Rectangle with rounded corners*
0 $1 Rounding radius*
0 $2 $3 $4 $5 $6 $7 $8 $9 X,Y pos of 4 corners*
0 Add a 4 corners polygon primitive as box body*
4,1,4,$2,$3,$4,$5,$6,$7,$8,$9,$2,$3,0*
0 Add four circle primitives for the rounded corners*
1,1,$1+$1,$2,$3*
1,1,$1+$1,$4,$5*
1,1,$1+$1,$6,$7*
1,1,$1+$1,$8,$9*
0 Add four rect primitives between the rounded corners*
20,1,$1+$1,$2,$3,$4,$5,0*
20,1,$1+$1,$4,$5,$6,$7,0*
20,1,$1+$1,$6,$7,$8,$9,0*
20,1,$1+$1,$8,$9,$2,$3,0*%
G04 Aperture macros list end*
%ADD10R,0.300000X1.100000*%
%ADD11R,2.300000X3.100000*%
%ADD12RoundRect,2.125000X-2.125000X-13.475000X2.125000X-13.475000X2.125000X13.475000X-2.125000X13.475000X0*%
G04 APERTURE END LIST*
D10*
G04 #@! TO.C,J4*
X88915000Y-58650000D03*
X89415000Y-58650000D03*
X89915000Y-58650000D03*
X90415000Y-58650000D03*
X90915000Y-58650000D03*
D11*
X87245000Y-60350000D03*
X92585000Y-60350000D03*
G04 #@! TD*
D10*
G04 #@! TO.C,J7*
X152215000Y-58650000D03*
X152715000Y-58650000D03*
X153215000Y-58650000D03*
X153715000Y-58650000D03*
X154215000Y-58650000D03*
D11*
X150545000Y-60350000D03*
X155885000Y-60350000D03*
G04 #@! TD*
D12*
G04 #@! TO.C,U12*
X121650000Y-72200000D03*
X121650000Y-160400000D03*
G04 #@! TD*
G04 #@! TO.C,U13*
X111100000Y-105800000D03*
X111100000Y-194000000D03*
G04 #@! TD*
G04 #@! TO.C,U15*
X90000000Y-105800000D03*
X90000000Y-194000000D03*
G04 #@! TD*
G04 #@! TO.C,U11*
X132200000Y-105800000D03*
X132200000Y-194000000D03*
G04 #@! TD*
G04 #@! TO.C,U8*
X163850000Y-72200000D03*
X163850000Y-160400000D03*
G04 #@! TD*
G04 #@! TO.C,U2*
X227150000Y-72200000D03*
X227150000Y-160400000D03*
G04 #@! TD*
G04 #@! TO.C,U4*
X206050000Y-72200000D03*
X206050000Y-160400000D03*
G04 #@! TD*
D10*
G04 #@! TO.C,J8*
X173315000Y-58650000D03*
X173815000Y-58650000D03*
X174315000Y-58650000D03*
X174815000Y-58650000D03*
X175315000Y-58650000D03*
D11*
X171645000Y-60350000D03*
X176985000Y-60350000D03*
G04 #@! TD*
D10*
G04 #@! TO.C,J5*
X110105000Y-58650000D03*
X110605000Y-58650000D03*
X111105000Y-58650000D03*
X111605000Y-58650000D03*
X112105000Y-58650000D03*
D11*
X108435000Y-60350000D03*
X113775000Y-60350000D03*
G04 #@! TD*
D10*
G04 #@! TO.C,J10*
X215515000Y-58650000D03*
X216015000Y-58650000D03*
X216515000Y-58650000D03*
X217015000Y-58650000D03*
X217515000Y-58650000D03*
D11*
X213845000Y-60350000D03*
X219185000Y-60350000D03*
G04 #@! TD*
D10*
G04 #@! TO.C,J6*
X131115000Y-58650000D03*
X131615000Y-58650000D03*
X132115000Y-58650000D03*
X132615000Y-58650000D03*
X133115000Y-58650000D03*
D11*
X129445000Y-60350000D03*
X134785000Y-60350000D03*
G04 #@! TD*
D12*
G04 #@! TO.C,U14*
X100550000Y-72200000D03*
X100550000Y-160400000D03*
G04 #@! TD*
D10*
G04 #@! TO.C,J9*
X194415000Y-58650000D03*
X194915000Y-58650000D03*
X195415000Y-58650000D03*
X195915000Y-58650000D03*
X196415000Y-58650000D03*
D11*
X192745000Y-60350000D03*
X198085000Y-60350000D03*
G04 #@! TD*
D12*
G04 #@! TO.C,U7*
X174400000Y-105800000D03*
X174400000Y-194000000D03*
G04 #@! TD*
G04 #@! TO.C,U9*
X153300000Y-105800000D03*
X153300000Y-194000000D03*
G04 #@! TD*
G04 #@! TO.C,U3*
X216600000Y-105800000D03*
X216600000Y-194000000D03*
G04 #@! TD*
G04 #@! TO.C,U5*
X195500000Y-105800000D03*
X195500000Y-194000000D03*
G04 #@! TD*
G04 #@! TO.C,U1*
X237700000Y-105800000D03*
X237700000Y-194000000D03*
G04 #@! TD*
G04 #@! TO.C,U10*
X142750000Y-72200000D03*
X142750000Y-160400000D03*
G04 #@! TD*
G04 #@! TO.C,U6*
X184950000Y-72200000D03*
X184950000Y-160400000D03*
G04 #@! TD*
M02*
