M48
; DRILL file {KiCad 9.0.5} date 2025-11-12T01:12:09-0500
; FORMAT={-:-/ absolute / metric / decimal}
; #@! TF.CreationDate,2025-11-12T01:12:09-05:00
; #@! TF.GenerationSoftware,Kicad,Pcbnew,9.0.5
; #@! TF.FileFunction,Plated,1,4,PTH
FMAT,2
METRIC
; #@! TA.AperFunction,Plated,PTH,ViaDrill
T1C0.300
; #@! TA.AperFunction,Plated,PTH,ComponentDrill
T2C1.000
; #@! TA.AperFunction,Plated,PTH,ComponentDrill
T3C1.475
%
G90
G05
T1
X87.4Y-91.7
X87.4Y-93.5
X87.4Y-95.3
X87.4Y-97.1
X87.4Y-98.9
X87.4Y-100.7
X87.4Y-102.5
X87.4Y-104.3
X87.4Y-106.1
X87.4Y-107.9
X87.4Y-109.7
X87.4Y-111.5
X87.4Y-113.3
X87.4Y-115.1
X87.4Y-116.9
X87.4Y-118.7
X87.4Y-120.5
X87.4Y-122.3
X87.4Y-124.1
X87.4Y-125.9
X87.4Y-127.7
X87.4Y-129.5
X87.4Y-131.3
X87.4Y-134.9
X87.4Y-136.7
X87.4Y-138.5
X87.4Y-140.3
X87.4Y-156.5
X87.4Y-158.3
X87.4Y-160.1
X87.4Y-161.9
X87.4Y-176.3
X87.4Y-178.1
X87.4Y-179.9
X87.4Y-181.7
X87.4Y-183.5
X87.4Y-185.3
X87.4Y-187.1
X87.4Y-188.9
X87.4Y-190.7
X87.4Y-192.5
X87.4Y-194.3
X87.4Y-196.1
X87.4Y-197.9
X87.4Y-199.7
X87.4Y-201.5
X87.4Y-203.3
X87.4Y-205.1
X87.4Y-206.9
X87.4Y-208.7
X89.1Y-91.7
X89.1Y-93.5
X89.1Y-95.3
X89.1Y-97.1
X89.1Y-98.9
X89.1Y-100.7
X89.1Y-102.5
X89.1Y-104.3
X89.1Y-106.1
X89.1Y-107.9
X89.1Y-109.7
X89.1Y-111.5
X89.1Y-113.3
X89.1Y-115.1
X89.1Y-116.9
X89.1Y-118.7
X89.1Y-120.5
X89.1Y-122.3
X89.1Y-124.1
X89.1Y-125.9
X89.1Y-127.7
X89.1Y-129.5
X89.1Y-131.3
X89.1Y-134.9
X89.1Y-136.7
X89.1Y-138.5
X89.1Y-140.3
X89.1Y-156.5
X89.1Y-158.3
X89.1Y-160.1
X89.1Y-161.9
X89.1Y-176.3
X89.1Y-178.1
X89.1Y-179.9
X89.1Y-181.7
X89.1Y-183.5
X89.1Y-185.3
X89.1Y-187.1
X89.1Y-188.9
X89.1Y-190.7
X89.1Y-192.5
X89.1Y-194.3
X89.1Y-196.1
X89.1Y-197.9
X89.1Y-199.7
X89.1Y-201.5
X89.1Y-203.3
X89.1Y-205.1
X89.1Y-206.9
X89.1Y-208.7
X90.9Y-91.7
X90.9Y-93.5
X90.9Y-95.3
X90.9Y-97.1
X90.9Y-98.9
X90.9Y-100.7
X90.9Y-102.5
X90.9Y-104.3
X90.9Y-106.1
X90.9Y-107.9
X90.9Y-109.7
X90.9Y-111.5
X90.9Y-113.3
X90.9Y-115.1
X90.9Y-116.9
X90.9Y-118.7
X90.9Y-120.5
X90.9Y-122.3
X90.9Y-124.1
X90.9Y-125.9
X90.9Y-127.7
X90.9Y-129.5
X90.9Y-131.3
X90.9Y-134.9
X90.9Y-136.7
X90.9Y-138.5
X90.9Y-140.3
X90.9Y-142.1
X90.9Y-143.9
X90.9Y-145.7
X90.9Y-147.5
X90.9Y-149.3
X90.9Y-151.1
X90.9Y-152.9
X90.9Y-154.7
X90.9Y-156.5
X90.9Y-158.3
X90.9Y-160.1
X90.9Y-161.9
X90.9Y-163.7
X90.9Y-165.5
X90.9Y-167.3
X90.9Y-169.1
X90.9Y-170.9
X90.9Y-172.7
X90.9Y-174.5
X90.9Y-176.3
X90.9Y-178.1
X90.9Y-179.9
X90.9Y-181.7
X90.9Y-183.5
X90.9Y-185.3
X90.9Y-187.1
X90.9Y-188.9
X90.9Y-190.7
X90.9Y-192.5
X90.9Y-194.3
X90.9Y-196.1
X90.9Y-197.9
X90.9Y-199.7
X90.9Y-201.5
X90.9Y-203.3
X90.9Y-205.1
X90.9Y-206.9
X90.9Y-208.7
X92.6Y-91.7
X92.6Y-93.5
X92.6Y-95.3
X92.6Y-97.1
X92.6Y-98.9
X92.6Y-100.7
X92.6Y-102.5
X92.6Y-104.3
X92.6Y-106.1
X92.6Y-107.9
X92.6Y-109.7
X92.6Y-111.5
X92.6Y-113.3
X92.6Y-115.1
X92.6Y-116.9
X92.6Y-118.7
X92.6Y-120.5
X92.6Y-122.3
X92.6Y-124.1
X92.6Y-125.9
X92.6Y-127.7
X92.6Y-129.5
X92.6Y-131.3
X92.6Y-134.9
X92.6Y-136.7
X92.6Y-138.5
X92.6Y-140.3
X92.6Y-142.1
X92.6Y-143.9
X92.6Y-145.7
X92.6Y-147.5
X92.6Y-149.3
X92.6Y-151.1
X92.6Y-152.9
X92.6Y-154.7
X92.6Y-156.5
X92.6Y-158.3
X92.6Y-160.1
X92.6Y-161.9
X92.6Y-163.7
X92.6Y-165.5
X92.6Y-167.3
X92.6Y-169.1
X92.6Y-170.9
X92.6Y-172.7
X92.6Y-174.5
X92.6Y-176.3
X92.6Y-178.1
X92.6Y-179.9
X92.6Y-181.7
X92.6Y-183.5
X92.6Y-185.3
X92.6Y-187.1
X92.6Y-188.9
X92.6Y-190.7
X92.6Y-192.5
X92.6Y-194.3
X92.6Y-196.1
X92.6Y-197.9
X92.6Y-199.7
X92.6Y-201.5
X92.6Y-203.3
X92.6Y-205.1
X92.6Y-206.9
X92.6Y-208.7
X93.701Y-87.383
X97.2Y-55.0
X97.9Y-58.1
X97.9Y-59.9
X97.9Y-61.7
X97.9Y-63.5
X97.9Y-65.3
X97.9Y-67.1
X97.9Y-68.9
X97.9Y-70.7
X97.9Y-72.5
X97.9Y-74.3
X97.9Y-76.1
X97.9Y-77.9
X97.9Y-79.7
X97.9Y-81.5
X97.9Y-83.3
X97.9Y-85.1
X97.9Y-86.9
X97.9Y-88.7
X97.9Y-90.5
X97.9Y-92.3
X97.9Y-94.1
X97.9Y-95.9
X97.9Y-97.7
X97.9Y-99.5
X97.9Y-101.3
X97.9Y-103.1
X97.9Y-104.9
X97.9Y-106.7
X97.9Y-108.5
X97.9Y-110.3
X97.9Y-112.1
X97.9Y-113.9
X97.9Y-115.7
X97.9Y-117.5
X97.9Y-119.3
X97.9Y-121.1
X97.9Y-122.9
X97.9Y-124.7
X97.9Y-126.5
X97.9Y-128.3
X97.9Y-130.1
X97.9Y-135.5
X97.9Y-137.3
X97.9Y-139.1
X97.9Y-140.9
X97.9Y-142.7
X97.9Y-144.5
X97.9Y-146.3
X97.9Y-148.1
X97.9Y-149.9
X97.9Y-151.7
X97.9Y-153.5
X97.9Y-155.3
X97.9Y-157.1
X97.9Y-158.9
X97.9Y-160.7
X97.9Y-162.5
X97.9Y-164.3
X97.9Y-166.1
X97.9Y-167.9
X97.9Y-169.7
X97.9Y-171.5
X97.9Y-173.3
X97.9Y-175.1
X99.6Y-58.1
X99.6Y-59.9
X99.6Y-61.7
X99.6Y-63.5
X99.6Y-65.3
X99.6Y-67.1
X99.6Y-68.9
X99.6Y-70.7
X99.6Y-72.5
X99.6Y-74.3
X99.6Y-76.1
X99.6Y-77.9
X99.6Y-79.7
X99.6Y-81.5
X99.6Y-83.3
X99.6Y-85.1
X99.6Y-86.9
X99.6Y-88.7
X99.6Y-90.5
X99.6Y-92.3
X99.6Y-94.1
X99.6Y-95.9
X99.6Y-97.7
X99.6Y-99.5
X99.6Y-101.3
X99.6Y-103.1
X99.6Y-104.9
X99.6Y-106.7
X99.6Y-108.5
X99.6Y-110.3
X99.6Y-112.1
X99.6Y-113.9
X99.6Y-115.7
X99.6Y-117.5
X99.6Y-119.3
X99.6Y-121.1
X99.6Y-122.9
X99.6Y-124.7
X99.6Y-126.5
X99.6Y-128.3
X99.6Y-130.1
X99.6Y-135.5
X99.6Y-137.3
X99.6Y-139.1
X99.6Y-140.9
X99.6Y-142.7
X99.6Y-144.5
X99.6Y-146.3
X99.6Y-148.1
X99.6Y-149.9
X99.6Y-151.7
X99.6Y-153.5
X99.6Y-155.3
X99.6Y-157.1
X99.6Y-158.9
X99.6Y-160.7
X99.6Y-162.5
X99.6Y-164.3
X99.6Y-166.1
X99.6Y-167.9
X99.6Y-169.7
X99.6Y-171.5
X99.6Y-173.3
X99.6Y-175.1
X101.4Y-58.1
X101.4Y-59.9
X101.4Y-61.7
X101.4Y-63.5
X101.4Y-65.3
X101.4Y-67.1
X101.4Y-68.9
X101.4Y-70.7
X101.4Y-72.5
X101.4Y-74.3
X101.4Y-76.1
X101.4Y-77.9
X101.4Y-79.7
X101.4Y-81.5
X101.4Y-83.3
X101.4Y-85.1
X101.4Y-86.9
X101.4Y-88.7
X101.4Y-90.5
X101.4Y-92.3
X101.4Y-94.1
X101.4Y-95.9
X101.4Y-97.7
X101.4Y-99.5
X101.4Y-101.3
X101.4Y-103.1
X101.4Y-104.9
X101.4Y-106.7
X101.4Y-108.5
X101.4Y-110.3
X101.4Y-112.1
X101.4Y-113.9
X101.4Y-115.7
X101.4Y-117.5
X101.4Y-119.3
X101.4Y-121.1
X101.4Y-122.9
X101.4Y-124.7
X101.4Y-126.5
X101.4Y-128.3
X101.4Y-130.1
X101.4Y-135.5
X101.4Y-137.3
X101.4Y-139.1
X101.4Y-140.9
X101.4Y-142.7
X101.4Y-144.5
X101.4Y-146.3
X101.4Y-148.1
X101.4Y-149.9
X101.4Y-151.7
X101.4Y-153.5
X101.4Y-155.3
X101.4Y-157.1
X101.4Y-158.9
X101.4Y-160.7
X101.4Y-162.5
X101.4Y-164.3
X101.4Y-166.1
X101.4Y-167.9
X101.4Y-169.7
X101.4Y-171.5
X101.4Y-173.3
X101.4Y-175.1
X103.1Y-58.1
X103.1Y-59.9
X103.1Y-61.7
X103.1Y-63.5
X103.1Y-65.3
X103.1Y-67.1
X103.1Y-68.9
X103.1Y-70.7
X103.1Y-72.5
X103.1Y-74.3
X103.1Y-76.1
X103.1Y-77.9
X103.1Y-79.7
X103.1Y-81.5
X103.1Y-83.3
X103.1Y-85.1
X103.1Y-86.9
X103.1Y-88.7
X103.1Y-90.5
X103.1Y-92.3
X103.1Y-94.1
X103.1Y-95.9
X103.1Y-97.7
X103.1Y-99.5
X103.1Y-101.3
X103.1Y-103.1
X103.1Y-104.9
X103.1Y-106.7
X103.1Y-108.5
X103.1Y-110.3
X103.1Y-112.1
X103.1Y-113.9
X103.1Y-115.7
X103.1Y-117.5
X103.1Y-119.3
X103.1Y-121.1
X103.1Y-122.9
X103.1Y-124.7
X103.1Y-126.5
X103.1Y-128.3
X103.1Y-130.1
X103.1Y-135.5
X103.1Y-137.3
X103.1Y-139.1
X103.1Y-140.9
X103.1Y-142.7
X103.1Y-144.5
X103.1Y-146.3
X103.1Y-148.1
X103.1Y-149.9
X103.1Y-151.7
X103.1Y-153.5
X103.1Y-155.3
X103.1Y-157.1
X103.1Y-158.9
X103.1Y-160.7
X103.1Y-162.5
X103.1Y-164.3
X103.1Y-166.1
X103.1Y-167.9
X103.1Y-169.7
X103.1Y-171.5
X103.1Y-173.3
X103.1Y-175.1
X108.4Y-91.8
X108.4Y-93.6
X108.4Y-95.4
X108.4Y-97.2
X108.4Y-99.0
X108.4Y-100.8
X108.4Y-102.6
X108.4Y-104.4
X108.4Y-106.2
X108.4Y-108.0
X108.4Y-109.8
X108.4Y-111.6
X108.4Y-113.4
X108.4Y-115.2
X108.4Y-117.0
X108.4Y-118.8
X108.4Y-120.6
X108.4Y-122.4
X108.4Y-124.2
X108.4Y-126.0
X108.4Y-127.8
X108.4Y-129.6
X108.4Y-131.4
X108.4Y-135.0
X108.4Y-136.8
X108.4Y-138.6
X108.4Y-140.4
X108.4Y-142.2
X108.4Y-144.0
X108.4Y-145.8
X108.4Y-147.6
X108.4Y-149.4
X108.4Y-151.2
X108.4Y-153.0
X108.4Y-154.8
X108.4Y-156.6
X108.4Y-158.4
X108.4Y-160.2
X108.4Y-162.0
X108.4Y-163.8
X108.4Y-165.6
X108.4Y-167.4
X108.4Y-169.2
X108.4Y-171.0
X108.4Y-172.8
X108.4Y-174.6
X108.4Y-176.4
X108.4Y-178.2
X108.4Y-180.0
X108.4Y-181.8
X108.4Y-183.6
X108.4Y-185.4
X108.4Y-187.2
X108.4Y-189.0
X108.4Y-190.8
X108.4Y-192.6
X108.4Y-194.4
X108.4Y-196.2
X108.4Y-198.0
X108.4Y-199.8
X108.4Y-201.6
X108.4Y-203.4
X108.4Y-205.2
X108.4Y-207.0
X108.4Y-208.8
X110.1Y-91.8
X110.1Y-93.6
X110.1Y-95.4
X110.1Y-97.2
X110.1Y-99.0
X110.1Y-100.8
X110.1Y-102.6
X110.1Y-104.4
X110.1Y-106.2
X110.1Y-108.0
X110.1Y-109.8
X110.1Y-111.6
X110.1Y-113.4
X110.1Y-115.2
X110.1Y-117.0
X110.1Y-118.8
X110.1Y-120.6
X110.1Y-122.4
X110.1Y-124.2
X110.1Y-126.0
X110.1Y-127.8
X110.1Y-129.6
X110.1Y-131.4
X110.1Y-135.0
X110.1Y-136.8
X110.1Y-138.6
X110.1Y-140.4
X110.1Y-142.2
X110.1Y-144.0
X110.1Y-145.8
X110.1Y-147.6
X110.1Y-149.4
X110.1Y-151.2
X110.1Y-153.0
X110.1Y-154.8
X110.1Y-156.6
X110.1Y-158.4
X110.1Y-160.2
X110.1Y-162.0
X110.1Y-163.8
X110.1Y-165.6
X110.1Y-167.4
X110.1Y-169.2
X110.1Y-171.0
X110.1Y-172.8
X110.1Y-174.6
X110.1Y-176.4
X110.1Y-178.2
X110.1Y-180.0
X110.1Y-181.8
X110.1Y-183.6
X110.1Y-185.4
X110.1Y-187.2
X110.1Y-189.0
X110.1Y-190.8
X110.1Y-192.6
X110.1Y-194.4
X110.1Y-196.2
X110.1Y-198.0
X110.1Y-199.8
X110.1Y-201.6
X110.1Y-203.4
X110.1Y-205.2
X110.1Y-207.0
X110.1Y-208.8
X111.9Y-91.8
X111.9Y-93.6
X111.9Y-95.4
X111.9Y-97.2
X111.9Y-99.0
X111.9Y-100.8
X111.9Y-102.6
X111.9Y-104.4
X111.9Y-106.2
X111.9Y-108.0
X111.9Y-109.8
X111.9Y-111.6
X111.9Y-113.4
X111.9Y-115.2
X111.9Y-117.0
X111.9Y-118.8
X111.9Y-120.6
X111.9Y-122.4
X111.9Y-124.2
X111.9Y-126.0
X111.9Y-127.8
X111.9Y-129.6
X111.9Y-131.4
X111.9Y-135.0
X111.9Y-136.8
X111.9Y-138.6
X111.9Y-140.4
X111.9Y-142.2
X111.9Y-144.0
X111.9Y-145.8
X111.9Y-147.6
X111.9Y-149.4
X111.9Y-151.2
X111.9Y-153.0
X111.9Y-154.8
X111.9Y-156.6
X111.9Y-158.4
X111.9Y-160.2
X111.9Y-162.0
X111.9Y-163.8
X111.9Y-165.6
X111.9Y-167.4
X111.9Y-169.2
X111.9Y-171.0
X111.9Y-172.8
X111.9Y-174.6
X111.9Y-176.4
X111.9Y-178.2
X111.9Y-180.0
X111.9Y-181.8
X111.9Y-183.6
X111.9Y-185.4
X111.9Y-187.2
X111.9Y-189.0
X111.9Y-190.8
X111.9Y-192.6
X111.9Y-194.4
X111.9Y-196.2
X111.9Y-198.0
X111.9Y-199.8
X111.9Y-201.6
X111.9Y-203.4
X111.9Y-205.2
X111.9Y-207.0
X111.9Y-208.8
X112.21Y-57.515
X113.6Y-91.8
X113.6Y-93.6
X113.6Y-95.4
X113.6Y-97.2
X113.6Y-99.0
X113.6Y-100.8
X113.6Y-102.6
X113.6Y-104.4
X113.6Y-106.2
X113.6Y-108.0
X113.6Y-109.8
X113.6Y-111.6
X113.6Y-113.4
X113.6Y-115.2
X113.6Y-117.0
X113.6Y-118.8
X113.6Y-120.6
X113.6Y-122.4
X113.6Y-124.2
X113.6Y-126.0
X113.6Y-127.8
X113.6Y-129.6
X113.6Y-131.4
X113.6Y-135.0
X113.6Y-136.8
X113.6Y-138.6
X113.6Y-140.4
X113.6Y-142.2
X113.6Y-144.0
X113.6Y-145.8
X113.6Y-147.6
X113.6Y-149.4
X113.6Y-151.2
X113.6Y-153.0
X113.6Y-154.8
X113.6Y-156.6
X113.6Y-158.4
X113.6Y-160.2
X113.6Y-162.0
X113.6Y-163.8
X113.6Y-165.6
X113.6Y-167.4
X113.6Y-169.2
X113.6Y-171.0
X113.6Y-172.8
X113.6Y-174.6
X113.6Y-176.4
X113.6Y-178.2
X113.6Y-180.0
X113.6Y-181.8
X113.6Y-183.6
X113.6Y-185.4
X113.6Y-187.2
X113.6Y-189.0
X113.6Y-190.8
X113.6Y-192.6
X113.6Y-194.4
X113.6Y-196.2
X113.6Y-198.0
X113.6Y-199.8
X113.6Y-201.6
X113.6Y-203.4
X113.6Y-205.2
X113.6Y-207.0
X113.6Y-208.8
X118.4Y-55.0
X119.0Y-58.1
X119.0Y-59.9
X119.0Y-61.7
X119.0Y-63.5
X119.0Y-65.3
X119.0Y-67.1
X119.0Y-68.9
X119.0Y-70.7
X119.0Y-72.5
X119.0Y-74.3
X119.0Y-76.1
X119.0Y-77.9
X119.0Y-79.7
X119.0Y-81.5
X119.0Y-83.3
X119.0Y-85.1
X119.0Y-86.9
X119.0Y-88.7
X119.0Y-90.5
X119.0Y-92.3
X119.0Y-94.1
X119.0Y-95.9
X119.0Y-97.7
X119.0Y-99.5
X119.0Y-101.3
X119.0Y-103.1
X119.0Y-104.9
X119.0Y-106.7
X119.0Y-108.5
X119.0Y-110.3
X119.0Y-112.1
X119.0Y-113.9
X119.0Y-115.7
X119.0Y-117.5
X119.0Y-119.3
X119.0Y-121.1
X119.0Y-122.9
X119.0Y-124.7
X119.0Y-126.5
X119.0Y-128.3
X119.0Y-130.1
X119.0Y-135.5
X119.0Y-137.3
X119.0Y-139.1
X119.0Y-140.9
X119.0Y-142.7
X119.0Y-144.5
X119.0Y-146.3
X119.0Y-148.1
X119.0Y-149.9
X119.0Y-151.7
X119.0Y-153.5
X119.0Y-155.3
X119.0Y-157.1
X119.0Y-158.9
X119.0Y-160.7
X119.0Y-162.5
X119.0Y-164.3
X119.0Y-166.1
X119.0Y-167.9
X119.0Y-169.7
X119.0Y-171.5
X119.0Y-173.3
X119.0Y-175.1
X120.7Y-58.1
X120.7Y-59.9
X120.7Y-61.7
X120.7Y-63.5
X120.7Y-65.3
X120.7Y-67.1
X120.7Y-68.9
X120.7Y-70.7
X120.7Y-72.5
X120.7Y-74.3
X120.7Y-76.1
X120.7Y-77.9
X120.7Y-79.7
X120.7Y-81.5
X120.7Y-83.3
X120.7Y-85.1
X120.7Y-86.9
X120.7Y-88.7
X120.7Y-90.5
X120.7Y-92.3
X120.7Y-94.1
X120.7Y-95.9
X120.7Y-97.7
X120.7Y-99.5
X120.7Y-101.3
X120.7Y-103.1
X120.7Y-104.9
X120.7Y-106.7
X120.7Y-108.5
X120.7Y-110.3
X120.7Y-112.1
X120.7Y-113.9
X120.7Y-115.7
X120.7Y-117.5
X120.7Y-119.3
X120.7Y-121.1
X120.7Y-122.9
X120.7Y-124.7
X120.7Y-126.5
X120.7Y-128.3
X120.7Y-130.1
X120.7Y-135.5
X120.7Y-137.3
X120.7Y-139.1
X120.7Y-140.9
X120.7Y-142.7
X120.7Y-144.5
X120.7Y-146.3
X120.7Y-148.1
X120.7Y-149.9
X120.7Y-151.7
X120.7Y-153.5
X120.7Y-155.3
X120.7Y-157.1
X120.7Y-158.9
X120.7Y-160.7
X120.7Y-162.5
X120.7Y-164.3
X120.7Y-166.1
X120.7Y-167.9
X120.7Y-169.7
X120.7Y-171.5
X120.7Y-173.3
X120.7Y-175.1
X122.5Y-58.1
X122.5Y-59.9
X122.5Y-61.7
X122.5Y-63.5
X122.5Y-65.3
X122.5Y-67.1
X122.5Y-68.9
X122.5Y-70.7
X122.5Y-72.5
X122.5Y-74.3
X122.5Y-76.1
X122.5Y-77.9
X122.5Y-79.7
X122.5Y-81.5
X122.5Y-83.3
X122.5Y-85.1
X122.5Y-86.9
X122.5Y-88.7
X122.5Y-90.5
X122.5Y-92.3
X122.5Y-94.1
X122.5Y-95.9
X122.5Y-97.7
X122.5Y-99.5
X122.5Y-101.3
X122.5Y-103.1
X122.5Y-104.9
X122.5Y-106.7
X122.5Y-108.5
X122.5Y-110.3
X122.5Y-112.1
X122.5Y-113.9
X122.5Y-115.7
X122.5Y-117.5
X122.5Y-119.3
X122.5Y-121.1
X122.5Y-122.9
X122.5Y-124.7
X122.5Y-126.5
X122.5Y-128.3
X122.5Y-130.1
X122.5Y-135.5
X122.5Y-137.3
X122.5Y-139.1
X122.5Y-140.9
X122.5Y-142.7
X122.5Y-144.5
X122.5Y-146.3
X122.5Y-148.1
X122.5Y-149.9
X122.5Y-151.7
X122.5Y-153.5
X122.5Y-155.3
X122.5Y-157.1
X122.5Y-158.9
X122.5Y-160.7
X122.5Y-162.5
X122.5Y-164.3
X122.5Y-166.1
X122.5Y-167.9
X122.5Y-169.7
X122.5Y-171.5
X122.5Y-173.3
X122.5Y-175.1
X124.2Y-58.1
X124.2Y-59.9
X124.2Y-61.7
X124.2Y-63.5
X124.2Y-65.3
X124.2Y-67.1
X124.2Y-68.9
X124.2Y-70.7
X124.2Y-72.5
X124.2Y-74.3
X124.2Y-76.1
X124.2Y-77.9
X124.2Y-79.7
X124.2Y-81.5
X124.2Y-83.3
X124.2Y-85.1
X124.2Y-86.9
X124.2Y-88.7
X124.2Y-90.5
X124.2Y-92.3
X124.2Y-94.1
X124.2Y-95.9
X124.2Y-97.7
X124.2Y-99.5
X124.2Y-101.3
X124.2Y-103.1
X124.2Y-104.9
X124.2Y-106.7
X124.2Y-108.5
X124.2Y-110.3
X124.2Y-112.1
X124.2Y-113.9
X124.2Y-115.7
X124.2Y-117.5
X124.2Y-119.3
X124.2Y-121.1
X124.2Y-122.9
X124.2Y-124.7
X124.2Y-126.5
X124.2Y-128.3
X124.2Y-130.1
X124.2Y-135.5
X124.2Y-137.3
X124.2Y-139.1
X124.2Y-140.9
X124.2Y-142.7
X124.2Y-144.5
X124.2Y-146.3
X124.2Y-148.1
X124.2Y-149.9
X124.2Y-151.7
X124.2Y-153.5
X124.2Y-155.3
X124.2Y-157.1
X124.2Y-158.9
X124.2Y-160.7
X124.2Y-162.5
X124.2Y-164.3
X124.2Y-166.1
X124.2Y-167.9
X124.2Y-169.7
X124.2Y-171.5
X124.2Y-173.3
X124.2Y-175.1
X125.025Y-55.3
X129.5Y-91.8
X129.5Y-93.6
X129.5Y-95.4
X129.5Y-97.2
X129.5Y-99.0
X129.5Y-100.8
X129.5Y-102.6
X129.5Y-104.4
X129.5Y-106.2
X129.5Y-108.0
X129.5Y-109.8
X129.5Y-111.6
X129.5Y-113.4
X129.5Y-115.2
X129.5Y-117.0
X129.5Y-118.8
X129.5Y-120.6
X129.5Y-122.4
X129.5Y-124.2
X129.5Y-126.0
X129.5Y-127.8
X129.5Y-129.6
X129.5Y-131.4
X129.5Y-135.0
X129.5Y-136.8
X129.5Y-138.6
X129.5Y-140.4
X129.5Y-142.2
X129.5Y-144.0
X129.5Y-145.8
X129.5Y-147.6
X129.5Y-149.4
X129.5Y-151.2
X129.5Y-153.0
X129.5Y-154.8
X129.5Y-156.6
X129.5Y-158.4
X129.5Y-160.2
X129.5Y-162.0
X129.5Y-163.8
X129.5Y-165.6
X129.5Y-167.4
X129.5Y-169.2
X129.5Y-171.0
X129.5Y-172.8
X129.5Y-174.6
X129.5Y-176.4
X129.5Y-178.2
X129.5Y-180.0
X129.5Y-181.8
X129.5Y-183.6
X129.5Y-185.4
X129.5Y-187.2
X129.5Y-189.0
X129.5Y-190.8
X129.5Y-192.6
X129.5Y-194.4
X129.5Y-196.2
X129.5Y-198.0
X129.5Y-199.8
X129.5Y-201.6
X129.5Y-203.4
X129.5Y-205.2
X129.5Y-207.0
X129.5Y-208.8
X131.2Y-91.8
X131.2Y-93.6
X131.2Y-95.4
X131.2Y-97.2
X131.2Y-99.0
X131.2Y-100.8
X131.2Y-102.6
X131.2Y-104.4
X131.2Y-106.2
X131.2Y-108.0
X131.2Y-109.8
X131.2Y-111.6
X131.2Y-113.4
X131.2Y-115.2
X131.2Y-117.0
X131.2Y-118.8
X131.2Y-120.6
X131.2Y-122.4
X131.2Y-124.2
X131.2Y-126.0
X131.2Y-127.8
X131.2Y-129.6
X131.2Y-131.4
X131.2Y-135.0
X131.2Y-136.8
X131.2Y-138.6
X131.2Y-140.4
X131.2Y-142.2
X131.2Y-144.0
X131.2Y-145.8
X131.2Y-147.6
X131.2Y-149.4
X131.2Y-151.2
X131.2Y-153.0
X131.2Y-154.8
X131.2Y-156.6
X131.2Y-158.4
X131.2Y-160.2
X131.2Y-162.0
X131.2Y-163.8
X131.2Y-165.6
X131.2Y-167.4
X131.2Y-169.2
X131.2Y-171.0
X131.2Y-172.8
X131.2Y-174.6
X131.2Y-176.4
X131.2Y-178.2
X131.2Y-180.0
X131.2Y-181.8
X131.2Y-183.6
X131.2Y-185.4
X131.2Y-187.2
X131.2Y-189.0
X131.2Y-190.8
X131.2Y-192.6
X131.2Y-194.4
X131.2Y-196.2
X131.2Y-198.0
X131.2Y-199.8
X131.2Y-201.6
X131.2Y-203.4
X131.2Y-205.2
X131.2Y-207.0
X131.2Y-208.8
X133.0Y-91.8
X133.0Y-93.6
X133.0Y-95.4
X133.0Y-97.2
X133.0Y-99.0
X133.0Y-100.8
X133.0Y-102.6
X133.0Y-104.4
X133.0Y-106.2
X133.0Y-108.0
X133.0Y-109.8
X133.0Y-111.6
X133.0Y-113.4
X133.0Y-115.2
X133.0Y-117.0
X133.0Y-118.8
X133.0Y-120.6
X133.0Y-122.4
X133.0Y-124.2
X133.0Y-126.0
X133.0Y-127.8
X133.0Y-129.6
X133.0Y-131.4
X133.0Y-135.0
X133.0Y-136.8
X133.0Y-138.6
X133.0Y-140.4
X133.0Y-142.2
X133.0Y-144.0
X133.0Y-145.8
X133.0Y-147.6
X133.0Y-149.4
X133.0Y-151.2
X133.0Y-153.0
X133.0Y-154.8
X133.0Y-156.6
X133.0Y-158.4
X133.0Y-160.2
X133.0Y-162.0
X133.0Y-163.8
X133.0Y-165.6
X133.0Y-167.4
X133.0Y-169.2
X133.0Y-171.0
X133.0Y-172.8
X133.0Y-174.6
X133.0Y-176.4
X133.0Y-178.2
X133.0Y-180.0
X133.0Y-181.8
X133.0Y-183.6
X133.0Y-185.4
X133.0Y-187.2
X133.0Y-189.0
X133.0Y-190.8
X133.0Y-192.6
X133.0Y-194.4
X133.0Y-196.2
X133.0Y-198.0
X133.0Y-199.8
X133.0Y-201.6
X133.0Y-203.4
X133.0Y-205.2
X133.0Y-207.0
X133.0Y-208.8
X133.06Y-57.3
X134.7Y-91.8
X134.7Y-93.6
X134.7Y-95.4
X134.7Y-97.2
X134.7Y-99.0
X134.7Y-100.8
X134.7Y-102.6
X134.7Y-104.4
X134.7Y-106.2
X134.7Y-108.0
X134.7Y-109.8
X134.7Y-111.6
X134.7Y-113.4
X134.7Y-115.2
X134.7Y-117.0
X134.7Y-118.8
X134.7Y-120.6
X134.7Y-122.4
X134.7Y-124.2
X134.7Y-126.0
X134.7Y-127.8
X134.7Y-129.6
X134.7Y-131.4
X134.7Y-135.0
X134.7Y-136.8
X134.7Y-138.6
X134.7Y-140.4
X134.7Y-142.2
X134.7Y-144.0
X134.7Y-145.8
X134.7Y-147.6
X134.7Y-149.4
X134.7Y-151.2
X134.7Y-153.0
X134.7Y-154.8
X134.7Y-156.6
X134.7Y-158.4
X134.7Y-160.2
X134.7Y-162.0
X134.7Y-163.8
X134.7Y-165.6
X134.7Y-167.4
X134.7Y-169.2
X134.7Y-171.0
X134.7Y-172.8
X134.7Y-174.6
X134.7Y-176.4
X134.7Y-178.2
X134.7Y-180.0
X134.7Y-181.8
X134.7Y-183.6
X134.7Y-185.4
X134.7Y-187.2
X134.7Y-189.0
X134.7Y-190.8
X134.7Y-192.6
X134.7Y-194.4
X134.7Y-196.2
X134.7Y-198.0
X134.7Y-199.8
X134.7Y-201.6
X134.7Y-203.4
X134.7Y-205.2
X134.7Y-207.0
X134.7Y-208.8
X140.1Y-58.1
X140.1Y-59.9
X140.1Y-61.7
X140.1Y-63.5
X140.1Y-65.3
X140.1Y-67.1
X140.1Y-68.9
X140.1Y-70.7
X140.1Y-72.5
X140.1Y-74.3
X140.1Y-76.1
X140.1Y-77.9
X140.1Y-79.7
X140.1Y-81.5
X140.1Y-83.3
X140.1Y-85.1
X140.1Y-86.9
X140.1Y-88.7
X140.1Y-90.5
X140.1Y-92.3
X140.1Y-94.1
X140.1Y-95.9
X140.1Y-97.7
X140.1Y-99.5
X140.1Y-101.3
X140.1Y-103.1
X140.1Y-104.9
X140.1Y-106.7
X140.1Y-108.5
X140.1Y-110.3
X140.1Y-112.1
X140.1Y-113.9
X140.1Y-115.7
X140.1Y-117.5
X140.1Y-119.3
X140.1Y-121.1
X140.1Y-122.9
X140.1Y-124.7
X140.1Y-126.5
X140.1Y-128.3
X140.1Y-130.1
X140.1Y-135.5
X140.1Y-137.3
X140.1Y-139.1
X140.1Y-140.9
X140.1Y-142.7
X140.1Y-144.5
X140.1Y-146.3
X140.1Y-148.1
X140.1Y-149.9
X140.1Y-151.7
X140.1Y-153.5
X140.1Y-155.3
X140.1Y-157.1
X140.1Y-158.9
X140.1Y-160.7
X140.1Y-162.5
X140.1Y-164.3
X140.1Y-166.1
X140.1Y-167.9
X140.1Y-169.7
X140.1Y-171.5
X140.1Y-173.3
X140.1Y-175.1
X141.8Y-58.1
X141.8Y-59.9
X141.8Y-61.7
X141.8Y-63.5
X141.8Y-65.3
X141.8Y-67.1
X141.8Y-68.9
X141.8Y-70.7
X141.8Y-72.5
X141.8Y-74.3
X141.8Y-76.1
X141.8Y-77.9
X141.8Y-79.7
X141.8Y-81.5
X141.8Y-83.3
X141.8Y-85.1
X141.8Y-86.9
X141.8Y-88.7
X141.8Y-90.5
X141.8Y-92.3
X141.8Y-94.1
X141.8Y-95.9
X141.8Y-97.7
X141.8Y-99.5
X141.8Y-101.3
X141.8Y-103.1
X141.8Y-104.9
X141.8Y-106.7
X141.8Y-108.5
X141.8Y-110.3
X141.8Y-112.1
X141.8Y-113.9
X141.8Y-115.7
X141.8Y-117.5
X141.8Y-119.3
X141.8Y-121.1
X141.8Y-122.9
X141.8Y-124.7
X141.8Y-126.5
X141.8Y-128.3
X141.8Y-130.1
X141.8Y-135.5
X141.8Y-137.3
X141.8Y-139.1
X141.8Y-140.9
X141.8Y-142.7
X141.8Y-144.5
X141.8Y-146.3
X141.8Y-148.1
X141.8Y-149.9
X141.8Y-151.7
X141.8Y-153.5
X141.8Y-155.3
X141.8Y-157.1
X141.8Y-158.9
X141.8Y-160.7
X141.8Y-162.5
X141.8Y-164.3
X141.8Y-166.1
X141.8Y-167.9
X141.8Y-169.7
X141.8Y-171.5
X141.8Y-173.3
X141.8Y-175.1
X142.835Y-55.0
X143.6Y-58.1
X143.6Y-59.9
X143.6Y-61.7
X143.6Y-63.5
X143.6Y-65.3
X143.6Y-67.1
X143.6Y-68.9
X143.6Y-70.7
X143.6Y-72.5
X143.6Y-74.3
X143.6Y-76.1
X143.6Y-77.9
X143.6Y-79.7
X143.6Y-81.5
X143.6Y-83.3
X143.6Y-85.1
X143.6Y-86.9
X143.6Y-88.7
X143.6Y-90.5
X143.6Y-92.3
X143.6Y-94.1
X143.6Y-95.9
X143.6Y-97.7
X143.6Y-99.5
X143.6Y-101.3
X143.6Y-103.1
X143.6Y-104.9
X143.6Y-106.7
X143.6Y-108.5
X143.6Y-110.3
X143.6Y-112.1
X143.6Y-113.9
X143.6Y-115.7
X143.6Y-117.5
X143.6Y-119.3
X143.6Y-121.1
X143.6Y-122.9
X143.6Y-124.7
X143.6Y-126.5
X143.6Y-128.3
X143.6Y-130.1
X143.6Y-135.5
X143.6Y-137.3
X143.6Y-139.1
X143.6Y-140.9
X143.6Y-142.7
X143.6Y-144.5
X143.6Y-146.3
X143.6Y-148.1
X143.6Y-149.9
X143.6Y-151.7
X143.6Y-153.5
X143.6Y-155.3
X143.6Y-157.1
X143.6Y-158.9
X143.6Y-160.7
X143.6Y-162.5
X143.6Y-164.3
X143.6Y-166.1
X143.6Y-167.9
X143.6Y-169.7
X143.6Y-171.5
X143.6Y-173.3
X143.6Y-175.1
X145.3Y-58.1
X145.3Y-59.9
X145.3Y-61.7
X145.3Y-63.5
X145.3Y-65.3
X145.3Y-67.1
X145.3Y-68.9
X145.3Y-70.7
X145.3Y-72.5
X145.3Y-74.3
X145.3Y-76.1
X145.3Y-77.9
X145.3Y-79.7
X145.3Y-81.5
X145.3Y-83.3
X145.3Y-85.1
X145.3Y-86.9
X145.3Y-88.7
X145.3Y-90.5
X145.3Y-92.3
X145.3Y-94.1
X145.3Y-95.9
X145.3Y-97.7
X145.3Y-99.5
X145.3Y-101.3
X145.3Y-103.1
X145.3Y-104.9
X145.3Y-106.7
X145.3Y-108.5
X145.3Y-110.3
X145.3Y-112.1
X145.3Y-113.9
X145.3Y-115.7
X145.3Y-117.5
X145.3Y-119.3
X145.3Y-121.1
X145.3Y-122.9
X145.3Y-124.7
X145.3Y-126.5
X145.3Y-128.3
X145.3Y-130.1
X145.3Y-135.5
X145.3Y-137.3
X145.3Y-139.1
X145.3Y-140.9
X145.3Y-142.7
X145.3Y-144.5
X145.3Y-146.3
X145.3Y-148.1
X145.3Y-149.9
X145.3Y-151.7
X145.3Y-153.5
X145.3Y-155.3
X145.3Y-157.1
X145.3Y-158.9
X145.3Y-160.7
X145.3Y-162.5
X145.3Y-164.3
X145.3Y-166.1
X145.3Y-167.9
X145.3Y-169.7
X145.3Y-171.5
X145.3Y-173.3
X145.3Y-175.1
X146.3Y-55.0
X150.6Y-91.7
X150.6Y-93.5
X150.6Y-95.3
X150.6Y-97.1
X150.6Y-98.9
X150.6Y-100.7
X150.6Y-102.5
X150.6Y-104.3
X150.6Y-106.1
X150.6Y-107.9
X150.6Y-109.7
X150.6Y-111.5
X150.6Y-113.3
X150.6Y-115.1
X150.6Y-116.9
X150.6Y-118.7
X150.6Y-120.5
X150.6Y-122.3
X150.6Y-124.1
X150.6Y-125.9
X150.6Y-127.7
X150.6Y-129.5
X150.6Y-131.3
X150.6Y-134.9
X150.6Y-136.7
X150.6Y-138.5
X150.6Y-140.3
X150.6Y-142.1
X150.6Y-143.9
X150.6Y-145.7
X150.6Y-147.5
X150.6Y-149.3
X150.6Y-151.1
X150.6Y-152.9
X150.6Y-154.7
X150.6Y-156.5
X150.6Y-158.3
X150.6Y-160.1
X150.6Y-161.9
X150.6Y-163.7
X150.6Y-165.5
X150.6Y-167.3
X150.6Y-169.1
X150.6Y-170.9
X150.6Y-172.7
X150.6Y-174.5
X150.6Y-176.3
X150.6Y-178.1
X150.6Y-179.9
X150.6Y-181.7
X150.6Y-183.5
X150.6Y-185.3
X150.6Y-187.1
X150.6Y-188.9
X150.6Y-190.7
X150.6Y-192.5
X150.6Y-194.3
X150.6Y-196.1
X150.6Y-197.9
X150.6Y-199.7
X150.6Y-201.5
X150.6Y-203.3
X150.6Y-205.1
X150.6Y-206.9
X150.6Y-208.7
X152.3Y-91.7
X152.3Y-93.5
X152.3Y-95.3
X152.3Y-97.1
X152.3Y-98.9
X152.3Y-100.7
X152.3Y-102.5
X152.3Y-104.3
X152.3Y-106.1
X152.3Y-107.9
X152.3Y-109.7
X152.3Y-111.5
X152.3Y-113.3
X152.3Y-115.1
X152.3Y-116.9
X152.3Y-118.7
X152.3Y-120.5
X152.3Y-122.3
X152.3Y-124.1
X152.3Y-125.9
X152.3Y-127.7
X152.3Y-129.5
X152.3Y-131.3
X152.3Y-134.9
X152.3Y-136.7
X152.3Y-138.5
X152.3Y-140.3
X152.3Y-142.1
X152.3Y-143.9
X152.3Y-145.7
X152.3Y-147.5
X152.3Y-149.3
X152.3Y-151.1
X152.3Y-152.9
X152.3Y-154.7
X152.3Y-156.5
X152.3Y-158.3
X152.3Y-160.1
X152.3Y-161.9
X152.3Y-163.7
X152.3Y-165.5
X152.3Y-167.3
X152.3Y-169.1
X152.3Y-170.9
X152.3Y-172.7
X152.3Y-174.5
X152.3Y-176.3
X152.3Y-178.1
X152.3Y-179.9
X152.3Y-181.7
X152.3Y-183.5
X152.3Y-185.3
X152.3Y-187.1
X152.3Y-188.9
X152.3Y-190.7
X152.3Y-192.5
X152.3Y-194.3
X152.3Y-196.1
X152.3Y-197.9
X152.3Y-199.7
X152.3Y-201.5
X152.3Y-203.3
X152.3Y-205.1
X152.3Y-206.9
X152.3Y-208.7
X152.7Y-55.0
X154.1Y-91.7
X154.1Y-93.5
X154.1Y-95.3
X154.1Y-97.1
X154.1Y-98.9
X154.1Y-100.7
X154.1Y-102.5
X154.1Y-104.3
X154.1Y-106.1
X154.1Y-107.9
X154.1Y-109.7
X154.1Y-111.5
X154.1Y-113.3
X154.1Y-115.1
X154.1Y-116.9
X154.1Y-118.7
X154.1Y-120.5
X154.1Y-122.3
X154.1Y-124.1
X154.1Y-125.9
X154.1Y-127.7
X154.1Y-129.5
X154.1Y-131.3
X154.1Y-134.9
X154.1Y-136.7
X154.1Y-138.5
X154.1Y-140.3
X154.1Y-142.1
X154.1Y-143.9
X154.1Y-145.7
X154.1Y-147.5
X154.1Y-149.3
X154.1Y-151.1
X154.1Y-152.9
X154.1Y-154.7
X154.1Y-156.5
X154.1Y-158.3
X154.1Y-160.1
X154.1Y-161.9
X154.1Y-163.7
X154.1Y-165.5
X154.1Y-167.3
X154.1Y-169.1
X154.1Y-170.9
X154.1Y-172.7
X154.1Y-174.5
X154.1Y-176.3
X154.1Y-178.1
X154.1Y-179.9
X154.1Y-181.7
X154.1Y-183.5
X154.1Y-185.3
X154.1Y-187.1
X154.1Y-188.9
X154.1Y-190.7
X154.1Y-192.5
X154.1Y-194.3
X154.1Y-196.1
X154.1Y-197.9
X154.1Y-199.7
X154.1Y-201.5
X154.1Y-203.3
X154.1Y-205.1
X154.1Y-206.9
X154.1Y-208.7
X154.46Y-57.625
X155.8Y-91.7
X155.8Y-93.5
X155.8Y-95.3
X155.8Y-97.1
X155.8Y-98.9
X155.8Y-100.7
X155.8Y-102.5
X155.8Y-104.3
X155.8Y-106.1
X155.8Y-107.9
X155.8Y-109.7
X155.8Y-111.5
X155.8Y-113.3
X155.8Y-115.1
X155.8Y-116.9
X155.8Y-118.7
X155.8Y-120.5
X155.8Y-122.3
X155.8Y-124.1
X155.8Y-125.9
X155.8Y-127.7
X155.8Y-129.5
X155.8Y-131.3
X155.8Y-134.9
X155.8Y-136.7
X155.8Y-138.5
X155.8Y-140.3
X155.8Y-142.1
X155.8Y-143.9
X155.8Y-145.7
X155.8Y-147.5
X155.8Y-149.3
X155.8Y-151.1
X155.8Y-152.9
X155.8Y-154.7
X155.8Y-156.5
X155.8Y-158.3
X155.8Y-160.1
X155.8Y-161.9
X155.8Y-163.7
X155.8Y-165.5
X155.8Y-167.3
X155.8Y-169.1
X155.8Y-170.9
X155.8Y-172.7
X155.8Y-174.5
X155.8Y-176.3
X155.8Y-178.1
X155.8Y-179.9
X155.8Y-181.7
X155.8Y-183.5
X155.8Y-185.3
X155.8Y-187.1
X155.8Y-188.9
X155.8Y-190.7
X155.8Y-192.5
X155.8Y-194.3
X155.8Y-196.1
X155.8Y-197.9
X155.8Y-199.7
X155.8Y-201.5
X155.8Y-203.3
X155.8Y-205.1
X155.8Y-206.9
X155.8Y-208.7
X161.2Y-58.0
X161.2Y-59.8
X161.2Y-61.6
X161.2Y-63.4
X161.2Y-65.2
X161.2Y-67.0
X161.2Y-68.8
X161.2Y-70.6
X161.2Y-72.4
X161.2Y-74.2
X161.2Y-76.0
X161.2Y-77.8
X161.2Y-79.6
X161.2Y-81.4
X161.2Y-83.2
X161.2Y-85.0
X161.2Y-86.8
X161.2Y-88.6
X161.2Y-90.4
X161.2Y-92.2
X161.2Y-94.0
X161.2Y-95.8
X161.2Y-97.6
X161.2Y-99.4
X161.2Y-101.2
X161.2Y-103.0
X161.2Y-104.8
X161.2Y-106.6
X161.2Y-108.4
X161.2Y-110.2
X161.2Y-112.0
X161.2Y-113.8
X161.2Y-115.6
X161.2Y-117.4
X161.2Y-119.2
X161.2Y-121.0
X161.2Y-122.8
X161.2Y-124.6
X161.2Y-126.4
X161.2Y-128.2
X161.2Y-130.0
X161.2Y-135.4
X161.2Y-137.2
X161.2Y-139.0
X161.2Y-140.8
X161.2Y-142.6
X161.2Y-144.4
X161.2Y-146.2
X161.2Y-148.0
X161.2Y-149.8
X161.2Y-151.6
X161.2Y-153.4
X161.2Y-155.2
X161.2Y-157.0
X161.2Y-158.8
X161.2Y-160.6
X161.2Y-162.4
X161.2Y-164.2
X161.2Y-166.0
X161.2Y-167.8
X161.2Y-169.6
X161.2Y-171.4
X161.2Y-173.2
X161.2Y-175.0
X162.9Y-58.0
X162.9Y-59.8
X162.9Y-61.6
X162.9Y-63.4
X162.9Y-65.2
X162.9Y-67.0
X162.9Y-68.8
X162.9Y-70.6
X162.9Y-72.4
X162.9Y-74.2
X162.9Y-76.0
X162.9Y-77.8
X162.9Y-79.6
X162.9Y-81.4
X162.9Y-83.2
X162.9Y-85.0
X162.9Y-86.8
X162.9Y-88.6
X162.9Y-90.4
X162.9Y-92.2
X162.9Y-94.0
X162.9Y-95.8
X162.9Y-97.6
X162.9Y-99.4
X162.9Y-101.2
X162.9Y-103.0
X162.9Y-104.8
X162.9Y-106.6
X162.9Y-108.4
X162.9Y-110.2
X162.9Y-112.0
X162.9Y-113.8
X162.9Y-115.6
X162.9Y-117.4
X162.9Y-119.2
X162.9Y-121.0
X162.9Y-122.8
X162.9Y-124.6
X162.9Y-126.4
X162.9Y-128.2
X162.9Y-130.0
X162.9Y-135.4
X162.9Y-137.2
X162.9Y-139.0
X162.9Y-140.8
X162.9Y-142.6
X162.9Y-144.4
X162.9Y-146.2
X162.9Y-148.0
X162.9Y-149.8
X162.9Y-151.6
X162.9Y-153.4
X162.9Y-155.2
X162.9Y-157.0
X162.9Y-158.8
X162.9Y-160.6
X162.9Y-162.4
X162.9Y-164.2
X162.9Y-166.0
X162.9Y-167.8
X162.9Y-169.6
X162.9Y-171.4
X162.9Y-173.2
X162.9Y-175.0
X164.7Y-58.0
X164.7Y-59.8
X164.7Y-61.6
X164.7Y-63.4
X164.7Y-65.2
X164.7Y-67.0
X164.7Y-68.8
X164.7Y-70.6
X164.7Y-72.4
X164.7Y-74.2
X164.7Y-76.0
X164.7Y-77.8
X164.7Y-79.6
X164.7Y-81.4
X164.7Y-83.2
X164.7Y-85.0
X164.7Y-86.8
X164.7Y-88.6
X164.7Y-90.4
X164.7Y-92.2
X164.7Y-94.0
X164.7Y-95.8
X164.7Y-97.6
X164.7Y-99.4
X164.7Y-101.2
X164.7Y-103.0
X164.7Y-104.8
X164.7Y-106.6
X164.7Y-108.4
X164.7Y-110.2
X164.7Y-112.0
X164.7Y-113.8
X164.7Y-115.6
X164.7Y-117.4
X164.7Y-119.2
X164.7Y-121.0
X164.7Y-122.8
X164.7Y-124.6
X164.7Y-126.4
X164.7Y-128.2
X164.7Y-130.0
X164.7Y-135.4
X164.7Y-137.2
X164.7Y-139.0
X164.7Y-140.8
X164.7Y-142.6
X164.7Y-144.4
X164.7Y-146.2
X164.7Y-148.0
X164.7Y-149.8
X164.7Y-151.6
X164.7Y-153.4
X164.7Y-155.2
X164.7Y-157.0
X164.7Y-158.8
X164.7Y-160.6
X164.7Y-162.4
X164.7Y-164.2
X164.7Y-166.0
X164.7Y-167.8
X164.7Y-169.6
X164.7Y-171.4
X164.7Y-173.2
X164.7Y-175.0
X166.4Y-58.0
X166.4Y-59.8
X166.4Y-61.6
X166.4Y-63.4
X166.4Y-65.2
X166.4Y-67.0
X166.4Y-68.8
X166.4Y-70.6
X166.4Y-72.4
X166.4Y-74.2
X166.4Y-76.0
X166.4Y-77.8
X166.4Y-79.6
X166.4Y-81.4
X166.4Y-83.2
X166.4Y-85.0
X166.4Y-86.8
X166.4Y-88.6
X166.4Y-90.4
X166.4Y-92.2
X166.4Y-94.0
X166.4Y-95.8
X166.4Y-97.6
X166.4Y-99.4
X166.4Y-101.2
X166.4Y-103.0
X166.4Y-104.8
X166.4Y-106.6
X166.4Y-108.4
X166.4Y-110.2
X166.4Y-112.0
X166.4Y-113.8
X166.4Y-115.6
X166.4Y-117.4
X166.4Y-119.2
X166.4Y-121.0
X166.4Y-122.8
X166.4Y-124.6
X166.4Y-126.4
X166.4Y-128.2
X166.4Y-130.0
X166.4Y-135.4
X166.4Y-137.2
X166.4Y-139.0
X166.4Y-140.8
X166.4Y-142.6
X166.4Y-144.4
X166.4Y-146.2
X166.4Y-148.0
X166.4Y-149.8
X166.4Y-151.6
X166.4Y-153.4
X166.4Y-155.2
X166.4Y-157.0
X166.4Y-158.8
X166.4Y-160.6
X166.4Y-162.4
X166.4Y-164.2
X166.4Y-166.0
X166.4Y-167.8
X166.4Y-169.6
X166.4Y-171.4
X166.4Y-173.2
X166.4Y-175.0
X167.6Y-55.0
X171.4Y-55.0
X171.7Y-91.7
X171.7Y-93.5
X171.7Y-95.3
X171.7Y-97.1
X171.7Y-98.9
X171.7Y-100.7
X171.7Y-102.5
X171.7Y-104.3
X171.7Y-106.1
X171.7Y-107.9
X171.7Y-109.7
X171.7Y-111.5
X171.7Y-113.3
X171.7Y-115.1
X171.7Y-116.9
X171.7Y-118.7
X171.7Y-120.5
X171.7Y-122.3
X171.7Y-124.1
X171.7Y-125.9
X171.7Y-127.7
X171.7Y-129.5
X171.7Y-131.3
X171.7Y-134.9
X171.7Y-136.7
X171.7Y-138.5
X171.7Y-140.3
X171.7Y-142.1
X171.7Y-143.9
X171.7Y-145.7
X171.7Y-147.5
X171.7Y-149.3
X171.7Y-151.1
X171.7Y-152.9
X171.7Y-154.7
X171.7Y-156.5
X171.7Y-158.3
X171.7Y-160.1
X171.7Y-161.9
X171.7Y-163.7
X171.7Y-165.5
X171.7Y-167.3
X171.7Y-169.1
X171.7Y-170.9
X171.7Y-172.7
X171.7Y-174.5
X171.7Y-176.3
X171.7Y-178.1
X171.7Y-179.9
X171.7Y-181.7
X171.7Y-183.5
X171.7Y-185.3
X171.7Y-187.1
X171.7Y-188.9
X171.7Y-190.7
X171.7Y-192.5
X171.7Y-194.3
X171.7Y-196.1
X171.7Y-197.9
X171.7Y-199.7
X171.7Y-201.5
X171.7Y-203.3
X171.7Y-205.1
X171.7Y-206.9
X171.7Y-208.7
X173.4Y-91.7
X173.4Y-93.5
X173.4Y-95.3
X173.4Y-97.1
X173.4Y-98.9
X173.4Y-100.7
X173.4Y-102.5
X173.4Y-104.3
X173.4Y-106.1
X173.4Y-107.9
X173.4Y-109.7
X173.4Y-111.5
X173.4Y-113.3
X173.4Y-115.1
X173.4Y-116.9
X173.4Y-118.7
X173.4Y-120.5
X173.4Y-122.3
X173.4Y-124.1
X173.4Y-125.9
X173.4Y-127.7
X173.4Y-129.5
X173.4Y-131.3
X173.4Y-134.9
X173.4Y-136.7
X173.4Y-138.5
X173.4Y-140.3
X173.4Y-142.1
X173.4Y-143.9
X173.4Y-145.7
X173.4Y-147.5
X173.4Y-149.3
X173.4Y-151.1
X173.4Y-152.9
X173.4Y-154.7
X173.4Y-156.5
X173.4Y-158.3
X173.4Y-160.1
X173.4Y-161.9
X173.4Y-163.7
X173.4Y-165.5
X173.4Y-167.3
X173.4Y-169.1
X173.4Y-170.9
X173.4Y-172.7
X173.4Y-174.5
X173.4Y-176.3
X173.4Y-178.1
X173.4Y-179.9
X173.4Y-181.7
X173.4Y-183.5
X173.4Y-185.3
X173.4Y-187.1
X173.4Y-188.9
X173.4Y-190.7
X173.4Y-192.5
X173.4Y-194.3
X173.4Y-196.1
X173.4Y-197.9
X173.4Y-199.7
X173.4Y-201.5
X173.4Y-203.3
X173.4Y-205.1
X173.4Y-206.9
X173.4Y-208.7
X175.2Y-91.7
X175.2Y-93.5
X175.2Y-95.3
X175.2Y-97.1
X175.2Y-98.9
X175.2Y-100.7
X175.2Y-102.5
X175.2Y-104.3
X175.2Y-106.1
X175.2Y-107.9
X175.2Y-109.7
X175.2Y-111.5
X175.2Y-113.3
X175.2Y-115.1
X175.2Y-116.9
X175.2Y-118.7
X175.2Y-120.5
X175.2Y-122.3
X175.2Y-124.1
X175.2Y-125.9
X175.2Y-127.7
X175.2Y-129.5
X175.2Y-131.3
X175.2Y-134.9
X175.2Y-136.7
X175.2Y-138.5
X175.2Y-140.3
X175.2Y-142.1
X175.2Y-143.9
X175.2Y-145.7
X175.2Y-147.5
X175.2Y-149.3
X175.2Y-151.1
X175.2Y-152.9
X175.2Y-154.7
X175.2Y-156.5
X175.2Y-158.3
X175.2Y-160.1
X175.2Y-161.9
X175.2Y-163.7
X175.2Y-165.5
X175.2Y-167.3
X175.2Y-169.1
X175.2Y-170.9
X175.2Y-172.7
X175.2Y-174.5
X175.2Y-176.3
X175.2Y-178.1
X175.2Y-179.9
X175.2Y-181.7
X175.2Y-183.5
X175.2Y-185.3
X175.2Y-187.1
X175.2Y-188.9
X175.2Y-190.7
X175.2Y-192.5
X175.2Y-194.3
X175.2Y-196.1
X175.2Y-197.9
X175.2Y-199.7
X175.2Y-201.5
X175.2Y-203.3
X175.2Y-205.1
X175.2Y-206.9
X175.2Y-208.7
X175.55Y-57.6
X176.9Y-91.7
X176.9Y-93.5
X176.9Y-95.3
X176.9Y-97.1
X176.9Y-98.9
X176.9Y-100.7
X176.9Y-102.5
X176.9Y-104.3
X176.9Y-106.1
X176.9Y-107.9
X176.9Y-109.7
X176.9Y-111.5
X176.9Y-113.3
X176.9Y-115.1
X176.9Y-116.9
X176.9Y-118.7
X176.9Y-120.5
X176.9Y-122.3
X176.9Y-124.1
X176.9Y-125.9
X176.9Y-127.7
X176.9Y-129.5
X176.9Y-131.3
X176.9Y-134.9
X176.9Y-136.7
X176.9Y-138.5
X176.9Y-140.3
X176.9Y-142.1
X176.9Y-143.9
X176.9Y-145.7
X176.9Y-147.5
X176.9Y-149.3
X176.9Y-151.1
X176.9Y-152.9
X176.9Y-154.7
X176.9Y-156.5
X176.9Y-158.3
X176.9Y-160.1
X176.9Y-161.9
X176.9Y-163.7
X176.9Y-165.5
X176.9Y-167.3
X176.9Y-169.1
X176.9Y-170.9
X176.9Y-172.7
X176.9Y-174.5
X176.9Y-176.3
X176.9Y-178.1
X176.9Y-179.9
X176.9Y-181.7
X176.9Y-183.5
X176.9Y-185.3
X176.9Y-187.1
X176.9Y-188.9
X176.9Y-190.7
X176.9Y-192.5
X176.9Y-194.3
X176.9Y-196.1
X176.9Y-197.9
X176.9Y-199.7
X176.9Y-201.5
X176.9Y-203.3
X176.9Y-205.1
X176.9Y-206.9
X176.9Y-208.7
X181.4Y-55.0
X182.3Y-58.0
X182.3Y-59.8
X182.3Y-61.6
X182.3Y-63.4
X182.3Y-65.2
X182.3Y-67.0
X182.3Y-68.8
X182.3Y-70.6
X182.3Y-72.4
X182.3Y-74.2
X182.3Y-76.0
X182.3Y-77.8
X182.3Y-79.6
X182.3Y-81.4
X182.3Y-83.2
X182.3Y-85.0
X182.3Y-86.8
X182.3Y-88.6
X182.3Y-90.4
X182.3Y-92.2
X182.3Y-94.0
X182.3Y-95.8
X182.3Y-97.6
X182.3Y-99.4
X182.3Y-101.2
X182.3Y-103.0
X182.3Y-104.8
X182.3Y-106.6
X182.3Y-108.4
X182.3Y-110.2
X182.3Y-112.0
X182.3Y-113.8
X182.3Y-115.6
X182.3Y-117.4
X182.3Y-119.2
X182.3Y-121.0
X182.3Y-122.8
X182.3Y-124.6
X182.3Y-126.4
X182.3Y-128.2
X182.3Y-130.0
X182.3Y-135.4
X182.3Y-137.2
X182.3Y-139.0
X182.3Y-140.8
X182.3Y-142.6
X182.3Y-144.4
X182.3Y-146.2
X182.3Y-148.0
X182.3Y-149.8
X182.3Y-151.6
X182.3Y-153.4
X182.3Y-155.2
X182.3Y-157.0
X182.3Y-158.8
X182.3Y-160.6
X182.3Y-162.4
X182.3Y-164.2
X182.3Y-166.0
X182.3Y-167.8
X182.3Y-169.6
X182.3Y-171.4
X182.3Y-173.2
X182.3Y-175.0
X184.0Y-58.0
X184.0Y-59.8
X184.0Y-61.6
X184.0Y-63.4
X184.0Y-65.2
X184.0Y-67.0
X184.0Y-68.8
X184.0Y-70.6
X184.0Y-72.4
X184.0Y-74.2
X184.0Y-76.0
X184.0Y-77.8
X184.0Y-79.6
X184.0Y-81.4
X184.0Y-83.2
X184.0Y-85.0
X184.0Y-86.8
X184.0Y-88.6
X184.0Y-90.4
X184.0Y-92.2
X184.0Y-94.0
X184.0Y-95.8
X184.0Y-97.6
X184.0Y-99.4
X184.0Y-101.2
X184.0Y-103.0
X184.0Y-104.8
X184.0Y-106.6
X184.0Y-108.4
X184.0Y-110.2
X184.0Y-112.0
X184.0Y-113.8
X184.0Y-115.6
X184.0Y-117.4
X184.0Y-119.2
X184.0Y-121.0
X184.0Y-122.8
X184.0Y-124.6
X184.0Y-126.4
X184.0Y-128.2
X184.0Y-130.0
X184.0Y-135.4
X184.0Y-137.2
X184.0Y-139.0
X184.0Y-140.8
X184.0Y-142.6
X184.0Y-144.4
X184.0Y-146.2
X184.0Y-148.0
X184.0Y-149.8
X184.0Y-151.6
X184.0Y-153.4
X184.0Y-155.2
X184.0Y-157.0
X184.0Y-158.8
X184.0Y-160.6
X184.0Y-162.4
X184.0Y-164.2
X184.0Y-166.0
X184.0Y-167.8
X184.0Y-169.6
X184.0Y-171.4
X184.0Y-173.2
X184.0Y-175.0
X185.8Y-58.0
X185.8Y-59.8
X185.8Y-61.6
X185.8Y-63.4
X185.8Y-65.2
X185.8Y-67.0
X185.8Y-68.8
X185.8Y-70.6
X185.8Y-72.4
X185.8Y-74.2
X185.8Y-76.0
X185.8Y-77.8
X185.8Y-79.6
X185.8Y-81.4
X185.8Y-83.2
X185.8Y-85.0
X185.8Y-86.8
X185.8Y-88.6
X185.8Y-90.4
X185.8Y-92.2
X185.8Y-94.0
X185.8Y-95.8
X185.8Y-97.6
X185.8Y-99.4
X185.8Y-101.2
X185.8Y-103.0
X185.8Y-104.8
X185.8Y-106.6
X185.8Y-108.4
X185.8Y-110.2
X185.8Y-112.0
X185.8Y-113.8
X185.8Y-115.6
X185.8Y-117.4
X185.8Y-119.2
X185.8Y-121.0
X185.8Y-122.8
X185.8Y-124.6
X185.8Y-126.4
X185.8Y-128.2
X185.8Y-130.0
X185.8Y-135.4
X185.8Y-137.2
X185.8Y-139.0
X185.8Y-140.8
X185.8Y-142.6
X185.8Y-144.4
X185.8Y-146.2
X185.8Y-148.0
X185.8Y-149.8
X185.8Y-151.6
X185.8Y-153.4
X185.8Y-155.2
X185.8Y-157.0
X185.8Y-158.8
X185.8Y-160.6
X185.8Y-162.4
X185.8Y-164.2
X185.8Y-166.0
X185.8Y-167.8
X185.8Y-169.6
X185.8Y-171.4
X185.8Y-173.2
X185.8Y-175.0
X187.5Y-58.0
X187.5Y-59.8
X187.5Y-61.6
X187.5Y-63.4
X187.5Y-65.2
X187.5Y-67.0
X187.5Y-68.8
X187.5Y-70.6
X187.5Y-72.4
X187.5Y-74.2
X187.5Y-76.0
X187.5Y-77.8
X187.5Y-79.6
X187.5Y-81.4
X187.5Y-83.2
X187.5Y-85.0
X187.5Y-86.8
X187.5Y-88.6
X187.5Y-90.4
X187.5Y-92.2
X187.5Y-94.0
X187.5Y-95.8
X187.5Y-97.6
X187.5Y-99.4
X187.5Y-101.2
X187.5Y-103.0
X187.5Y-104.8
X187.5Y-106.6
X187.5Y-108.4
X187.5Y-110.2
X187.5Y-112.0
X187.5Y-113.8
X187.5Y-115.6
X187.5Y-117.4
X187.5Y-119.2
X187.5Y-121.0
X187.5Y-122.8
X187.5Y-124.6
X187.5Y-126.4
X187.5Y-128.2
X187.5Y-130.0
X187.5Y-135.4
X187.5Y-137.2
X187.5Y-139.0
X187.5Y-140.8
X187.5Y-142.6
X187.5Y-144.4
X187.5Y-146.2
X187.5Y-148.0
X187.5Y-149.8
X187.5Y-151.6
X187.5Y-153.4
X187.5Y-155.2
X187.5Y-157.0
X187.5Y-158.8
X187.5Y-160.6
X187.5Y-162.4
X187.5Y-164.2
X187.5Y-166.0
X187.5Y-167.8
X187.5Y-169.6
X187.5Y-171.4
X187.5Y-173.2
X187.5Y-175.0
X188.9Y-55.0
X192.7Y-91.7
X192.7Y-93.5
X192.7Y-95.3
X192.7Y-97.1
X192.7Y-98.9
X192.7Y-100.7
X192.7Y-102.5
X192.7Y-104.3
X192.7Y-106.1
X192.7Y-107.9
X192.7Y-109.7
X192.7Y-111.5
X192.7Y-113.3
X192.7Y-115.1
X192.7Y-116.9
X192.7Y-118.7
X192.7Y-120.5
X192.7Y-122.3
X192.7Y-124.1
X192.7Y-125.9
X192.7Y-127.7
X192.7Y-129.5
X192.7Y-131.3
X192.7Y-134.9
X192.7Y-136.7
X192.7Y-138.5
X192.7Y-140.3
X192.7Y-142.1
X192.7Y-143.9
X192.7Y-145.7
X192.7Y-147.5
X192.7Y-149.3
X192.7Y-151.1
X192.7Y-152.9
X192.7Y-154.7
X192.7Y-156.5
X192.7Y-158.3
X192.7Y-160.1
X192.7Y-161.9
X192.7Y-163.7
X192.7Y-165.5
X192.7Y-167.3
X192.7Y-169.1
X192.7Y-170.9
X192.7Y-172.7
X192.7Y-174.5
X192.7Y-176.3
X192.7Y-178.1
X192.7Y-179.9
X192.7Y-181.7
X192.7Y-183.5
X192.7Y-185.3
X192.7Y-187.1
X192.7Y-188.9
X192.7Y-190.7
X192.7Y-192.5
X192.7Y-194.3
X192.7Y-196.1
X192.7Y-197.9
X192.7Y-199.7
X192.7Y-201.5
X192.7Y-203.3
X192.7Y-205.1
X192.7Y-206.9
X192.7Y-208.7
X193.16Y-55.0
X194.4Y-91.7
X194.4Y-93.5
X194.4Y-95.3
X194.4Y-97.1
X194.4Y-98.9
X194.4Y-100.7
X194.4Y-102.5
X194.4Y-104.3
X194.4Y-106.1
X194.4Y-107.9
X194.4Y-109.7
X194.4Y-111.5
X194.4Y-113.3
X194.4Y-115.1
X194.4Y-116.9
X194.4Y-118.7
X194.4Y-120.5
X194.4Y-122.3
X194.4Y-124.1
X194.4Y-125.9
X194.4Y-127.7
X194.4Y-129.5
X194.4Y-131.3
X194.4Y-134.9
X194.4Y-136.7
X194.4Y-138.5
X194.4Y-140.3
X194.4Y-142.1
X194.4Y-143.9
X194.4Y-145.7
X194.4Y-147.5
X194.4Y-149.3
X194.4Y-151.1
X194.4Y-152.9
X194.4Y-154.7
X194.4Y-156.5
X194.4Y-158.3
X194.4Y-160.1
X194.4Y-161.9
X194.4Y-163.7
X194.4Y-165.5
X194.4Y-167.3
X194.4Y-169.1
X194.4Y-170.9
X194.4Y-172.7
X194.4Y-174.5
X194.4Y-176.3
X194.4Y-178.1
X194.4Y-179.9
X194.4Y-181.7
X194.4Y-183.5
X194.4Y-185.3
X194.4Y-187.1
X194.4Y-188.9
X194.4Y-190.7
X194.4Y-192.5
X194.4Y-194.3
X194.4Y-196.1
X194.4Y-197.9
X194.4Y-199.7
X194.4Y-201.5
X194.4Y-203.3
X194.4Y-205.1
X194.4Y-206.9
X194.4Y-208.7
X196.2Y-91.7
X196.2Y-93.5
X196.2Y-95.3
X196.2Y-97.1
X196.2Y-98.9
X196.2Y-100.7
X196.2Y-102.5
X196.2Y-104.3
X196.2Y-106.1
X196.2Y-107.9
X196.2Y-109.7
X196.2Y-111.5
X196.2Y-113.3
X196.2Y-115.1
X196.2Y-116.9
X196.2Y-118.7
X196.2Y-120.5
X196.2Y-122.3
X196.2Y-124.1
X196.2Y-125.9
X196.2Y-127.7
X196.2Y-129.5
X196.2Y-131.3
X196.2Y-134.9
X196.2Y-136.7
X196.2Y-138.5
X196.2Y-140.3
X196.2Y-142.1
X196.2Y-143.9
X196.2Y-145.7
X196.2Y-147.5
X196.2Y-149.3
X196.2Y-151.1
X196.2Y-152.9
X196.2Y-154.7
X196.2Y-156.5
X196.2Y-158.3
X196.2Y-160.1
X196.2Y-161.9
X196.2Y-163.7
X196.2Y-165.5
X196.2Y-167.3
X196.2Y-169.1
X196.2Y-170.9
X196.2Y-172.7
X196.2Y-174.5
X196.2Y-176.3
X196.2Y-178.1
X196.2Y-179.9
X196.2Y-181.7
X196.2Y-183.5
X196.2Y-185.3
X196.2Y-187.1
X196.2Y-188.9
X196.2Y-190.7
X196.2Y-192.5
X196.2Y-194.3
X196.2Y-196.1
X196.2Y-197.9
X196.2Y-199.7
X196.2Y-201.5
X196.2Y-203.3
X196.2Y-205.1
X196.2Y-206.9
X196.2Y-208.7
X196.585Y-57.47
X197.9Y-91.7
X197.9Y-93.5
X197.9Y-95.3
X197.9Y-97.1
X197.9Y-98.9
X197.9Y-100.7
X197.9Y-102.5
X197.9Y-104.3
X197.9Y-106.1
X197.9Y-107.9
X197.9Y-109.7
X197.9Y-111.5
X197.9Y-113.3
X197.9Y-115.1
X197.9Y-116.9
X197.9Y-118.7
X197.9Y-120.5
X197.9Y-122.3
X197.9Y-124.1
X197.9Y-125.9
X197.9Y-127.7
X197.9Y-129.5
X197.9Y-131.3
X197.9Y-134.9
X197.9Y-136.7
X197.9Y-138.5
X197.9Y-140.3
X197.9Y-142.1
X197.9Y-143.9
X197.9Y-145.7
X197.9Y-147.5
X197.9Y-149.3
X197.9Y-151.1
X197.9Y-152.9
X197.9Y-154.7
X197.9Y-156.5
X197.9Y-158.3
X197.9Y-160.1
X197.9Y-161.9
X197.9Y-163.7
X197.9Y-165.5
X197.9Y-167.3
X197.9Y-169.1
X197.9Y-170.9
X197.9Y-172.7
X197.9Y-174.5
X197.9Y-176.3
X197.9Y-178.1
X197.9Y-179.9
X197.9Y-181.7
X197.9Y-183.5
X197.9Y-185.3
X197.9Y-187.1
X197.9Y-188.9
X197.9Y-190.7
X197.9Y-192.5
X197.9Y-194.3
X197.9Y-196.1
X197.9Y-197.9
X197.9Y-199.7
X197.9Y-201.5
X197.9Y-203.3
X197.9Y-205.1
X197.9Y-206.9
X197.9Y-208.7
X203.3Y-58.0
X203.3Y-59.8
X203.3Y-61.6
X203.3Y-63.4
X203.3Y-65.2
X203.3Y-67.0
X203.3Y-68.8
X203.3Y-70.6
X203.3Y-72.4
X203.3Y-74.2
X203.3Y-76.0
X203.3Y-77.8
X203.3Y-79.6
X203.3Y-81.4
X203.3Y-83.2
X203.3Y-85.0
X203.3Y-86.8
X203.3Y-88.6
X203.3Y-90.4
X203.3Y-92.2
X203.3Y-94.0
X203.3Y-95.8
X203.3Y-97.6
X203.3Y-99.4
X203.3Y-101.2
X203.3Y-103.0
X203.3Y-104.8
X203.3Y-106.6
X203.3Y-108.4
X203.3Y-110.2
X203.3Y-112.0
X203.3Y-113.8
X203.3Y-115.6
X203.3Y-117.4
X203.3Y-119.2
X203.3Y-121.0
X203.3Y-122.8
X203.3Y-124.6
X203.3Y-126.4
X203.3Y-128.2
X203.3Y-130.0
X203.3Y-135.4
X203.3Y-137.2
X203.3Y-139.0
X203.3Y-140.8
X203.3Y-142.6
X203.3Y-144.4
X203.3Y-146.2
X203.3Y-148.0
X203.3Y-149.8
X203.3Y-151.6
X203.3Y-153.4
X203.3Y-155.2
X203.3Y-157.0
X203.3Y-158.8
X203.3Y-160.6
X203.3Y-162.4
X203.3Y-164.2
X203.3Y-166.0
X203.3Y-167.8
X203.3Y-169.6
X203.3Y-171.4
X203.3Y-173.2
X203.3Y-175.0
X205.0Y-58.0
X205.0Y-59.8
X205.0Y-61.6
X205.0Y-63.4
X205.0Y-65.2
X205.0Y-67.0
X205.0Y-68.8
X205.0Y-70.6
X205.0Y-72.4
X205.0Y-74.2
X205.0Y-76.0
X205.0Y-77.8
X205.0Y-79.6
X205.0Y-81.4
X205.0Y-83.2
X205.0Y-85.0
X205.0Y-86.8
X205.0Y-88.6
X205.0Y-90.4
X205.0Y-92.2
X205.0Y-94.0
X205.0Y-95.8
X205.0Y-97.6
X205.0Y-99.4
X205.0Y-101.2
X205.0Y-103.0
X205.0Y-104.8
X205.0Y-106.6
X205.0Y-108.4
X205.0Y-110.2
X205.0Y-112.0
X205.0Y-113.8
X205.0Y-115.6
X205.0Y-117.4
X205.0Y-119.2
X205.0Y-121.0
X205.0Y-122.8
X205.0Y-124.6
X205.0Y-126.4
X205.0Y-128.2
X205.0Y-130.0
X205.0Y-135.4
X205.0Y-137.2
X205.0Y-139.0
X205.0Y-140.8
X205.0Y-142.6
X205.0Y-144.4
X205.0Y-146.2
X205.0Y-148.0
X205.0Y-149.8
X205.0Y-151.6
X205.0Y-153.4
X205.0Y-155.2
X205.0Y-157.0
X205.0Y-158.8
X205.0Y-160.6
X205.0Y-162.4
X205.0Y-164.2
X205.0Y-166.0
X205.0Y-167.8
X205.0Y-169.6
X205.0Y-171.4
X205.0Y-173.2
X205.0Y-175.0
X206.8Y-58.0
X206.8Y-59.8
X206.8Y-61.6
X206.8Y-63.4
X206.8Y-65.2
X206.8Y-67.0
X206.8Y-68.8
X206.8Y-70.6
X206.8Y-72.4
X206.8Y-74.2
X206.8Y-76.0
X206.8Y-77.8
X206.8Y-79.6
X206.8Y-81.4
X206.8Y-83.2
X206.8Y-85.0
X206.8Y-86.8
X206.8Y-88.6
X206.8Y-90.4
X206.8Y-92.2
X206.8Y-94.0
X206.8Y-95.8
X206.8Y-97.6
X206.8Y-99.4
X206.8Y-101.2
X206.8Y-103.0
X206.8Y-104.8
X206.8Y-106.6
X206.8Y-108.4
X206.8Y-110.2
X206.8Y-112.0
X206.8Y-113.8
X206.8Y-115.6
X206.8Y-117.4
X206.8Y-119.2
X206.8Y-121.0
X206.8Y-122.8
X206.8Y-124.6
X206.8Y-126.4
X206.8Y-128.2
X206.8Y-130.0
X206.8Y-135.4
X206.8Y-137.2
X206.8Y-139.0
X206.8Y-140.8
X206.8Y-142.6
X206.8Y-144.4
X206.8Y-146.2
X206.8Y-148.0
X206.8Y-149.8
X206.8Y-151.6
X206.8Y-153.4
X206.8Y-155.2
X206.8Y-157.0
X206.8Y-158.8
X206.8Y-160.6
X206.8Y-162.4
X206.8Y-164.2
X206.8Y-166.0
X206.8Y-167.8
X206.8Y-169.6
X206.8Y-171.4
X206.8Y-173.2
X206.8Y-175.0
X208.5Y-58.0
X208.5Y-59.8
X208.5Y-61.6
X208.5Y-63.4
X208.5Y-65.2
X208.5Y-67.0
X208.5Y-68.8
X208.5Y-70.6
X208.5Y-72.4
X208.5Y-74.2
X208.5Y-76.0
X208.5Y-77.8
X208.5Y-79.6
X208.5Y-81.4
X208.5Y-83.2
X208.5Y-85.0
X208.5Y-86.8
X208.5Y-88.6
X208.5Y-90.4
X208.5Y-92.2
X208.5Y-94.0
X208.5Y-95.8
X208.5Y-97.6
X208.5Y-99.4
X208.5Y-101.2
X208.5Y-103.0
X208.5Y-104.8
X208.5Y-106.6
X208.5Y-108.4
X208.5Y-110.2
X208.5Y-112.0
X208.5Y-113.8
X208.5Y-115.6
X208.5Y-117.4
X208.5Y-119.2
X208.5Y-121.0
X208.5Y-122.8
X208.5Y-124.6
X208.5Y-126.4
X208.5Y-128.2
X208.5Y-130.0
X208.5Y-135.4
X208.5Y-137.2
X208.5Y-139.0
X208.5Y-140.8
X208.5Y-142.6
X208.5Y-144.4
X208.5Y-146.2
X208.5Y-148.0
X208.5Y-149.8
X208.5Y-151.6
X208.5Y-153.4
X208.5Y-155.2
X208.5Y-157.0
X208.5Y-158.8
X208.5Y-160.6
X208.5Y-162.4
X208.5Y-164.2
X208.5Y-166.0
X208.5Y-167.8
X208.5Y-169.6
X208.5Y-171.4
X208.5Y-173.2
X208.5Y-175.0
X208.7Y-55.0
X213.9Y-91.8
X213.9Y-93.6
X213.9Y-95.4
X213.9Y-97.2
X213.9Y-99.0
X213.9Y-100.8
X213.9Y-102.6
X213.9Y-104.4
X213.9Y-106.2
X213.9Y-108.0
X213.9Y-109.8
X213.9Y-111.6
X213.9Y-113.4
X213.9Y-115.2
X213.9Y-117.0
X213.9Y-118.8
X213.9Y-120.6
X213.9Y-122.4
X213.9Y-124.2
X213.9Y-126.0
X213.9Y-127.8
X213.9Y-129.6
X213.9Y-131.4
X213.9Y-135.0
X213.9Y-136.8
X213.9Y-138.6
X213.9Y-140.4
X213.9Y-142.2
X213.9Y-144.0
X213.9Y-145.8
X213.9Y-147.6
X213.9Y-149.4
X213.9Y-151.2
X213.9Y-153.0
X213.9Y-154.8
X213.9Y-156.6
X213.9Y-158.4
X213.9Y-160.2
X213.9Y-162.0
X213.9Y-163.8
X213.9Y-165.6
X213.9Y-167.4
X213.9Y-169.2
X213.9Y-171.0
X213.9Y-172.8
X213.9Y-174.6
X213.9Y-176.4
X213.9Y-178.2
X213.9Y-180.0
X213.9Y-181.8
X213.9Y-183.6
X213.9Y-185.4
X213.9Y-187.2
X213.9Y-189.0
X213.9Y-190.8
X213.9Y-192.6
X213.9Y-194.4
X213.9Y-196.2
X213.9Y-198.0
X213.9Y-199.8
X213.9Y-201.6
X213.9Y-203.4
X213.9Y-205.2
X213.9Y-207.0
X213.9Y-208.8
X215.6Y-91.8
X215.6Y-93.6
X215.6Y-95.4
X215.6Y-97.2
X215.6Y-99.0
X215.6Y-100.8
X215.6Y-102.6
X215.6Y-104.4
X215.6Y-106.2
X215.6Y-108.0
X215.6Y-109.8
X215.6Y-111.6
X215.6Y-113.4
X215.6Y-115.2
X215.6Y-117.0
X215.6Y-118.8
X215.6Y-120.6
X215.6Y-122.4
X215.6Y-124.2
X215.6Y-126.0
X215.6Y-127.8
X215.6Y-129.6
X215.6Y-131.4
X215.6Y-135.0
X215.6Y-136.8
X215.6Y-138.6
X215.6Y-140.4
X215.6Y-142.2
X215.6Y-144.0
X215.6Y-145.8
X215.6Y-147.6
X215.6Y-149.4
X215.6Y-151.2
X215.6Y-153.0
X215.6Y-154.8
X215.6Y-156.6
X215.6Y-158.4
X215.6Y-160.2
X215.6Y-162.0
X215.6Y-163.8
X215.6Y-165.6
X215.6Y-167.4
X215.6Y-169.2
X215.6Y-171.0
X215.6Y-172.8
X215.6Y-174.6
X215.6Y-176.4
X215.6Y-178.2
X215.6Y-180.0
X215.6Y-181.8
X215.6Y-183.6
X215.6Y-185.4
X215.6Y-187.2
X215.6Y-189.0
X215.6Y-190.8
X215.6Y-192.6
X215.6Y-194.4
X215.6Y-196.2
X215.6Y-198.0
X215.6Y-199.8
X215.6Y-201.6
X215.6Y-203.4
X215.6Y-205.2
X215.6Y-207.0
X215.6Y-208.8
X217.4Y-91.8
X217.4Y-93.6
X217.4Y-95.4
X217.4Y-97.2
X217.4Y-99.0
X217.4Y-100.8
X217.4Y-102.6
X217.4Y-104.4
X217.4Y-106.2
X217.4Y-108.0
X217.4Y-109.8
X217.4Y-111.6
X217.4Y-113.4
X217.4Y-115.2
X217.4Y-117.0
X217.4Y-118.8
X217.4Y-120.6
X217.4Y-122.4
X217.4Y-124.2
X217.4Y-126.0
X217.4Y-127.8
X217.4Y-129.6
X217.4Y-131.4
X217.4Y-135.0
X217.4Y-136.8
X217.4Y-138.6
X217.4Y-140.4
X217.4Y-142.2
X217.4Y-144.0
X217.4Y-145.8
X217.4Y-147.6
X217.4Y-149.4
X217.4Y-151.2
X217.4Y-153.0
X217.4Y-154.8
X217.4Y-156.6
X217.4Y-158.4
X217.4Y-160.2
X217.4Y-162.0
X217.4Y-163.8
X217.4Y-165.6
X217.4Y-167.4
X217.4Y-169.2
X217.4Y-171.0
X217.4Y-172.8
X217.4Y-174.6
X217.4Y-176.4
X217.4Y-178.2
X217.4Y-180.0
X217.4Y-181.8
X217.4Y-183.6
X217.4Y-185.4
X217.4Y-187.2
X217.4Y-189.0
X217.4Y-190.8
X217.4Y-192.6
X217.4Y-194.4
X217.4Y-196.2
X217.4Y-198.0
X217.4Y-199.8
X217.4Y-201.6
X217.4Y-203.4
X217.4Y-205.2
X217.4Y-207.0
X217.4Y-208.8
X217.72Y-57.53
X219.1Y-91.8
X219.1Y-93.6
X219.1Y-95.4
X219.1Y-97.2
X219.1Y-99.0
X219.1Y-100.8
X219.1Y-102.6
X219.1Y-104.4
X219.1Y-106.2
X219.1Y-108.0
X219.1Y-109.8
X219.1Y-111.6
X219.1Y-113.4
X219.1Y-115.2
X219.1Y-117.0
X219.1Y-118.8
X219.1Y-120.6
X219.1Y-122.4
X219.1Y-124.2
X219.1Y-126.0
X219.1Y-127.8
X219.1Y-129.6
X219.1Y-131.4
X219.1Y-135.0
X219.1Y-136.8
X219.1Y-138.6
X219.1Y-140.4
X219.1Y-142.2
X219.1Y-144.0
X219.1Y-145.8
X219.1Y-147.6
X219.1Y-149.4
X219.1Y-151.2
X219.1Y-153.0
X219.1Y-154.8
X219.1Y-156.6
X219.1Y-158.4
X219.1Y-160.2
X219.1Y-162.0
X219.1Y-163.8
X219.1Y-165.6
X219.1Y-167.4
X219.1Y-169.2
X219.1Y-171.0
X219.1Y-172.8
X219.1Y-174.6
X219.1Y-176.4
X219.1Y-178.2
X219.1Y-180.0
X219.1Y-181.8
X219.1Y-183.6
X219.1Y-185.4
X219.1Y-187.2
X219.1Y-189.0
X219.1Y-190.8
X219.1Y-192.6
X219.1Y-194.4
X219.1Y-196.2
X219.1Y-198.0
X219.1Y-199.8
X219.1Y-201.6
X219.1Y-203.4
X219.1Y-205.2
X219.1Y-207.0
X219.1Y-208.8
X224.5Y-58.1
X224.5Y-59.9
X224.5Y-61.7
X224.5Y-63.5
X224.5Y-65.3
X224.5Y-67.1
X224.5Y-68.9
X224.5Y-70.7
X224.5Y-72.5
X224.5Y-74.3
X224.5Y-76.1
X224.5Y-77.9
X224.5Y-79.7
X224.5Y-81.5
X224.5Y-83.3
X224.5Y-85.1
X224.5Y-86.9
X224.5Y-88.7
X224.5Y-90.5
X224.5Y-92.3
X224.5Y-94.1
X224.5Y-95.9
X224.5Y-97.7
X224.5Y-99.5
X224.5Y-101.3
X224.5Y-103.1
X224.5Y-104.9
X224.5Y-106.7
X224.5Y-108.5
X224.5Y-110.3
X224.5Y-112.1
X224.5Y-113.9
X224.5Y-115.7
X224.5Y-117.5
X224.5Y-119.3
X224.5Y-121.1
X224.5Y-122.9
X224.5Y-124.7
X224.5Y-126.5
X224.5Y-128.3
X224.5Y-130.1
X224.5Y-135.5
X224.5Y-137.3
X224.5Y-139.1
X224.5Y-140.9
X224.5Y-142.7
X224.5Y-144.5
X224.5Y-146.3
X224.5Y-148.1
X224.5Y-149.9
X224.5Y-151.7
X224.5Y-153.5
X224.5Y-155.3
X224.5Y-157.1
X224.5Y-158.9
X224.5Y-160.7
X224.5Y-162.5
X224.5Y-164.3
X224.5Y-166.1
X224.5Y-167.9
X224.5Y-169.7
X224.5Y-171.5
X224.5Y-173.3
X224.5Y-175.1
X226.2Y-58.1
X226.2Y-59.9
X226.2Y-61.7
X226.2Y-63.5
X226.2Y-65.3
X226.2Y-67.1
X226.2Y-68.9
X226.2Y-70.7
X226.2Y-72.5
X226.2Y-74.3
X226.2Y-76.1
X226.2Y-77.9
X226.2Y-79.7
X226.2Y-81.5
X226.2Y-83.3
X226.2Y-85.1
X226.2Y-86.9
X226.2Y-88.7
X226.2Y-90.5
X226.2Y-92.3
X226.2Y-94.1
X226.2Y-95.9
X226.2Y-97.7
X226.2Y-99.5
X226.2Y-101.3
X226.2Y-103.1
X226.2Y-104.9
X226.2Y-106.7
X226.2Y-108.5
X226.2Y-110.3
X226.2Y-112.1
X226.2Y-113.9
X226.2Y-115.7
X226.2Y-117.5
X226.2Y-119.3
X226.2Y-121.1
X226.2Y-122.9
X226.2Y-124.7
X226.2Y-126.5
X226.2Y-128.3
X226.2Y-130.1
X226.2Y-135.5
X226.2Y-137.3
X226.2Y-139.1
X226.2Y-140.9
X226.2Y-142.7
X226.2Y-144.5
X226.2Y-146.3
X226.2Y-148.1
X226.2Y-149.9
X226.2Y-151.7
X226.2Y-153.5
X226.2Y-155.3
X226.2Y-157.1
X226.2Y-158.9
X226.2Y-160.7
X226.2Y-162.5
X226.2Y-164.3
X226.2Y-166.1
X226.2Y-167.9
X226.2Y-169.7
X226.2Y-171.5
X226.2Y-173.3
X226.2Y-175.1
X228.0Y-58.1
X228.0Y-59.9
X228.0Y-61.7
X228.0Y-63.5
X228.0Y-65.3
X228.0Y-67.1
X228.0Y-68.9
X228.0Y-70.7
X228.0Y-72.5
X228.0Y-74.3
X228.0Y-76.1
X228.0Y-77.9
X228.0Y-79.7
X228.0Y-81.5
X228.0Y-83.3
X228.0Y-85.1
X228.0Y-86.9
X228.0Y-88.7
X228.0Y-90.5
X228.0Y-92.3
X228.0Y-94.1
X228.0Y-95.9
X228.0Y-97.7
X228.0Y-99.5
X228.0Y-101.3
X228.0Y-103.1
X228.0Y-104.9
X228.0Y-106.7
X228.0Y-108.5
X228.0Y-110.3
X228.0Y-112.1
X228.0Y-113.9
X228.0Y-115.7
X228.0Y-117.5
X228.0Y-119.3
X228.0Y-121.1
X228.0Y-122.9
X228.0Y-124.7
X228.0Y-126.5
X228.0Y-128.3
X228.0Y-130.1
X228.0Y-135.5
X228.0Y-137.3
X228.0Y-139.1
X228.0Y-140.9
X228.0Y-142.7
X228.0Y-144.5
X228.0Y-146.3
X228.0Y-148.1
X228.0Y-149.9
X228.0Y-151.7
X228.0Y-153.5
X228.0Y-155.3
X228.0Y-157.1
X228.0Y-158.9
X228.0Y-160.7
X228.0Y-162.5
X228.0Y-164.3
X228.0Y-166.1
X228.0Y-167.9
X228.0Y-169.7
X228.0Y-171.5
X228.0Y-173.3
X228.0Y-175.1
X229.3Y-55.0
X229.7Y-58.1
X229.7Y-59.9
X229.7Y-61.7
X229.7Y-63.5
X229.7Y-65.3
X229.7Y-67.1
X229.7Y-68.9
X229.7Y-70.7
X229.7Y-72.5
X229.7Y-74.3
X229.7Y-76.1
X229.7Y-77.9
X229.7Y-79.7
X229.7Y-81.5
X229.7Y-83.3
X229.7Y-85.1
X229.7Y-86.9
X229.7Y-88.7
X229.7Y-90.5
X229.7Y-92.3
X229.7Y-94.1
X229.7Y-95.9
X229.7Y-97.7
X229.7Y-99.5
X229.7Y-101.3
X229.7Y-103.1
X229.7Y-104.9
X229.7Y-106.7
X229.7Y-108.5
X229.7Y-110.3
X229.7Y-112.1
X229.7Y-113.9
X229.7Y-115.7
X229.7Y-117.5
X229.7Y-119.3
X229.7Y-121.1
X229.7Y-122.9
X229.7Y-124.7
X229.7Y-126.5
X229.7Y-128.3
X229.7Y-130.1
X229.7Y-135.5
X229.7Y-137.3
X229.7Y-139.1
X229.7Y-140.9
X229.7Y-142.7
X229.7Y-144.5
X229.7Y-146.3
X229.7Y-148.1
X229.7Y-149.9
X229.7Y-151.7
X229.7Y-153.5
X229.7Y-155.3
X229.7Y-157.1
X229.7Y-158.9
X229.7Y-160.7
X229.7Y-162.5
X229.7Y-164.3
X229.7Y-166.1
X229.7Y-167.9
X229.7Y-169.7
X229.7Y-171.5
X229.7Y-173.3
X229.7Y-175.1
X234.3Y-89.0
X235.1Y-91.8
X235.1Y-93.6
X235.1Y-95.4
X235.1Y-97.2
X235.1Y-99.0
X235.1Y-100.8
X235.1Y-102.6
X235.1Y-104.4
X235.1Y-106.2
X235.1Y-108.0
X235.1Y-109.8
X235.1Y-111.6
X235.1Y-113.4
X235.1Y-115.2
X235.1Y-117.0
X235.1Y-118.8
X235.1Y-120.6
X235.1Y-122.4
X235.1Y-124.2
X235.1Y-126.0
X235.1Y-127.8
X235.1Y-129.6
X235.1Y-131.4
X235.1Y-135.0
X235.1Y-136.8
X235.1Y-138.6
X235.1Y-140.4
X235.1Y-142.2
X235.1Y-144.0
X235.1Y-145.8
X235.1Y-147.6
X235.1Y-149.4
X235.1Y-151.2
X235.1Y-153.0
X235.1Y-154.8
X235.1Y-156.6
X235.1Y-158.4
X235.1Y-160.2
X235.1Y-162.0
X235.1Y-163.8
X235.1Y-165.6
X235.1Y-167.4
X235.1Y-169.2
X235.1Y-171.0
X235.1Y-172.8
X235.1Y-174.6
X235.1Y-176.4
X235.1Y-178.2
X235.1Y-180.0
X235.1Y-181.8
X235.1Y-183.6
X235.1Y-185.4
X235.1Y-187.2
X235.1Y-189.0
X235.1Y-190.8
X235.1Y-192.6
X235.1Y-194.4
X235.1Y-196.2
X235.1Y-198.0
X235.1Y-199.8
X235.1Y-201.6
X235.1Y-203.4
X235.1Y-205.2
X235.1Y-207.0
X235.1Y-208.8
X236.8Y-91.8
X236.8Y-93.6
X236.8Y-95.4
X236.8Y-97.2
X236.8Y-99.0
X236.8Y-100.8
X236.8Y-102.6
X236.8Y-104.4
X236.8Y-106.2
X236.8Y-108.0
X236.8Y-109.8
X236.8Y-111.6
X236.8Y-113.4
X236.8Y-115.2
X236.8Y-117.0
X236.8Y-118.8
X236.8Y-120.6
X236.8Y-122.4
X236.8Y-124.2
X236.8Y-126.0
X236.8Y-127.8
X236.8Y-129.6
X236.8Y-131.4
X236.8Y-135.0
X236.8Y-136.8
X236.8Y-138.6
X236.8Y-140.4
X236.8Y-142.2
X236.8Y-144.0
X236.8Y-145.8
X236.8Y-147.6
X236.8Y-149.4
X236.8Y-151.2
X236.8Y-153.0
X236.8Y-154.8
X236.8Y-156.6
X236.8Y-158.4
X236.8Y-160.2
X236.8Y-162.0
X236.8Y-163.8
X236.8Y-165.6
X236.8Y-167.4
X236.8Y-169.2
X236.8Y-171.0
X236.8Y-172.8
X236.8Y-174.6
X236.8Y-176.4
X236.8Y-178.2
X236.8Y-180.0
X236.8Y-181.8
X236.8Y-183.6
X236.8Y-185.4
X236.8Y-187.2
X236.8Y-189.0
X236.8Y-190.8
X236.8Y-192.6
X236.8Y-194.4
X236.8Y-196.2
X236.8Y-198.0
X236.8Y-199.8
X236.8Y-201.6
X236.8Y-203.4
X236.8Y-205.2
X236.8Y-207.0
X236.8Y-208.8
X238.6Y-91.8
X238.6Y-93.6
X238.6Y-95.4
X238.6Y-97.2
X238.6Y-99.0
X238.6Y-100.8
X238.6Y-102.6
X238.6Y-104.4
X238.6Y-106.2
X238.6Y-108.0
X238.6Y-109.8
X238.6Y-111.6
X238.6Y-113.4
X238.6Y-115.2
X238.6Y-117.0
X238.6Y-118.8
X238.6Y-120.6
X238.6Y-122.4
X238.6Y-124.2
X238.6Y-126.0
X238.6Y-127.8
X238.6Y-129.6
X238.6Y-131.4
X238.6Y-135.0
X238.6Y-136.8
X238.6Y-138.6
X238.6Y-140.4
X238.6Y-156.6
X238.6Y-158.4
X238.6Y-160.2
X238.6Y-162.0
X238.6Y-176.4
X238.6Y-178.2
X238.6Y-180.0
X238.6Y-181.8
X238.6Y-183.6
X238.6Y-185.4
X238.6Y-187.2
X238.6Y-189.0
X238.6Y-190.8
X238.6Y-192.6
X238.6Y-194.4
X238.6Y-196.2
X238.6Y-198.0
X238.6Y-199.8
X238.6Y-201.6
X238.6Y-203.4
X238.6Y-205.2
X238.6Y-207.0
X238.6Y-208.8
X240.3Y-91.8
X240.3Y-93.6
X240.3Y-95.4
X240.3Y-97.2
X240.3Y-99.0
X240.3Y-100.8
X240.3Y-102.6
X240.3Y-104.4
X240.3Y-106.2
X240.3Y-108.0
X240.3Y-109.8
X240.3Y-111.6
X240.3Y-113.4
X240.3Y-115.2
X240.3Y-117.0
X240.3Y-118.8
X240.3Y-120.6
X240.3Y-122.4
X240.3Y-124.2
X240.3Y-126.0
X240.3Y-127.8
X240.3Y-129.6
X240.3Y-131.4
X240.3Y-135.0
X240.3Y-136.8
X240.3Y-138.6
X240.3Y-140.4
X240.3Y-156.6
X240.3Y-158.4
X240.3Y-160.2
X240.3Y-162.0
X240.3Y-176.4
X240.3Y-178.2
X240.3Y-180.0
X240.3Y-181.8
X240.3Y-183.6
X240.3Y-185.4
X240.3Y-187.2
X240.3Y-189.0
X240.3Y-190.8
X240.3Y-192.6
X240.3Y-194.4
X240.3Y-196.2
X240.3Y-198.0
X240.3Y-199.8
X240.3Y-201.6
X240.3Y-203.4
X240.3Y-205.2
X240.3Y-207.0
X240.3Y-208.8
T2
X103.83Y-47.46
X103.83Y-50.0
X106.37Y-47.46
X106.37Y-50.0
X108.91Y-47.46
X108.91Y-50.0
X111.45Y-47.46
X111.45Y-50.0
X113.99Y-47.46
X113.99Y-50.0
X116.53Y-47.46
X116.53Y-50.0
X119.07Y-47.46
X119.07Y-50.0
X121.61Y-47.46
X121.61Y-50.0
X124.15Y-47.46
X124.15Y-50.0
X153.83Y-47.46
X153.83Y-50.0
X156.37Y-47.46
X156.37Y-50.0
X158.91Y-47.46
X158.91Y-50.0
X161.45Y-47.46
X161.45Y-50.0
X163.99Y-47.46
X163.99Y-50.0
X166.53Y-47.46
X166.53Y-50.0
X169.07Y-47.46
X169.07Y-50.0
X171.61Y-47.46
X171.61Y-50.0
X174.15Y-47.46
X174.15Y-50.0
X203.83Y-47.46
X203.83Y-50.0
X206.37Y-47.46
X206.37Y-50.0
X208.91Y-47.46
X208.91Y-50.0
X211.45Y-47.46
X211.45Y-50.0
X213.99Y-47.46
X213.99Y-50.0
X216.53Y-47.46
X216.53Y-50.0
X219.07Y-47.46
X219.07Y-50.0
X221.61Y-47.46
X221.61Y-50.0
X224.15Y-47.46
X224.15Y-50.0
T3
X79.22Y-143.52
X79.22Y-146.06
X79.22Y-148.6
X79.22Y-151.14
X79.22Y-153.68
X79.22Y-163.52
X79.22Y-166.06
X79.22Y-168.6
X79.22Y-171.14
X79.22Y-173.68
X81.76Y-143.52
X81.76Y-146.06
X81.76Y-148.6
X81.76Y-151.14
X81.76Y-153.68
X81.76Y-163.52
X81.76Y-166.06
X81.76Y-168.6
X81.76Y-171.14
X81.76Y-173.68
X84.3Y-143.52
X84.3Y-146.06
X84.3Y-148.6
X84.3Y-151.14
X84.3Y-153.68
X84.3Y-163.52
X84.3Y-166.06
X84.3Y-168.6
X84.3Y-171.14
X84.3Y-173.68
X86.84Y-143.52
X86.84Y-146.06
X86.84Y-148.6
X86.84Y-151.14
X86.84Y-153.68
X86.84Y-163.52
X86.84Y-166.06
X86.84Y-168.6
X86.84Y-171.14
X86.84Y-173.68
X89.38Y-143.52
X89.38Y-146.06
X89.38Y-148.6
X89.38Y-151.14
X89.38Y-153.68
X89.38Y-163.52
X89.38Y-166.06
X89.38Y-168.6
X89.38Y-171.14
X89.38Y-173.68
X238.32Y-143.52
X238.32Y-146.06
X238.32Y-148.6
X238.32Y-151.14
X238.32Y-153.68
X238.32Y-163.52
X238.32Y-166.06
X238.32Y-168.6
X238.32Y-171.14
X238.32Y-173.68
X240.86Y-143.52
X240.86Y-146.06
X240.86Y-148.6
X240.86Y-151.14
X240.86Y-153.68
X240.86Y-163.52
X240.86Y-166.06
X240.86Y-168.6
X240.86Y-171.14
X240.86Y-173.68
X243.4Y-143.52
X243.4Y-146.06
X243.4Y-148.6
X243.4Y-151.14
X243.4Y-153.68
X243.4Y-163.52
X243.4Y-166.06
X243.4Y-168.6
X243.4Y-171.14
X243.4Y-173.68
X245.94Y-143.52
X245.94Y-146.06
X245.94Y-148.6
X245.94Y-151.14
X245.94Y-153.68
X245.94Y-163.52
X245.94Y-166.06
X245.94Y-168.6
X245.94Y-171.14
X245.94Y-173.68
X248.48Y-143.52
X248.48Y-146.06
X248.48Y-148.6
X248.48Y-151.14
X248.48Y-153.68
X248.48Y-163.52
X248.48Y-166.06
X248.48Y-168.6
X248.48Y-171.14
X248.48Y-173.68
M30
