G04 #@! TF.GenerationSoftware,KiCad,Pcbnew,9.0.5*
G04 #@! TF.CreationDate,2025-11-12T01:12:09-05:00*
G04 #@! TF.ProjectId,Power Board,506f7765-7220-4426-9f61-72642e6b6963,rev?*
G04 #@! TF.SameCoordinates,Original*
G04 #@! TF.FileFunction,Copper,L3,Inr*
G04 #@! TF.FilePolarity,Positive*
%FSLAX46Y46*%
G04 Gerber Fmt 4.6, Leading zero omitted, Abs format (unit mm)*
G04 Created by KiCad (PCBNEW 9.0.5) date 2025-11-12 01:12:09*
%MOMM*%
%LPD*%
G01*
G04 APERTURE LIST*
G04 #@! TA.AperFunction,ComponentPad*
%ADD10C,2.000000*%
G04 #@! TD*
G04 #@! TA.AperFunction,ComponentPad*
%ADD11R,1.700000X1.700000*%
G04 #@! TD*
G04 #@! TA.AperFunction,ComponentPad*
%ADD12C,1.700000*%
G04 #@! TD*
G04 #@! TA.AperFunction,ViaPad*
%ADD13C,0.600000*%
G04 #@! TD*
G04 APERTURE END LIST*
D10*
G04 #@! TO.N,GND*
G04 #@! TO.C,U17*
X238320000Y-143520000D03*
X238320000Y-146060000D03*
X238320000Y-148600000D03*
X238320000Y-151140000D03*
X238320000Y-153680000D03*
X240860000Y-143520000D03*
X240860000Y-146060000D03*
X240860000Y-148600000D03*
X240860000Y-151140000D03*
X240860000Y-153680000D03*
X243400000Y-143520000D03*
X243400000Y-146060000D03*
X243400000Y-148600000D03*
X243400000Y-151140000D03*
X243400000Y-153680000D03*
X245940000Y-143520000D03*
X245940000Y-146060000D03*
X245940000Y-148600000D03*
X245940000Y-151140000D03*
X245940000Y-153680000D03*
X248480000Y-143520000D03*
X248480000Y-146060000D03*
X248480000Y-148600000D03*
X248480000Y-151140000D03*
X248480000Y-153680000D03*
G04 #@! TD*
G04 #@! TO.N,GND*
G04 #@! TO.C,U16*
X238320000Y-163520000D03*
X238320000Y-166060000D03*
X238320000Y-168600000D03*
X238320000Y-171140000D03*
X238320000Y-173680000D03*
X240860000Y-163520000D03*
X240860000Y-166060000D03*
X240860000Y-168600000D03*
X240860000Y-171140000D03*
X240860000Y-173680000D03*
X243400000Y-163520000D03*
X243400000Y-166060000D03*
X243400000Y-168600000D03*
X243400000Y-171140000D03*
X243400000Y-173680000D03*
X245940000Y-163520000D03*
X245940000Y-166060000D03*
X245940000Y-168600000D03*
X245940000Y-171140000D03*
X245940000Y-173680000D03*
X248480000Y-163520000D03*
X248480000Y-166060000D03*
X248480000Y-168600000D03*
X248480000Y-171140000D03*
X248480000Y-173680000D03*
G04 #@! TD*
D11*
G04 #@! TO.N,GND*
G04 #@! TO.C,J3*
X224150000Y-50000000D03*
D12*
X224150000Y-47460000D03*
X221610000Y-50000000D03*
X221610000Y-47460000D03*
G04 #@! TO.N,/TH_7_D*
X219070000Y-50000000D03*
G04 #@! TO.N,/TH_7_C*
X219070000Y-47460000D03*
G04 #@! TO.N,/TH_7_B*
X216530000Y-50000000D03*
G04 #@! TO.N,/TH_7_A*
X216530000Y-47460000D03*
G04 #@! TO.N,GND*
X213990000Y-50000000D03*
G04 #@! TO.N,/TH_6_D*
X213990000Y-47460000D03*
G04 #@! TO.N,/TH_6_C*
X211450000Y-50000000D03*
G04 #@! TO.N,/TH_6_B*
X211450000Y-47460000D03*
G04 #@! TO.N,/TH_6_A*
X208910000Y-50000000D03*
G04 #@! TO.N,GND*
X208910000Y-47460000D03*
G04 #@! TO.N,/TH_5_D*
X206370000Y-50000000D03*
G04 #@! TO.N,/TH_5_C*
X206370000Y-47460000D03*
G04 #@! TO.N,/TH_5_B*
X203830000Y-50000000D03*
G04 #@! TO.N,/TH_5_A*
X203830000Y-47460000D03*
G04 #@! TD*
D10*
G04 #@! TO.N,/CELL_14*
G04 #@! TO.C,U18*
X79220000Y-143520000D03*
X79220000Y-146060000D03*
X79220000Y-148600000D03*
X79220000Y-151140000D03*
X79220000Y-153680000D03*
X81760000Y-143520000D03*
X81760000Y-146060000D03*
X81760000Y-148600000D03*
X81760000Y-151140000D03*
X81760000Y-153680000D03*
X84300000Y-143520000D03*
X84300000Y-146060000D03*
X84300000Y-148600000D03*
X84300000Y-151140000D03*
X84300000Y-153680000D03*
X86840000Y-143520000D03*
X86840000Y-146060000D03*
X86840000Y-148600000D03*
X86840000Y-151140000D03*
X86840000Y-153680000D03*
X89380000Y-143520000D03*
X89380000Y-146060000D03*
X89380000Y-148600000D03*
X89380000Y-151140000D03*
X89380000Y-153680000D03*
G04 #@! TD*
D11*
G04 #@! TO.N,GND*
G04 #@! TO.C,J1*
X174150000Y-50000000D03*
D12*
X174150000Y-47460000D03*
G04 #@! TO.N,/CELL_0_SIG*
X171610000Y-50000000D03*
G04 #@! TO.N,/CELL_1*
X171610000Y-47460000D03*
G04 #@! TO.N,/CELL_2*
X169070000Y-50000000D03*
G04 #@! TO.N,/CELL_3*
X169070000Y-47460000D03*
G04 #@! TO.N,/CELL_4*
X166530000Y-50000000D03*
G04 #@! TO.N,/CELL_5*
X166530000Y-47460000D03*
G04 #@! TO.N,/CELL_6*
X163990000Y-50000000D03*
G04 #@! TO.N,/CELL_7*
X163990000Y-47460000D03*
G04 #@! TO.N,/CELL_8*
X161450000Y-50000000D03*
G04 #@! TO.N,/CELL_9*
X161450000Y-47460000D03*
G04 #@! TO.N,/CELL_10*
X158910000Y-50000000D03*
G04 #@! TO.N,/CELL_11*
X158910000Y-47460000D03*
G04 #@! TO.N,/CELL_12*
X156370000Y-50000000D03*
G04 #@! TO.N,/CELL_13*
X156370000Y-47460000D03*
G04 #@! TO.N,/CELL_14_SIG*
X153830000Y-50000000D03*
G04 #@! TO.N,/CELL_14*
X153830000Y-47460000D03*
G04 #@! TD*
D10*
G04 #@! TO.N,/CELL_14*
G04 #@! TO.C,U19*
X79220000Y-163520000D03*
X79220000Y-166060000D03*
X79220000Y-168600000D03*
X79220000Y-171140000D03*
X79220000Y-173680000D03*
X81760000Y-163520000D03*
X81760000Y-166060000D03*
X81760000Y-168600000D03*
X81760000Y-171140000D03*
X81760000Y-173680000D03*
X84300000Y-163520000D03*
X84300000Y-166060000D03*
X84300000Y-168600000D03*
X84300000Y-171140000D03*
X84300000Y-173680000D03*
X86840000Y-163520000D03*
X86840000Y-166060000D03*
X86840000Y-168600000D03*
X86840000Y-171140000D03*
X86840000Y-173680000D03*
X89380000Y-163520000D03*
X89380000Y-166060000D03*
X89380000Y-168600000D03*
X89380000Y-171140000D03*
X89380000Y-173680000D03*
G04 #@! TD*
D11*
G04 #@! TO.N,/TH_4_C*
G04 #@! TO.C,J2*
X124150000Y-50000000D03*
D12*
G04 #@! TO.N,/TH_4_D*
X124150000Y-47460000D03*
G04 #@! TO.N,/TH_4_A*
X121610000Y-50000000D03*
G04 #@! TO.N,/TH_4_B*
X121610000Y-47460000D03*
G04 #@! TO.N,/TH_3_C*
X119070000Y-50000000D03*
G04 #@! TO.N,/TH_3_D*
X119070000Y-47460000D03*
G04 #@! TO.N,/TH_3_A*
X116530000Y-50000000D03*
G04 #@! TO.N,/TH_3_B*
X116530000Y-47460000D03*
G04 #@! TO.N,GND*
X113990000Y-50000000D03*
G04 #@! TO.N,/TH_2_D*
X113990000Y-47460000D03*
G04 #@! TO.N,/TH_2_C*
X111450000Y-50000000D03*
G04 #@! TO.N,/TH_2_B*
X111450000Y-47460000D03*
G04 #@! TO.N,/TH_2_A*
X108910000Y-50000000D03*
G04 #@! TO.N,GND*
X108910000Y-47460000D03*
G04 #@! TO.N,/TH_1_D*
X106370000Y-50000000D03*
G04 #@! TO.N,/TH_1_C*
X106370000Y-47460000D03*
G04 #@! TO.N,/TH_1_B*
X103830000Y-50000000D03*
G04 #@! TO.N,/TH_1_A*
X103830000Y-47460000D03*
G04 #@! TD*
D13*
G04 #@! TO.N,/CELL_13*
X99600000Y-124700000D03*
X103100000Y-72500000D03*
X101400000Y-99500000D03*
X97900000Y-126500000D03*
X103100000Y-155300000D03*
X97900000Y-164300000D03*
X101400000Y-166100000D03*
X103100000Y-83300000D03*
X101400000Y-108500000D03*
X97900000Y-59900000D03*
X97900000Y-146300000D03*
X103100000Y-90500000D03*
X99600000Y-128300000D03*
X97900000Y-63500000D03*
X103100000Y-88700000D03*
X103100000Y-128300000D03*
X101400000Y-144500000D03*
X99600000Y-117500000D03*
X99600000Y-122900000D03*
X97900000Y-137300000D03*
X103100000Y-140900000D03*
X99600000Y-144500000D03*
X101400000Y-61700000D03*
X97900000Y-173300000D03*
X101400000Y-94100000D03*
X101400000Y-122900000D03*
X97900000Y-79700000D03*
X99600000Y-67100000D03*
X103100000Y-106700000D03*
X101400000Y-63500000D03*
X99600000Y-90500000D03*
X103100000Y-94100000D03*
X103100000Y-153500000D03*
X99600000Y-162500000D03*
X99600000Y-74300000D03*
X101400000Y-162500000D03*
X103100000Y-149900000D03*
X97900000Y-135500000D03*
X103100000Y-135500000D03*
X97900000Y-158900000D03*
X97900000Y-162500000D03*
X99600000Y-113900000D03*
X103100000Y-104900000D03*
X103100000Y-108500000D03*
X103100000Y-142700000D03*
X99600000Y-155300000D03*
X99600000Y-97700000D03*
X103100000Y-166100000D03*
X101400000Y-113900000D03*
X101400000Y-119300000D03*
X99600000Y-115700000D03*
X103100000Y-151700000D03*
X99600000Y-151700000D03*
X101400000Y-169700000D03*
X101400000Y-65300000D03*
X103100000Y-112100000D03*
X97900000Y-142700000D03*
X101400000Y-135500000D03*
X97900000Y-115700000D03*
X97900000Y-112100000D03*
X103100000Y-126500000D03*
X101400000Y-149900000D03*
X103100000Y-121100000D03*
X99600000Y-169700000D03*
X99600000Y-79700000D03*
X97900000Y-92300000D03*
X99600000Y-160700000D03*
X103100000Y-74300000D03*
X99600000Y-153500000D03*
X101400000Y-148100000D03*
X97900000Y-77900000D03*
X99600000Y-130100000D03*
X103100000Y-103100000D03*
X103100000Y-160700000D03*
X97900000Y-144500000D03*
X99600000Y-99500000D03*
X101400000Y-164300000D03*
X101400000Y-95900000D03*
X99600000Y-112100000D03*
X103100000Y-167900000D03*
X103100000Y-86900000D03*
X97900000Y-81500000D03*
X101400000Y-167900000D03*
X103100000Y-122900000D03*
X103100000Y-65300000D03*
X97900000Y-61700000D03*
X101400000Y-70700000D03*
X103100000Y-113900000D03*
X97900000Y-74300000D03*
X99600000Y-76100000D03*
X101400000Y-92300000D03*
X101400000Y-106700000D03*
X101400000Y-175100000D03*
X97900000Y-167900000D03*
X101400000Y-72500000D03*
X103100000Y-59900000D03*
X99600000Y-83300000D03*
X101400000Y-81500000D03*
X101400000Y-121100000D03*
X97900000Y-72500000D03*
X99600000Y-86900000D03*
X99600000Y-104900000D03*
X101400000Y-146300000D03*
X97900000Y-65300000D03*
X103100000Y-115700000D03*
X103100000Y-139100000D03*
X97900000Y-68900000D03*
X101400000Y-86900000D03*
X103100000Y-61700000D03*
X103100000Y-70700000D03*
X103100000Y-63500000D03*
X101400000Y-160700000D03*
X101400000Y-58100000D03*
X103100000Y-124700000D03*
X97900000Y-95900000D03*
X103100000Y-169700000D03*
X99600000Y-140900000D03*
X103100000Y-148100000D03*
X97900000Y-157100000D03*
X103100000Y-144500000D03*
X101400000Y-88700000D03*
X101400000Y-151700000D03*
X97900000Y-106700000D03*
X99600000Y-68900000D03*
X99600000Y-139100000D03*
X103100000Y-130100000D03*
X101400000Y-126500000D03*
X101400000Y-115700000D03*
X97900000Y-175100000D03*
X97900000Y-104900000D03*
X97900000Y-153500000D03*
X97900000Y-160700000D03*
X97900000Y-99500000D03*
X99600000Y-65300000D03*
X101400000Y-90500000D03*
X99600000Y-110300000D03*
X99600000Y-103100000D03*
X99600000Y-149900000D03*
X101400000Y-140900000D03*
X103100000Y-157100000D03*
X101400000Y-103100000D03*
X97900000Y-121100000D03*
X99600000Y-166100000D03*
X97900000Y-166100000D03*
X103100000Y-97700000D03*
X101400000Y-79700000D03*
X97900000Y-94100000D03*
X103100000Y-119300000D03*
X97900000Y-119300000D03*
X99600000Y-137300000D03*
X97900000Y-103100000D03*
X99600000Y-85100000D03*
X101400000Y-110300000D03*
X99600000Y-59900000D03*
X101400000Y-157100000D03*
X97900000Y-171500000D03*
X99600000Y-171500000D03*
X97900000Y-88700000D03*
X101400000Y-76100000D03*
X97900000Y-128300000D03*
X103100000Y-101300000D03*
X99600000Y-157100000D03*
X101400000Y-171500000D03*
X97900000Y-149900000D03*
X101400000Y-74300000D03*
X97900000Y-113900000D03*
X97900000Y-90500000D03*
X99600000Y-121100000D03*
X101400000Y-173300000D03*
X103100000Y-67100000D03*
X97900000Y-140900000D03*
X101400000Y-137300000D03*
X99600000Y-119300000D03*
X103100000Y-162500000D03*
X101400000Y-112100000D03*
X97900000Y-101300000D03*
X103100000Y-92300000D03*
X97900000Y-130100000D03*
X101400000Y-83300000D03*
X101400000Y-85100000D03*
X99600000Y-108500000D03*
X101400000Y-59900000D03*
X103100000Y-68900000D03*
X99600000Y-72500000D03*
X103100000Y-175100000D03*
X97900000Y-151700000D03*
X97900000Y-108500000D03*
X99600000Y-63500000D03*
X103100000Y-79700000D03*
X101400000Y-101300000D03*
X103100000Y-117500000D03*
X99600000Y-173300000D03*
X99600000Y-148100000D03*
X99600000Y-95900000D03*
X97900000Y-85100000D03*
X103100000Y-81500000D03*
X99600000Y-142700000D03*
X103100000Y-164300000D03*
X97900000Y-122900000D03*
X99600000Y-106700000D03*
X97900000Y-76100000D03*
X103100000Y-171500000D03*
X99600000Y-126500000D03*
X99600000Y-61700000D03*
X99600000Y-77900000D03*
X99600000Y-70700000D03*
X99600000Y-175100000D03*
X97900000Y-97700000D03*
X101400000Y-104900000D03*
X103100000Y-58100000D03*
X99600000Y-164300000D03*
X101400000Y-153500000D03*
X97900000Y-110300000D03*
X101400000Y-128300000D03*
X99600000Y-94100000D03*
X99600000Y-58100000D03*
X99600000Y-167900000D03*
X97900000Y-169700000D03*
X101400000Y-77900000D03*
X97900000Y-86900000D03*
X97900000Y-155300000D03*
X101400000Y-68900000D03*
X101400000Y-155300000D03*
X99600000Y-135500000D03*
X97900000Y-117500000D03*
X103100000Y-76100000D03*
X101400000Y-124700000D03*
X103100000Y-85100000D03*
X99600000Y-92300000D03*
X103100000Y-99500000D03*
X99600000Y-158900000D03*
X101400000Y-142700000D03*
X99600000Y-81500000D03*
X99600000Y-146300000D03*
X101400000Y-139100000D03*
X97900000Y-70700000D03*
X103100000Y-95900000D03*
X103100000Y-110300000D03*
X97900000Y-124700000D03*
X101400000Y-117500000D03*
X101400000Y-130100000D03*
X103100000Y-173300000D03*
X97900000Y-83300000D03*
X99600000Y-88700000D03*
X103100000Y-158900000D03*
X101400000Y-97700000D03*
X97900000Y-148100000D03*
X101400000Y-158900000D03*
X101400000Y-67100000D03*
X99600000Y-101300000D03*
X97900000Y-139100000D03*
X97900000Y-58100000D03*
X103100000Y-137300000D03*
X103100000Y-77900000D03*
X103100000Y-146300000D03*
X97900000Y-67100000D03*
G04 #@! TO.N,/CELL_7*
X166400000Y-74200000D03*
X164700000Y-164200000D03*
X164700000Y-119200000D03*
X164700000Y-103000000D03*
X166400000Y-164200000D03*
X162900000Y-101200000D03*
X164700000Y-130000000D03*
X162900000Y-142600000D03*
X161200000Y-126400000D03*
X162900000Y-63400000D03*
X161200000Y-61600000D03*
X164700000Y-101200000D03*
X164700000Y-67000000D03*
X166400000Y-146200000D03*
X164700000Y-139000000D03*
X161200000Y-99400000D03*
X166400000Y-169600000D03*
X164700000Y-106600000D03*
X161200000Y-124600000D03*
X161200000Y-148000000D03*
X161200000Y-95800000D03*
X161200000Y-108400000D03*
X161200000Y-113800000D03*
X162900000Y-173200000D03*
X164700000Y-108400000D03*
X161200000Y-158800000D03*
X164700000Y-104800000D03*
X162900000Y-169600000D03*
X162900000Y-117400000D03*
X166400000Y-122800000D03*
X166400000Y-142600000D03*
X166400000Y-90400000D03*
X161200000Y-76000000D03*
X162900000Y-70600000D03*
X166400000Y-59800000D03*
X166400000Y-144400000D03*
X166400000Y-157000000D03*
X166400000Y-79600000D03*
X162900000Y-77800000D03*
X164700000Y-83200000D03*
X164700000Y-126400000D03*
X161200000Y-117400000D03*
X166400000Y-97600000D03*
X161200000Y-97600000D03*
X161200000Y-68800000D03*
X164700000Y-77800000D03*
X161200000Y-139000000D03*
X164700000Y-137200000D03*
X164700000Y-148000000D03*
X164700000Y-155200000D03*
X162900000Y-139000000D03*
X166400000Y-158800000D03*
X166400000Y-110200000D03*
X161200000Y-142600000D03*
X161200000Y-121000000D03*
X162900000Y-135400000D03*
X161200000Y-173200000D03*
X166400000Y-72400000D03*
X166400000Y-92200000D03*
X161200000Y-140800000D03*
X162900000Y-160600000D03*
X166400000Y-173200000D03*
X166400000Y-151600000D03*
X164700000Y-142600000D03*
X164700000Y-162400000D03*
X162900000Y-153400000D03*
X161200000Y-144400000D03*
X161200000Y-151600000D03*
X164700000Y-158800000D03*
X161200000Y-58000000D03*
X162900000Y-113800000D03*
X161200000Y-83200000D03*
X164700000Y-173200000D03*
X166400000Y-124600000D03*
X164700000Y-153400000D03*
X164700000Y-144400000D03*
X164700000Y-166000000D03*
X162900000Y-99400000D03*
X161200000Y-149800000D03*
X162900000Y-175000000D03*
X161200000Y-70600000D03*
X162900000Y-59800000D03*
X164700000Y-72400000D03*
X161200000Y-74200000D03*
X161200000Y-164200000D03*
X164700000Y-94000000D03*
X164700000Y-95800000D03*
X162900000Y-171400000D03*
X166400000Y-155200000D03*
X166400000Y-112000000D03*
X161200000Y-169600000D03*
X166400000Y-139000000D03*
X161200000Y-103000000D03*
X162900000Y-166000000D03*
X164700000Y-115600000D03*
X166400000Y-117400000D03*
X166400000Y-153400000D03*
X164700000Y-74200000D03*
X162900000Y-151600000D03*
X162900000Y-110200000D03*
X162900000Y-76000000D03*
X164700000Y-149800000D03*
X162900000Y-90400000D03*
X161200000Y-122800000D03*
X164700000Y-151600000D03*
X161200000Y-157000000D03*
X161200000Y-59800000D03*
X166400000Y-99400000D03*
X164700000Y-58000000D03*
X164700000Y-113800000D03*
X166400000Y-83200000D03*
X162900000Y-58000000D03*
X162900000Y-86800000D03*
X164700000Y-110200000D03*
X162900000Y-61600000D03*
X164700000Y-59800000D03*
X164700000Y-117400000D03*
X166400000Y-70600000D03*
X162900000Y-106600000D03*
X166400000Y-77800000D03*
X166400000Y-121000000D03*
X166400000Y-81400000D03*
X161200000Y-137200000D03*
X162900000Y-137200000D03*
X162900000Y-85000000D03*
X162900000Y-155200000D03*
X162900000Y-115600000D03*
X166400000Y-115600000D03*
X162900000Y-126400000D03*
X162900000Y-104800000D03*
X166400000Y-126400000D03*
X166400000Y-58000000D03*
X162900000Y-97600000D03*
X161200000Y-65200000D03*
X162900000Y-94000000D03*
X164700000Y-171400000D03*
X161200000Y-160600000D03*
X161200000Y-171400000D03*
X164700000Y-90400000D03*
X161200000Y-77800000D03*
X166400000Y-88600000D03*
X162900000Y-108400000D03*
X164700000Y-157000000D03*
X161200000Y-101200000D03*
X161200000Y-115600000D03*
X166400000Y-106600000D03*
X162900000Y-119200000D03*
X162900000Y-95800000D03*
X161200000Y-146200000D03*
X162900000Y-146200000D03*
X162900000Y-157000000D03*
X161200000Y-130000000D03*
X166400000Y-130000000D03*
X162900000Y-121000000D03*
X164700000Y-68800000D03*
X166400000Y-95800000D03*
X162900000Y-144400000D03*
X162900000Y-140800000D03*
X166400000Y-61600000D03*
X162900000Y-81400000D03*
X161200000Y-81400000D03*
X161200000Y-135400000D03*
X161200000Y-162400000D03*
X166400000Y-101200000D03*
X161200000Y-63400000D03*
X166400000Y-162400000D03*
X164700000Y-121000000D03*
X166400000Y-167800000D03*
X166400000Y-128200000D03*
X162900000Y-124600000D03*
X161200000Y-72400000D03*
X164700000Y-79600000D03*
X166400000Y-119200000D03*
X166400000Y-108400000D03*
X164700000Y-92200000D03*
X164700000Y-88600000D03*
X161200000Y-167800000D03*
X162900000Y-88600000D03*
X166400000Y-63400000D03*
X166400000Y-135400000D03*
X161200000Y-104800000D03*
X164700000Y-97600000D03*
X164700000Y-140800000D03*
X162900000Y-74200000D03*
X162900000Y-68800000D03*
X166400000Y-171400000D03*
X161200000Y-119200000D03*
X161200000Y-94000000D03*
X161200000Y-79600000D03*
X166400000Y-67000000D03*
X162900000Y-122800000D03*
X164700000Y-70600000D03*
X164700000Y-124600000D03*
X164700000Y-61600000D03*
X161200000Y-90400000D03*
X166400000Y-148000000D03*
X161200000Y-166000000D03*
X161200000Y-86800000D03*
X162900000Y-103000000D03*
X162900000Y-158800000D03*
X166400000Y-137200000D03*
X164700000Y-86800000D03*
X164700000Y-160600000D03*
X166400000Y-166000000D03*
X166400000Y-94000000D03*
X161200000Y-85000000D03*
X162900000Y-67000000D03*
X164700000Y-167800000D03*
X162900000Y-79600000D03*
X162900000Y-72400000D03*
X162900000Y-148000000D03*
X161200000Y-67000000D03*
X164700000Y-169600000D03*
X164700000Y-65200000D03*
X166400000Y-104800000D03*
X161200000Y-106600000D03*
X166400000Y-113800000D03*
X161200000Y-112000000D03*
X161200000Y-88600000D03*
X164700000Y-99400000D03*
X166400000Y-175000000D03*
X162900000Y-130000000D03*
X161200000Y-110200000D03*
X162900000Y-164200000D03*
X162900000Y-162400000D03*
X164700000Y-122800000D03*
X161200000Y-175000000D03*
X161200000Y-128200000D03*
X166400000Y-149800000D03*
X162900000Y-112000000D03*
X161200000Y-153400000D03*
X166400000Y-160600000D03*
X161200000Y-92200000D03*
X164700000Y-128200000D03*
X164700000Y-63400000D03*
X166400000Y-86800000D03*
X162900000Y-149800000D03*
X162900000Y-65200000D03*
X166400000Y-76000000D03*
X162900000Y-167800000D03*
X162900000Y-92200000D03*
X164700000Y-112000000D03*
X164700000Y-135400000D03*
X166400000Y-103000000D03*
X161200000Y-155200000D03*
X166400000Y-65200000D03*
X162900000Y-128200000D03*
X166400000Y-85000000D03*
X166400000Y-140800000D03*
X164700000Y-85000000D03*
X164700000Y-146200000D03*
X166400000Y-68800000D03*
X164700000Y-175000000D03*
X164700000Y-76000000D03*
X164700000Y-81400000D03*
X162900000Y-83200000D03*
G04 #@! TO.N,/CELL_5*
X185800000Y-142600000D03*
X187500000Y-155200000D03*
X185800000Y-130000000D03*
X187500000Y-112000000D03*
X185800000Y-97600000D03*
X182300000Y-112000000D03*
X184000000Y-108400000D03*
X184000000Y-140800000D03*
X182300000Y-99400000D03*
X187500000Y-74200000D03*
X184000000Y-175000000D03*
X184000000Y-95800000D03*
X182300000Y-59800000D03*
X185800000Y-175000000D03*
X184000000Y-137200000D03*
X184000000Y-157000000D03*
X182300000Y-153400000D03*
X184000000Y-59800000D03*
X185800000Y-166000000D03*
X182300000Y-94000000D03*
X182300000Y-88600000D03*
X185800000Y-79600000D03*
X184000000Y-81400000D03*
X187500000Y-63400000D03*
X187500000Y-149800000D03*
X184000000Y-158800000D03*
X184000000Y-130000000D03*
X182300000Y-72400000D03*
X182300000Y-135400000D03*
X187500000Y-169600000D03*
X185800000Y-115600000D03*
X182300000Y-139000000D03*
X185800000Y-99400000D03*
X184000000Y-72400000D03*
X185800000Y-110200000D03*
X184000000Y-110200000D03*
X184000000Y-94000000D03*
X182300000Y-101200000D03*
X182300000Y-144400000D03*
X184000000Y-117400000D03*
X185800000Y-171400000D03*
X187500000Y-137200000D03*
X185800000Y-106600000D03*
X187500000Y-146200000D03*
X187500000Y-76000000D03*
X185800000Y-122800000D03*
X184000000Y-167800000D03*
X187500000Y-124600000D03*
X184000000Y-63400000D03*
X184000000Y-121000000D03*
X184000000Y-79600000D03*
X187500000Y-126400000D03*
X182300000Y-117400000D03*
X187500000Y-151600000D03*
X182300000Y-151600000D03*
X187500000Y-88600000D03*
X187500000Y-77800000D03*
X184000000Y-112000000D03*
X182300000Y-63400000D03*
X185800000Y-58000000D03*
X187500000Y-139000000D03*
X187500000Y-115600000D03*
X187500000Y-67000000D03*
X182300000Y-67000000D03*
X184000000Y-155200000D03*
X182300000Y-110200000D03*
X182300000Y-121000000D03*
X187500000Y-65200000D03*
X187500000Y-99400000D03*
X187500000Y-85000000D03*
X182300000Y-58000000D03*
X187500000Y-166000000D03*
X182300000Y-167800000D03*
X184000000Y-70600000D03*
X184000000Y-67000000D03*
X182300000Y-70600000D03*
X182300000Y-74200000D03*
X184000000Y-166000000D03*
X185800000Y-169600000D03*
X185800000Y-61600000D03*
X187500000Y-175000000D03*
X184000000Y-171400000D03*
X184000000Y-83200000D03*
X187500000Y-122800000D03*
X185800000Y-95800000D03*
X182300000Y-162400000D03*
X185800000Y-113800000D03*
X182300000Y-128200000D03*
X184000000Y-119200000D03*
X187500000Y-162400000D03*
X185800000Y-124600000D03*
X184000000Y-115600000D03*
X185800000Y-101200000D03*
X185800000Y-151600000D03*
X182300000Y-166000000D03*
X187500000Y-110200000D03*
X185800000Y-77800000D03*
X187500000Y-103000000D03*
X187500000Y-58000000D03*
X182300000Y-126400000D03*
X185800000Y-135400000D03*
X185800000Y-74200000D03*
X187500000Y-90400000D03*
X187500000Y-148000000D03*
X184000000Y-101200000D03*
X184000000Y-149800000D03*
X184000000Y-97600000D03*
X185800000Y-126400000D03*
X182300000Y-148000000D03*
X185800000Y-90400000D03*
X185800000Y-158800000D03*
X185800000Y-121000000D03*
X184000000Y-144400000D03*
X185800000Y-146200000D03*
X182300000Y-140800000D03*
X182300000Y-122800000D03*
X185800000Y-144400000D03*
X185800000Y-117400000D03*
X187500000Y-95800000D03*
X187500000Y-173200000D03*
X185800000Y-92200000D03*
X182300000Y-77800000D03*
X187500000Y-92200000D03*
X187500000Y-101200000D03*
X184000000Y-86800000D03*
X185800000Y-68800000D03*
X184000000Y-135400000D03*
X184000000Y-68800000D03*
X184000000Y-92200000D03*
X184000000Y-85000000D03*
X184000000Y-173200000D03*
X187500000Y-70600000D03*
X185800000Y-160600000D03*
X184000000Y-151600000D03*
X182300000Y-160600000D03*
X182300000Y-81400000D03*
X185800000Y-59800000D03*
X185800000Y-72400000D03*
X187500000Y-167800000D03*
X182300000Y-79600000D03*
X184000000Y-74200000D03*
X182300000Y-155200000D03*
X184000000Y-61600000D03*
X184000000Y-76000000D03*
X182300000Y-169600000D03*
X184000000Y-90400000D03*
X185800000Y-67000000D03*
X187500000Y-68800000D03*
X185800000Y-63400000D03*
X182300000Y-119200000D03*
X185800000Y-148000000D03*
X187500000Y-61600000D03*
X182300000Y-97600000D03*
X184000000Y-126400000D03*
X187500000Y-106600000D03*
X184000000Y-148000000D03*
X184000000Y-160600000D03*
X187500000Y-72400000D03*
X185800000Y-83200000D03*
X184000000Y-169600000D03*
X187500000Y-86800000D03*
X185800000Y-88600000D03*
X187500000Y-79600000D03*
X185800000Y-153400000D03*
X187500000Y-117400000D03*
X187500000Y-142600000D03*
X182300000Y-86800000D03*
X184000000Y-162400000D03*
X185800000Y-81400000D03*
X185800000Y-137200000D03*
X182300000Y-90400000D03*
X184000000Y-113800000D03*
X182300000Y-108400000D03*
X182300000Y-83200000D03*
X182300000Y-95800000D03*
X184000000Y-77800000D03*
X185800000Y-162400000D03*
X182300000Y-76000000D03*
X182300000Y-65200000D03*
X185800000Y-139000000D03*
X185800000Y-167800000D03*
X187500000Y-94000000D03*
X184000000Y-88600000D03*
X185800000Y-173200000D03*
X182300000Y-164200000D03*
X187500000Y-128200000D03*
X184000000Y-104800000D03*
X182300000Y-130000000D03*
X187500000Y-97600000D03*
X182300000Y-104800000D03*
X187500000Y-157000000D03*
X187500000Y-130000000D03*
X184000000Y-153400000D03*
X182300000Y-106600000D03*
X184000000Y-139000000D03*
X184000000Y-164200000D03*
X185800000Y-65200000D03*
X184000000Y-124600000D03*
X187500000Y-104800000D03*
X182300000Y-85000000D03*
X184000000Y-128200000D03*
X185800000Y-157000000D03*
X187500000Y-81400000D03*
X185800000Y-108400000D03*
X185800000Y-103000000D03*
X185800000Y-128200000D03*
X182300000Y-137200000D03*
X187500000Y-158800000D03*
X185800000Y-164200000D03*
X185800000Y-86800000D03*
X187500000Y-140800000D03*
X182300000Y-158800000D03*
X185800000Y-76000000D03*
X182300000Y-173200000D03*
X187500000Y-160600000D03*
X182300000Y-149800000D03*
X184000000Y-142600000D03*
X184000000Y-103000000D03*
X187500000Y-121000000D03*
X187500000Y-108400000D03*
X184000000Y-65200000D03*
X182300000Y-92200000D03*
X185800000Y-85000000D03*
X185800000Y-94000000D03*
X182300000Y-61600000D03*
X187500000Y-119200000D03*
X187500000Y-135400000D03*
X187500000Y-113800000D03*
X182300000Y-171400000D03*
X182300000Y-175000000D03*
X187500000Y-144400000D03*
X182300000Y-115600000D03*
X185800000Y-155200000D03*
X187500000Y-83200000D03*
X187500000Y-164200000D03*
X182300000Y-113800000D03*
X185800000Y-119200000D03*
X187500000Y-171400000D03*
X187500000Y-59800000D03*
X184000000Y-122800000D03*
X185800000Y-149800000D03*
X184000000Y-106600000D03*
X182300000Y-142600000D03*
X184000000Y-146200000D03*
X187500000Y-153400000D03*
X185800000Y-112000000D03*
X182300000Y-146200000D03*
X184000000Y-99400000D03*
X182300000Y-157000000D03*
X185800000Y-104800000D03*
X184000000Y-58000000D03*
X182300000Y-103000000D03*
X182300000Y-124600000D03*
X185800000Y-70600000D03*
X182300000Y-68800000D03*
X185800000Y-140800000D03*
G04 #@! TO.N,/CELL_10*
X134700000Y-162000000D03*
X129500000Y-97200000D03*
X131200000Y-122400000D03*
X133000000Y-97200000D03*
X129500000Y-181800000D03*
X134700000Y-129600000D03*
X133000000Y-174600000D03*
X131200000Y-169200000D03*
X129500000Y-147600000D03*
X134700000Y-144000000D03*
X134700000Y-171000000D03*
X134700000Y-181800000D03*
X131200000Y-194400000D03*
X133000000Y-147600000D03*
X133000000Y-120600000D03*
X134700000Y-106200000D03*
X134700000Y-167400000D03*
X134700000Y-196200000D03*
X134700000Y-97200000D03*
X129500000Y-136800000D03*
X129500000Y-127800000D03*
X131200000Y-106200000D03*
X129500000Y-187200000D03*
X134700000Y-189000000D03*
X129500000Y-99000000D03*
X134700000Y-153000000D03*
X131200000Y-208800000D03*
X134700000Y-208800000D03*
X131200000Y-163800000D03*
X134700000Y-190800000D03*
X129500000Y-142200000D03*
X133000000Y-91800000D03*
X133000000Y-176400000D03*
X131200000Y-144000000D03*
X129500000Y-131400000D03*
X133000000Y-93600000D03*
X133000000Y-198000000D03*
X134700000Y-111600000D03*
X134700000Y-120600000D03*
X131200000Y-145800000D03*
X133000000Y-158400000D03*
X133000000Y-181800000D03*
X133000000Y-192600000D03*
X131200000Y-149400000D03*
X133000000Y-115200000D03*
X131200000Y-100800000D03*
X129500000Y-171000000D03*
X131200000Y-124200000D03*
X129500000Y-192600000D03*
X131200000Y-111600000D03*
X133000000Y-136800000D03*
X134700000Y-95400000D03*
X133000000Y-178200000D03*
X131200000Y-196200000D03*
X133000000Y-122400000D03*
X134700000Y-131400000D03*
X134700000Y-205200000D03*
X133000000Y-104400000D03*
X131200000Y-108000000D03*
X133000000Y-163800000D03*
X133000000Y-135000000D03*
X131200000Y-181800000D03*
X134700000Y-126000000D03*
X131200000Y-140400000D03*
X131200000Y-117000000D03*
X131200000Y-147600000D03*
X134700000Y-201600000D03*
X134700000Y-124200000D03*
X131200000Y-102600000D03*
X133000000Y-108000000D03*
X134700000Y-145800000D03*
X134700000Y-194400000D03*
X129500000Y-198000000D03*
X133000000Y-117000000D03*
X134700000Y-135000000D03*
X134700000Y-169200000D03*
X131200000Y-203400000D03*
X129500000Y-100800000D03*
X134700000Y-136800000D03*
X129500000Y-203400000D03*
X131200000Y-176400000D03*
X134700000Y-176400000D03*
X131200000Y-201600000D03*
X133000000Y-106200000D03*
X129500000Y-194400000D03*
X131200000Y-91800000D03*
X131200000Y-95400000D03*
X134700000Y-178200000D03*
X129500000Y-189000000D03*
X131200000Y-162000000D03*
X131200000Y-151200000D03*
X129500000Y-172800000D03*
X131200000Y-97200000D03*
X131200000Y-205200000D03*
X133000000Y-183600000D03*
X134700000Y-127800000D03*
X133000000Y-201600000D03*
X133000000Y-207000000D03*
X133000000Y-111600000D03*
X129500000Y-207000000D03*
X129500000Y-104400000D03*
X131200000Y-158400000D03*
X133000000Y-208800000D03*
X129500000Y-122400000D03*
X131200000Y-207000000D03*
X129500000Y-196200000D03*
X131200000Y-131400000D03*
X129500000Y-118800000D03*
X134700000Y-147600000D03*
X129500000Y-138600000D03*
X133000000Y-145800000D03*
X131200000Y-154800000D03*
X134700000Y-174600000D03*
X134700000Y-183600000D03*
X134700000Y-118800000D03*
X129500000Y-91800000D03*
X134700000Y-203400000D03*
X134700000Y-102600000D03*
X133000000Y-118800000D03*
X133000000Y-203400000D03*
X133000000Y-196200000D03*
X133000000Y-138600000D03*
X134700000Y-156600000D03*
X131200000Y-199800000D03*
X131200000Y-142200000D03*
X134700000Y-154800000D03*
X129500000Y-113400000D03*
X129500000Y-140400000D03*
X134700000Y-115200000D03*
X131200000Y-183600000D03*
X129500000Y-205200000D03*
X133000000Y-151200000D03*
X134700000Y-109800000D03*
X129500000Y-124200000D03*
X133000000Y-169200000D03*
X129500000Y-176400000D03*
X134700000Y-199800000D03*
X131200000Y-153000000D03*
X133000000Y-189000000D03*
X134700000Y-160200000D03*
X129500000Y-149400000D03*
X129500000Y-162000000D03*
X134700000Y-185400000D03*
X129500000Y-120600000D03*
X134700000Y-138600000D03*
X129500000Y-183600000D03*
X134700000Y-151200000D03*
X131200000Y-165600000D03*
X134700000Y-113400000D03*
X133000000Y-165600000D03*
X134700000Y-165600000D03*
X131200000Y-187200000D03*
X134700000Y-198000000D03*
X131200000Y-93600000D03*
X133000000Y-199800000D03*
X134700000Y-163800000D03*
X134700000Y-140400000D03*
X134700000Y-207000000D03*
X129500000Y-174600000D03*
X129500000Y-102600000D03*
X134700000Y-192600000D03*
X131200000Y-135000000D03*
X133000000Y-154800000D03*
X133000000Y-109800000D03*
X133000000Y-102600000D03*
X131200000Y-171000000D03*
X129500000Y-169200000D03*
X131200000Y-185400000D03*
X131200000Y-160200000D03*
X129500000Y-156600000D03*
X129500000Y-108000000D03*
X133000000Y-113400000D03*
X131200000Y-156600000D03*
X134700000Y-122400000D03*
X129500000Y-180000000D03*
X129500000Y-117000000D03*
X131200000Y-109800000D03*
X133000000Y-171000000D03*
X129500000Y-201600000D03*
X129500000Y-163800000D03*
X131200000Y-127800000D03*
X129500000Y-208800000D03*
X129500000Y-154800000D03*
X129500000Y-153000000D03*
X131200000Y-136800000D03*
X129500000Y-145800000D03*
X129500000Y-199800000D03*
X134700000Y-158400000D03*
X134700000Y-172800000D03*
X133000000Y-131400000D03*
X133000000Y-156600000D03*
X129500000Y-167400000D03*
X133000000Y-153000000D03*
X129500000Y-135000000D03*
X129500000Y-144000000D03*
X131200000Y-167400000D03*
X131200000Y-104400000D03*
X133000000Y-99000000D03*
X133000000Y-100800000D03*
X133000000Y-127800000D03*
X131200000Y-113400000D03*
X133000000Y-142200000D03*
X131200000Y-118800000D03*
X129500000Y-158400000D03*
X134700000Y-180000000D03*
X133000000Y-129600000D03*
X129500000Y-106200000D03*
X129500000Y-165600000D03*
X131200000Y-174600000D03*
X131200000Y-189000000D03*
X133000000Y-144000000D03*
X131200000Y-192600000D03*
X131200000Y-126000000D03*
X129500000Y-93600000D03*
X133000000Y-160200000D03*
X133000000Y-149400000D03*
X133000000Y-162000000D03*
X133000000Y-190800000D03*
X129500000Y-129600000D03*
X129500000Y-126000000D03*
X134700000Y-117000000D03*
X134700000Y-91800000D03*
X133000000Y-126000000D03*
X134700000Y-104400000D03*
X131200000Y-180000000D03*
X133000000Y-185400000D03*
X134700000Y-149400000D03*
X131200000Y-190800000D03*
X131200000Y-178200000D03*
X129500000Y-160200000D03*
X134700000Y-108000000D03*
X131200000Y-198000000D03*
X133000000Y-124200000D03*
X131200000Y-129600000D03*
X129500000Y-190800000D03*
X134700000Y-100800000D03*
X129500000Y-185400000D03*
X133000000Y-205200000D03*
X129500000Y-151200000D03*
X134700000Y-142200000D03*
X129500000Y-115200000D03*
X129500000Y-178200000D03*
X134700000Y-187200000D03*
X133000000Y-187200000D03*
X133000000Y-194400000D03*
X133000000Y-167400000D03*
X134700000Y-93600000D03*
X131200000Y-99000000D03*
X131200000Y-172800000D03*
X129500000Y-109800000D03*
X131200000Y-120600000D03*
X129500000Y-95400000D03*
X133000000Y-172800000D03*
X133000000Y-180000000D03*
X129500000Y-111600000D03*
X131200000Y-138600000D03*
X133000000Y-140400000D03*
X131200000Y-115200000D03*
X134700000Y-99000000D03*
X133000000Y-95400000D03*
G04 #@! TO.N,GND*
X240300000Y-196200000D03*
X236800000Y-163800000D03*
X236800000Y-169200000D03*
X236800000Y-135000000D03*
X240300000Y-120600000D03*
X240300000Y-111600000D03*
X236800000Y-142200000D03*
X235100000Y-135000000D03*
X236800000Y-97200000D03*
X235100000Y-153000000D03*
X238600000Y-196200000D03*
X235100000Y-108000000D03*
X235100000Y-113400000D03*
X240300000Y-100800000D03*
X235100000Y-102600000D03*
X236800000Y-109800000D03*
X240300000Y-138600000D03*
X118400000Y-55000000D03*
X238600000Y-93600000D03*
X236800000Y-145800000D03*
X235100000Y-174600000D03*
X238600000Y-205200000D03*
X238600000Y-194400000D03*
X236800000Y-167400000D03*
X240300000Y-192600000D03*
X238600000Y-106200000D03*
X240300000Y-205200000D03*
X240300000Y-140400000D03*
X240300000Y-187200000D03*
X236800000Y-104400000D03*
X235100000Y-99000000D03*
X238600000Y-115200000D03*
X235100000Y-194400000D03*
X236800000Y-122400000D03*
X236800000Y-194400000D03*
X236800000Y-91800000D03*
X238600000Y-117000000D03*
X240300000Y-185400000D03*
X235100000Y-144000000D03*
X235100000Y-158400000D03*
X240300000Y-207000000D03*
X235100000Y-106200000D03*
X240300000Y-131400000D03*
X240300000Y-124200000D03*
X238600000Y-178200000D03*
X238600000Y-124200000D03*
X238600000Y-180000000D03*
X236800000Y-198000000D03*
X235100000Y-151200000D03*
X240300000Y-183600000D03*
X235100000Y-167400000D03*
X236800000Y-176400000D03*
X240300000Y-199800000D03*
X238600000Y-126000000D03*
X235100000Y-165600000D03*
X236800000Y-196200000D03*
X235100000Y-149400000D03*
X240300000Y-127800000D03*
X236800000Y-108000000D03*
X238600000Y-185400000D03*
X238600000Y-162000000D03*
X235100000Y-162000000D03*
X235100000Y-171000000D03*
X236800000Y-151200000D03*
X235100000Y-91800000D03*
X240300000Y-115200000D03*
X236800000Y-149400000D03*
X240300000Y-201600000D03*
X188900000Y-55000000D03*
X238600000Y-192600000D03*
X238600000Y-118800000D03*
X236800000Y-93600000D03*
X238600000Y-95400000D03*
X235100000Y-118800000D03*
X154460000Y-57625000D03*
X238600000Y-122400000D03*
X235100000Y-187200000D03*
X235100000Y-104400000D03*
X238600000Y-97200000D03*
X236800000Y-178200000D03*
X235100000Y-136800000D03*
X238600000Y-158400000D03*
X240300000Y-106200000D03*
X236800000Y-129600000D03*
X240300000Y-190800000D03*
X235100000Y-127800000D03*
X238600000Y-176400000D03*
X240300000Y-108000000D03*
X238600000Y-135000000D03*
X236800000Y-153000000D03*
X235100000Y-126000000D03*
X142835000Y-55000000D03*
X235100000Y-100800000D03*
X240300000Y-129600000D03*
X236800000Y-203400000D03*
X125025000Y-55300000D03*
X238600000Y-100800000D03*
X240300000Y-104400000D03*
X236800000Y-180000000D03*
X235100000Y-190800000D03*
X193160000Y-55000000D03*
X133059618Y-57300058D03*
X240300000Y-158400000D03*
X240300000Y-122400000D03*
X235100000Y-192600000D03*
X236800000Y-181800000D03*
X240300000Y-194400000D03*
X240300000Y-99000000D03*
X238600000Y-201600000D03*
X236800000Y-205200000D03*
X240300000Y-178200000D03*
X236800000Y-165600000D03*
X235100000Y-208800000D03*
X238600000Y-198000000D03*
X238600000Y-120600000D03*
X240300000Y-176400000D03*
X238600000Y-207000000D03*
X236800000Y-131400000D03*
X97200000Y-55000000D03*
X235100000Y-115200000D03*
X236800000Y-208800000D03*
X238600000Y-199800000D03*
X240300000Y-181800000D03*
X196585000Y-57470000D03*
X236800000Y-183600000D03*
X235100000Y-180000000D03*
X236800000Y-138600000D03*
X236800000Y-192600000D03*
X236800000Y-199800000D03*
X236800000Y-100800000D03*
X240300000Y-109800000D03*
X240300000Y-180000000D03*
X238600000Y-99000000D03*
X236800000Y-207000000D03*
X235100000Y-199800000D03*
X236800000Y-115200000D03*
X152700000Y-55000000D03*
X217720000Y-57530000D03*
X240300000Y-156600000D03*
X235100000Y-109800000D03*
X240300000Y-91800000D03*
X235100000Y-93600000D03*
X235100000Y-185400000D03*
X240300000Y-95400000D03*
X167600000Y-55000000D03*
X236800000Y-174600000D03*
X235100000Y-205200000D03*
X236800000Y-162000000D03*
X175550000Y-57600000D03*
X240300000Y-118800000D03*
X236800000Y-136800000D03*
X238600000Y-156600000D03*
X236800000Y-113400000D03*
X236800000Y-144000000D03*
X235100000Y-189000000D03*
X236800000Y-120600000D03*
X238600000Y-131400000D03*
X238600000Y-208800000D03*
X236800000Y-158400000D03*
X240300000Y-162000000D03*
X236800000Y-185400000D03*
X238600000Y-138600000D03*
X181400000Y-55000000D03*
X235100000Y-160200000D03*
X235100000Y-138600000D03*
X235100000Y-111600000D03*
X235100000Y-120600000D03*
X236800000Y-190800000D03*
X236800000Y-118800000D03*
X236800000Y-187200000D03*
X235100000Y-95400000D03*
X240300000Y-135000000D03*
X236800000Y-126000000D03*
X235100000Y-196200000D03*
X236800000Y-154800000D03*
X238600000Y-189000000D03*
X235100000Y-140400000D03*
X238600000Y-181800000D03*
X235100000Y-124200000D03*
X235100000Y-172800000D03*
X240300000Y-160200000D03*
X235100000Y-117000000D03*
X236800000Y-172800000D03*
X235100000Y-154800000D03*
X238600000Y-102600000D03*
X236800000Y-102600000D03*
X236800000Y-124200000D03*
X229300000Y-55000000D03*
X238600000Y-187200000D03*
X240300000Y-93600000D03*
X235100000Y-142200000D03*
X240300000Y-208800000D03*
X238600000Y-104400000D03*
X235100000Y-147600000D03*
X238600000Y-140400000D03*
X238600000Y-127800000D03*
X240300000Y-198000000D03*
X235100000Y-131400000D03*
X240300000Y-102600000D03*
X236800000Y-189000000D03*
X236800000Y-111600000D03*
X238600000Y-109800000D03*
X238600000Y-136800000D03*
X235100000Y-97200000D03*
X235100000Y-176400000D03*
X235100000Y-201600000D03*
X238600000Y-111600000D03*
X112210000Y-57515000D03*
X235100000Y-156600000D03*
X238600000Y-190800000D03*
X238600000Y-183600000D03*
X238600000Y-113400000D03*
X240300000Y-117000000D03*
X238600000Y-91800000D03*
X236800000Y-201600000D03*
X238600000Y-160200000D03*
X171400000Y-55000000D03*
X235100000Y-198000000D03*
X208700000Y-55000000D03*
X235100000Y-178200000D03*
X240300000Y-126000000D03*
X236800000Y-99000000D03*
X235100000Y-122400000D03*
X240300000Y-189000000D03*
X238600000Y-108000000D03*
X235100000Y-183600000D03*
X236800000Y-95400000D03*
X146300000Y-55000000D03*
X236800000Y-127800000D03*
X238600000Y-129600000D03*
X235100000Y-129600000D03*
X235100000Y-181800000D03*
X240300000Y-203400000D03*
X236800000Y-147600000D03*
X235100000Y-163800000D03*
X235100000Y-145800000D03*
X236800000Y-140400000D03*
X240300000Y-113400000D03*
X236800000Y-160200000D03*
X236800000Y-117000000D03*
X235100000Y-203400000D03*
X238600000Y-203400000D03*
X236800000Y-106200000D03*
X240300000Y-97200000D03*
X235100000Y-207000000D03*
X240300000Y-136800000D03*
X235100000Y-169200000D03*
X236800000Y-156600000D03*
X236800000Y-171000000D03*
G04 #@! TO.N,/CELL_8*
X154100000Y-136700000D03*
X152300000Y-98900000D03*
X150600000Y-167300000D03*
X150600000Y-102500000D03*
X152300000Y-194300000D03*
X154100000Y-190700000D03*
X154100000Y-163700000D03*
X150600000Y-178100000D03*
X154100000Y-208700000D03*
X154100000Y-201500000D03*
X150600000Y-158300000D03*
X154100000Y-95300000D03*
X154100000Y-165500000D03*
X155800000Y-188900000D03*
X150600000Y-188900000D03*
X155800000Y-194300000D03*
X152300000Y-116900000D03*
X150600000Y-138500000D03*
X154100000Y-167300000D03*
X155800000Y-131300000D03*
X152300000Y-174500000D03*
X155800000Y-134900000D03*
X150600000Y-145700000D03*
X152300000Y-93500000D03*
X154100000Y-158300000D03*
X150600000Y-136700000D03*
X152300000Y-172700000D03*
X152300000Y-100700000D03*
X154100000Y-187100000D03*
X154100000Y-145700000D03*
X155800000Y-196100000D03*
X150600000Y-100700000D03*
X154100000Y-98900000D03*
X155800000Y-116900000D03*
X154100000Y-206900000D03*
X150600000Y-194300000D03*
X155800000Y-160100000D03*
X155800000Y-152900000D03*
X152300000Y-95300000D03*
X154100000Y-140300000D03*
X150600000Y-140300000D03*
X150600000Y-199700000D03*
X152300000Y-149300000D03*
X155800000Y-107900000D03*
X155800000Y-151100000D03*
X150600000Y-160100000D03*
X155800000Y-154700000D03*
X152300000Y-104300000D03*
X150600000Y-97100000D03*
X155800000Y-98900000D03*
X154100000Y-183500000D03*
X152300000Y-134900000D03*
X150600000Y-120500000D03*
X152300000Y-102500000D03*
X150600000Y-197900000D03*
X155800000Y-183500000D03*
X150600000Y-172700000D03*
X150600000Y-111500000D03*
X155800000Y-115100000D03*
X155800000Y-125900000D03*
X155800000Y-174500000D03*
X154100000Y-142100000D03*
X154100000Y-106100000D03*
X152300000Y-152900000D03*
X155800000Y-104300000D03*
X152300000Y-97100000D03*
X154100000Y-152900000D03*
X152300000Y-125900000D03*
X154100000Y-169100000D03*
X155800000Y-124100000D03*
X152300000Y-181700000D03*
X150600000Y-109700000D03*
X155800000Y-206900000D03*
X150600000Y-151100000D03*
X152300000Y-158300000D03*
X155800000Y-205100000D03*
X155800000Y-102500000D03*
X154100000Y-113300000D03*
X154100000Y-134900000D03*
X152300000Y-176300000D03*
X155800000Y-106100000D03*
X155800000Y-120500000D03*
X152300000Y-143900000D03*
X150600000Y-116900000D03*
X152300000Y-156500000D03*
X152300000Y-205100000D03*
X155800000Y-190700000D03*
X154100000Y-149300000D03*
X155800000Y-172700000D03*
X154100000Y-156500000D03*
X154100000Y-174500000D03*
X154100000Y-199700000D03*
X154100000Y-151100000D03*
X150600000Y-190700000D03*
X154100000Y-178100000D03*
X155800000Y-95300000D03*
X152300000Y-122300000D03*
X150600000Y-154700000D03*
X155800000Y-93500000D03*
X154100000Y-160100000D03*
X155800000Y-118700000D03*
X150600000Y-115100000D03*
X154100000Y-111500000D03*
X150600000Y-205100000D03*
X152300000Y-179900000D03*
X155800000Y-97100000D03*
X150600000Y-187100000D03*
X154100000Y-127700000D03*
X155800000Y-140300000D03*
X154100000Y-122300000D03*
X150600000Y-206900000D03*
X152300000Y-142100000D03*
X150600000Y-196100000D03*
X154100000Y-109700000D03*
X154100000Y-181700000D03*
X154100000Y-107900000D03*
X155800000Y-129500000D03*
X150600000Y-149300000D03*
X150600000Y-183500000D03*
X150600000Y-156500000D03*
X155800000Y-176300000D03*
X150600000Y-169100000D03*
X150600000Y-125900000D03*
X152300000Y-197900000D03*
X154100000Y-194300000D03*
X152300000Y-107900000D03*
X154100000Y-129500000D03*
X155800000Y-100700000D03*
X155800000Y-143900000D03*
X152300000Y-201500000D03*
X152300000Y-113300000D03*
X152300000Y-165500000D03*
X154100000Y-124100000D03*
X150600000Y-170900000D03*
X152300000Y-147500000D03*
X155800000Y-122300000D03*
X154100000Y-179900000D03*
X154100000Y-154700000D03*
X154100000Y-100700000D03*
X152300000Y-154700000D03*
X150600000Y-118700000D03*
X152300000Y-183500000D03*
X154100000Y-176300000D03*
X150600000Y-113300000D03*
X152300000Y-115100000D03*
X152300000Y-118700000D03*
X155800000Y-127700000D03*
X154100000Y-143900000D03*
X150600000Y-208700000D03*
X152300000Y-203300000D03*
X150600000Y-152900000D03*
X154100000Y-102500000D03*
X155800000Y-156500000D03*
X152300000Y-111500000D03*
X155800000Y-169100000D03*
X152300000Y-160100000D03*
X155800000Y-111500000D03*
X154100000Y-118700000D03*
X155800000Y-181700000D03*
X150600000Y-93500000D03*
X152300000Y-196100000D03*
X150600000Y-129500000D03*
X155800000Y-201500000D03*
X150600000Y-192500000D03*
X150600000Y-142100000D03*
X150600000Y-104300000D03*
X155800000Y-91700000D03*
X150600000Y-176300000D03*
X154100000Y-172700000D03*
X152300000Y-170900000D03*
X155800000Y-165500000D03*
X154100000Y-131300000D03*
X155800000Y-208700000D03*
X150600000Y-201500000D03*
X152300000Y-199700000D03*
X155800000Y-113300000D03*
X154100000Y-192500000D03*
X155800000Y-163700000D03*
X152300000Y-124100000D03*
X155800000Y-109700000D03*
X150600000Y-107900000D03*
X154100000Y-93500000D03*
X154100000Y-205100000D03*
X152300000Y-145700000D03*
X152300000Y-109700000D03*
X155800000Y-167300000D03*
X155800000Y-192500000D03*
X150600000Y-98900000D03*
X155800000Y-161900000D03*
X155800000Y-138500000D03*
X152300000Y-91700000D03*
X152300000Y-140300000D03*
X152300000Y-208700000D03*
X154100000Y-104300000D03*
X154100000Y-161900000D03*
X150600000Y-143900000D03*
X152300000Y-187100000D03*
X155800000Y-170900000D03*
X155800000Y-185300000D03*
X152300000Y-131300000D03*
X152300000Y-106100000D03*
X152300000Y-185300000D03*
X150600000Y-185300000D03*
X154100000Y-196100000D03*
X150600000Y-91700000D03*
X154100000Y-115100000D03*
X152300000Y-129500000D03*
X150600000Y-95300000D03*
X150600000Y-161900000D03*
X150600000Y-134900000D03*
X150600000Y-165500000D03*
X150600000Y-127700000D03*
X155800000Y-147500000D03*
X154100000Y-147500000D03*
X155800000Y-199700000D03*
X154100000Y-125900000D03*
X150600000Y-131300000D03*
X154100000Y-138500000D03*
X150600000Y-147500000D03*
X155800000Y-179900000D03*
X152300000Y-190700000D03*
X155800000Y-136700000D03*
X150600000Y-106100000D03*
X155800000Y-203300000D03*
X152300000Y-127700000D03*
X154100000Y-197900000D03*
X152300000Y-178100000D03*
X150600000Y-174500000D03*
X154100000Y-188900000D03*
X154100000Y-185300000D03*
X150600000Y-122300000D03*
X155800000Y-145700000D03*
X155800000Y-158300000D03*
X155800000Y-142100000D03*
X150600000Y-124100000D03*
X154100000Y-91700000D03*
X154100000Y-170900000D03*
X155800000Y-187100000D03*
X150600000Y-163700000D03*
X154100000Y-97100000D03*
X152300000Y-161900000D03*
X152300000Y-163700000D03*
X152300000Y-167300000D03*
X150600000Y-181700000D03*
X152300000Y-206900000D03*
X154100000Y-120500000D03*
X155800000Y-178100000D03*
X154100000Y-116900000D03*
X150600000Y-203300000D03*
X152300000Y-151100000D03*
X152300000Y-192500000D03*
X152300000Y-136700000D03*
X154100000Y-203300000D03*
X152300000Y-120500000D03*
X155800000Y-197900000D03*
X152300000Y-169100000D03*
X152300000Y-188900000D03*
X150600000Y-179900000D03*
X155800000Y-149300000D03*
X152300000Y-138500000D03*
G04 #@! TO.N,/CELL_14*
X90900000Y-107900000D03*
X89100000Y-115100000D03*
X87400000Y-205100000D03*
X89100000Y-109700000D03*
X92600000Y-176300000D03*
X92600000Y-100700000D03*
X92600000Y-167300000D03*
X92600000Y-179900000D03*
X89100000Y-183500000D03*
X90900000Y-115100000D03*
X90900000Y-122300000D03*
X90900000Y-100700000D03*
X90900000Y-199700000D03*
X89100000Y-201500000D03*
X90900000Y-163700000D03*
X90900000Y-140300000D03*
X89100000Y-196100000D03*
X92600000Y-161900000D03*
X92600000Y-127700000D03*
X87400000Y-183500000D03*
X92600000Y-178100000D03*
X92600000Y-140300000D03*
X87400000Y-178100000D03*
X90900000Y-165500000D03*
X89100000Y-161900000D03*
X89100000Y-93500000D03*
X89100000Y-156500000D03*
X89100000Y-206900000D03*
X87400000Y-176300000D03*
X87400000Y-102500000D03*
X92600000Y-124100000D03*
X87400000Y-129500000D03*
X92600000Y-208700000D03*
X89100000Y-100700000D03*
X89100000Y-91700000D03*
X92600000Y-151100000D03*
X87400000Y-113300000D03*
X87400000Y-91700000D03*
X92600000Y-172700000D03*
X89100000Y-197900000D03*
X87400000Y-136700000D03*
X90900000Y-197900000D03*
X87400000Y-124100000D03*
X90900000Y-208700000D03*
X90900000Y-161900000D03*
X92600000Y-91700000D03*
X89100000Y-111500000D03*
X92600000Y-102500000D03*
X87400000Y-187100000D03*
X89100000Y-113300000D03*
X90900000Y-187100000D03*
X90900000Y-196100000D03*
X92600000Y-118700000D03*
X92600000Y-95300000D03*
X90900000Y-190700000D03*
X90900000Y-116900000D03*
X92600000Y-129500000D03*
X92600000Y-98900000D03*
X90900000Y-147500000D03*
X92600000Y-93500000D03*
X87400000Y-95300000D03*
X90900000Y-192500000D03*
X87400000Y-116900000D03*
X90900000Y-120500000D03*
X87400000Y-179900000D03*
X92600000Y-122300000D03*
X92600000Y-113300000D03*
X89100000Y-124100000D03*
X87400000Y-122300000D03*
X92600000Y-169100000D03*
X90900000Y-129500000D03*
X92600000Y-205100000D03*
X89100000Y-192500000D03*
X90900000Y-113300000D03*
X89100000Y-97100000D03*
X87400000Y-125900000D03*
X89100000Y-129500000D03*
X89100000Y-95300000D03*
X90900000Y-178100000D03*
X92600000Y-131300000D03*
X87400000Y-194300000D03*
X89100000Y-122300000D03*
X92600000Y-190700000D03*
X89100000Y-131300000D03*
X90900000Y-156500000D03*
X92600000Y-149300000D03*
X89100000Y-134900000D03*
X87400000Y-131300000D03*
X90900000Y-167300000D03*
X87400000Y-161900000D03*
X92600000Y-201500000D03*
X87400000Y-127700000D03*
X89100000Y-194300000D03*
X92600000Y-107900000D03*
X92600000Y-187100000D03*
X92600000Y-163700000D03*
X92600000Y-104300000D03*
X90900000Y-102500000D03*
X87400000Y-190700000D03*
X90900000Y-145700000D03*
X90900000Y-174500000D03*
X89100000Y-116900000D03*
X90900000Y-143900000D03*
X89100000Y-203300000D03*
X87400000Y-203300000D03*
X90900000Y-206900000D03*
X87400000Y-206900000D03*
X87400000Y-107900000D03*
X89100000Y-120500000D03*
X92600000Y-192500000D03*
X90900000Y-97100000D03*
X87400000Y-109700000D03*
X87400000Y-93500000D03*
X92600000Y-106100000D03*
X90900000Y-124100000D03*
X87400000Y-140300000D03*
X90900000Y-149300000D03*
X89100000Y-176300000D03*
X90900000Y-158300000D03*
X92600000Y-134900000D03*
X89100000Y-188900000D03*
X87400000Y-158300000D03*
X89100000Y-138500000D03*
X87400000Y-118700000D03*
X92600000Y-154700000D03*
X87400000Y-160100000D03*
X92600000Y-143900000D03*
X92600000Y-181700000D03*
X89100000Y-208700000D03*
X87400000Y-192500000D03*
X87400000Y-138500000D03*
X90900000Y-91700000D03*
X87400000Y-98900000D03*
X89100000Y-127700000D03*
X92600000Y-197900000D03*
X90900000Y-201500000D03*
X90900000Y-179900000D03*
X92600000Y-97100000D03*
X90900000Y-188900000D03*
X87400000Y-188900000D03*
X92600000Y-147500000D03*
X92600000Y-203300000D03*
X92600000Y-196100000D03*
X89100000Y-140300000D03*
X90900000Y-136700000D03*
X89100000Y-187100000D03*
X92600000Y-185300000D03*
X87400000Y-196100000D03*
X92600000Y-194300000D03*
X90900000Y-170900000D03*
X90900000Y-185300000D03*
X90900000Y-127700000D03*
X92600000Y-158300000D03*
X90900000Y-138500000D03*
X89100000Y-178100000D03*
X90900000Y-154700000D03*
X89100000Y-205100000D03*
X90900000Y-109700000D03*
X92600000Y-152900000D03*
X87400000Y-100700000D03*
X89100000Y-185300000D03*
X89100000Y-160100000D03*
X90900000Y-181700000D03*
X92600000Y-160100000D03*
X89100000Y-106100000D03*
X89100000Y-199700000D03*
X87400000Y-115100000D03*
X87400000Y-104300000D03*
X92600000Y-206900000D03*
X87400000Y-106100000D03*
X87400000Y-185300000D03*
X90900000Y-152900000D03*
X92600000Y-188900000D03*
X90900000Y-93500000D03*
X89100000Y-136700000D03*
X90900000Y-98900000D03*
X92600000Y-116900000D03*
X92600000Y-174500000D03*
X92600000Y-165500000D03*
X92600000Y-156500000D03*
X87400000Y-208700000D03*
X89100000Y-158300000D03*
X92600000Y-115100000D03*
X89100000Y-125900000D03*
X90900000Y-131300000D03*
X90900000Y-118700000D03*
X89100000Y-107900000D03*
X90900000Y-111500000D03*
X87400000Y-199700000D03*
X92600000Y-183500000D03*
X92600000Y-199700000D03*
X87400000Y-97100000D03*
X90900000Y-169100000D03*
X90900000Y-134900000D03*
X87400000Y-120500000D03*
X87400000Y-134900000D03*
X92600000Y-120500000D03*
X87400000Y-181700000D03*
X92600000Y-125900000D03*
X90900000Y-205100000D03*
X90900000Y-176300000D03*
X89100000Y-190700000D03*
X90900000Y-160100000D03*
X90900000Y-95300000D03*
X89100000Y-104300000D03*
X87400000Y-197900000D03*
X90900000Y-142100000D03*
X87400000Y-156500000D03*
X92600000Y-145700000D03*
X89100000Y-179900000D03*
X90900000Y-104300000D03*
X89100000Y-98900000D03*
X90900000Y-172700000D03*
X92600000Y-170900000D03*
X90900000Y-151100000D03*
X92600000Y-142100000D03*
X87400000Y-111500000D03*
X89100000Y-102500000D03*
X92600000Y-109700000D03*
X90900000Y-203300000D03*
X89100000Y-181700000D03*
X92600000Y-111500000D03*
X90900000Y-194300000D03*
X90900000Y-106100000D03*
X90900000Y-125900000D03*
X87400000Y-201500000D03*
X92600000Y-138500000D03*
X89100000Y-118700000D03*
X92600000Y-136700000D03*
X90900000Y-183500000D03*
G04 #@! TO.N,/CELL_3*
X206800000Y-65200000D03*
X203300000Y-94000000D03*
X206800000Y-157000000D03*
X205000000Y-76000000D03*
X203300000Y-155200000D03*
X206800000Y-175000000D03*
X206800000Y-162400000D03*
X208500000Y-86800000D03*
X208500000Y-126400000D03*
X203300000Y-175000000D03*
X206800000Y-92200000D03*
X203300000Y-115600000D03*
X206800000Y-85000000D03*
X206800000Y-167800000D03*
X206800000Y-149800000D03*
X206800000Y-171400000D03*
X203300000Y-97600000D03*
X205000000Y-68800000D03*
X203300000Y-110200000D03*
X205000000Y-157000000D03*
X208500000Y-142600000D03*
X203300000Y-162400000D03*
X208500000Y-63400000D03*
X208500000Y-76000000D03*
X206800000Y-155200000D03*
X208500000Y-97600000D03*
X206800000Y-144400000D03*
X205000000Y-79600000D03*
X203300000Y-135400000D03*
X206800000Y-113800000D03*
X203300000Y-166000000D03*
X208500000Y-119200000D03*
X203300000Y-157000000D03*
X205000000Y-128200000D03*
X205000000Y-144400000D03*
X205000000Y-97600000D03*
X205000000Y-99400000D03*
X206800000Y-128200000D03*
X203300000Y-108400000D03*
X206800000Y-76000000D03*
X205000000Y-169600000D03*
X203300000Y-90400000D03*
X208500000Y-70600000D03*
X206800000Y-164200000D03*
X206800000Y-77800000D03*
X205000000Y-85000000D03*
X205000000Y-121000000D03*
X206800000Y-86800000D03*
X208500000Y-108400000D03*
X206800000Y-140800000D03*
X205000000Y-106600000D03*
X203300000Y-88600000D03*
X206800000Y-108400000D03*
X203300000Y-139000000D03*
X203300000Y-124600000D03*
X206800000Y-173200000D03*
X208500000Y-153400000D03*
X203300000Y-92200000D03*
X208500000Y-151600000D03*
X208500000Y-162400000D03*
X205000000Y-149800000D03*
X206800000Y-106600000D03*
X203300000Y-121000000D03*
X205000000Y-117400000D03*
X203300000Y-77800000D03*
X203300000Y-171400000D03*
X203300000Y-117400000D03*
X208500000Y-146200000D03*
X205000000Y-126400000D03*
X205000000Y-130000000D03*
X208500000Y-130000000D03*
X203300000Y-126400000D03*
X205000000Y-164200000D03*
X206800000Y-151600000D03*
X203300000Y-72400000D03*
X206800000Y-148000000D03*
X205000000Y-153400000D03*
X208500000Y-140800000D03*
X208500000Y-61600000D03*
X206800000Y-83200000D03*
X203300000Y-158800000D03*
X203300000Y-106600000D03*
X208500000Y-90400000D03*
X206800000Y-153400000D03*
X203300000Y-86800000D03*
X208500000Y-160600000D03*
X205000000Y-86800000D03*
X206800000Y-70600000D03*
X203300000Y-95800000D03*
X208500000Y-117400000D03*
X208500000Y-99400000D03*
X205000000Y-88600000D03*
X208500000Y-157000000D03*
X208500000Y-110200000D03*
X206800000Y-103000000D03*
X203300000Y-113800000D03*
X203300000Y-61600000D03*
X208500000Y-79600000D03*
X206800000Y-112000000D03*
X206800000Y-74200000D03*
X205000000Y-70600000D03*
X203300000Y-79600000D03*
X208500000Y-171400000D03*
X206800000Y-81400000D03*
X206800000Y-97600000D03*
X206800000Y-121000000D03*
X208500000Y-85000000D03*
X206800000Y-169600000D03*
X203300000Y-104800000D03*
X205000000Y-67000000D03*
X203300000Y-58000000D03*
X203300000Y-74200000D03*
X205000000Y-113800000D03*
X203300000Y-167800000D03*
X205000000Y-151600000D03*
X205000000Y-81400000D03*
X203300000Y-81400000D03*
X203300000Y-142600000D03*
X206800000Y-101200000D03*
X206800000Y-139000000D03*
X205000000Y-65200000D03*
X205000000Y-101200000D03*
X203300000Y-67000000D03*
X206800000Y-99400000D03*
X203300000Y-122800000D03*
X206800000Y-63400000D03*
X206800000Y-79600000D03*
X208500000Y-65200000D03*
X206800000Y-142600000D03*
X208500000Y-81400000D03*
X205000000Y-142600000D03*
X208500000Y-92200000D03*
X203300000Y-130000000D03*
X203300000Y-151600000D03*
X206800000Y-95800000D03*
X208500000Y-101200000D03*
X206800000Y-124600000D03*
X205000000Y-148000000D03*
X205000000Y-122800000D03*
X205000000Y-155200000D03*
X208500000Y-135400000D03*
X203300000Y-112000000D03*
X205000000Y-59800000D03*
X208500000Y-113800000D03*
X203300000Y-149800000D03*
X205000000Y-137200000D03*
X205000000Y-104800000D03*
X208500000Y-128200000D03*
X206800000Y-104800000D03*
X206800000Y-119200000D03*
X203300000Y-144400000D03*
X208500000Y-58000000D03*
X206800000Y-160600000D03*
X208500000Y-59800000D03*
X205000000Y-90400000D03*
X206800000Y-166000000D03*
X205000000Y-171400000D03*
X208500000Y-158800000D03*
X205000000Y-139000000D03*
X208500000Y-175000000D03*
X208500000Y-95800000D03*
X203300000Y-63400000D03*
X206800000Y-130000000D03*
X208500000Y-124600000D03*
X205000000Y-140800000D03*
X208500000Y-149800000D03*
X205000000Y-166000000D03*
X205000000Y-83200000D03*
X208500000Y-122800000D03*
X208500000Y-139000000D03*
X205000000Y-94000000D03*
X208500000Y-104800000D03*
X206800000Y-117400000D03*
X206800000Y-110200000D03*
X203300000Y-173200000D03*
X205000000Y-160600000D03*
X205000000Y-74200000D03*
X205000000Y-162400000D03*
X203300000Y-99400000D03*
X203300000Y-76000000D03*
X208500000Y-155200000D03*
X205000000Y-63400000D03*
X208500000Y-74200000D03*
X205000000Y-61600000D03*
X205000000Y-72400000D03*
X206800000Y-59800000D03*
X206800000Y-94000000D03*
X203300000Y-146200000D03*
X205000000Y-92200000D03*
X206800000Y-72400000D03*
X206800000Y-58000000D03*
X205000000Y-115600000D03*
X203300000Y-68800000D03*
X208500000Y-68800000D03*
X205000000Y-175000000D03*
X208500000Y-169600000D03*
X208500000Y-88600000D03*
X208500000Y-83200000D03*
X206800000Y-146200000D03*
X208500000Y-103000000D03*
X208500000Y-144400000D03*
X205000000Y-124600000D03*
X208500000Y-148000000D03*
X205000000Y-173200000D03*
X208500000Y-173200000D03*
X206800000Y-68800000D03*
X206800000Y-135400000D03*
X206800000Y-137200000D03*
X205000000Y-167800000D03*
X208500000Y-137200000D03*
X208500000Y-67000000D03*
X203300000Y-164200000D03*
X203300000Y-140800000D03*
X205000000Y-103000000D03*
X206800000Y-115600000D03*
X206800000Y-90400000D03*
X206800000Y-88600000D03*
X203300000Y-169600000D03*
X208500000Y-94000000D03*
X208500000Y-72400000D03*
X205000000Y-112000000D03*
X205000000Y-119200000D03*
X206800000Y-122800000D03*
X203300000Y-101200000D03*
X205000000Y-58000000D03*
X203300000Y-59800000D03*
X208500000Y-106600000D03*
X205000000Y-95800000D03*
X206800000Y-158800000D03*
X208500000Y-121000000D03*
X208500000Y-164200000D03*
X208500000Y-167800000D03*
X208500000Y-166000000D03*
X205000000Y-108400000D03*
X205000000Y-135400000D03*
X205000000Y-77800000D03*
X205000000Y-158800000D03*
X208500000Y-77800000D03*
X203300000Y-137200000D03*
X203300000Y-148000000D03*
X206800000Y-61600000D03*
X208500000Y-115600000D03*
X203300000Y-160600000D03*
X203300000Y-85000000D03*
X205000000Y-110200000D03*
X206800000Y-126400000D03*
X203300000Y-128200000D03*
X206800000Y-67000000D03*
X205000000Y-146200000D03*
X203300000Y-70600000D03*
X208500000Y-112000000D03*
X203300000Y-83200000D03*
X203300000Y-153400000D03*
X203300000Y-119200000D03*
X203300000Y-65200000D03*
X203300000Y-103000000D03*
G04 #@! TO.N,/CELL_11*
X122500000Y-103100000D03*
X119000000Y-139100000D03*
X124200000Y-144500000D03*
X120700000Y-74300000D03*
X120700000Y-160700000D03*
X119000000Y-149900000D03*
X119000000Y-72500000D03*
X122500000Y-124700000D03*
X122500000Y-167900000D03*
X122500000Y-79700000D03*
X119000000Y-112100000D03*
X120700000Y-79700000D03*
X122500000Y-122900000D03*
X124200000Y-155300000D03*
X124200000Y-79700000D03*
X124200000Y-67100000D03*
X122500000Y-67100000D03*
X124200000Y-81500000D03*
X119000000Y-58100000D03*
X124200000Y-162500000D03*
X124200000Y-108500000D03*
X122500000Y-76100000D03*
X122500000Y-99500000D03*
X119000000Y-83300000D03*
X124200000Y-83300000D03*
X120700000Y-119300000D03*
X122500000Y-155300000D03*
X122500000Y-59900000D03*
X120700000Y-104900000D03*
X120700000Y-58100000D03*
X124200000Y-63500000D03*
X120700000Y-142700000D03*
X122500000Y-90500000D03*
X119000000Y-79700000D03*
X119000000Y-88700000D03*
X122500000Y-112100000D03*
X120700000Y-157100000D03*
X124200000Y-117500000D03*
X119000000Y-142700000D03*
X124200000Y-166100000D03*
X119000000Y-61700000D03*
X119000000Y-144500000D03*
X119000000Y-104900000D03*
X122500000Y-140900000D03*
X119000000Y-76100000D03*
X119000000Y-126500000D03*
X124200000Y-151700000D03*
X119000000Y-146300000D03*
X124200000Y-157100000D03*
X122500000Y-139100000D03*
X124200000Y-139100000D03*
X119000000Y-99500000D03*
X122500000Y-119300000D03*
X122500000Y-70700000D03*
X124200000Y-77900000D03*
X124200000Y-173300000D03*
X120700000Y-110300000D03*
X120700000Y-103100000D03*
X124200000Y-164300000D03*
X120700000Y-99500000D03*
X119000000Y-148100000D03*
X122500000Y-72500000D03*
X122500000Y-142700000D03*
X124200000Y-101300000D03*
X122500000Y-162500000D03*
X120700000Y-61700000D03*
X119000000Y-90500000D03*
X122500000Y-104900000D03*
X119000000Y-103100000D03*
X119000000Y-67100000D03*
X122500000Y-171500000D03*
X122500000Y-146300000D03*
X119000000Y-160700000D03*
X122500000Y-148100000D03*
X119000000Y-119300000D03*
X119000000Y-121100000D03*
X124200000Y-169700000D03*
X119000000Y-106700000D03*
X120700000Y-135500000D03*
X120700000Y-95900000D03*
X119000000Y-175100000D03*
X120700000Y-113900000D03*
X122500000Y-121100000D03*
X122500000Y-130100000D03*
X120700000Y-101300000D03*
X120700000Y-153500000D03*
X119000000Y-101300000D03*
X120700000Y-117500000D03*
X119000000Y-135500000D03*
X120700000Y-139100000D03*
X124200000Y-140900000D03*
X120700000Y-167900000D03*
X124200000Y-130100000D03*
X124200000Y-86900000D03*
X120700000Y-151700000D03*
X120700000Y-76100000D03*
X120700000Y-59900000D03*
X122500000Y-92300000D03*
X124200000Y-72500000D03*
X122500000Y-135500000D03*
X124200000Y-119300000D03*
X120700000Y-83300000D03*
X122500000Y-95900000D03*
X122500000Y-164300000D03*
X122500000Y-166100000D03*
X124200000Y-65300000D03*
X119000000Y-153500000D03*
X124200000Y-106700000D03*
X119000000Y-92300000D03*
X119000000Y-151700000D03*
X124200000Y-97700000D03*
X119000000Y-94100000D03*
X122500000Y-86900000D03*
X124200000Y-58100000D03*
X122500000Y-126500000D03*
X124200000Y-126500000D03*
X122500000Y-108500000D03*
X119000000Y-158900000D03*
X120700000Y-155300000D03*
X122500000Y-101300000D03*
X124200000Y-61700000D03*
X124200000Y-92300000D03*
X120700000Y-86900000D03*
X119000000Y-157100000D03*
X124200000Y-124700000D03*
X124200000Y-167900000D03*
X120700000Y-68900000D03*
X120700000Y-121100000D03*
X124200000Y-175100000D03*
X124200000Y-59900000D03*
X122500000Y-85100000D03*
X120700000Y-67100000D03*
X124200000Y-153500000D03*
X124200000Y-149900000D03*
X124200000Y-122900000D03*
X124200000Y-70700000D03*
X124200000Y-158900000D03*
X120700000Y-169700000D03*
X122500000Y-63500000D03*
X120700000Y-92300000D03*
X120700000Y-164300000D03*
X124200000Y-110300000D03*
X124200000Y-128300000D03*
X119000000Y-128300000D03*
X122500000Y-94100000D03*
X122500000Y-77900000D03*
X120700000Y-162500000D03*
X124200000Y-142700000D03*
X119000000Y-140900000D03*
X124200000Y-94100000D03*
X122500000Y-153500000D03*
X119000000Y-95900000D03*
X122500000Y-151700000D03*
X122500000Y-115700000D03*
X124200000Y-121100000D03*
X122500000Y-175100000D03*
X120700000Y-72500000D03*
X122500000Y-74300000D03*
X119000000Y-70700000D03*
X120700000Y-88700000D03*
X119000000Y-167900000D03*
X119000000Y-97700000D03*
X119000000Y-169700000D03*
X120700000Y-65300000D03*
X119000000Y-110300000D03*
X120700000Y-94100000D03*
X120700000Y-130100000D03*
X119000000Y-166100000D03*
X122500000Y-128300000D03*
X120700000Y-128300000D03*
X120700000Y-140900000D03*
X119000000Y-124700000D03*
X122500000Y-106700000D03*
X124200000Y-76100000D03*
X122500000Y-173300000D03*
X120700000Y-70700000D03*
X119000000Y-171500000D03*
X120700000Y-173300000D03*
X120700000Y-106700000D03*
X119000000Y-155300000D03*
X119000000Y-173300000D03*
X119000000Y-113900000D03*
X124200000Y-137300000D03*
X119000000Y-117500000D03*
X124200000Y-171500000D03*
X122500000Y-81500000D03*
X119000000Y-85100000D03*
X120700000Y-115700000D03*
X120700000Y-77900000D03*
X120700000Y-63500000D03*
X119000000Y-162500000D03*
X120700000Y-97700000D03*
X120700000Y-146300000D03*
X122500000Y-144500000D03*
X122500000Y-169700000D03*
X120700000Y-158900000D03*
X120700000Y-122900000D03*
X124200000Y-103100000D03*
X122500000Y-137300000D03*
X122500000Y-68900000D03*
X124200000Y-113900000D03*
X124200000Y-135500000D03*
X122500000Y-160700000D03*
X120700000Y-175100000D03*
X124200000Y-160700000D03*
X122500000Y-110300000D03*
X120700000Y-112100000D03*
X124200000Y-85100000D03*
X119000000Y-74300000D03*
X120700000Y-149900000D03*
X124200000Y-99500000D03*
X120700000Y-90500000D03*
X124200000Y-95900000D03*
X122500000Y-149900000D03*
X124200000Y-104900000D03*
X122500000Y-117500000D03*
X119000000Y-77900000D03*
X120700000Y-137300000D03*
X122500000Y-83300000D03*
X122500000Y-97700000D03*
X122500000Y-65300000D03*
X122500000Y-58100000D03*
X124200000Y-90500000D03*
X119000000Y-122900000D03*
X122500000Y-61700000D03*
X120700000Y-126500000D03*
X124200000Y-146300000D03*
X122500000Y-158900000D03*
X119000000Y-63500000D03*
X124200000Y-112100000D03*
X119000000Y-137300000D03*
X122500000Y-157100000D03*
X120700000Y-144500000D03*
X120700000Y-81500000D03*
X122500000Y-88700000D03*
X120700000Y-108500000D03*
X119000000Y-115700000D03*
X119000000Y-108500000D03*
X124200000Y-88700000D03*
X119000000Y-59900000D03*
X120700000Y-166100000D03*
X119000000Y-81500000D03*
X119000000Y-130100000D03*
X124200000Y-68900000D03*
X119000000Y-164300000D03*
X119000000Y-65300000D03*
X124200000Y-115700000D03*
X120700000Y-171500000D03*
X120700000Y-85100000D03*
X122500000Y-113900000D03*
X124200000Y-74300000D03*
X119000000Y-86900000D03*
X119000000Y-68900000D03*
X124200000Y-148100000D03*
X120700000Y-124700000D03*
X120700000Y-148100000D03*
G04 #@! TO.N,/CELL_1*
X229700000Y-166100000D03*
X228000000Y-94100000D03*
X228000000Y-148100000D03*
X226200000Y-126500000D03*
X226200000Y-70700000D03*
X224500000Y-162500000D03*
X229700000Y-146300000D03*
X224500000Y-173300000D03*
X224500000Y-92300000D03*
X229700000Y-74300000D03*
X229700000Y-81500000D03*
X228000000Y-81500000D03*
X224500000Y-101300000D03*
X229700000Y-169700000D03*
X224500000Y-160700000D03*
X229700000Y-59900000D03*
X224500000Y-110300000D03*
X224500000Y-72500000D03*
X224500000Y-167900000D03*
X224500000Y-65300000D03*
X229700000Y-99500000D03*
X228000000Y-79700000D03*
X226200000Y-85100000D03*
X226200000Y-58100000D03*
X226200000Y-63500000D03*
X229700000Y-140900000D03*
X224500000Y-140900000D03*
X228000000Y-122900000D03*
X226200000Y-124700000D03*
X229700000Y-94100000D03*
X228000000Y-144500000D03*
X226200000Y-160700000D03*
X228000000Y-130100000D03*
X228000000Y-173300000D03*
X229700000Y-173300000D03*
X229700000Y-130100000D03*
X228000000Y-86900000D03*
X229700000Y-110300000D03*
X226200000Y-101300000D03*
X229700000Y-58100000D03*
X229700000Y-108500000D03*
X224500000Y-126500000D03*
X224500000Y-106700000D03*
X229700000Y-85100000D03*
X224500000Y-119300000D03*
X224500000Y-79700000D03*
X229700000Y-122900000D03*
X224500000Y-85100000D03*
X229700000Y-113900000D03*
X224500000Y-112100000D03*
X228000000Y-126500000D03*
X224500000Y-121100000D03*
X224500000Y-68900000D03*
X229700000Y-103100000D03*
X224500000Y-86900000D03*
X226200000Y-121100000D03*
X229700000Y-72500000D03*
X229700000Y-95900000D03*
X228000000Y-140900000D03*
X228000000Y-128300000D03*
X229700000Y-67100000D03*
X229700000Y-175100000D03*
X226200000Y-169700000D03*
X228000000Y-124700000D03*
X226200000Y-65300000D03*
X226200000Y-153500000D03*
X226200000Y-72500000D03*
X228000000Y-76100000D03*
X228000000Y-119300000D03*
X226200000Y-74300000D03*
X224500000Y-63500000D03*
X229700000Y-167900000D03*
X226200000Y-175100000D03*
X229700000Y-160700000D03*
X228000000Y-149900000D03*
X224500000Y-135500000D03*
X226200000Y-113900000D03*
X224500000Y-58100000D03*
X228000000Y-108500000D03*
X226200000Y-167900000D03*
X226200000Y-83300000D03*
X224500000Y-90500000D03*
X224500000Y-117500000D03*
X226200000Y-94100000D03*
X229700000Y-104900000D03*
X224500000Y-95900000D03*
X228000000Y-58100000D03*
X224500000Y-128300000D03*
X228000000Y-97700000D03*
X229700000Y-128300000D03*
X228000000Y-135500000D03*
X228000000Y-117500000D03*
X226200000Y-90500000D03*
X228000000Y-95900000D03*
X226200000Y-61700000D03*
X224500000Y-77900000D03*
X226200000Y-59900000D03*
X229700000Y-97700000D03*
X229700000Y-149900000D03*
X226200000Y-158900000D03*
X229700000Y-142700000D03*
X226200000Y-86900000D03*
X226200000Y-77900000D03*
X228000000Y-92300000D03*
X228000000Y-121100000D03*
X229700000Y-135500000D03*
X224500000Y-153500000D03*
X229700000Y-164300000D03*
X228000000Y-59900000D03*
X224500000Y-61700000D03*
X226200000Y-128300000D03*
X226200000Y-162500000D03*
X224500000Y-151700000D03*
X226200000Y-144500000D03*
X224500000Y-76100000D03*
X228000000Y-137300000D03*
X229700000Y-151700000D03*
X226200000Y-164300000D03*
X226200000Y-99500000D03*
X226200000Y-171500000D03*
X226200000Y-106700000D03*
X226200000Y-146300000D03*
X226200000Y-148100000D03*
X228000000Y-88700000D03*
X229700000Y-88700000D03*
X229700000Y-119300000D03*
X226200000Y-92300000D03*
X229700000Y-162500000D03*
X224500000Y-171500000D03*
X224500000Y-149900000D03*
X228000000Y-166100000D03*
X226200000Y-142700000D03*
X226200000Y-137300000D03*
X228000000Y-142700000D03*
X226200000Y-166100000D03*
X229700000Y-112100000D03*
X224500000Y-155300000D03*
X229700000Y-157100000D03*
X228000000Y-171500000D03*
X228000000Y-61700000D03*
X224500000Y-88700000D03*
X224500000Y-146300000D03*
X226200000Y-173300000D03*
X229700000Y-63500000D03*
X228000000Y-139100000D03*
X224500000Y-148100000D03*
X229700000Y-126500000D03*
X226200000Y-122900000D03*
X228000000Y-67100000D03*
X228000000Y-99500000D03*
X228000000Y-101300000D03*
X224500000Y-74300000D03*
X228000000Y-169700000D03*
X224500000Y-104900000D03*
X226200000Y-117500000D03*
X226200000Y-112100000D03*
X226200000Y-67100000D03*
X228000000Y-104900000D03*
X229700000Y-77900000D03*
X224500000Y-124700000D03*
X226200000Y-119300000D03*
X228000000Y-112100000D03*
X224500000Y-99500000D03*
X226200000Y-130100000D03*
X224500000Y-122900000D03*
X228000000Y-106700000D03*
X226200000Y-139100000D03*
X226200000Y-140900000D03*
X226200000Y-155300000D03*
X229700000Y-137300000D03*
X229700000Y-76100000D03*
X224500000Y-164300000D03*
X228000000Y-85100000D03*
X229700000Y-117500000D03*
X224500000Y-137300000D03*
X228000000Y-90500000D03*
X229700000Y-148100000D03*
X229700000Y-153500000D03*
X226200000Y-88700000D03*
X229700000Y-155300000D03*
X224500000Y-83300000D03*
X226200000Y-68900000D03*
X226200000Y-104900000D03*
X226200000Y-103100000D03*
X228000000Y-175100000D03*
X228000000Y-113900000D03*
X226200000Y-149900000D03*
X228000000Y-68900000D03*
X224500000Y-113900000D03*
X228000000Y-155300000D03*
X224500000Y-59900000D03*
X226200000Y-157100000D03*
X226200000Y-95900000D03*
X228000000Y-77900000D03*
X229700000Y-68900000D03*
X229700000Y-115700000D03*
X226200000Y-110300000D03*
X228000000Y-74300000D03*
X229700000Y-83300000D03*
X228000000Y-63500000D03*
X224500000Y-175100000D03*
X229700000Y-101300000D03*
X224500000Y-144500000D03*
X224500000Y-103100000D03*
X226200000Y-108500000D03*
X229700000Y-139100000D03*
X229700000Y-106700000D03*
X229700000Y-70700000D03*
X224500000Y-70700000D03*
X224500000Y-142700000D03*
X228000000Y-70700000D03*
X229700000Y-171500000D03*
X229700000Y-144500000D03*
X224500000Y-158900000D03*
X226200000Y-151700000D03*
X228000000Y-160700000D03*
X228000000Y-164300000D03*
X224500000Y-130100000D03*
X224500000Y-108500000D03*
X228000000Y-146300000D03*
X228000000Y-167900000D03*
X228000000Y-162500000D03*
X228000000Y-157100000D03*
X226200000Y-97700000D03*
X226200000Y-115700000D03*
X228000000Y-153500000D03*
X228000000Y-72500000D03*
X229700000Y-61700000D03*
X228000000Y-83300000D03*
X224500000Y-139100000D03*
X228000000Y-103100000D03*
X224500000Y-166100000D03*
X228000000Y-151700000D03*
X224500000Y-169700000D03*
X224500000Y-97700000D03*
X226200000Y-76100000D03*
X228000000Y-110300000D03*
X229700000Y-79700000D03*
X224500000Y-81500000D03*
X224500000Y-115700000D03*
X228000000Y-115700000D03*
X229700000Y-158900000D03*
X229700000Y-124700000D03*
X229700000Y-86900000D03*
X229700000Y-92300000D03*
X226200000Y-81500000D03*
X226200000Y-79700000D03*
X224500000Y-157100000D03*
X229700000Y-121100000D03*
X224500000Y-94100000D03*
X226200000Y-135500000D03*
X228000000Y-65300000D03*
X228000000Y-158900000D03*
X229700000Y-90500000D03*
X224500000Y-67100000D03*
X229700000Y-65300000D03*
G04 #@! TO.N,/CELL_9*
X140100000Y-164300000D03*
X145300000Y-155300000D03*
X143600000Y-160700000D03*
X143600000Y-164300000D03*
X140100000Y-74300000D03*
X143600000Y-126500000D03*
X143600000Y-74300000D03*
X143600000Y-95900000D03*
X140100000Y-95900000D03*
X143600000Y-63500000D03*
X140100000Y-144500000D03*
X143600000Y-99500000D03*
X143600000Y-146300000D03*
X143600000Y-158900000D03*
X140100000Y-86900000D03*
X143600000Y-121100000D03*
X143600000Y-140900000D03*
X145300000Y-171500000D03*
X145300000Y-86900000D03*
X145300000Y-90500000D03*
X141800000Y-63500000D03*
X141800000Y-86900000D03*
X140100000Y-76100000D03*
X143600000Y-97700000D03*
X143600000Y-162500000D03*
X145300000Y-113900000D03*
X145300000Y-61700000D03*
X145300000Y-94100000D03*
X140100000Y-137300000D03*
X143600000Y-124700000D03*
X145300000Y-119300000D03*
X143600000Y-65300000D03*
X140100000Y-151700000D03*
X141800000Y-104900000D03*
X145300000Y-58100000D03*
X140100000Y-101300000D03*
X140100000Y-63500000D03*
X141800000Y-101300000D03*
X141800000Y-153500000D03*
X141800000Y-79700000D03*
X141800000Y-99500000D03*
X141800000Y-92300000D03*
X141800000Y-148100000D03*
X145300000Y-103100000D03*
X145300000Y-63500000D03*
X141800000Y-108500000D03*
X145300000Y-126500000D03*
X141800000Y-115700000D03*
X141800000Y-142700000D03*
X140100000Y-122900000D03*
X141800000Y-171500000D03*
X141800000Y-61700000D03*
X145300000Y-115700000D03*
X143600000Y-166100000D03*
X141800000Y-157100000D03*
X141800000Y-113900000D03*
X140100000Y-153500000D03*
X143600000Y-155300000D03*
X140100000Y-119300000D03*
X141800000Y-110300000D03*
X140100000Y-157100000D03*
X145300000Y-151700000D03*
X140100000Y-59900000D03*
X143600000Y-151700000D03*
X141800000Y-149900000D03*
X140100000Y-97700000D03*
X145300000Y-167900000D03*
X140100000Y-88700000D03*
X143600000Y-106700000D03*
X141800000Y-117500000D03*
X145300000Y-124700000D03*
X145300000Y-108500000D03*
X140100000Y-79700000D03*
X145300000Y-160700000D03*
X143600000Y-76100000D03*
X145300000Y-117500000D03*
X140100000Y-58100000D03*
X143600000Y-103100000D03*
X145300000Y-139100000D03*
X143600000Y-79700000D03*
X141800000Y-175100000D03*
X140100000Y-124700000D03*
X140100000Y-126500000D03*
X140100000Y-166100000D03*
X140100000Y-67100000D03*
X143600000Y-67100000D03*
X141800000Y-164300000D03*
X141800000Y-151700000D03*
X145300000Y-137300000D03*
X143600000Y-108500000D03*
X141800000Y-167900000D03*
X140100000Y-70700000D03*
X141800000Y-95900000D03*
X141800000Y-160700000D03*
X140100000Y-146300000D03*
X143600000Y-113900000D03*
X145300000Y-149900000D03*
X141800000Y-135500000D03*
X145300000Y-112100000D03*
X140100000Y-140900000D03*
X141800000Y-166100000D03*
X140100000Y-65300000D03*
X140100000Y-92300000D03*
X140100000Y-167900000D03*
X143600000Y-92300000D03*
X143600000Y-128300000D03*
X145300000Y-74300000D03*
X140100000Y-110300000D03*
X145300000Y-166100000D03*
X140100000Y-90500000D03*
X143600000Y-130100000D03*
X141800000Y-59900000D03*
X140100000Y-83300000D03*
X145300000Y-67100000D03*
X145300000Y-65300000D03*
X141800000Y-68900000D03*
X143600000Y-59900000D03*
X141800000Y-103100000D03*
X141800000Y-77900000D03*
X143600000Y-142700000D03*
X143600000Y-122900000D03*
X141800000Y-139100000D03*
X145300000Y-70700000D03*
X145300000Y-99500000D03*
X143600000Y-171500000D03*
X141800000Y-58100000D03*
X140100000Y-130100000D03*
X140100000Y-173300000D03*
X141800000Y-112100000D03*
X143600000Y-137300000D03*
X145300000Y-140900000D03*
X141800000Y-97700000D03*
X143600000Y-157100000D03*
X141800000Y-67100000D03*
X145300000Y-158900000D03*
X141800000Y-122900000D03*
X143600000Y-115700000D03*
X145300000Y-175100000D03*
X143600000Y-94100000D03*
X140100000Y-113900000D03*
X143600000Y-169700000D03*
X145300000Y-144500000D03*
X141800000Y-130100000D03*
X140100000Y-162500000D03*
X145300000Y-164300000D03*
X140100000Y-103100000D03*
X145300000Y-92300000D03*
X141800000Y-173300000D03*
X141800000Y-162500000D03*
X145300000Y-68900000D03*
X145300000Y-153500000D03*
X140100000Y-148100000D03*
X143600000Y-139100000D03*
X140100000Y-94100000D03*
X140100000Y-68900000D03*
X141800000Y-119300000D03*
X145300000Y-169700000D03*
X140100000Y-139100000D03*
X140100000Y-121100000D03*
X145300000Y-79700000D03*
X145300000Y-122900000D03*
X141800000Y-155300000D03*
X145300000Y-106700000D03*
X143600000Y-148100000D03*
X143600000Y-173300000D03*
X145300000Y-173300000D03*
X141800000Y-124700000D03*
X141800000Y-140900000D03*
X141800000Y-90500000D03*
X141800000Y-72500000D03*
X143600000Y-83300000D03*
X141800000Y-76100000D03*
X140100000Y-175100000D03*
X145300000Y-83300000D03*
X143600000Y-175100000D03*
X145300000Y-146300000D03*
X143600000Y-90500000D03*
X145300000Y-77900000D03*
X140100000Y-155300000D03*
X143600000Y-85100000D03*
X140100000Y-158900000D03*
X145300000Y-88700000D03*
X145300000Y-97700000D03*
X140100000Y-160700000D03*
X145300000Y-135500000D03*
X141800000Y-137300000D03*
X143600000Y-149900000D03*
X143600000Y-61700000D03*
X145300000Y-95900000D03*
X143600000Y-153500000D03*
X140100000Y-104900000D03*
X140100000Y-149900000D03*
X140100000Y-77900000D03*
X143600000Y-119300000D03*
X140100000Y-106700000D03*
X145300000Y-85100000D03*
X145300000Y-128300000D03*
X145300000Y-130100000D03*
X141800000Y-65300000D03*
X145300000Y-72500000D03*
X141800000Y-144500000D03*
X145300000Y-148100000D03*
X143600000Y-86900000D03*
X145300000Y-142700000D03*
X141800000Y-126500000D03*
X141800000Y-81500000D03*
X141800000Y-70700000D03*
X140100000Y-169700000D03*
X141800000Y-88700000D03*
X145300000Y-101300000D03*
X145300000Y-162500000D03*
X140100000Y-108500000D03*
X140100000Y-171500000D03*
X140100000Y-117500000D03*
X145300000Y-81500000D03*
X140100000Y-85100000D03*
X141800000Y-128300000D03*
X143600000Y-81500000D03*
X141800000Y-158900000D03*
X145300000Y-76100000D03*
X141800000Y-74300000D03*
X140100000Y-112100000D03*
X143600000Y-68900000D03*
X145300000Y-110300000D03*
X143600000Y-112100000D03*
X140100000Y-115700000D03*
X143600000Y-88700000D03*
X140100000Y-142700000D03*
X145300000Y-157100000D03*
X143600000Y-135500000D03*
X141800000Y-121100000D03*
X143600000Y-167900000D03*
X143600000Y-104900000D03*
X143600000Y-70700000D03*
X141800000Y-106700000D03*
X141800000Y-85100000D03*
X141800000Y-169700000D03*
X141800000Y-83300000D03*
X143600000Y-117500000D03*
X140100000Y-135500000D03*
X143600000Y-101300000D03*
X143600000Y-72500000D03*
X145300000Y-59900000D03*
X145300000Y-104900000D03*
X145300000Y-121100000D03*
X143600000Y-58100000D03*
X140100000Y-128300000D03*
X141800000Y-146300000D03*
X140100000Y-81500000D03*
X140100000Y-61700000D03*
X141800000Y-94100000D03*
X143600000Y-77900000D03*
X140100000Y-72500000D03*
X143600000Y-110300000D03*
X143600000Y-144500000D03*
X140100000Y-99500000D03*
G04 #@! TO.N,/CELL_2*
X217400000Y-189000000D03*
X215600000Y-196200000D03*
X215600000Y-127800000D03*
X217400000Y-181800000D03*
X213900000Y-108000000D03*
X213900000Y-129600000D03*
X215600000Y-167400000D03*
X213900000Y-115200000D03*
X215600000Y-136800000D03*
X219100000Y-147600000D03*
X213900000Y-203400000D03*
X217400000Y-151200000D03*
X213900000Y-136800000D03*
X215600000Y-153000000D03*
X213900000Y-207000000D03*
X215600000Y-138600000D03*
X217400000Y-169200000D03*
X213900000Y-194400000D03*
X213900000Y-154800000D03*
X219100000Y-124200000D03*
X213900000Y-99000000D03*
X219100000Y-180000000D03*
X219100000Y-151200000D03*
X213900000Y-171000000D03*
X217400000Y-185400000D03*
X219100000Y-194400000D03*
X217400000Y-171000000D03*
X217400000Y-187200000D03*
X217400000Y-97200000D03*
X219100000Y-106200000D03*
X215600000Y-99000000D03*
X219100000Y-97200000D03*
X217400000Y-153000000D03*
X219100000Y-115200000D03*
X217400000Y-198000000D03*
X215600000Y-169200000D03*
X215600000Y-104400000D03*
X215600000Y-108000000D03*
X213900000Y-174600000D03*
X217400000Y-154800000D03*
X219100000Y-198000000D03*
X215600000Y-144000000D03*
X219100000Y-100800000D03*
X217400000Y-172800000D03*
X213900000Y-162000000D03*
X219100000Y-165600000D03*
X215600000Y-120600000D03*
X219100000Y-109800000D03*
X215600000Y-205200000D03*
X215600000Y-100800000D03*
X215600000Y-151200000D03*
X213900000Y-117000000D03*
X217400000Y-118800000D03*
X217400000Y-194400000D03*
X217400000Y-156600000D03*
X213900000Y-165600000D03*
X219100000Y-203400000D03*
X215600000Y-208800000D03*
X215600000Y-181800000D03*
X217400000Y-138600000D03*
X215600000Y-165600000D03*
X213900000Y-144000000D03*
X217400000Y-106200000D03*
X217400000Y-196200000D03*
X213900000Y-97200000D03*
X219100000Y-160200000D03*
X215600000Y-93600000D03*
X213900000Y-163800000D03*
X215600000Y-147600000D03*
X215600000Y-145800000D03*
X217400000Y-160200000D03*
X217400000Y-91800000D03*
X217400000Y-190800000D03*
X213900000Y-180000000D03*
X217400000Y-115200000D03*
X213900000Y-131400000D03*
X213900000Y-145800000D03*
X217400000Y-147600000D03*
X219100000Y-169200000D03*
X217400000Y-102600000D03*
X215600000Y-111600000D03*
X215600000Y-156600000D03*
X213900000Y-104400000D03*
X219100000Y-183600000D03*
X219100000Y-93600000D03*
X219100000Y-153000000D03*
X219100000Y-172800000D03*
X215600000Y-149400000D03*
X215600000Y-194400000D03*
X219100000Y-117000000D03*
X213900000Y-196200000D03*
X217400000Y-120600000D03*
X213900000Y-95400000D03*
X213900000Y-127800000D03*
X219100000Y-167400000D03*
X215600000Y-117000000D03*
X215600000Y-106200000D03*
X217400000Y-136800000D03*
X217400000Y-108000000D03*
X219100000Y-178200000D03*
X213900000Y-167400000D03*
X215600000Y-131400000D03*
X215600000Y-176400000D03*
X213900000Y-122400000D03*
X219100000Y-189000000D03*
X213900000Y-120600000D03*
X219100000Y-149400000D03*
X219100000Y-199800000D03*
X217400000Y-124200000D03*
X215600000Y-174600000D03*
X219100000Y-174600000D03*
X215600000Y-183600000D03*
X215600000Y-102600000D03*
X215600000Y-118800000D03*
X217400000Y-203400000D03*
X215600000Y-162000000D03*
X213900000Y-160200000D03*
X215600000Y-109800000D03*
X215600000Y-199800000D03*
X217400000Y-135000000D03*
X217400000Y-113400000D03*
X213900000Y-185400000D03*
X215600000Y-126000000D03*
X219100000Y-181800000D03*
X213900000Y-198000000D03*
X213900000Y-149400000D03*
X215600000Y-158400000D03*
X219100000Y-144000000D03*
X217400000Y-149400000D03*
X213900000Y-109800000D03*
X217400000Y-176400000D03*
X215600000Y-178200000D03*
X213900000Y-124200000D03*
X213900000Y-126000000D03*
X217400000Y-192600000D03*
X219100000Y-185400000D03*
X213900000Y-176400000D03*
X219100000Y-140400000D03*
X219100000Y-99000000D03*
X213900000Y-178200000D03*
X219100000Y-95400000D03*
X219100000Y-118800000D03*
X217400000Y-174600000D03*
X219100000Y-196200000D03*
X215600000Y-124200000D03*
X219100000Y-154800000D03*
X213900000Y-113400000D03*
X217400000Y-167400000D03*
X219100000Y-190800000D03*
X217400000Y-208800000D03*
X219100000Y-111600000D03*
X215600000Y-122400000D03*
X217400000Y-131400000D03*
X219100000Y-120600000D03*
X213900000Y-118800000D03*
X217400000Y-205200000D03*
X215600000Y-185400000D03*
X217400000Y-140400000D03*
X215600000Y-142200000D03*
X219100000Y-163800000D03*
X213900000Y-183600000D03*
X219100000Y-91800000D03*
X215600000Y-203400000D03*
X215600000Y-135000000D03*
X213900000Y-135000000D03*
X215600000Y-113400000D03*
X215600000Y-97200000D03*
X219100000Y-131400000D03*
X217400000Y-126000000D03*
X217400000Y-100800000D03*
X219100000Y-207000000D03*
X213900000Y-192600000D03*
X215600000Y-140400000D03*
X219100000Y-192600000D03*
X217400000Y-93600000D03*
X219100000Y-205200000D03*
X213900000Y-102600000D03*
X213900000Y-106200000D03*
X219100000Y-156600000D03*
X213900000Y-201600000D03*
X219100000Y-171000000D03*
X217400000Y-162000000D03*
X213900000Y-100800000D03*
X219100000Y-104400000D03*
X215600000Y-115200000D03*
X217400000Y-145800000D03*
X217400000Y-99000000D03*
X215600000Y-171000000D03*
X217400000Y-127800000D03*
X213900000Y-158400000D03*
X219100000Y-162000000D03*
X217400000Y-122400000D03*
X213900000Y-93600000D03*
X219100000Y-126000000D03*
X217400000Y-201600000D03*
X215600000Y-207000000D03*
X215600000Y-163800000D03*
X217400000Y-142200000D03*
X217400000Y-207000000D03*
X217400000Y-109800000D03*
X219100000Y-201600000D03*
X213900000Y-147600000D03*
X213900000Y-189000000D03*
X213900000Y-169200000D03*
X213900000Y-153000000D03*
X213900000Y-181800000D03*
X219100000Y-113400000D03*
X219100000Y-136800000D03*
X215600000Y-189000000D03*
X217400000Y-117000000D03*
X219100000Y-102600000D03*
X213900000Y-151200000D03*
X215600000Y-160200000D03*
X213900000Y-187200000D03*
X219100000Y-158400000D03*
X213900000Y-205200000D03*
X213900000Y-140400000D03*
X219100000Y-208800000D03*
X213900000Y-111600000D03*
X215600000Y-201600000D03*
X219100000Y-127800000D03*
X215600000Y-192600000D03*
X213900000Y-138600000D03*
X215600000Y-180000000D03*
X217400000Y-95400000D03*
X213900000Y-208800000D03*
X217400000Y-178200000D03*
X217400000Y-104400000D03*
X213900000Y-172800000D03*
X219100000Y-176400000D03*
X215600000Y-129600000D03*
X219100000Y-187200000D03*
X213900000Y-190800000D03*
X213900000Y-199800000D03*
X217400000Y-183600000D03*
X213900000Y-142200000D03*
X217400000Y-163800000D03*
X217400000Y-180000000D03*
X213900000Y-156600000D03*
X215600000Y-198000000D03*
X219100000Y-142200000D03*
X217400000Y-165600000D03*
X217400000Y-144000000D03*
X217400000Y-158400000D03*
X219100000Y-122400000D03*
X215600000Y-95400000D03*
X219100000Y-135000000D03*
X219100000Y-138600000D03*
X217400000Y-199800000D03*
X215600000Y-172800000D03*
X213900000Y-91800000D03*
X215600000Y-154800000D03*
X215600000Y-91800000D03*
X219100000Y-108000000D03*
X215600000Y-187200000D03*
X219100000Y-145800000D03*
X219100000Y-129600000D03*
X217400000Y-129600000D03*
X215600000Y-190800000D03*
X217400000Y-111600000D03*
G04 #@! TO.N,/CELL_4*
X196200000Y-201500000D03*
X194400000Y-167300000D03*
X197900000Y-93500000D03*
X196200000Y-118700000D03*
X194400000Y-113300000D03*
X196200000Y-140300000D03*
X194400000Y-154700000D03*
X194400000Y-97100000D03*
X196200000Y-197900000D03*
X194400000Y-102500000D03*
X192700000Y-181700000D03*
X194400000Y-192500000D03*
X197900000Y-201500000D03*
X192700000Y-142100000D03*
X196200000Y-196100000D03*
X194400000Y-143900000D03*
X194400000Y-187100000D03*
X192700000Y-156500000D03*
X196200000Y-116900000D03*
X194400000Y-93500000D03*
X196200000Y-183500000D03*
X192700000Y-197900000D03*
X192700000Y-206900000D03*
X197900000Y-111500000D03*
X196200000Y-190700000D03*
X194400000Y-178100000D03*
X197900000Y-127700000D03*
X194400000Y-129500000D03*
X196200000Y-154700000D03*
X192700000Y-95300000D03*
X197900000Y-196100000D03*
X197900000Y-131300000D03*
X196200000Y-170900000D03*
X194400000Y-172700000D03*
X196200000Y-161900000D03*
X192700000Y-109700000D03*
X197900000Y-102500000D03*
X196200000Y-120500000D03*
X192700000Y-120500000D03*
X192700000Y-201500000D03*
X192700000Y-174500000D03*
X194400000Y-125900000D03*
X192700000Y-176300000D03*
X197900000Y-138500000D03*
X197900000Y-134900000D03*
X197900000Y-169100000D03*
X197900000Y-91700000D03*
X196200000Y-145700000D03*
X194400000Y-116900000D03*
X194400000Y-100700000D03*
X196200000Y-203300000D03*
X192700000Y-194300000D03*
X197900000Y-95300000D03*
X197900000Y-208700000D03*
X192700000Y-183500000D03*
X197900000Y-98900000D03*
X194400000Y-134900000D03*
X194400000Y-203300000D03*
X196200000Y-160100000D03*
X197900000Y-203300000D03*
X196200000Y-131300000D03*
X192700000Y-170900000D03*
X197900000Y-147500000D03*
X197900000Y-178100000D03*
X196200000Y-98900000D03*
X194400000Y-183500000D03*
X197900000Y-140300000D03*
X197900000Y-122300000D03*
X197900000Y-185300000D03*
X197900000Y-129500000D03*
X197900000Y-118700000D03*
X197900000Y-192500000D03*
X192700000Y-106100000D03*
X192700000Y-113300000D03*
X192700000Y-154700000D03*
X194400000Y-152900000D03*
X192700000Y-122300000D03*
X194400000Y-160100000D03*
X194400000Y-158300000D03*
X194400000Y-194300000D03*
X196200000Y-142100000D03*
X194400000Y-149300000D03*
X192700000Y-97100000D03*
X196200000Y-174500000D03*
X194400000Y-91700000D03*
X196200000Y-188900000D03*
X192700000Y-102500000D03*
X196200000Y-125900000D03*
X194400000Y-107900000D03*
X197900000Y-170900000D03*
X196200000Y-165500000D03*
X197900000Y-106100000D03*
X197900000Y-97100000D03*
X197900000Y-183500000D03*
X197900000Y-152900000D03*
X194400000Y-190700000D03*
X196200000Y-181700000D03*
X192700000Y-152900000D03*
X192700000Y-143900000D03*
X197900000Y-149300000D03*
X194400000Y-188900000D03*
X196200000Y-176300000D03*
X192700000Y-107900000D03*
X192700000Y-151100000D03*
X197900000Y-197900000D03*
X192700000Y-140300000D03*
X192700000Y-111500000D03*
X196200000Y-102500000D03*
X196200000Y-172700000D03*
X197900000Y-124100000D03*
X194400000Y-95300000D03*
X194400000Y-165500000D03*
X196200000Y-113300000D03*
X194400000Y-170900000D03*
X196200000Y-179900000D03*
X196200000Y-100700000D03*
X194400000Y-151100000D03*
X197900000Y-107900000D03*
X194400000Y-185300000D03*
X194400000Y-156500000D03*
X197900000Y-116900000D03*
X194400000Y-196100000D03*
X192700000Y-187100000D03*
X194400000Y-163700000D03*
X197900000Y-194300000D03*
X194400000Y-120500000D03*
X196200000Y-163700000D03*
X194400000Y-136700000D03*
X196200000Y-109700000D03*
X192700000Y-163700000D03*
X197900000Y-174500000D03*
X192700000Y-118700000D03*
X196200000Y-169100000D03*
X196200000Y-192500000D03*
X196200000Y-194300000D03*
X192700000Y-127700000D03*
X197900000Y-154700000D03*
X197900000Y-165500000D03*
X192700000Y-167300000D03*
X194400000Y-127700000D03*
X192700000Y-134900000D03*
X192700000Y-179900000D03*
X197900000Y-188900000D03*
X196200000Y-107900000D03*
X194400000Y-109700000D03*
X196200000Y-122300000D03*
X197900000Y-156500000D03*
X197900000Y-160100000D03*
X196200000Y-95300000D03*
X194400000Y-147500000D03*
X196200000Y-134900000D03*
X192700000Y-131300000D03*
X196200000Y-127700000D03*
X192700000Y-129500000D03*
X197900000Y-199700000D03*
X194400000Y-161900000D03*
X197900000Y-187100000D03*
X192700000Y-147500000D03*
X197900000Y-206900000D03*
X192700000Y-104300000D03*
X194400000Y-104300000D03*
X196200000Y-208700000D03*
X192700000Y-178100000D03*
X192700000Y-208700000D03*
X194400000Y-122300000D03*
X194400000Y-174500000D03*
X192700000Y-100700000D03*
X196200000Y-156500000D03*
X192700000Y-138500000D03*
X194400000Y-205100000D03*
X194400000Y-201500000D03*
X194400000Y-111500000D03*
X196200000Y-104300000D03*
X192700000Y-190700000D03*
X197900000Y-143900000D03*
X194400000Y-169100000D03*
X197900000Y-205100000D03*
X192700000Y-165500000D03*
X196200000Y-187100000D03*
X192700000Y-192500000D03*
X197900000Y-190700000D03*
X192700000Y-158300000D03*
X196200000Y-111500000D03*
X196200000Y-199700000D03*
X196200000Y-178100000D03*
X194400000Y-199700000D03*
X196200000Y-129500000D03*
X196200000Y-124100000D03*
X192700000Y-91700000D03*
X197900000Y-104300000D03*
X197900000Y-145700000D03*
X196200000Y-97100000D03*
X197900000Y-100700000D03*
X196200000Y-136700000D03*
X197900000Y-125900000D03*
X196200000Y-115100000D03*
X196200000Y-93500000D03*
X194400000Y-206900000D03*
X197900000Y-172700000D03*
X196200000Y-138500000D03*
X194400000Y-106100000D03*
X192700000Y-185300000D03*
X194400000Y-181700000D03*
X197900000Y-151100000D03*
X192700000Y-124100000D03*
X194400000Y-145700000D03*
X192700000Y-203300000D03*
X196200000Y-91700000D03*
X196200000Y-149300000D03*
X196200000Y-167300000D03*
X192700000Y-136700000D03*
X196200000Y-206900000D03*
X197900000Y-136700000D03*
X197900000Y-115100000D03*
X194400000Y-131300000D03*
X192700000Y-172700000D03*
X194400000Y-115100000D03*
X192700000Y-188900000D03*
X196200000Y-158300000D03*
X194400000Y-140300000D03*
X192700000Y-93500000D03*
X196200000Y-185300000D03*
X192700000Y-115100000D03*
X192700000Y-199700000D03*
X194400000Y-98900000D03*
X196200000Y-151100000D03*
X197900000Y-161900000D03*
X194400000Y-138500000D03*
X197900000Y-167300000D03*
X194400000Y-176300000D03*
X194400000Y-124100000D03*
X196200000Y-147500000D03*
X197900000Y-120500000D03*
X196200000Y-106100000D03*
X197900000Y-113300000D03*
X192700000Y-205100000D03*
X197900000Y-181700000D03*
X192700000Y-116900000D03*
X197900000Y-179900000D03*
X194400000Y-142100000D03*
X197900000Y-109700000D03*
X197900000Y-176300000D03*
X194400000Y-118700000D03*
X194400000Y-197900000D03*
X197900000Y-142100000D03*
X192700000Y-145700000D03*
X192700000Y-149300000D03*
X197900000Y-163700000D03*
X196200000Y-143900000D03*
X197900000Y-158300000D03*
X192700000Y-160100000D03*
X192700000Y-125900000D03*
X196200000Y-152900000D03*
X194400000Y-208700000D03*
X192700000Y-169100000D03*
X192700000Y-196100000D03*
X196200000Y-205100000D03*
X192700000Y-98900000D03*
X192700000Y-161900000D03*
X194400000Y-179900000D03*
G04 #@! TO.N,/CELL_12*
X110100000Y-181800000D03*
X111900000Y-93600000D03*
X111900000Y-156600000D03*
X113600000Y-142200000D03*
X113600000Y-153000000D03*
X108400000Y-99000000D03*
X110100000Y-165600000D03*
X110100000Y-178200000D03*
X110100000Y-138600000D03*
X110100000Y-142200000D03*
X108400000Y-171000000D03*
X108400000Y-122400000D03*
X110100000Y-153000000D03*
X110100000Y-190800000D03*
X113600000Y-183600000D03*
X108400000Y-104400000D03*
X113600000Y-169200000D03*
X108400000Y-135000000D03*
X113600000Y-144000000D03*
X111900000Y-149400000D03*
X113600000Y-147600000D03*
X111900000Y-180000000D03*
X111900000Y-138600000D03*
X110100000Y-176400000D03*
X113600000Y-131400000D03*
X110100000Y-171000000D03*
X111900000Y-95400000D03*
X113600000Y-113400000D03*
X111900000Y-183600000D03*
X110100000Y-129600000D03*
X111900000Y-109800000D03*
X113600000Y-154800000D03*
X108400000Y-198000000D03*
X110100000Y-180000000D03*
X110100000Y-208800000D03*
X108400000Y-145800000D03*
X110100000Y-167400000D03*
X111900000Y-91800000D03*
X111900000Y-108000000D03*
X113600000Y-156600000D03*
X113600000Y-91800000D03*
X113600000Y-205200000D03*
X111900000Y-163800000D03*
X110100000Y-91800000D03*
X111900000Y-160200000D03*
X108400000Y-176400000D03*
X110100000Y-109800000D03*
X111900000Y-207000000D03*
X113600000Y-104400000D03*
X110100000Y-198000000D03*
X110100000Y-115200000D03*
X110100000Y-135000000D03*
X113600000Y-181800000D03*
X108400000Y-158400000D03*
X108400000Y-131400000D03*
X113600000Y-108000000D03*
X111900000Y-174600000D03*
X108400000Y-127800000D03*
X111900000Y-169200000D03*
X110100000Y-140400000D03*
X111900000Y-135000000D03*
X111900000Y-129600000D03*
X113600000Y-118800000D03*
X110100000Y-199800000D03*
X111900000Y-140400000D03*
X111900000Y-147600000D03*
X108400000Y-115200000D03*
X111900000Y-185400000D03*
X108400000Y-174600000D03*
X113600000Y-126000000D03*
X108400000Y-189000000D03*
X111900000Y-178200000D03*
X108400000Y-172800000D03*
X110100000Y-172800000D03*
X111900000Y-142200000D03*
X111900000Y-201600000D03*
X113600000Y-120600000D03*
X108400000Y-192600000D03*
X111900000Y-205200000D03*
X110100000Y-185400000D03*
X111900000Y-190800000D03*
X113600000Y-106200000D03*
X113600000Y-201600000D03*
X113600000Y-93600000D03*
X108400000Y-178200000D03*
X110100000Y-127800000D03*
X108400000Y-91800000D03*
X113600000Y-160200000D03*
X113600000Y-136800000D03*
X108400000Y-180000000D03*
X108400000Y-205200000D03*
X108400000Y-100800000D03*
X111900000Y-113400000D03*
X108400000Y-190800000D03*
X111900000Y-154800000D03*
X113600000Y-174600000D03*
X111900000Y-126000000D03*
X108400000Y-153000000D03*
X110100000Y-160200000D03*
X110100000Y-136800000D03*
X110100000Y-154800000D03*
X113600000Y-196200000D03*
X108400000Y-156600000D03*
X113600000Y-189000000D03*
X108400000Y-208800000D03*
X111900000Y-172800000D03*
X111900000Y-203400000D03*
X113600000Y-208800000D03*
X111900000Y-144000000D03*
X111900000Y-167400000D03*
X110100000Y-156600000D03*
X108400000Y-151200000D03*
X111900000Y-117000000D03*
X111900000Y-192600000D03*
X108400000Y-95400000D03*
X110100000Y-118800000D03*
X111900000Y-145800000D03*
X111900000Y-115200000D03*
X108400000Y-138600000D03*
X110100000Y-93600000D03*
X111900000Y-171000000D03*
X110100000Y-100800000D03*
X111900000Y-181800000D03*
X113600000Y-145800000D03*
X108400000Y-160200000D03*
X110100000Y-95400000D03*
X111900000Y-158400000D03*
X108400000Y-126000000D03*
X108400000Y-144000000D03*
X113600000Y-185400000D03*
X111900000Y-198000000D03*
X111900000Y-194400000D03*
X110100000Y-203400000D03*
X110100000Y-120600000D03*
X108400000Y-129600000D03*
X108400000Y-163800000D03*
X113600000Y-149400000D03*
X108400000Y-140400000D03*
X108400000Y-162000000D03*
X113600000Y-172800000D03*
X113600000Y-203400000D03*
X113600000Y-163800000D03*
X113600000Y-124200000D03*
X113600000Y-207000000D03*
X110100000Y-189000000D03*
X113600000Y-100800000D03*
X111900000Y-104400000D03*
X110100000Y-149400000D03*
X113600000Y-95400000D03*
X113600000Y-171000000D03*
X111900000Y-151200000D03*
X113600000Y-122400000D03*
X111900000Y-196200000D03*
X108400000Y-124200000D03*
X110100000Y-102600000D03*
X111900000Y-97200000D03*
X108400000Y-111600000D03*
X111900000Y-118800000D03*
X110100000Y-174600000D03*
X113600000Y-162000000D03*
X108400000Y-199800000D03*
X108400000Y-154800000D03*
X111900000Y-189000000D03*
X111900000Y-99000000D03*
X111900000Y-120600000D03*
X110100000Y-97200000D03*
X110100000Y-131400000D03*
X113600000Y-138600000D03*
X111900000Y-127800000D03*
X111900000Y-208800000D03*
X111900000Y-187200000D03*
X111900000Y-199800000D03*
X108400000Y-185400000D03*
X110100000Y-183600000D03*
X110100000Y-201600000D03*
X111900000Y-106200000D03*
X110100000Y-196200000D03*
X108400000Y-108000000D03*
X108400000Y-97200000D03*
X108400000Y-102600000D03*
X108400000Y-201600000D03*
X110100000Y-111600000D03*
X111900000Y-122400000D03*
X111900000Y-102600000D03*
X110100000Y-169200000D03*
X110100000Y-145800000D03*
X108400000Y-187200000D03*
X111900000Y-162000000D03*
X110100000Y-147600000D03*
X108400000Y-117000000D03*
X113600000Y-135000000D03*
X113600000Y-194400000D03*
X111900000Y-176400000D03*
X113600000Y-129600000D03*
X113600000Y-140400000D03*
X108400000Y-106200000D03*
X110100000Y-207000000D03*
X108400000Y-196200000D03*
X111900000Y-100800000D03*
X110100000Y-108000000D03*
X113600000Y-151200000D03*
X110100000Y-162000000D03*
X110100000Y-151200000D03*
X113600000Y-199800000D03*
X113600000Y-190800000D03*
X113600000Y-158400000D03*
X113600000Y-115200000D03*
X113600000Y-99000000D03*
X108400000Y-93600000D03*
X110100000Y-122400000D03*
X108400000Y-165600000D03*
X111900000Y-111600000D03*
X110100000Y-124200000D03*
X110100000Y-113400000D03*
X111900000Y-153000000D03*
X108400000Y-169200000D03*
X113600000Y-176400000D03*
X108400000Y-136800000D03*
X108400000Y-120600000D03*
X113600000Y-165600000D03*
X108400000Y-207000000D03*
X110100000Y-106200000D03*
X113600000Y-109800000D03*
X113600000Y-117000000D03*
X113600000Y-167400000D03*
X111900000Y-136800000D03*
X110100000Y-126000000D03*
X108400000Y-181800000D03*
X111900000Y-165600000D03*
X110100000Y-192600000D03*
X111900000Y-124200000D03*
X110100000Y-205200000D03*
X108400000Y-113400000D03*
X113600000Y-127800000D03*
X113600000Y-180000000D03*
X111900000Y-131400000D03*
X108400000Y-194400000D03*
X110100000Y-194400000D03*
X110100000Y-99000000D03*
X113600000Y-198000000D03*
X108400000Y-147600000D03*
X113600000Y-102600000D03*
X113600000Y-178200000D03*
X108400000Y-167400000D03*
X113600000Y-192600000D03*
X108400000Y-183600000D03*
X110100000Y-187200000D03*
X110100000Y-117000000D03*
X110100000Y-104400000D03*
X110100000Y-144000000D03*
X113600000Y-187200000D03*
X108400000Y-109800000D03*
X108400000Y-142200000D03*
X110100000Y-158400000D03*
X108400000Y-203400000D03*
X108400000Y-149400000D03*
X108400000Y-118800000D03*
X110100000Y-163800000D03*
X113600000Y-97200000D03*
X113600000Y-111600000D03*
G04 #@! TO.N,/CELL_6*
X175200000Y-149300000D03*
X173400000Y-120500000D03*
X175200000Y-127700000D03*
X173400000Y-161900000D03*
X175200000Y-185300000D03*
X171700000Y-197900000D03*
X171700000Y-115100000D03*
X173400000Y-127700000D03*
X176900000Y-116900000D03*
X171700000Y-179900000D03*
X173400000Y-115100000D03*
X173400000Y-163700000D03*
X176900000Y-169100000D03*
X171700000Y-192500000D03*
X175200000Y-154700000D03*
X176900000Y-120500000D03*
X175200000Y-106100000D03*
X171700000Y-194300000D03*
X173400000Y-183500000D03*
X176900000Y-142100000D03*
X173400000Y-140300000D03*
X171700000Y-147500000D03*
X173400000Y-167300000D03*
X173400000Y-136700000D03*
X175200000Y-113300000D03*
X171700000Y-91700000D03*
X173400000Y-100700000D03*
X175200000Y-181700000D03*
X173400000Y-116900000D03*
X176900000Y-185300000D03*
X175200000Y-196100000D03*
X175200000Y-208700000D03*
X171700000Y-187100000D03*
X171700000Y-196100000D03*
X171700000Y-208700000D03*
X175200000Y-205100000D03*
X175200000Y-199700000D03*
X175200000Y-116900000D03*
X175200000Y-201500000D03*
X176900000Y-102500000D03*
X176900000Y-138500000D03*
X171700000Y-206900000D03*
X175200000Y-109700000D03*
X175200000Y-197900000D03*
X171700000Y-136700000D03*
X175200000Y-172700000D03*
X175200000Y-161900000D03*
X171700000Y-127700000D03*
X171700000Y-145700000D03*
X175200000Y-138500000D03*
X171700000Y-125900000D03*
X171700000Y-167300000D03*
X173400000Y-147500000D03*
X175200000Y-151100000D03*
X171700000Y-181700000D03*
X171700000Y-199700000D03*
X176900000Y-136700000D03*
X175200000Y-188900000D03*
X173400000Y-194300000D03*
X176900000Y-187100000D03*
X175200000Y-176300000D03*
X171700000Y-152900000D03*
X175200000Y-165500000D03*
X173400000Y-172700000D03*
X176900000Y-111500000D03*
X175200000Y-122300000D03*
X176900000Y-183500000D03*
X176900000Y-115100000D03*
X171700000Y-118700000D03*
X176900000Y-205100000D03*
X176900000Y-181700000D03*
X176900000Y-208700000D03*
X173400000Y-131300000D03*
X176900000Y-172700000D03*
X173400000Y-170900000D03*
X173400000Y-97100000D03*
X175200000Y-169100000D03*
X171700000Y-203300000D03*
X176900000Y-194300000D03*
X171700000Y-102500000D03*
X173400000Y-181700000D03*
X175200000Y-124100000D03*
X171700000Y-138500000D03*
X175200000Y-163700000D03*
X175200000Y-129500000D03*
X173400000Y-154700000D03*
X176900000Y-93500000D03*
X175200000Y-145700000D03*
X173400000Y-98900000D03*
X171700000Y-106100000D03*
X176900000Y-149300000D03*
X175200000Y-118700000D03*
X173400000Y-145700000D03*
X175200000Y-142100000D03*
X171700000Y-131300000D03*
X175200000Y-156500000D03*
X176900000Y-129500000D03*
X171700000Y-201500000D03*
X176900000Y-113300000D03*
X176900000Y-206900000D03*
X171700000Y-120500000D03*
X176900000Y-109700000D03*
X175200000Y-190700000D03*
X171700000Y-158300000D03*
X175200000Y-167300000D03*
X175200000Y-158300000D03*
X173400000Y-106100000D03*
X175200000Y-107900000D03*
X171700000Y-97100000D03*
X175200000Y-95300000D03*
X175200000Y-187100000D03*
X175200000Y-104300000D03*
X173400000Y-197900000D03*
X173400000Y-122300000D03*
X176900000Y-140300000D03*
X176900000Y-104300000D03*
X173400000Y-187100000D03*
X173400000Y-138500000D03*
X176900000Y-201500000D03*
X171700000Y-109700000D03*
X173400000Y-142100000D03*
X171700000Y-161900000D03*
X171700000Y-100700000D03*
X173400000Y-199700000D03*
X173400000Y-156500000D03*
X176900000Y-156500000D03*
X176900000Y-107900000D03*
X171700000Y-143900000D03*
X173400000Y-179900000D03*
X171700000Y-142100000D03*
X171700000Y-149300000D03*
X176900000Y-143900000D03*
X176900000Y-199700000D03*
X171700000Y-124100000D03*
X171700000Y-205100000D03*
X175200000Y-111500000D03*
X171700000Y-140300000D03*
X175200000Y-194300000D03*
X171700000Y-165500000D03*
X176900000Y-154700000D03*
X175200000Y-115100000D03*
X171700000Y-154700000D03*
X173400000Y-174500000D03*
X176900000Y-170900000D03*
X171700000Y-134900000D03*
X176900000Y-197900000D03*
X176900000Y-95300000D03*
X175200000Y-98900000D03*
X173400000Y-160100000D03*
X176900000Y-192500000D03*
X175200000Y-102500000D03*
X176900000Y-125900000D03*
X171700000Y-113300000D03*
X173400000Y-113300000D03*
X173400000Y-102500000D03*
X176900000Y-152900000D03*
X176900000Y-179900000D03*
X175200000Y-174500000D03*
X171700000Y-111500000D03*
X176900000Y-124100000D03*
X171700000Y-176300000D03*
X171700000Y-151100000D03*
X176900000Y-134900000D03*
X175200000Y-143900000D03*
X176900000Y-161900000D03*
X173400000Y-107900000D03*
X173400000Y-190700000D03*
X171700000Y-122300000D03*
X173400000Y-169100000D03*
X171700000Y-190700000D03*
X173400000Y-91700000D03*
X175200000Y-125900000D03*
X175200000Y-178100000D03*
X176900000Y-160100000D03*
X176900000Y-131300000D03*
X171700000Y-188900000D03*
X176900000Y-188900000D03*
X175200000Y-91700000D03*
X176900000Y-176300000D03*
X171700000Y-185300000D03*
X173400000Y-208700000D03*
X173400000Y-95300000D03*
X173400000Y-205100000D03*
X176900000Y-127700000D03*
X176900000Y-196100000D03*
X173400000Y-104300000D03*
X176900000Y-98900000D03*
X173400000Y-109700000D03*
X171700000Y-183500000D03*
X173400000Y-192500000D03*
X171700000Y-116900000D03*
X176900000Y-145700000D03*
X173400000Y-111500000D03*
X176900000Y-167300000D03*
X175200000Y-100700000D03*
X175200000Y-206900000D03*
X176900000Y-147500000D03*
X173400000Y-134900000D03*
X171700000Y-172700000D03*
X173400000Y-118700000D03*
X173400000Y-143900000D03*
X171700000Y-107900000D03*
X173400000Y-178100000D03*
X171700000Y-93500000D03*
X175200000Y-179900000D03*
X173400000Y-152900000D03*
X176900000Y-190700000D03*
X173400000Y-124100000D03*
X171700000Y-104300000D03*
X173400000Y-196100000D03*
X176900000Y-106100000D03*
X176900000Y-178100000D03*
X175200000Y-203300000D03*
X171700000Y-174500000D03*
X173400000Y-176300000D03*
X175200000Y-93500000D03*
X175200000Y-131300000D03*
X171700000Y-169100000D03*
X176900000Y-174500000D03*
X176900000Y-91700000D03*
X175200000Y-97100000D03*
X173400000Y-185300000D03*
X175200000Y-147500000D03*
X175200000Y-152900000D03*
X176900000Y-203300000D03*
X173400000Y-125900000D03*
X173400000Y-203300000D03*
X171700000Y-170900000D03*
X176900000Y-165500000D03*
X171700000Y-129500000D03*
X171700000Y-160100000D03*
X176900000Y-151100000D03*
X176900000Y-158300000D03*
X175200000Y-192500000D03*
X173400000Y-129500000D03*
X173400000Y-151100000D03*
X173400000Y-165500000D03*
X171700000Y-95300000D03*
X175200000Y-183500000D03*
X176900000Y-100700000D03*
X176900000Y-122300000D03*
X175200000Y-136700000D03*
X173400000Y-188900000D03*
X175200000Y-134900000D03*
X171700000Y-178100000D03*
X173400000Y-93500000D03*
X175200000Y-170900000D03*
X176900000Y-97100000D03*
X176900000Y-118700000D03*
X173400000Y-158300000D03*
X176900000Y-163700000D03*
X171700000Y-163700000D03*
X173400000Y-201500000D03*
X175200000Y-160100000D03*
X173400000Y-206900000D03*
X175200000Y-120500000D03*
X173400000Y-149300000D03*
X171700000Y-156500000D03*
X175200000Y-140300000D03*
X171700000Y-98900000D03*
G04 #@! TO.N,/CELL_0_SIG*
X234300000Y-89000000D03*
G04 #@! TO.N,/CELL_14_SIG*
X93700709Y-87382887D03*
G04 #@! TD*
G04 #@! TA.AperFunction,Conductor*
G04 #@! TO.N,GND*
G36*
X247502443Y-43800596D02*
G01*
X247950150Y-43818186D01*
X247959845Y-43818948D01*
X248402424Y-43871330D01*
X248412016Y-43872850D01*
X248849096Y-43959792D01*
X248858550Y-43962062D01*
X249287453Y-44083025D01*
X249296706Y-44086031D01*
X249714802Y-44240274D01*
X249723791Y-44243998D01*
X250128504Y-44430573D01*
X250137167Y-44434988D01*
X250525983Y-44652736D01*
X250534285Y-44657823D01*
X250904810Y-44905399D01*
X250912684Y-44911119D01*
X251262655Y-45187016D01*
X251270047Y-45193329D01*
X251597295Y-45495833D01*
X251604173Y-45502711D01*
X251906665Y-45829946D01*
X251912988Y-45837349D01*
X252188877Y-46187312D01*
X252194600Y-46195189D01*
X252442176Y-46565714D01*
X252447263Y-46574016D01*
X252665011Y-46962832D01*
X252669432Y-46971507D01*
X252856000Y-47376205D01*
X252859726Y-47385201D01*
X253013967Y-47803290D01*
X253016975Y-47812549D01*
X253137936Y-48241445D01*
X253140209Y-48250912D01*
X253227146Y-48687968D01*
X253228670Y-48697586D01*
X253281050Y-49140149D01*
X253281813Y-49149855D01*
X253299404Y-49597556D01*
X253299500Y-49602424D01*
X253299500Y-216597575D01*
X253299404Y-216602443D01*
X253281813Y-217050144D01*
X253281050Y-217059850D01*
X253228670Y-217502413D01*
X253227146Y-217512031D01*
X253140209Y-217949087D01*
X253137936Y-217958554D01*
X253016975Y-218387450D01*
X253013967Y-218396709D01*
X252859726Y-218814798D01*
X252856000Y-218823794D01*
X252669432Y-219228492D01*
X252665011Y-219237167D01*
X252447263Y-219625983D01*
X252442176Y-219634285D01*
X252194600Y-220004810D01*
X252188877Y-220012687D01*
X251912988Y-220362650D01*
X251906665Y-220370053D01*
X251604173Y-220697288D01*
X251597288Y-220704173D01*
X251270053Y-221006665D01*
X251262650Y-221012988D01*
X250912687Y-221288877D01*
X250904810Y-221294600D01*
X250534285Y-221542176D01*
X250525983Y-221547263D01*
X250137167Y-221765011D01*
X250128492Y-221769432D01*
X249723794Y-221956000D01*
X249714798Y-221959726D01*
X249296709Y-222113967D01*
X249287450Y-222116975D01*
X248858554Y-222237936D01*
X248849087Y-222240209D01*
X248412031Y-222327146D01*
X248402413Y-222328670D01*
X247959850Y-222381050D01*
X247950144Y-222381813D01*
X247502443Y-222399404D01*
X247497575Y-222399500D01*
X233319000Y-222399500D01*
X233251961Y-222379815D01*
X233206206Y-222327011D01*
X233195000Y-222275500D01*
X233195000Y-215589664D01*
X244711437Y-215589664D01*
X244711437Y-215838781D01*
X244711438Y-215838798D01*
X244743954Y-216085784D01*
X244808435Y-216326430D01*
X244903767Y-216556584D01*
X244903774Y-216556599D01*
X245028337Y-216772349D01*
X245179997Y-216969997D01*
X245180003Y-216970004D01*
X245356155Y-217146156D01*
X245356162Y-217146162D01*
X245553810Y-217297822D01*
X245769560Y-217422385D01*
X245769575Y-217422392D01*
X245868762Y-217463476D01*
X245999730Y-217517725D01*
X246240372Y-217582205D01*
X246487372Y-217614723D01*
X246487379Y-217614723D01*
X246736495Y-217614723D01*
X246736502Y-217614723D01*
X246983502Y-217582205D01*
X247224144Y-217517725D01*
X247454310Y-217422387D01*
X247670064Y-217297822D01*
X247867713Y-217146161D01*
X248043875Y-216969999D01*
X248195536Y-216772350D01*
X248320101Y-216556596D01*
X248415439Y-216326430D01*
X248479919Y-216085788D01*
X248512437Y-215838788D01*
X248512437Y-215589658D01*
X248479919Y-215342658D01*
X248415439Y-215102016D01*
X248361190Y-214971048D01*
X248320106Y-214871861D01*
X248320099Y-214871846D01*
X248195536Y-214656096D01*
X248043876Y-214458448D01*
X248043870Y-214458441D01*
X247867718Y-214282289D01*
X247867711Y-214282283D01*
X247670063Y-214130623D01*
X247454313Y-214006060D01*
X247454298Y-214006053D01*
X247224144Y-213910721D01*
X246983498Y-213846240D01*
X246736512Y-213813724D01*
X246736507Y-213813723D01*
X246736502Y-213813723D01*
X246487372Y-213813723D01*
X246487366Y-213813723D01*
X246487361Y-213813724D01*
X246240375Y-213846240D01*
X245999729Y-213910721D01*
X245769575Y-214006053D01*
X245769560Y-214006060D01*
X245553810Y-214130623D01*
X245356162Y-214282283D01*
X245356155Y-214282289D01*
X245180003Y-214458441D01*
X245179997Y-214458448D01*
X245028337Y-214656096D01*
X244903774Y-214871846D01*
X244903767Y-214871861D01*
X244808435Y-215102015D01*
X244743954Y-215342661D01*
X244711438Y-215589647D01*
X244711437Y-215589664D01*
X233195000Y-215589664D01*
X233195000Y-211500587D01*
X233214685Y-211433548D01*
X233227357Y-211417055D01*
X233246872Y-211395649D01*
X233346922Y-211234063D01*
X233415577Y-211056844D01*
X233450500Y-210870027D01*
X233450500Y-210775000D01*
X233450500Y-210735118D01*
X233450500Y-89578269D01*
X233470185Y-89511230D01*
X233522989Y-89465475D01*
X233592147Y-89455531D01*
X233655703Y-89484556D01*
X233674292Y-89505626D01*
X233674347Y-89505581D01*
X233675609Y-89507119D01*
X233677603Y-89509379D01*
X233678212Y-89510291D01*
X233789707Y-89621786D01*
X233789711Y-89621789D01*
X233920814Y-89709390D01*
X233920827Y-89709397D01*
X234066498Y-89769735D01*
X234066503Y-89769737D01*
X234171418Y-89790606D01*
X234221153Y-89800499D01*
X234221156Y-89800500D01*
X234221158Y-89800500D01*
X234378844Y-89800500D01*
X234378845Y-89800499D01*
X234533497Y-89769737D01*
X234679179Y-89709394D01*
X234810289Y-89621789D01*
X234921789Y-89510289D01*
X235009394Y-89379179D01*
X235069737Y-89233497D01*
X235100500Y-89078842D01*
X235100500Y-88921158D01*
X235100500Y-88921155D01*
X235100499Y-88921153D01*
X235069738Y-88766510D01*
X235069737Y-88766503D01*
X235009534Y-88621158D01*
X235009397Y-88620827D01*
X235009390Y-88620814D01*
X234921789Y-88489711D01*
X234921786Y-88489707D01*
X234810292Y-88378213D01*
X234810288Y-88378210D01*
X234679185Y-88290609D01*
X234679172Y-88290602D01*
X234533501Y-88230264D01*
X234533489Y-88230261D01*
X234378845Y-88199500D01*
X234378842Y-88199500D01*
X234221158Y-88199500D01*
X234221155Y-88199500D01*
X234066510Y-88230261D01*
X234066498Y-88230264D01*
X233920827Y-88290602D01*
X233920814Y-88290609D01*
X233789711Y-88378210D01*
X233789707Y-88378213D01*
X233678213Y-88489707D01*
X233678206Y-88489716D01*
X233677597Y-88490628D01*
X233677155Y-88490997D01*
X233674347Y-88494419D01*
X233673697Y-88493886D01*
X233623982Y-88535429D01*
X233554656Y-88544132D01*
X233491631Y-88513973D01*
X233454916Y-88454527D01*
X233450500Y-88421730D01*
X233450500Y-55329975D01*
X233450500Y-55329973D01*
X233415577Y-55143156D01*
X233346922Y-54965937D01*
X233246872Y-54804351D01*
X233118834Y-54663900D01*
X232967169Y-54549367D01*
X232797041Y-54464653D01*
X232797042Y-54464653D01*
X232692142Y-54434807D01*
X232614242Y-54412643D01*
X232614239Y-54412642D01*
X232614241Y-54412642D01*
X232425001Y-54395107D01*
X232424999Y-54395107D01*
X232235760Y-54412642D01*
X232052957Y-54464653D01*
X231882830Y-54549367D01*
X231731164Y-54663901D01*
X231603129Y-54804349D01*
X231503077Y-54965938D01*
X231503075Y-54965942D01*
X231437668Y-55134780D01*
X231434423Y-55143156D01*
X231409675Y-55275547D01*
X231399500Y-55329975D01*
X231399500Y-57976000D01*
X231379815Y-58043039D01*
X231327011Y-58088794D01*
X231275500Y-58100000D01*
X230617947Y-58100000D01*
X230550908Y-58080315D01*
X230505153Y-58027511D01*
X230496330Y-58000191D01*
X230469738Y-57866510D01*
X230469738Y-57866508D01*
X230469737Y-57866503D01*
X230467113Y-57860167D01*
X230409397Y-57720827D01*
X230409390Y-57720814D01*
X230321789Y-57589711D01*
X230321786Y-57589707D01*
X230210292Y-57478213D01*
X230210288Y-57478210D01*
X230079185Y-57390609D01*
X230079172Y-57390602D01*
X229933501Y-57330264D01*
X229933489Y-57330261D01*
X229778845Y-57299500D01*
X229778842Y-57299500D01*
X229621158Y-57299500D01*
X229621155Y-57299500D01*
X229466510Y-57330261D01*
X229466498Y-57330264D01*
X229320827Y-57390602D01*
X229320814Y-57390609D01*
X229189711Y-57478210D01*
X229189707Y-57478213D01*
X229078213Y-57589707D01*
X229078210Y-57589711D01*
X228990609Y-57720814D01*
X228990604Y-57720823D01*
X228964561Y-57783699D01*
X228920720Y-57838102D01*
X228854426Y-57860167D01*
X228786727Y-57842888D01*
X228739116Y-57791751D01*
X228735439Y-57783699D01*
X228709395Y-57720823D01*
X228709390Y-57720814D01*
X228621789Y-57589711D01*
X228621786Y-57589707D01*
X228510292Y-57478213D01*
X228510288Y-57478210D01*
X228379185Y-57390609D01*
X228379172Y-57390602D01*
X228233501Y-57330264D01*
X228233489Y-57330261D01*
X228078845Y-57299500D01*
X228078842Y-57299500D01*
X227921158Y-57299500D01*
X227921155Y-57299500D01*
X227766510Y-57330261D01*
X227766498Y-57330264D01*
X227620827Y-57390602D01*
X227620814Y-57390609D01*
X227489711Y-57478210D01*
X227489707Y-57478213D01*
X227378213Y-57589707D01*
X227378210Y-57589711D01*
X227290609Y-57720814D01*
X227290602Y-57720827D01*
X227230264Y-57866498D01*
X227230261Y-57866508D01*
X227221617Y-57909967D01*
X227189232Y-57971878D01*
X227128516Y-58006452D01*
X227058747Y-58002712D01*
X227002075Y-57961845D01*
X226978383Y-57909967D01*
X226969738Y-57866508D01*
X226969737Y-57866507D01*
X226969737Y-57866503D01*
X226967113Y-57860167D01*
X226909397Y-57720827D01*
X226909390Y-57720814D01*
X226821789Y-57589711D01*
X226821786Y-57589707D01*
X226710292Y-57478213D01*
X226710288Y-57478210D01*
X226579185Y-57390609D01*
X226579172Y-57390602D01*
X226433501Y-57330264D01*
X226433489Y-57330261D01*
X226278845Y-57299500D01*
X226278842Y-57299500D01*
X226121158Y-57299500D01*
X226121155Y-57299500D01*
X225966510Y-57330261D01*
X225966498Y-57330264D01*
X225820827Y-57390602D01*
X225820814Y-57390609D01*
X225689711Y-57478210D01*
X225689707Y-57478213D01*
X225578213Y-57589707D01*
X225578210Y-57589711D01*
X225490609Y-57720814D01*
X225490604Y-57720823D01*
X225464561Y-57783699D01*
X225420720Y-57838102D01*
X225354426Y-57860167D01*
X225286727Y-57842888D01*
X225239116Y-57791751D01*
X225235439Y-57783699D01*
X225209395Y-57720823D01*
X225209390Y-57720814D01*
X225121789Y-57589711D01*
X225121786Y-57589707D01*
X225010292Y-57478213D01*
X225010288Y-57478210D01*
X224879185Y-57390609D01*
X224879172Y-57390602D01*
X224733501Y-57330264D01*
X224733489Y-57330261D01*
X224578845Y-57299500D01*
X224578842Y-57299500D01*
X224421158Y-57299500D01*
X224421155Y-57299500D01*
X224266510Y-57330261D01*
X224266498Y-57330264D01*
X224120827Y-57390602D01*
X224120814Y-57390609D01*
X223989711Y-57478210D01*
X223989707Y-57478213D01*
X223878213Y-57589707D01*
X223878210Y-57589711D01*
X223790609Y-57720814D01*
X223790602Y-57720827D01*
X223730264Y-57866498D01*
X223730261Y-57866510D01*
X223703670Y-58000191D01*
X223671285Y-58062102D01*
X223610569Y-58096677D01*
X223582053Y-58100000D01*
X223024500Y-58100000D01*
X222957461Y-58080315D01*
X222911706Y-58027511D01*
X222900500Y-57976000D01*
X222900500Y-55329975D01*
X222900500Y-55329973D01*
X222865577Y-55143156D01*
X222796922Y-54965937D01*
X222696872Y-54804351D01*
X222568834Y-54663900D01*
X222417169Y-54549367D01*
X222247041Y-54464653D01*
X222247042Y-54464653D01*
X222142142Y-54434807D01*
X222064242Y-54412643D01*
X222064239Y-54412642D01*
X222064241Y-54412642D01*
X221875001Y-54395107D01*
X221874999Y-54395107D01*
X221685760Y-54412642D01*
X221502957Y-54464653D01*
X221332830Y-54549367D01*
X221181164Y-54663901D01*
X221053129Y-54804349D01*
X220953077Y-54965938D01*
X220953075Y-54965942D01*
X220887668Y-55134780D01*
X220884423Y-55143156D01*
X220859675Y-55275547D01*
X220849500Y-55329975D01*
X220849500Y-57976000D01*
X220829815Y-58043039D01*
X220777011Y-58088794D01*
X220725500Y-58100000D01*
X212474500Y-58100000D01*
X212407461Y-58080315D01*
X212361706Y-58027511D01*
X212350500Y-57976000D01*
X212350500Y-55329975D01*
X212350500Y-55329973D01*
X212315577Y-55143156D01*
X212246922Y-54965937D01*
X212146872Y-54804351D01*
X212018834Y-54663900D01*
X211867169Y-54549367D01*
X211697041Y-54464653D01*
X211697042Y-54464653D01*
X211592142Y-54434807D01*
X211514242Y-54412643D01*
X211514239Y-54412642D01*
X211514241Y-54412642D01*
X211325001Y-54395107D01*
X211324999Y-54395107D01*
X211135760Y-54412642D01*
X210952957Y-54464653D01*
X210782830Y-54549367D01*
X210631164Y-54663901D01*
X210503129Y-54804349D01*
X210403077Y-54965938D01*
X210403075Y-54965942D01*
X210337668Y-55134780D01*
X210334423Y-55143156D01*
X210309675Y-55275547D01*
X210299500Y-55329975D01*
X210299500Y-57976000D01*
X210279815Y-58043039D01*
X210227011Y-58088794D01*
X210175500Y-58100000D01*
X209424500Y-58100000D01*
X209357461Y-58080315D01*
X209311706Y-58027511D01*
X209300500Y-57976000D01*
X209300500Y-57921155D01*
X209300499Y-57921153D01*
X209296831Y-57902712D01*
X209269737Y-57766503D01*
X209267113Y-57760167D01*
X209209397Y-57620827D01*
X209209390Y-57620814D01*
X209121789Y-57489711D01*
X209121786Y-57489707D01*
X209010292Y-57378213D01*
X209010288Y-57378210D01*
X208879185Y-57290609D01*
X208879172Y-57290602D01*
X208733501Y-57230264D01*
X208733489Y-57230261D01*
X208578845Y-57199500D01*
X208578842Y-57199500D01*
X208421158Y-57199500D01*
X208421155Y-57199500D01*
X208266510Y-57230261D01*
X208266498Y-57230264D01*
X208120827Y-57290602D01*
X208120814Y-57290609D01*
X207989711Y-57378210D01*
X207989707Y-57378213D01*
X207878213Y-57489707D01*
X207878210Y-57489711D01*
X207790609Y-57620814D01*
X207790604Y-57620823D01*
X207764561Y-57683699D01*
X207720720Y-57738102D01*
X207654426Y-57760167D01*
X207586727Y-57742888D01*
X207539116Y-57691751D01*
X207535439Y-57683699D01*
X207509395Y-57620823D01*
X207509390Y-57620814D01*
X207421789Y-57489711D01*
X207421786Y-57489707D01*
X207310292Y-57378213D01*
X207310288Y-57378210D01*
X207179185Y-57290609D01*
X207179172Y-57290602D01*
X207033501Y-57230264D01*
X207033489Y-57230261D01*
X206878845Y-57199500D01*
X206878842Y-57199500D01*
X206721158Y-57199500D01*
X206721155Y-57199500D01*
X206566510Y-57230261D01*
X206566498Y-57230264D01*
X206420827Y-57290602D01*
X206420814Y-57290609D01*
X206289711Y-57378210D01*
X206289707Y-57378213D01*
X206178213Y-57489707D01*
X206178210Y-57489711D01*
X206090609Y-57620814D01*
X206090602Y-57620827D01*
X206030264Y-57766498D01*
X206030261Y-57766508D01*
X206021617Y-57809967D01*
X205989232Y-57871878D01*
X205928516Y-57906452D01*
X205858747Y-57902712D01*
X205802075Y-57861845D01*
X205778383Y-57809967D01*
X205769738Y-57766508D01*
X205769737Y-57766507D01*
X205769737Y-57766503D01*
X205767113Y-57760167D01*
X205709397Y-57620827D01*
X205709390Y-57620814D01*
X205621789Y-57489711D01*
X205621786Y-57489707D01*
X205510292Y-57378213D01*
X205510288Y-57378210D01*
X205379185Y-57290609D01*
X205379172Y-57290602D01*
X205233501Y-57230264D01*
X205233489Y-57230261D01*
X205078845Y-57199500D01*
X205078842Y-57199500D01*
X204921158Y-57199500D01*
X204921155Y-57199500D01*
X204766510Y-57230261D01*
X204766498Y-57230264D01*
X204620827Y-57290602D01*
X204620814Y-57290609D01*
X204489711Y-57378210D01*
X204489707Y-57378213D01*
X204378213Y-57489707D01*
X204378210Y-57489711D01*
X204290609Y-57620814D01*
X204290604Y-57620823D01*
X204264561Y-57683699D01*
X204220720Y-57738102D01*
X204154426Y-57760167D01*
X204086727Y-57742888D01*
X204039116Y-57691751D01*
X204035439Y-57683699D01*
X204009395Y-57620823D01*
X204009390Y-57620814D01*
X203921789Y-57489711D01*
X203921786Y-57489707D01*
X203810292Y-57378213D01*
X203810288Y-57378210D01*
X203679185Y-57290609D01*
X203679172Y-57290602D01*
X203533501Y-57230264D01*
X203533489Y-57230261D01*
X203378845Y-57199500D01*
X203378842Y-57199500D01*
X203221158Y-57199500D01*
X203221155Y-57199500D01*
X203066510Y-57230261D01*
X203066498Y-57230264D01*
X202920827Y-57290602D01*
X202920814Y-57290609D01*
X202789711Y-57378210D01*
X202789707Y-57378213D01*
X202678213Y-57489707D01*
X202678210Y-57489711D01*
X202590609Y-57620814D01*
X202590602Y-57620827D01*
X202530264Y-57766498D01*
X202530261Y-57766510D01*
X202499500Y-57921153D01*
X202499500Y-57976000D01*
X202479815Y-58043039D01*
X202427011Y-58088794D01*
X202375500Y-58100000D01*
X201924500Y-58100000D01*
X201857461Y-58080315D01*
X201811706Y-58027511D01*
X201800500Y-57976000D01*
X201800500Y-55329975D01*
X201800500Y-55329973D01*
X201765577Y-55143156D01*
X201696922Y-54965937D01*
X201596872Y-54804351D01*
X201468834Y-54663900D01*
X201317169Y-54549367D01*
X201147041Y-54464653D01*
X201147042Y-54464653D01*
X201042142Y-54434807D01*
X200964242Y-54412643D01*
X200964239Y-54412642D01*
X200964241Y-54412642D01*
X200775001Y-54395107D01*
X200774999Y-54395107D01*
X200585760Y-54412642D01*
X200402957Y-54464653D01*
X200232830Y-54549367D01*
X200081164Y-54663901D01*
X199953129Y-54804349D01*
X199853077Y-54965938D01*
X199853075Y-54965942D01*
X199787668Y-55134780D01*
X199784423Y-55143156D01*
X199759675Y-55275547D01*
X199749500Y-55329975D01*
X199749500Y-57976000D01*
X199729815Y-58043039D01*
X199677011Y-58088794D01*
X199625500Y-58100000D01*
X191374500Y-58100000D01*
X191307461Y-58080315D01*
X191261706Y-58027511D01*
X191250500Y-57976000D01*
X191250500Y-55329975D01*
X191250500Y-55329973D01*
X191215577Y-55143156D01*
X191146922Y-54965937D01*
X191046872Y-54804351D01*
X190918834Y-54663900D01*
X190767169Y-54549367D01*
X190597041Y-54464653D01*
X190597042Y-54464653D01*
X190492142Y-54434807D01*
X190414242Y-54412643D01*
X190414239Y-54412642D01*
X190414241Y-54412642D01*
X190225001Y-54395107D01*
X190224999Y-54395107D01*
X190035760Y-54412642D01*
X189852957Y-54464653D01*
X189682830Y-54549367D01*
X189531164Y-54663901D01*
X189403129Y-54804349D01*
X189303077Y-54965938D01*
X189303075Y-54965942D01*
X189237668Y-55134780D01*
X189234423Y-55143156D01*
X189209675Y-55275547D01*
X189199500Y-55329975D01*
X189199500Y-57976000D01*
X189179815Y-58043039D01*
X189127011Y-58088794D01*
X189075500Y-58100000D01*
X188424500Y-58100000D01*
X188357461Y-58080315D01*
X188311706Y-58027511D01*
X188300500Y-57976000D01*
X188300500Y-57921155D01*
X188300499Y-57921153D01*
X188296831Y-57902712D01*
X188269737Y-57766503D01*
X188267113Y-57760167D01*
X188209397Y-57620827D01*
X188209390Y-57620814D01*
X188121789Y-57489711D01*
X188121786Y-57489707D01*
X188010292Y-57378213D01*
X188010288Y-57378210D01*
X187879185Y-57290609D01*
X187879172Y-57290602D01*
X187733501Y-57230264D01*
X187733489Y-57230261D01*
X187578845Y-57199500D01*
X187578842Y-57199500D01*
X187421158Y-57199500D01*
X187421155Y-57199500D01*
X187266510Y-57230261D01*
X187266498Y-57230264D01*
X187120827Y-57290602D01*
X187120814Y-57290609D01*
X186989711Y-57378210D01*
X186989707Y-57378213D01*
X186878213Y-57489707D01*
X186878210Y-57489711D01*
X186790609Y-57620814D01*
X186790604Y-57620823D01*
X186764561Y-57683699D01*
X186720720Y-57738102D01*
X186654426Y-57760167D01*
X186586727Y-57742888D01*
X186539116Y-57691751D01*
X186535439Y-57683699D01*
X186509395Y-57620823D01*
X186509390Y-57620814D01*
X186421789Y-57489711D01*
X186421786Y-57489707D01*
X186310292Y-57378213D01*
X186310288Y-57378210D01*
X186179185Y-57290609D01*
X186179172Y-57290602D01*
X186033501Y-57230264D01*
X186033489Y-57230261D01*
X185878845Y-57199500D01*
X185878842Y-57199500D01*
X185721158Y-57199500D01*
X185721155Y-57199500D01*
X185566510Y-57230261D01*
X185566498Y-57230264D01*
X185420827Y-57290602D01*
X185420814Y-57290609D01*
X185289711Y-57378210D01*
X185289707Y-57378213D01*
X185178213Y-57489707D01*
X185178210Y-57489711D01*
X185090609Y-57620814D01*
X185090602Y-57620827D01*
X185030264Y-57766498D01*
X185030261Y-57766508D01*
X185021617Y-57809967D01*
X184989232Y-57871878D01*
X184928516Y-57906452D01*
X184858747Y-57902712D01*
X184802075Y-57861845D01*
X184778383Y-57809967D01*
X184769738Y-57766508D01*
X184769737Y-57766507D01*
X184769737Y-57766503D01*
X184767113Y-57760167D01*
X184709397Y-57620827D01*
X184709390Y-57620814D01*
X184621789Y-57489711D01*
X184621786Y-57489707D01*
X184510292Y-57378213D01*
X184510288Y-57378210D01*
X184379185Y-57290609D01*
X184379172Y-57290602D01*
X184233501Y-57230264D01*
X184233489Y-57230261D01*
X184078845Y-57199500D01*
X184078842Y-57199500D01*
X183921158Y-57199500D01*
X183921155Y-57199500D01*
X183766510Y-57230261D01*
X183766498Y-57230264D01*
X183620827Y-57290602D01*
X183620814Y-57290609D01*
X183489711Y-57378210D01*
X183489707Y-57378213D01*
X183378213Y-57489707D01*
X183378210Y-57489711D01*
X183290609Y-57620814D01*
X183290604Y-57620823D01*
X183264561Y-57683699D01*
X183220720Y-57738102D01*
X183154426Y-57760167D01*
X183086727Y-57742888D01*
X183039116Y-57691751D01*
X183035439Y-57683699D01*
X183009395Y-57620823D01*
X183009390Y-57620814D01*
X182921789Y-57489711D01*
X182921786Y-57489707D01*
X182810292Y-57378213D01*
X182810288Y-57378210D01*
X182679185Y-57290609D01*
X182679172Y-57290602D01*
X182533501Y-57230264D01*
X182533489Y-57230261D01*
X182378845Y-57199500D01*
X182378842Y-57199500D01*
X182221158Y-57199500D01*
X182221155Y-57199500D01*
X182066510Y-57230261D01*
X182066498Y-57230264D01*
X181920827Y-57290602D01*
X181920814Y-57290609D01*
X181789711Y-57378210D01*
X181789707Y-57378213D01*
X181678213Y-57489707D01*
X181678210Y-57489711D01*
X181590609Y-57620814D01*
X181590602Y-57620827D01*
X181530264Y-57766498D01*
X181530261Y-57766510D01*
X181499500Y-57921153D01*
X181499500Y-57976000D01*
X181479815Y-58043039D01*
X181427011Y-58088794D01*
X181375500Y-58100000D01*
X180824500Y-58100000D01*
X180757461Y-58080315D01*
X180711706Y-58027511D01*
X180700500Y-57976000D01*
X180700500Y-55329975D01*
X180700500Y-55329973D01*
X180665577Y-55143156D01*
X180596922Y-54965937D01*
X180496872Y-54804351D01*
X180368834Y-54663900D01*
X180217169Y-54549367D01*
X180047041Y-54464653D01*
X180047042Y-54464653D01*
X179942142Y-54434807D01*
X179864242Y-54412643D01*
X179864239Y-54412642D01*
X179864241Y-54412642D01*
X179675001Y-54395107D01*
X179674999Y-54395107D01*
X179485760Y-54412642D01*
X179302957Y-54464653D01*
X179132830Y-54549367D01*
X178981164Y-54663901D01*
X178853129Y-54804349D01*
X178753077Y-54965938D01*
X178753075Y-54965942D01*
X178687668Y-55134780D01*
X178684423Y-55143156D01*
X178659675Y-55275547D01*
X178649500Y-55329975D01*
X178649500Y-57976000D01*
X178629815Y-58043039D01*
X178577011Y-58088794D01*
X178525500Y-58100000D01*
X170274500Y-58100000D01*
X170207461Y-58080315D01*
X170161706Y-58027511D01*
X170150500Y-57976000D01*
X170150500Y-55329975D01*
X170150500Y-55329973D01*
X170115577Y-55143156D01*
X170046922Y-54965937D01*
X169946872Y-54804351D01*
X169818834Y-54663900D01*
X169667169Y-54549367D01*
X169497041Y-54464653D01*
X169497042Y-54464653D01*
X169392142Y-54434807D01*
X169314242Y-54412643D01*
X169314239Y-54412642D01*
X169314241Y-54412642D01*
X169125001Y-54395107D01*
X169124999Y-54395107D01*
X168935760Y-54412642D01*
X168752957Y-54464653D01*
X168582830Y-54549367D01*
X168431164Y-54663901D01*
X168303129Y-54804349D01*
X168203077Y-54965938D01*
X168203075Y-54965942D01*
X168137668Y-55134780D01*
X168134423Y-55143156D01*
X168109675Y-55275547D01*
X168099500Y-55329975D01*
X168099500Y-57976000D01*
X168079815Y-58043039D01*
X168027011Y-58088794D01*
X167975500Y-58100000D01*
X167324500Y-58100000D01*
X167257461Y-58080315D01*
X167211706Y-58027511D01*
X167200500Y-57976000D01*
X167200500Y-57921155D01*
X167200499Y-57921153D01*
X167196831Y-57902712D01*
X167169737Y-57766503D01*
X167167113Y-57760167D01*
X167109397Y-57620827D01*
X167109390Y-57620814D01*
X167021789Y-57489711D01*
X167021786Y-57489707D01*
X166910292Y-57378213D01*
X166910288Y-57378210D01*
X166779185Y-57290609D01*
X166779172Y-57290602D01*
X166633501Y-57230264D01*
X166633489Y-57230261D01*
X166478845Y-57199500D01*
X166478842Y-57199500D01*
X166321158Y-57199500D01*
X166321155Y-57199500D01*
X166166510Y-57230261D01*
X166166498Y-57230264D01*
X166020827Y-57290602D01*
X166020814Y-57290609D01*
X165889711Y-57378210D01*
X165889707Y-57378213D01*
X165778213Y-57489707D01*
X165778210Y-57489711D01*
X165690609Y-57620814D01*
X165690604Y-57620823D01*
X165664561Y-57683699D01*
X165620720Y-57738102D01*
X165554426Y-57760167D01*
X165486727Y-57742888D01*
X165439116Y-57691751D01*
X165435439Y-57683699D01*
X165409395Y-57620823D01*
X165409390Y-57620814D01*
X165321789Y-57489711D01*
X165321786Y-57489707D01*
X165210292Y-57378213D01*
X165210288Y-57378210D01*
X165079185Y-57290609D01*
X165079172Y-57290602D01*
X164933501Y-57230264D01*
X164933489Y-57230261D01*
X164778845Y-57199500D01*
X164778842Y-57199500D01*
X164621158Y-57199500D01*
X164621155Y-57199500D01*
X164466510Y-57230261D01*
X164466498Y-57230264D01*
X164320827Y-57290602D01*
X164320814Y-57290609D01*
X164189711Y-57378210D01*
X164189707Y-57378213D01*
X164078213Y-57489707D01*
X164078210Y-57489711D01*
X163990609Y-57620814D01*
X163990602Y-57620827D01*
X163930264Y-57766498D01*
X163930261Y-57766508D01*
X163921617Y-57809967D01*
X163889232Y-57871878D01*
X163828516Y-57906452D01*
X163758747Y-57902712D01*
X163702075Y-57861845D01*
X163678383Y-57809967D01*
X163669738Y-57766508D01*
X163669737Y-57766507D01*
X163669737Y-57766503D01*
X163667113Y-57760167D01*
X163609397Y-57620827D01*
X163609390Y-57620814D01*
X163521789Y-57489711D01*
X163521786Y-57489707D01*
X163410292Y-57378213D01*
X163410288Y-57378210D01*
X163279185Y-57290609D01*
X163279172Y-57290602D01*
X163133501Y-57230264D01*
X163133489Y-57230261D01*
X162978845Y-57199500D01*
X162978842Y-57199500D01*
X162821158Y-57199500D01*
X162821155Y-57199500D01*
X162666510Y-57230261D01*
X162666498Y-57230264D01*
X162520827Y-57290602D01*
X162520814Y-57290609D01*
X162389711Y-57378210D01*
X162389707Y-57378213D01*
X162278213Y-57489707D01*
X162278210Y-57489711D01*
X162190609Y-57620814D01*
X162190604Y-57620823D01*
X162164561Y-57683699D01*
X162120720Y-57738102D01*
X162054426Y-57760167D01*
X161986727Y-57742888D01*
X161939116Y-57691751D01*
X161935439Y-57683699D01*
X161909395Y-57620823D01*
X161909390Y-57620814D01*
X161821789Y-57489711D01*
X161821786Y-57489707D01*
X161710292Y-57378213D01*
X161710288Y-57378210D01*
X161579185Y-57290609D01*
X161579172Y-57290602D01*
X161433501Y-57230264D01*
X161433489Y-57230261D01*
X161278845Y-57199500D01*
X161278842Y-57199500D01*
X161121158Y-57199500D01*
X161121155Y-57199500D01*
X160966510Y-57230261D01*
X160966498Y-57230264D01*
X160820827Y-57290602D01*
X160820814Y-57290609D01*
X160689711Y-57378210D01*
X160689707Y-57378213D01*
X160578213Y-57489707D01*
X160578210Y-57489711D01*
X160490609Y-57620814D01*
X160490602Y-57620827D01*
X160430264Y-57766498D01*
X160430261Y-57766510D01*
X160399500Y-57921153D01*
X160399500Y-57976000D01*
X160379815Y-58043039D01*
X160327011Y-58088794D01*
X160275500Y-58100000D01*
X159724500Y-58100000D01*
X159657461Y-58080315D01*
X159611706Y-58027511D01*
X159600500Y-57976000D01*
X159600500Y-55329975D01*
X159600500Y-55329973D01*
X159565577Y-55143156D01*
X159496922Y-54965937D01*
X159396872Y-54804351D01*
X159268834Y-54663900D01*
X159117169Y-54549367D01*
X158947041Y-54464653D01*
X158947042Y-54464653D01*
X158842142Y-54434807D01*
X158764242Y-54412643D01*
X158764239Y-54412642D01*
X158764241Y-54412642D01*
X158575001Y-54395107D01*
X158574999Y-54395107D01*
X158385760Y-54412642D01*
X158202957Y-54464653D01*
X158032830Y-54549367D01*
X157881164Y-54663901D01*
X157753129Y-54804349D01*
X157653077Y-54965938D01*
X157653075Y-54965942D01*
X157587668Y-55134780D01*
X157584423Y-55143156D01*
X157559675Y-55275547D01*
X157549500Y-55329975D01*
X157549500Y-57976000D01*
X157529815Y-58043039D01*
X157477011Y-58088794D01*
X157425500Y-58100000D01*
X149174500Y-58100000D01*
X149107461Y-58080315D01*
X149061706Y-58027511D01*
X149050500Y-57976000D01*
X149050500Y-55329975D01*
X149050500Y-55329973D01*
X149015577Y-55143156D01*
X148946922Y-54965937D01*
X148846872Y-54804351D01*
X148718834Y-54663900D01*
X148567169Y-54549367D01*
X148397041Y-54464653D01*
X148397042Y-54464653D01*
X148292142Y-54434807D01*
X148214242Y-54412643D01*
X148214239Y-54412642D01*
X148214241Y-54412642D01*
X148025001Y-54395107D01*
X148024999Y-54395107D01*
X147835760Y-54412642D01*
X147652957Y-54464653D01*
X147482830Y-54549367D01*
X147331164Y-54663901D01*
X147203129Y-54804349D01*
X147103077Y-54965938D01*
X147103075Y-54965942D01*
X147037668Y-55134780D01*
X147034423Y-55143156D01*
X147009675Y-55275547D01*
X146999500Y-55329975D01*
X146999500Y-57976000D01*
X146979815Y-58043039D01*
X146927011Y-58088794D01*
X146875500Y-58100000D01*
X146217947Y-58100000D01*
X146150908Y-58080315D01*
X146105153Y-58027511D01*
X146096330Y-58000191D01*
X146069738Y-57866510D01*
X146069738Y-57866508D01*
X146069737Y-57866503D01*
X146067113Y-57860167D01*
X146009397Y-57720827D01*
X146009390Y-57720814D01*
X145921789Y-57589711D01*
X145921786Y-57589707D01*
X145810292Y-57478213D01*
X145810288Y-57478210D01*
X145679185Y-57390609D01*
X145679172Y-57390602D01*
X145533501Y-57330264D01*
X145533489Y-57330261D01*
X145378845Y-57299500D01*
X145378842Y-57299500D01*
X145221158Y-57299500D01*
X145221155Y-57299500D01*
X145066510Y-57330261D01*
X145066498Y-57330264D01*
X144920827Y-57390602D01*
X144920814Y-57390609D01*
X144789711Y-57478210D01*
X144789707Y-57478213D01*
X144678213Y-57589707D01*
X144678210Y-57589711D01*
X144590609Y-57720814D01*
X144590604Y-57720823D01*
X144564561Y-57783699D01*
X144520720Y-57838102D01*
X144454426Y-57860167D01*
X144386727Y-57842888D01*
X144339116Y-57791751D01*
X144335439Y-57783699D01*
X144309395Y-57720823D01*
X144309390Y-57720814D01*
X144221789Y-57589711D01*
X144221786Y-57589707D01*
X144110292Y-57478213D01*
X144110288Y-57478210D01*
X143979185Y-57390609D01*
X143979172Y-57390602D01*
X143833501Y-57330264D01*
X143833489Y-57330261D01*
X143678845Y-57299500D01*
X143678842Y-57299500D01*
X143521158Y-57299500D01*
X143521155Y-57299500D01*
X143366510Y-57330261D01*
X143366498Y-57330264D01*
X143220827Y-57390602D01*
X143220814Y-57390609D01*
X143089711Y-57478210D01*
X143089707Y-57478213D01*
X142978213Y-57589707D01*
X142978210Y-57589711D01*
X142890609Y-57720814D01*
X142890602Y-57720827D01*
X142830264Y-57866498D01*
X142830261Y-57866508D01*
X142821617Y-57909967D01*
X142789232Y-57971878D01*
X142728516Y-58006452D01*
X142658747Y-58002712D01*
X142602075Y-57961845D01*
X142578383Y-57909967D01*
X142569738Y-57866508D01*
X142569737Y-57866507D01*
X142569737Y-57866503D01*
X142567113Y-57860167D01*
X142509397Y-57720827D01*
X142509390Y-57720814D01*
X142421789Y-57589711D01*
X142421786Y-57589707D01*
X142310292Y-57478213D01*
X142310288Y-57478210D01*
X142179185Y-57390609D01*
X142179172Y-57390602D01*
X142033501Y-57330264D01*
X142033489Y-57330261D01*
X141878845Y-57299500D01*
X141878842Y-57299500D01*
X141721158Y-57299500D01*
X141721155Y-57299500D01*
X141566510Y-57330261D01*
X141566498Y-57330264D01*
X141420827Y-57390602D01*
X141420814Y-57390609D01*
X141289711Y-57478210D01*
X141289707Y-57478213D01*
X141178213Y-57589707D01*
X141178210Y-57589711D01*
X141090609Y-57720814D01*
X141090604Y-57720823D01*
X141064561Y-57783699D01*
X141020720Y-57838102D01*
X140954426Y-57860167D01*
X140886727Y-57842888D01*
X140839116Y-57791751D01*
X140835439Y-57783699D01*
X140809395Y-57720823D01*
X140809390Y-57720814D01*
X140721789Y-57589711D01*
X140721786Y-57589707D01*
X140610292Y-57478213D01*
X140610288Y-57478210D01*
X140479185Y-57390609D01*
X140479172Y-57390602D01*
X140333501Y-57330264D01*
X140333489Y-57330261D01*
X140178845Y-57299500D01*
X140178842Y-57299500D01*
X140021158Y-57299500D01*
X140021155Y-57299500D01*
X139866510Y-57330261D01*
X139866498Y-57330264D01*
X139720827Y-57390602D01*
X139720814Y-57390609D01*
X139589711Y-57478210D01*
X139589707Y-57478213D01*
X139478213Y-57589707D01*
X139478210Y-57589711D01*
X139390609Y-57720814D01*
X139390602Y-57720827D01*
X139330264Y-57866498D01*
X139330261Y-57866510D01*
X139303670Y-58000191D01*
X139271285Y-58062102D01*
X139210569Y-58096677D01*
X139182053Y-58100000D01*
X138624500Y-58100000D01*
X138557461Y-58080315D01*
X138511706Y-58027511D01*
X138500500Y-57976000D01*
X138500500Y-55329975D01*
X138500500Y-55329973D01*
X138465577Y-55143156D01*
X138396922Y-54965937D01*
X138296872Y-54804351D01*
X138168834Y-54663900D01*
X138017169Y-54549367D01*
X137847041Y-54464653D01*
X137847042Y-54464653D01*
X137742142Y-54434807D01*
X137664242Y-54412643D01*
X137664239Y-54412642D01*
X137664241Y-54412642D01*
X137475001Y-54395107D01*
X137474999Y-54395107D01*
X137285760Y-54412642D01*
X137102957Y-54464653D01*
X136932830Y-54549367D01*
X136781164Y-54663901D01*
X136653129Y-54804349D01*
X136553077Y-54965938D01*
X136553075Y-54965942D01*
X136487668Y-55134780D01*
X136484423Y-55143156D01*
X136459675Y-55275547D01*
X136449500Y-55329975D01*
X136449500Y-57976000D01*
X136429815Y-58043039D01*
X136377011Y-58088794D01*
X136325500Y-58100000D01*
X128074500Y-58100000D01*
X128007461Y-58080315D01*
X127961706Y-58027511D01*
X127950500Y-57976000D01*
X127950500Y-55329975D01*
X127950500Y-55329973D01*
X127915577Y-55143156D01*
X127846922Y-54965937D01*
X127746872Y-54804351D01*
X127618834Y-54663900D01*
X127467169Y-54549367D01*
X127297041Y-54464653D01*
X127297042Y-54464653D01*
X127192142Y-54434807D01*
X127114242Y-54412643D01*
X127114239Y-54412642D01*
X127114241Y-54412642D01*
X126925001Y-54395107D01*
X126924999Y-54395107D01*
X126735760Y-54412642D01*
X126552957Y-54464653D01*
X126382830Y-54549367D01*
X126231164Y-54663901D01*
X126103129Y-54804349D01*
X126003077Y-54965938D01*
X126003075Y-54965942D01*
X125937668Y-55134780D01*
X125934423Y-55143156D01*
X125909675Y-55275547D01*
X125899500Y-55329975D01*
X125899500Y-57976000D01*
X125879815Y-58043039D01*
X125827011Y-58088794D01*
X125775500Y-58100000D01*
X125117947Y-58100000D01*
X125050908Y-58080315D01*
X125005153Y-58027511D01*
X124996330Y-58000191D01*
X124969738Y-57866510D01*
X124969738Y-57866508D01*
X124969737Y-57866503D01*
X124967113Y-57860167D01*
X124909397Y-57720827D01*
X124909390Y-57720814D01*
X124821789Y-57589711D01*
X124821786Y-57589707D01*
X124710292Y-57478213D01*
X124710288Y-57478210D01*
X124579185Y-57390609D01*
X124579172Y-57390602D01*
X124433501Y-57330264D01*
X124433489Y-57330261D01*
X124278845Y-57299500D01*
X124278842Y-57299500D01*
X124121158Y-57299500D01*
X124121155Y-57299500D01*
X123966510Y-57330261D01*
X123966498Y-57330264D01*
X123820827Y-57390602D01*
X123820814Y-57390609D01*
X123689711Y-57478210D01*
X123689707Y-57478213D01*
X123578213Y-57589707D01*
X123578210Y-57589711D01*
X123490609Y-57720814D01*
X123490604Y-57720823D01*
X123464561Y-57783699D01*
X123420720Y-57838102D01*
X123354426Y-57860167D01*
X123286727Y-57842888D01*
X123239116Y-57791751D01*
X123235439Y-57783699D01*
X123209395Y-57720823D01*
X123209390Y-57720814D01*
X123121789Y-57589711D01*
X123121786Y-57589707D01*
X123010292Y-57478213D01*
X123010288Y-57478210D01*
X122879185Y-57390609D01*
X122879172Y-57390602D01*
X122733501Y-57330264D01*
X122733489Y-57330261D01*
X122578845Y-57299500D01*
X122578842Y-57299500D01*
X122421158Y-57299500D01*
X122421155Y-57299500D01*
X122266510Y-57330261D01*
X122266498Y-57330264D01*
X122120827Y-57390602D01*
X122120814Y-57390609D01*
X121989711Y-57478210D01*
X121989707Y-57478213D01*
X121878213Y-57589707D01*
X121878210Y-57589711D01*
X121790609Y-57720814D01*
X121790602Y-57720827D01*
X121730264Y-57866498D01*
X121730261Y-57866508D01*
X121721617Y-57909967D01*
X121689232Y-57971878D01*
X121628516Y-58006452D01*
X121558747Y-58002712D01*
X121502075Y-57961845D01*
X121478383Y-57909967D01*
X121469738Y-57866508D01*
X121469737Y-57866507D01*
X121469737Y-57866503D01*
X121467113Y-57860167D01*
X121409397Y-57720827D01*
X121409390Y-57720814D01*
X121321789Y-57589711D01*
X121321786Y-57589707D01*
X121210292Y-57478213D01*
X121210288Y-57478210D01*
X121079185Y-57390609D01*
X121079172Y-57390602D01*
X120933501Y-57330264D01*
X120933489Y-57330261D01*
X120778845Y-57299500D01*
X120778842Y-57299500D01*
X120621158Y-57299500D01*
X120621155Y-57299500D01*
X120466510Y-57330261D01*
X120466498Y-57330264D01*
X120320827Y-57390602D01*
X120320814Y-57390609D01*
X120189711Y-57478210D01*
X120189707Y-57478213D01*
X120078213Y-57589707D01*
X120078210Y-57589711D01*
X119990609Y-57720814D01*
X119990604Y-57720823D01*
X119964561Y-57783699D01*
X119920720Y-57838102D01*
X119854426Y-57860167D01*
X119786727Y-57842888D01*
X119739116Y-57791751D01*
X119735439Y-57783699D01*
X119709395Y-57720823D01*
X119709390Y-57720814D01*
X119621789Y-57589711D01*
X119621786Y-57589707D01*
X119510292Y-57478213D01*
X119510288Y-57478210D01*
X119379185Y-57390609D01*
X119379172Y-57390602D01*
X119233501Y-57330264D01*
X119233489Y-57330261D01*
X119078845Y-57299500D01*
X119078842Y-57299500D01*
X118921158Y-57299500D01*
X118921155Y-57299500D01*
X118766510Y-57330261D01*
X118766498Y-57330264D01*
X118620827Y-57390602D01*
X118620814Y-57390609D01*
X118489711Y-57478210D01*
X118489707Y-57478213D01*
X118378213Y-57589707D01*
X118378210Y-57589711D01*
X118290609Y-57720814D01*
X118290602Y-57720827D01*
X118230264Y-57866498D01*
X118230261Y-57866510D01*
X118203670Y-58000191D01*
X118171285Y-58062102D01*
X118110569Y-58096677D01*
X118082053Y-58100000D01*
X117524500Y-58100000D01*
X117457461Y-58080315D01*
X117411706Y-58027511D01*
X117400500Y-57976000D01*
X117400500Y-55329975D01*
X117400500Y-55329973D01*
X117365577Y-55143156D01*
X117296922Y-54965937D01*
X117196872Y-54804351D01*
X117068834Y-54663900D01*
X116917169Y-54549367D01*
X116747041Y-54464653D01*
X116747042Y-54464653D01*
X116642142Y-54434807D01*
X116564242Y-54412643D01*
X116564239Y-54412642D01*
X116564241Y-54412642D01*
X116375001Y-54395107D01*
X116374999Y-54395107D01*
X116185760Y-54412642D01*
X116002957Y-54464653D01*
X115832830Y-54549367D01*
X115681164Y-54663901D01*
X115553129Y-54804349D01*
X115453077Y-54965938D01*
X115453075Y-54965942D01*
X115387668Y-55134780D01*
X115384423Y-55143156D01*
X115359675Y-55275547D01*
X115349500Y-55329975D01*
X115349500Y-57976000D01*
X115329815Y-58043039D01*
X115277011Y-58088794D01*
X115225500Y-58100000D01*
X106974500Y-58100000D01*
X106907461Y-58080315D01*
X106861706Y-58027511D01*
X106850500Y-57976000D01*
X106850500Y-55329975D01*
X106850500Y-55329973D01*
X106815577Y-55143156D01*
X106746922Y-54965937D01*
X106646872Y-54804351D01*
X106518834Y-54663900D01*
X106367169Y-54549367D01*
X106197041Y-54464653D01*
X106197042Y-54464653D01*
X106092142Y-54434807D01*
X106014242Y-54412643D01*
X106014239Y-54412642D01*
X106014241Y-54412642D01*
X105825001Y-54395107D01*
X105824999Y-54395107D01*
X105635760Y-54412642D01*
X105452957Y-54464653D01*
X105282830Y-54549367D01*
X105131164Y-54663901D01*
X105003129Y-54804349D01*
X104903077Y-54965938D01*
X104903075Y-54965942D01*
X104837668Y-55134780D01*
X104834423Y-55143156D01*
X104809675Y-55275547D01*
X104799500Y-55329975D01*
X104799500Y-57976000D01*
X104779815Y-58043039D01*
X104727011Y-58088794D01*
X104675500Y-58100000D01*
X104017947Y-58100000D01*
X103950908Y-58080315D01*
X103905153Y-58027511D01*
X103896330Y-58000191D01*
X103869738Y-57866510D01*
X103869738Y-57866508D01*
X103869737Y-57866503D01*
X103867113Y-57860167D01*
X103809397Y-57720827D01*
X103809390Y-57720814D01*
X103721789Y-57589711D01*
X103721786Y-57589707D01*
X103610292Y-57478213D01*
X103610288Y-57478210D01*
X103479185Y-57390609D01*
X103479172Y-57390602D01*
X103333501Y-57330264D01*
X103333489Y-57330261D01*
X103178845Y-57299500D01*
X103178842Y-57299500D01*
X103021158Y-57299500D01*
X103021155Y-57299500D01*
X102866510Y-57330261D01*
X102866498Y-57330264D01*
X102720827Y-57390602D01*
X102720814Y-57390609D01*
X102589711Y-57478210D01*
X102589707Y-57478213D01*
X102478213Y-57589707D01*
X102478210Y-57589711D01*
X102390609Y-57720814D01*
X102390604Y-57720823D01*
X102364561Y-57783699D01*
X102320720Y-57838102D01*
X102254426Y-57860167D01*
X102186727Y-57842888D01*
X102139116Y-57791751D01*
X102135439Y-57783699D01*
X102109395Y-57720823D01*
X102109390Y-57720814D01*
X102021789Y-57589711D01*
X102021786Y-57589707D01*
X101910292Y-57478213D01*
X101910288Y-57478210D01*
X101779185Y-57390609D01*
X101779172Y-57390602D01*
X101633501Y-57330264D01*
X101633489Y-57330261D01*
X101478845Y-57299500D01*
X101478842Y-57299500D01*
X101321158Y-57299500D01*
X101321155Y-57299500D01*
X101166510Y-57330261D01*
X101166498Y-57330264D01*
X101020827Y-57390602D01*
X101020814Y-57390609D01*
X100889711Y-57478210D01*
X100889707Y-57478213D01*
X100778213Y-57589707D01*
X100778210Y-57589711D01*
X100690609Y-57720814D01*
X100690602Y-57720827D01*
X100630264Y-57866498D01*
X100630261Y-57866508D01*
X100621617Y-57909967D01*
X100589232Y-57971878D01*
X100528516Y-58006452D01*
X100458747Y-58002712D01*
X100402075Y-57961845D01*
X100378383Y-57909967D01*
X100369738Y-57866508D01*
X100369737Y-57866507D01*
X100369737Y-57866503D01*
X100367113Y-57860167D01*
X100309397Y-57720827D01*
X100309390Y-57720814D01*
X100221789Y-57589711D01*
X100221786Y-57589707D01*
X100110292Y-57478213D01*
X100110288Y-57478210D01*
X99979185Y-57390609D01*
X99979172Y-57390602D01*
X99833501Y-57330264D01*
X99833489Y-57330261D01*
X99678845Y-57299500D01*
X99678842Y-57299500D01*
X99521158Y-57299500D01*
X99521155Y-57299500D01*
X99366510Y-57330261D01*
X99366498Y-57330264D01*
X99220827Y-57390602D01*
X99220814Y-57390609D01*
X99089711Y-57478210D01*
X99089707Y-57478213D01*
X98978213Y-57589707D01*
X98978210Y-57589711D01*
X98890609Y-57720814D01*
X98890604Y-57720823D01*
X98864561Y-57783699D01*
X98820720Y-57838102D01*
X98754426Y-57860167D01*
X98686727Y-57842888D01*
X98639116Y-57791751D01*
X98635439Y-57783699D01*
X98609395Y-57720823D01*
X98609390Y-57720814D01*
X98521789Y-57589711D01*
X98521786Y-57589707D01*
X98410292Y-57478213D01*
X98410288Y-57478210D01*
X98279185Y-57390609D01*
X98279172Y-57390602D01*
X98133501Y-57330264D01*
X98133489Y-57330261D01*
X97978845Y-57299500D01*
X97978842Y-57299500D01*
X97821158Y-57299500D01*
X97821155Y-57299500D01*
X97666510Y-57330261D01*
X97666498Y-57330264D01*
X97520827Y-57390602D01*
X97520814Y-57390609D01*
X97389711Y-57478210D01*
X97389707Y-57478213D01*
X97278213Y-57589707D01*
X97278210Y-57589711D01*
X97190609Y-57720814D01*
X97190602Y-57720827D01*
X97130264Y-57866498D01*
X97130261Y-57866510D01*
X97103670Y-58000191D01*
X97071285Y-58062102D01*
X97010569Y-58096677D01*
X96982053Y-58100000D01*
X96424500Y-58100000D01*
X96357461Y-58080315D01*
X96311706Y-58027511D01*
X96300500Y-57976000D01*
X96300500Y-55419867D01*
X96300501Y-55419280D01*
X96338688Y-47353713D01*
X102479500Y-47353713D01*
X102479500Y-47566286D01*
X102512753Y-47776239D01*
X102578444Y-47978414D01*
X102674951Y-48167820D01*
X102799890Y-48339786D01*
X102950213Y-48490109D01*
X103122182Y-48615050D01*
X103130946Y-48619516D01*
X103181742Y-48667491D01*
X103198536Y-48735312D01*
X103175998Y-48801447D01*
X103130946Y-48840484D01*
X103122182Y-48844949D01*
X102950213Y-48969890D01*
X102799890Y-49120213D01*
X102674951Y-49292179D01*
X102578444Y-49481585D01*
X102512753Y-49683760D01*
X102479500Y-49893713D01*
X102479500Y-50106286D01*
X102512753Y-50316239D01*
X102512753Y-50316241D01*
X102512754Y-50316243D01*
X102530355Y-50370414D01*
X102578444Y-50518414D01*
X102674951Y-50707820D01*
X102799890Y-50879786D01*
X102950213Y-51030109D01*
X103122179Y-51155048D01*
X103122181Y-51155049D01*
X103122184Y-51155051D01*
X103311588Y-51251557D01*
X103513757Y-51317246D01*
X103723713Y-51350500D01*
X103723714Y-51350500D01*
X103936286Y-51350500D01*
X103936287Y-51350500D01*
X104146243Y-51317246D01*
X104348412Y-51251557D01*
X104537816Y-51155051D01*
X104624138Y-51092335D01*
X104709786Y-51030109D01*
X104709788Y-51030106D01*
X104709792Y-51030104D01*
X104860104Y-50879792D01*
X104860106Y-50879788D01*
X104860109Y-50879786D01*
X104985048Y-50707820D01*
X104985047Y-50707820D01*
X104985051Y-50707816D01*
X104989514Y-50699054D01*
X105037488Y-50648259D01*
X105105308Y-50631463D01*
X105171444Y-50653999D01*
X105210486Y-50699056D01*
X105214951Y-50707820D01*
X105339890Y-50879786D01*
X105490213Y-51030109D01*
X105662179Y-51155048D01*
X105662181Y-51155049D01*
X105662184Y-51155051D01*
X105851588Y-51251557D01*
X106053757Y-51317246D01*
X106263713Y-51350500D01*
X106263714Y-51350500D01*
X106476286Y-51350500D01*
X106476287Y-51350500D01*
X106686243Y-51317246D01*
X106888412Y-51251557D01*
X107077816Y-51155051D01*
X107164138Y-51092335D01*
X107249786Y-51030109D01*
X107249788Y-51030106D01*
X107249792Y-51030104D01*
X107400104Y-50879792D01*
X107400106Y-50879788D01*
X107400109Y-50879786D01*
X107525048Y-50707820D01*
X107525047Y-50707820D01*
X107525051Y-50707816D01*
X107529514Y-50699054D01*
X107577488Y-50648259D01*
X107645308Y-50631463D01*
X107711444Y-50653999D01*
X107750486Y-50699056D01*
X107754951Y-50707820D01*
X107879890Y-50879786D01*
X108030213Y-51030109D01*
X108202179Y-51155048D01*
X108202181Y-51155049D01*
X108202184Y-51155051D01*
X108391588Y-51251557D01*
X108593757Y-51317246D01*
X108803713Y-51350500D01*
X108803714Y-51350500D01*
X109016286Y-51350500D01*
X109016287Y-51350500D01*
X109226243Y-51317246D01*
X109428412Y-51251557D01*
X109617816Y-51155051D01*
X109704138Y-51092335D01*
X109789786Y-51030109D01*
X109789788Y-51030106D01*
X109789792Y-51030104D01*
X109940104Y-50879792D01*
X109940106Y-50879788D01*
X109940109Y-50879786D01*
X110065048Y-50707820D01*
X110065047Y-50707820D01*
X110065051Y-50707816D01*
X110069514Y-50699054D01*
X110117488Y-50648259D01*
X110185308Y-50631463D01*
X110251444Y-50653999D01*
X110290486Y-50699056D01*
X110294951Y-50707820D01*
X110419890Y-50879786D01*
X110570213Y-51030109D01*
X110742179Y-51155048D01*
X110742181Y-51155049D01*
X110742184Y-51155051D01*
X110931588Y-51251557D01*
X111133757Y-51317246D01*
X111343713Y-51350500D01*
X111343714Y-51350500D01*
X111556286Y-51350500D01*
X111556287Y-51350500D01*
X111766243Y-51317246D01*
X111968412Y-51251557D01*
X112157816Y-51155051D01*
X112244138Y-51092335D01*
X112329786Y-51030109D01*
X112329788Y-51030106D01*
X112329792Y-51030104D01*
X112480104Y-50879792D01*
X112480106Y-50879788D01*
X112480109Y-50879786D01*
X112605048Y-50707820D01*
X112605047Y-50707820D01*
X112605051Y-50707816D01*
X112701557Y-50518412D01*
X112767246Y-50316243D01*
X112800500Y-50106287D01*
X112800500Y-49893713D01*
X112767246Y-49683757D01*
X112701557Y-49481588D01*
X112605051Y-49292184D01*
X112605049Y-49292181D01*
X112605048Y-49292179D01*
X112480109Y-49120213D01*
X112329786Y-48969890D01*
X112157820Y-48844951D01*
X112157115Y-48844591D01*
X112149054Y-48840485D01*
X112098259Y-48792512D01*
X112081463Y-48724692D01*
X112103999Y-48658556D01*
X112149054Y-48619515D01*
X112157816Y-48615051D01*
X112247554Y-48549853D01*
X112329786Y-48490109D01*
X112329788Y-48490106D01*
X112329792Y-48490104D01*
X112480104Y-48339792D01*
X112480106Y-48339788D01*
X112480109Y-48339786D01*
X112605048Y-48167820D01*
X112605047Y-48167820D01*
X112605051Y-48167816D01*
X112609514Y-48159054D01*
X112657488Y-48108259D01*
X112725308Y-48091463D01*
X112791444Y-48113999D01*
X112830486Y-48159056D01*
X112834951Y-48167820D01*
X112959890Y-48339786D01*
X113110213Y-48490109D01*
X113282179Y-48615048D01*
X113282181Y-48615049D01*
X113282184Y-48615051D01*
X113471588Y-48711557D01*
X113673757Y-48777246D01*
X113883713Y-48810500D01*
X113883714Y-48810500D01*
X114096286Y-48810500D01*
X114096287Y-48810500D01*
X114306243Y-48777246D01*
X114508412Y-48711557D01*
X114697816Y-48615051D01*
X114787554Y-48549853D01*
X114869786Y-48490109D01*
X114869788Y-48490106D01*
X114869792Y-48490104D01*
X115020104Y-48339792D01*
X115020106Y-48339788D01*
X115020109Y-48339786D01*
X115145048Y-48167820D01*
X115145047Y-48167820D01*
X115145051Y-48167816D01*
X115149514Y-48159054D01*
X115197488Y-48108259D01*
X115265308Y-48091463D01*
X115331444Y-48113999D01*
X115370486Y-48159056D01*
X115374951Y-48167820D01*
X115499890Y-48339786D01*
X115650213Y-48490109D01*
X115822182Y-48615050D01*
X115830946Y-48619516D01*
X115881742Y-48667491D01*
X115898536Y-48735312D01*
X115875998Y-48801447D01*
X115830946Y-48840484D01*
X115822182Y-48844949D01*
X115650213Y-48969890D01*
X115499890Y-49120213D01*
X115374951Y-49292179D01*
X115278444Y-49481585D01*
X115212753Y-49683760D01*
X115179500Y-49893713D01*
X115179500Y-50106286D01*
X115212753Y-50316239D01*
X115212753Y-50316241D01*
X115212754Y-50316243D01*
X115230355Y-50370414D01*
X115278444Y-50518414D01*
X115374951Y-50707820D01*
X115499890Y-50879786D01*
X115650213Y-51030109D01*
X115822179Y-51155048D01*
X115822181Y-51155049D01*
X115822184Y-51155051D01*
X116011588Y-51251557D01*
X116213757Y-51317246D01*
X116423713Y-51350500D01*
X116423714Y-51350500D01*
X116636286Y-51350500D01*
X116636287Y-51350500D01*
X116846243Y-51317246D01*
X117048412Y-51251557D01*
X117237816Y-51155051D01*
X117324138Y-51092335D01*
X117409786Y-51030109D01*
X117409788Y-51030106D01*
X117409792Y-51030104D01*
X117560104Y-50879792D01*
X117560106Y-50879788D01*
X117560109Y-50879786D01*
X117685048Y-50707820D01*
X117685047Y-50707820D01*
X117685051Y-50707816D01*
X117689514Y-50699054D01*
X117737488Y-50648259D01*
X117805308Y-50631463D01*
X117871444Y-50653999D01*
X117910486Y-50699056D01*
X117914951Y-50707820D01*
X118039890Y-50879786D01*
X118190213Y-51030109D01*
X118362179Y-51155048D01*
X118362181Y-51155049D01*
X118362184Y-51155051D01*
X118551588Y-51251557D01*
X118753757Y-51317246D01*
X118963713Y-51350500D01*
X118963714Y-51350500D01*
X119176286Y-51350500D01*
X119176287Y-51350500D01*
X119386243Y-51317246D01*
X119588412Y-51251557D01*
X119777816Y-51155051D01*
X119864138Y-51092335D01*
X119949786Y-51030109D01*
X119949788Y-51030106D01*
X119949792Y-51030104D01*
X120100104Y-50879792D01*
X120100106Y-50879788D01*
X120100109Y-50879786D01*
X120225048Y-50707820D01*
X120225047Y-50707820D01*
X120225051Y-50707816D01*
X120229514Y-50699054D01*
X120277488Y-50648259D01*
X120345308Y-50631463D01*
X120411444Y-50653999D01*
X120450486Y-50699056D01*
X120454951Y-50707820D01*
X120579890Y-50879786D01*
X120730213Y-51030109D01*
X120902179Y-51155048D01*
X120902181Y-51155049D01*
X120902184Y-51155051D01*
X121091588Y-51251557D01*
X121293757Y-51317246D01*
X121503713Y-51350500D01*
X121503714Y-51350500D01*
X121716286Y-51350500D01*
X121716287Y-51350500D01*
X121926243Y-51317246D01*
X122128412Y-51251557D01*
X122317816Y-51155051D01*
X122404147Y-51092328D01*
X122489784Y-51030110D01*
X122489784Y-51030109D01*
X122489792Y-51030104D01*
X122603329Y-50916566D01*
X122664648Y-50883084D01*
X122734340Y-50888068D01*
X122790274Y-50929939D01*
X122807189Y-50960917D01*
X122856202Y-51092328D01*
X122856206Y-51092335D01*
X122942452Y-51207544D01*
X122942455Y-51207547D01*
X123057664Y-51293793D01*
X123057671Y-51293797D01*
X123192517Y-51344091D01*
X123192516Y-51344091D01*
X123199444Y-51344835D01*
X123252127Y-51350500D01*
X125047872Y-51350499D01*
X125107483Y-51344091D01*
X125242331Y-51293796D01*
X125357546Y-51207546D01*
X125443796Y-51092331D01*
X125494091Y-50957483D01*
X125500500Y-50897873D01*
X125500499Y-49102128D01*
X125494091Y-49042517D01*
X125492810Y-49039083D01*
X125443797Y-48907671D01*
X125443793Y-48907664D01*
X125357547Y-48792455D01*
X125357544Y-48792452D01*
X125242335Y-48706206D01*
X125242328Y-48706202D01*
X125110917Y-48657189D01*
X125054983Y-48615318D01*
X125030566Y-48549853D01*
X125045418Y-48481580D01*
X125066563Y-48453332D01*
X125180104Y-48339792D01*
X125305051Y-48167816D01*
X125401557Y-47978412D01*
X125467246Y-47776243D01*
X125500500Y-47566287D01*
X125500500Y-47353713D01*
X152479500Y-47353713D01*
X152479500Y-47566286D01*
X152512753Y-47776239D01*
X152578444Y-47978414D01*
X152674951Y-48167820D01*
X152799890Y-48339786D01*
X152950213Y-48490109D01*
X153122182Y-48615050D01*
X153130946Y-48619516D01*
X153181742Y-48667491D01*
X153198536Y-48735312D01*
X153175998Y-48801447D01*
X153130946Y-48840484D01*
X153122182Y-48844949D01*
X152950213Y-48969890D01*
X152799890Y-49120213D01*
X152674951Y-49292179D01*
X152578444Y-49481585D01*
X152512753Y-49683760D01*
X152479500Y-49893713D01*
X152479500Y-50106286D01*
X152512753Y-50316239D01*
X152512753Y-50316241D01*
X152512754Y-50316243D01*
X152530355Y-50370414D01*
X152578444Y-50518414D01*
X152674951Y-50707820D01*
X152799890Y-50879786D01*
X152950213Y-51030109D01*
X153122179Y-51155048D01*
X153122181Y-51155049D01*
X153122184Y-51155051D01*
X153311588Y-51251557D01*
X153513757Y-51317246D01*
X153723713Y-51350500D01*
X153723714Y-51350500D01*
X153936286Y-51350500D01*
X153936287Y-51350500D01*
X154146243Y-51317246D01*
X154348412Y-51251557D01*
X154537816Y-51155051D01*
X154624138Y-51092335D01*
X154709786Y-51030109D01*
X154709788Y-51030106D01*
X154709792Y-51030104D01*
X154860104Y-50879792D01*
X154860106Y-50879788D01*
X154860109Y-50879786D01*
X154985048Y-50707820D01*
X154985047Y-50707820D01*
X154985051Y-50707816D01*
X154989514Y-50699054D01*
X155037488Y-50648259D01*
X155105308Y-50631463D01*
X155171444Y-50653999D01*
X155210486Y-50699056D01*
X155214951Y-50707820D01*
X155339890Y-50879786D01*
X155490213Y-51030109D01*
X155662179Y-51155048D01*
X155662181Y-51155049D01*
X155662184Y-51155051D01*
X155851588Y-51251557D01*
X156053757Y-51317246D01*
X156263713Y-51350500D01*
X156263714Y-51350500D01*
X156476286Y-51350500D01*
X156476287Y-51350500D01*
X156686243Y-51317246D01*
X156888412Y-51251557D01*
X157077816Y-51155051D01*
X157164138Y-51092335D01*
X157249786Y-51030109D01*
X157249788Y-51030106D01*
X157249792Y-51030104D01*
X157400104Y-50879792D01*
X157400106Y-50879788D01*
X157400109Y-50879786D01*
X157525048Y-50707820D01*
X157525047Y-50707820D01*
X157525051Y-50707816D01*
X157529514Y-50699054D01*
X157577488Y-50648259D01*
X157645308Y-50631463D01*
X157711444Y-50653999D01*
X157750486Y-50699056D01*
X157754951Y-50707820D01*
X157879890Y-50879786D01*
X158030213Y-51030109D01*
X158202179Y-51155048D01*
X158202181Y-51155049D01*
X158202184Y-51155051D01*
X158391588Y-51251557D01*
X158593757Y-51317246D01*
X158803713Y-51350500D01*
X158803714Y-51350500D01*
X159016286Y-51350500D01*
X159016287Y-51350500D01*
X159226243Y-51317246D01*
X159428412Y-51251557D01*
X159617816Y-51155051D01*
X159704138Y-51092335D01*
X159789786Y-51030109D01*
X159789788Y-51030106D01*
X159789792Y-51030104D01*
X159940104Y-50879792D01*
X159940106Y-50879788D01*
X159940109Y-50879786D01*
X160065048Y-50707820D01*
X160065047Y-50707820D01*
X160065051Y-50707816D01*
X160069514Y-50699054D01*
X160117488Y-50648259D01*
X160185308Y-50631463D01*
X160251444Y-50653999D01*
X160290486Y-50699056D01*
X160294951Y-50707820D01*
X160419890Y-50879786D01*
X160570213Y-51030109D01*
X160742179Y-51155048D01*
X160742181Y-51155049D01*
X160742184Y-51155051D01*
X160931588Y-51251557D01*
X161133757Y-51317246D01*
X161343713Y-51350500D01*
X161343714Y-51350500D01*
X161556286Y-51350500D01*
X161556287Y-51350500D01*
X161766243Y-51317246D01*
X161968412Y-51251557D01*
X162157816Y-51155051D01*
X162244138Y-51092335D01*
X162329786Y-51030109D01*
X162329788Y-51030106D01*
X162329792Y-51030104D01*
X162480104Y-50879792D01*
X162480106Y-50879788D01*
X162480109Y-50879786D01*
X162605048Y-50707820D01*
X162605047Y-50707820D01*
X162605051Y-50707816D01*
X162609514Y-50699054D01*
X162657488Y-50648259D01*
X162725308Y-50631463D01*
X162791444Y-50653999D01*
X162830486Y-50699056D01*
X162834951Y-50707820D01*
X162959890Y-50879786D01*
X163110213Y-51030109D01*
X163282179Y-51155048D01*
X163282181Y-51155049D01*
X163282184Y-51155051D01*
X163471588Y-51251557D01*
X163673757Y-51317246D01*
X163883713Y-51350500D01*
X163883714Y-51350500D01*
X164096286Y-51350500D01*
X164096287Y-51350500D01*
X164306243Y-51317246D01*
X164508412Y-51251557D01*
X164697816Y-51155051D01*
X164784138Y-51092335D01*
X164869786Y-51030109D01*
X164869788Y-51030106D01*
X164869792Y-51030104D01*
X165020104Y-50879792D01*
X165020106Y-50879788D01*
X165020109Y-50879786D01*
X165145048Y-50707820D01*
X165145047Y-50707820D01*
X165145051Y-50707816D01*
X165149514Y-50699054D01*
X165197488Y-50648259D01*
X165265308Y-50631463D01*
X165331444Y-50653999D01*
X165370486Y-50699056D01*
X165374951Y-50707820D01*
X165499890Y-50879786D01*
X165650213Y-51030109D01*
X165822179Y-51155048D01*
X165822181Y-51155049D01*
X165822184Y-51155051D01*
X166011588Y-51251557D01*
X166213757Y-51317246D01*
X166423713Y-51350500D01*
X166423714Y-51350500D01*
X166636286Y-51350500D01*
X166636287Y-51350500D01*
X166846243Y-51317246D01*
X167048412Y-51251557D01*
X167237816Y-51155051D01*
X167324138Y-51092335D01*
X167409786Y-51030109D01*
X167409788Y-51030106D01*
X167409792Y-51030104D01*
X167560104Y-50879792D01*
X167560106Y-50879788D01*
X167560109Y-50879786D01*
X167685048Y-50707820D01*
X167685047Y-50707820D01*
X167685051Y-50707816D01*
X167689514Y-50699054D01*
X167737488Y-50648259D01*
X167805308Y-50631463D01*
X167871444Y-50653999D01*
X167910486Y-50699056D01*
X167914951Y-50707820D01*
X168039890Y-50879786D01*
X168190213Y-51030109D01*
X168362179Y-51155048D01*
X168362181Y-51155049D01*
X168362184Y-51155051D01*
X168551588Y-51251557D01*
X168753757Y-51317246D01*
X168963713Y-51350500D01*
X168963714Y-51350500D01*
X169176286Y-51350500D01*
X169176287Y-51350500D01*
X169386243Y-51317246D01*
X169588412Y-51251557D01*
X169777816Y-51155051D01*
X169864138Y-51092335D01*
X169949786Y-51030109D01*
X169949788Y-51030106D01*
X169949792Y-51030104D01*
X170100104Y-50879792D01*
X170100106Y-50879788D01*
X170100109Y-50879786D01*
X170225048Y-50707820D01*
X170225047Y-50707820D01*
X170225051Y-50707816D01*
X170229514Y-50699054D01*
X170277488Y-50648259D01*
X170345308Y-50631463D01*
X170411444Y-50653999D01*
X170450486Y-50699056D01*
X170454951Y-50707820D01*
X170579890Y-50879786D01*
X170730213Y-51030109D01*
X170902179Y-51155048D01*
X170902181Y-51155049D01*
X170902184Y-51155051D01*
X171091588Y-51251557D01*
X171293757Y-51317246D01*
X171503713Y-51350500D01*
X171503714Y-51350500D01*
X171716286Y-51350500D01*
X171716287Y-51350500D01*
X171926243Y-51317246D01*
X172128412Y-51251557D01*
X172317816Y-51155051D01*
X172404138Y-51092335D01*
X172489786Y-51030109D01*
X172489788Y-51030106D01*
X172489792Y-51030104D01*
X172640104Y-50879792D01*
X172640106Y-50879788D01*
X172640109Y-50879786D01*
X172765048Y-50707820D01*
X172765047Y-50707820D01*
X172765051Y-50707816D01*
X172861557Y-50518412D01*
X172927246Y-50316243D01*
X172960500Y-50106287D01*
X172960500Y-49893713D01*
X172927246Y-49683757D01*
X172861557Y-49481588D01*
X172765051Y-49292184D01*
X172765049Y-49292181D01*
X172765048Y-49292179D01*
X172640109Y-49120213D01*
X172489786Y-48969890D01*
X172317820Y-48844951D01*
X172317115Y-48844591D01*
X172309054Y-48840485D01*
X172258259Y-48792512D01*
X172241463Y-48724692D01*
X172263999Y-48658556D01*
X172309054Y-48619515D01*
X172317816Y-48615051D01*
X172407554Y-48549853D01*
X172489786Y-48490109D01*
X172489788Y-48490106D01*
X172489792Y-48490104D01*
X172640104Y-48339792D01*
X172640106Y-48339788D01*
X172640109Y-48339786D01*
X172765048Y-48167820D01*
X172765047Y-48167820D01*
X172765051Y-48167816D01*
X172861557Y-47978412D01*
X172927246Y-47776243D01*
X172960500Y-47566287D01*
X172960500Y-47353713D01*
X202479500Y-47353713D01*
X202479500Y-47566286D01*
X202512753Y-47776239D01*
X202578444Y-47978414D01*
X202674951Y-48167820D01*
X202799890Y-48339786D01*
X202950213Y-48490109D01*
X203122182Y-48615050D01*
X203130946Y-48619516D01*
X203181742Y-48667491D01*
X203198536Y-48735312D01*
X203175998Y-48801447D01*
X203130946Y-48840484D01*
X203122182Y-48844949D01*
X202950213Y-48969890D01*
X202799890Y-49120213D01*
X202674951Y-49292179D01*
X202578444Y-49481585D01*
X202512753Y-49683760D01*
X202479500Y-49893713D01*
X202479500Y-50106286D01*
X202512753Y-50316239D01*
X202512753Y-50316241D01*
X202512754Y-50316243D01*
X202530355Y-50370414D01*
X202578444Y-50518414D01*
X202674951Y-50707820D01*
X202799890Y-50879786D01*
X202950213Y-51030109D01*
X203122179Y-51155048D01*
X203122181Y-51155049D01*
X203122184Y-51155051D01*
X203311588Y-51251557D01*
X203513757Y-51317246D01*
X203723713Y-51350500D01*
X203723714Y-51350500D01*
X203936286Y-51350500D01*
X203936287Y-51350500D01*
X204146243Y-51317246D01*
X204348412Y-51251557D01*
X204537816Y-51155051D01*
X204624138Y-51092335D01*
X204709786Y-51030109D01*
X204709788Y-51030106D01*
X204709792Y-51030104D01*
X204860104Y-50879792D01*
X204860106Y-50879788D01*
X204860109Y-50879786D01*
X204985048Y-50707820D01*
X204985047Y-50707820D01*
X204985051Y-50707816D01*
X204989514Y-50699054D01*
X205037488Y-50648259D01*
X205105308Y-50631463D01*
X205171444Y-50653999D01*
X205210486Y-50699056D01*
X205214951Y-50707820D01*
X205339890Y-50879786D01*
X205490213Y-51030109D01*
X205662179Y-51155048D01*
X205662181Y-51155049D01*
X205662184Y-51155051D01*
X205851588Y-51251557D01*
X206053757Y-51317246D01*
X206263713Y-51350500D01*
X206263714Y-51350500D01*
X206476286Y-51350500D01*
X206476287Y-51350500D01*
X206686243Y-51317246D01*
X206888412Y-51251557D01*
X207077816Y-51155051D01*
X207164138Y-51092335D01*
X207249786Y-51030109D01*
X207249788Y-51030106D01*
X207249792Y-51030104D01*
X207400104Y-50879792D01*
X207400106Y-50879788D01*
X207400109Y-50879786D01*
X207525048Y-50707820D01*
X207525047Y-50707820D01*
X207525051Y-50707816D01*
X207529514Y-50699054D01*
X207577488Y-50648259D01*
X207645308Y-50631463D01*
X207711444Y-50653999D01*
X207750486Y-50699056D01*
X207754951Y-50707820D01*
X207879890Y-50879786D01*
X208030213Y-51030109D01*
X208202179Y-51155048D01*
X208202181Y-51155049D01*
X208202184Y-51155051D01*
X208391588Y-51251557D01*
X208593757Y-51317246D01*
X208803713Y-51350500D01*
X208803714Y-51350500D01*
X209016286Y-51350500D01*
X209016287Y-51350500D01*
X209226243Y-51317246D01*
X209428412Y-51251557D01*
X209617816Y-51155051D01*
X209704138Y-51092335D01*
X209789786Y-51030109D01*
X209789788Y-51030106D01*
X209789792Y-51030104D01*
X209940104Y-50879792D01*
X209940106Y-50879788D01*
X209940109Y-50879786D01*
X210065048Y-50707820D01*
X210065047Y-50707820D01*
X210065051Y-50707816D01*
X210069514Y-50699054D01*
X210117488Y-50648259D01*
X210185308Y-50631463D01*
X210251444Y-50653999D01*
X210290486Y-50699056D01*
X210294951Y-50707820D01*
X210419890Y-50879786D01*
X210570213Y-51030109D01*
X210742179Y-51155048D01*
X210742181Y-51155049D01*
X210742184Y-51155051D01*
X210931588Y-51251557D01*
X211133757Y-51317246D01*
X211343713Y-51350500D01*
X211343714Y-51350500D01*
X211556286Y-51350500D01*
X211556287Y-51350500D01*
X211766243Y-51317246D01*
X211968412Y-51251557D01*
X212157816Y-51155051D01*
X212244138Y-51092335D01*
X212329786Y-51030109D01*
X212329788Y-51030106D01*
X212329792Y-51030104D01*
X212480104Y-50879792D01*
X212480106Y-50879788D01*
X212480109Y-50879786D01*
X212605048Y-50707820D01*
X212605047Y-50707820D01*
X212605051Y-50707816D01*
X212701557Y-50518412D01*
X212767246Y-50316243D01*
X212800500Y-50106287D01*
X212800500Y-49893713D01*
X212767246Y-49683757D01*
X212701557Y-49481588D01*
X212605051Y-49292184D01*
X212605049Y-49292181D01*
X212605048Y-49292179D01*
X212480109Y-49120213D01*
X212329786Y-48969890D01*
X212157820Y-48844951D01*
X212157115Y-48844591D01*
X212149054Y-48840485D01*
X212098259Y-48792512D01*
X212081463Y-48724692D01*
X212103999Y-48658556D01*
X212149054Y-48619515D01*
X212157816Y-48615051D01*
X212247554Y-48549853D01*
X212329786Y-48490109D01*
X212329788Y-48490106D01*
X212329792Y-48490104D01*
X212480104Y-48339792D01*
X212480106Y-48339788D01*
X212480109Y-48339786D01*
X212605048Y-48167820D01*
X212605047Y-48167820D01*
X212605051Y-48167816D01*
X212609514Y-48159054D01*
X212657488Y-48108259D01*
X212725308Y-48091463D01*
X212791444Y-48113999D01*
X212830486Y-48159056D01*
X212834951Y-48167820D01*
X212959890Y-48339786D01*
X213110213Y-48490109D01*
X213282179Y-48615048D01*
X213282181Y-48615049D01*
X213282184Y-48615051D01*
X213471588Y-48711557D01*
X213673757Y-48777246D01*
X213883713Y-48810500D01*
X213883714Y-48810500D01*
X214096286Y-48810500D01*
X214096287Y-48810500D01*
X214306243Y-48777246D01*
X214508412Y-48711557D01*
X214697816Y-48615051D01*
X214787554Y-48549853D01*
X214869786Y-48490109D01*
X214869788Y-48490106D01*
X214869792Y-48490104D01*
X215020104Y-48339792D01*
X215020106Y-48339788D01*
X215020109Y-48339786D01*
X215145048Y-48167820D01*
X215145047Y-48167820D01*
X215145051Y-48167816D01*
X215149514Y-48159054D01*
X215197488Y-48108259D01*
X215265308Y-48091463D01*
X215331444Y-48113999D01*
X215370486Y-48159056D01*
X215374951Y-48167820D01*
X215499890Y-48339786D01*
X215650213Y-48490109D01*
X215822182Y-48615050D01*
X215830946Y-48619516D01*
X215881742Y-48667491D01*
X215898536Y-48735312D01*
X215875998Y-48801447D01*
X215830946Y-48840484D01*
X215822182Y-48844949D01*
X215650213Y-48969890D01*
X215499890Y-49120213D01*
X215374951Y-49292179D01*
X215278444Y-49481585D01*
X215212753Y-49683760D01*
X215179500Y-49893713D01*
X215179500Y-50106286D01*
X215212753Y-50316239D01*
X215212753Y-50316241D01*
X215212754Y-50316243D01*
X215230355Y-50370414D01*
X215278444Y-50518414D01*
X215374951Y-50707820D01*
X215499890Y-50879786D01*
X215650213Y-51030109D01*
X215822179Y-51155048D01*
X215822181Y-51155049D01*
X215822184Y-51155051D01*
X216011588Y-51251557D01*
X216213757Y-51317246D01*
X216423713Y-51350500D01*
X216423714Y-51350500D01*
X216636286Y-51350500D01*
X216636287Y-51350500D01*
X216846243Y-51317246D01*
X217048412Y-51251557D01*
X217237816Y-51155051D01*
X217324138Y-51092335D01*
X217409786Y-51030109D01*
X217409788Y-51030106D01*
X217409792Y-51030104D01*
X217560104Y-50879792D01*
X217560106Y-50879788D01*
X217560109Y-50879786D01*
X217685048Y-50707820D01*
X217685047Y-50707820D01*
X217685051Y-50707816D01*
X217689514Y-50699054D01*
X217737488Y-50648259D01*
X217805308Y-50631463D01*
X217871444Y-50653999D01*
X217910486Y-50699056D01*
X217914951Y-50707820D01*
X218039890Y-50879786D01*
X218190213Y-51030109D01*
X218362179Y-51155048D01*
X218362181Y-51155049D01*
X218362184Y-51155051D01*
X218551588Y-51251557D01*
X218753757Y-51317246D01*
X218963713Y-51350500D01*
X218963714Y-51350500D01*
X219176286Y-51350500D01*
X219176287Y-51350500D01*
X219386243Y-51317246D01*
X219588412Y-51251557D01*
X219777816Y-51155051D01*
X219864138Y-51092335D01*
X219949786Y-51030109D01*
X219949788Y-51030106D01*
X219949792Y-51030104D01*
X220100104Y-50879792D01*
X220100106Y-50879788D01*
X220100109Y-50879786D01*
X220225048Y-50707820D01*
X220225047Y-50707820D01*
X220225051Y-50707816D01*
X220321557Y-50518412D01*
X220371890Y-50363504D01*
X244713723Y-50363504D01*
X244713723Y-50612621D01*
X244713724Y-50612638D01*
X244743408Y-50838114D01*
X244746241Y-50859628D01*
X244756489Y-50897873D01*
X244810721Y-51100270D01*
X244906053Y-51330424D01*
X244906060Y-51330439D01*
X245030623Y-51546189D01*
X245182283Y-51743837D01*
X245182289Y-51743844D01*
X245358441Y-51919996D01*
X245358448Y-51920002D01*
X245556096Y-52071662D01*
X245771846Y-52196225D01*
X245771861Y-52196232D01*
X245871048Y-52237316D01*
X246002016Y-52291565D01*
X246242658Y-52356045D01*
X246489658Y-52388563D01*
X246489665Y-52388563D01*
X246738781Y-52388563D01*
X246738788Y-52388563D01*
X246985788Y-52356045D01*
X247226430Y-52291565D01*
X247456596Y-52196227D01*
X247672350Y-52071662D01*
X247869999Y-51920001D01*
X248046161Y-51743839D01*
X248197822Y-51546190D01*
X248322387Y-51330436D01*
X248417725Y-51100270D01*
X248482205Y-50859628D01*
X248514723Y-50612628D01*
X248514723Y-50363498D01*
X248482205Y-50116498D01*
X248417725Y-49875856D01*
X248363476Y-49744888D01*
X248322392Y-49645701D01*
X248322385Y-49645686D01*
X248197822Y-49429936D01*
X248046162Y-49232288D01*
X248046156Y-49232281D01*
X247870004Y-49056129D01*
X247869997Y-49056123D01*
X247672349Y-48904463D01*
X247456599Y-48779900D01*
X247456584Y-48779893D01*
X247226430Y-48684561D01*
X247129378Y-48658556D01*
X246985788Y-48620081D01*
X246985787Y-48620080D01*
X246985784Y-48620080D01*
X246738798Y-48587564D01*
X246738793Y-48587563D01*
X246738788Y-48587563D01*
X246489658Y-48587563D01*
X246489652Y-48587563D01*
X246489647Y-48587564D01*
X246242661Y-48620080D01*
X246002015Y-48684561D01*
X245771861Y-48779893D01*
X245771846Y-48779900D01*
X245556096Y-48904463D01*
X245358448Y-49056123D01*
X245358441Y-49056129D01*
X245182289Y-49232281D01*
X245182283Y-49232288D01*
X245030623Y-49429936D01*
X244906060Y-49645686D01*
X244906053Y-49645701D01*
X244810721Y-49875855D01*
X244746240Y-50116501D01*
X244713724Y-50363487D01*
X244713723Y-50363504D01*
X220371890Y-50363504D01*
X220387246Y-50316243D01*
X220420500Y-50106287D01*
X220420500Y-49893713D01*
X220387246Y-49683757D01*
X220321557Y-49481588D01*
X220225051Y-49292184D01*
X220225049Y-49292181D01*
X220225048Y-49292179D01*
X220100109Y-49120213D01*
X219949786Y-48969890D01*
X219777820Y-48844951D01*
X219777115Y-48844591D01*
X219769054Y-48840485D01*
X219718259Y-48792512D01*
X219701463Y-48724692D01*
X219723999Y-48658556D01*
X219769054Y-48619515D01*
X219777816Y-48615051D01*
X219867554Y-48549853D01*
X219949786Y-48490109D01*
X219949788Y-48490106D01*
X219949792Y-48490104D01*
X220100104Y-48339792D01*
X220100106Y-48339788D01*
X220100109Y-48339786D01*
X220225048Y-48167820D01*
X220225047Y-48167820D01*
X220225051Y-48167816D01*
X220321557Y-47978412D01*
X220387246Y-47776243D01*
X220420500Y-47566287D01*
X220420500Y-47353713D01*
X220387246Y-47143757D01*
X220321557Y-46941588D01*
X220225051Y-46752184D01*
X220225049Y-46752181D01*
X220225048Y-46752179D01*
X220100109Y-46580213D01*
X219949786Y-46429890D01*
X219777820Y-46304951D01*
X219588414Y-46208444D01*
X219588413Y-46208443D01*
X219588412Y-46208443D01*
X219386243Y-46142754D01*
X219386241Y-46142753D01*
X219386240Y-46142753D01*
X219224957Y-46117208D01*
X219176287Y-46109500D01*
X218963713Y-46109500D01*
X218915042Y-46117208D01*
X218753760Y-46142753D01*
X218551585Y-46208444D01*
X218362179Y-46304951D01*
X218190213Y-46429890D01*
X218039890Y-46580213D01*
X217914949Y-46752182D01*
X217910484Y-46760946D01*
X217862509Y-46811742D01*
X217794688Y-46828536D01*
X217728553Y-46805998D01*
X217689516Y-46760946D01*
X217685050Y-46752182D01*
X217560109Y-46580213D01*
X217409786Y-46429890D01*
X217237820Y-46304951D01*
X217048414Y-46208444D01*
X217048413Y-46208443D01*
X217048412Y-46208443D01*
X216846243Y-46142754D01*
X216846241Y-46142753D01*
X216846240Y-46142753D01*
X216684957Y-46117208D01*
X216636287Y-46109500D01*
X216423713Y-46109500D01*
X216375042Y-46117208D01*
X216213760Y-46142753D01*
X216011585Y-46208444D01*
X215822179Y-46304951D01*
X215650213Y-46429890D01*
X215499890Y-46580213D01*
X215374949Y-46752182D01*
X215370484Y-46760946D01*
X215322509Y-46811742D01*
X215254688Y-46828536D01*
X215188553Y-46805998D01*
X215149516Y-46760946D01*
X215145050Y-46752182D01*
X215020109Y-46580213D01*
X214869786Y-46429890D01*
X214697820Y-46304951D01*
X214508414Y-46208444D01*
X214508413Y-46208443D01*
X214508412Y-46208443D01*
X214306243Y-46142754D01*
X214306241Y-46142753D01*
X214306240Y-46142753D01*
X214144957Y-46117208D01*
X214096287Y-46109500D01*
X213883713Y-46109500D01*
X213835042Y-46117208D01*
X213673760Y-46142753D01*
X213471585Y-46208444D01*
X213282179Y-46304951D01*
X213110213Y-46429890D01*
X212959890Y-46580213D01*
X212834949Y-46752182D01*
X212830484Y-46760946D01*
X212782509Y-46811742D01*
X212714688Y-46828536D01*
X212648553Y-46805998D01*
X212609516Y-46760946D01*
X212605050Y-46752182D01*
X212480109Y-46580213D01*
X212329786Y-46429890D01*
X212157820Y-46304951D01*
X211968414Y-46208444D01*
X211968413Y-46208443D01*
X211968412Y-46208443D01*
X211766243Y-46142754D01*
X211766241Y-46142753D01*
X211766240Y-46142753D01*
X211604957Y-46117208D01*
X211556287Y-46109500D01*
X211343713Y-46109500D01*
X211295042Y-46117208D01*
X211133760Y-46142753D01*
X210931585Y-46208444D01*
X210742179Y-46304951D01*
X210570213Y-46429890D01*
X210419890Y-46580213D01*
X210294951Y-46752179D01*
X210198444Y-46941585D01*
X210132753Y-47143760D01*
X210099500Y-47353713D01*
X210099500Y-47566286D01*
X210132753Y-47776239D01*
X210198444Y-47978414D01*
X210294951Y-48167820D01*
X210419890Y-48339786D01*
X210570213Y-48490109D01*
X210742182Y-48615050D01*
X210750946Y-48619516D01*
X210801742Y-48667491D01*
X210818536Y-48735312D01*
X210795998Y-48801447D01*
X210750946Y-48840484D01*
X210742182Y-48844949D01*
X210570213Y-48969890D01*
X210419890Y-49120213D01*
X210294949Y-49292182D01*
X210290484Y-49300946D01*
X210242509Y-49351742D01*
X210174688Y-49368536D01*
X210108553Y-49345998D01*
X210069516Y-49300946D01*
X210065050Y-49292182D01*
X209940109Y-49120213D01*
X209789786Y-48969890D01*
X209617820Y-48844951D01*
X209428414Y-48748444D01*
X209428413Y-48748443D01*
X209428412Y-48748443D01*
X209226243Y-48682754D01*
X209226241Y-48682753D01*
X209226240Y-48682753D01*
X209064833Y-48657189D01*
X209016287Y-48649500D01*
X208803713Y-48649500D01*
X208755167Y-48657189D01*
X208593760Y-48682753D01*
X208391585Y-48748444D01*
X208202179Y-48844951D01*
X208030213Y-48969890D01*
X207879890Y-49120213D01*
X207754949Y-49292182D01*
X207750484Y-49300946D01*
X207702509Y-49351742D01*
X207634688Y-49368536D01*
X207568553Y-49345998D01*
X207529516Y-49300946D01*
X207525050Y-49292182D01*
X207400109Y-49120213D01*
X207249786Y-48969890D01*
X207077820Y-48844951D01*
X207077115Y-48844591D01*
X207069054Y-48840485D01*
X207018259Y-48792512D01*
X207001463Y-48724692D01*
X207023999Y-48658556D01*
X207069054Y-48619515D01*
X207077816Y-48615051D01*
X207167554Y-48549853D01*
X207249786Y-48490109D01*
X207249788Y-48490106D01*
X207249792Y-48490104D01*
X207400104Y-48339792D01*
X207400106Y-48339788D01*
X207400109Y-48339786D01*
X207525048Y-48167820D01*
X207525047Y-48167820D01*
X207525051Y-48167816D01*
X207621557Y-47978412D01*
X207687246Y-47776243D01*
X207720500Y-47566287D01*
X207720500Y-47353713D01*
X207687246Y-47143757D01*
X207621557Y-46941588D01*
X207525051Y-46752184D01*
X207525049Y-46752181D01*
X207525048Y-46752179D01*
X207400109Y-46580213D01*
X207249786Y-46429890D01*
X207077820Y-46304951D01*
X206888414Y-46208444D01*
X206888413Y-46208443D01*
X206888412Y-46208443D01*
X206686243Y-46142754D01*
X206686241Y-46142753D01*
X206686240Y-46142753D01*
X206524957Y-46117208D01*
X206476287Y-46109500D01*
X206263713Y-46109500D01*
X206215042Y-46117208D01*
X206053760Y-46142753D01*
X205851585Y-46208444D01*
X205662179Y-46304951D01*
X205490213Y-46429890D01*
X205339890Y-46580213D01*
X205214949Y-46752182D01*
X205210484Y-46760946D01*
X205162509Y-46811742D01*
X205094688Y-46828536D01*
X205028553Y-46805998D01*
X204989516Y-46760946D01*
X204985050Y-46752182D01*
X204860109Y-46580213D01*
X204709786Y-46429890D01*
X204537820Y-46304951D01*
X204348414Y-46208444D01*
X204348413Y-46208443D01*
X204348412Y-46208443D01*
X204146243Y-46142754D01*
X204146241Y-46142753D01*
X204146240Y-46142753D01*
X203984957Y-46117208D01*
X203936287Y-46109500D01*
X203723713Y-46109500D01*
X203675042Y-46117208D01*
X203513760Y-46142753D01*
X203311585Y-46208444D01*
X203122179Y-46304951D01*
X202950213Y-46429890D01*
X202799890Y-46580213D01*
X202674951Y-46752179D01*
X202578444Y-46941585D01*
X202512753Y-47143760D01*
X202479500Y-47353713D01*
X172960500Y-47353713D01*
X172927246Y-47143757D01*
X172861557Y-46941588D01*
X172765051Y-46752184D01*
X172765049Y-46752181D01*
X172765048Y-46752179D01*
X172640109Y-46580213D01*
X172489786Y-46429890D01*
X172317820Y-46304951D01*
X172128414Y-46208444D01*
X172128413Y-46208443D01*
X172128412Y-46208443D01*
X171926243Y-46142754D01*
X171926241Y-46142753D01*
X171926240Y-46142753D01*
X171764957Y-46117208D01*
X171716287Y-46109500D01*
X171503713Y-46109500D01*
X171455042Y-46117208D01*
X171293760Y-46142753D01*
X171091585Y-46208444D01*
X170902179Y-46304951D01*
X170730213Y-46429890D01*
X170579890Y-46580213D01*
X170454949Y-46752182D01*
X170450484Y-46760946D01*
X170402509Y-46811742D01*
X170334688Y-46828536D01*
X170268553Y-46805998D01*
X170229516Y-46760946D01*
X170225050Y-46752182D01*
X170100109Y-46580213D01*
X169949786Y-46429890D01*
X169777820Y-46304951D01*
X169588414Y-46208444D01*
X169588413Y-46208443D01*
X169588412Y-46208443D01*
X169386243Y-46142754D01*
X169386241Y-46142753D01*
X169386240Y-46142753D01*
X169224957Y-46117208D01*
X169176287Y-46109500D01*
X168963713Y-46109500D01*
X168915042Y-46117208D01*
X168753760Y-46142753D01*
X168551585Y-46208444D01*
X168362179Y-46304951D01*
X168190213Y-46429890D01*
X168039890Y-46580213D01*
X167914949Y-46752182D01*
X167910484Y-46760946D01*
X167862509Y-46811742D01*
X167794688Y-46828536D01*
X167728553Y-46805998D01*
X167689516Y-46760946D01*
X167685050Y-46752182D01*
X167560109Y-46580213D01*
X167409786Y-46429890D01*
X167237820Y-46304951D01*
X167048414Y-46208444D01*
X167048413Y-46208443D01*
X167048412Y-46208443D01*
X166846243Y-46142754D01*
X166846241Y-46142753D01*
X166846240Y-46142753D01*
X166684957Y-46117208D01*
X166636287Y-46109500D01*
X166423713Y-46109500D01*
X166375042Y-46117208D01*
X166213760Y-46142753D01*
X166011585Y-46208444D01*
X165822179Y-46304951D01*
X165650213Y-46429890D01*
X165499890Y-46580213D01*
X165374949Y-46752182D01*
X165370484Y-46760946D01*
X165322509Y-46811742D01*
X165254688Y-46828536D01*
X165188553Y-46805998D01*
X165149516Y-46760946D01*
X165145050Y-46752182D01*
X165020109Y-46580213D01*
X164869786Y-46429890D01*
X164697820Y-46304951D01*
X164508414Y-46208444D01*
X164508413Y-46208443D01*
X164508412Y-46208443D01*
X164306243Y-46142754D01*
X164306241Y-46142753D01*
X164306240Y-46142753D01*
X164144957Y-46117208D01*
X164096287Y-46109500D01*
X163883713Y-46109500D01*
X163835042Y-46117208D01*
X163673760Y-46142753D01*
X163471585Y-46208444D01*
X163282179Y-46304951D01*
X163110213Y-46429890D01*
X162959890Y-46580213D01*
X162834949Y-46752182D01*
X162830484Y-46760946D01*
X162782509Y-46811742D01*
X162714688Y-46828536D01*
X162648553Y-46805998D01*
X162609516Y-46760946D01*
X162605050Y-46752182D01*
X162480109Y-46580213D01*
X162329786Y-46429890D01*
X162157820Y-46304951D01*
X161968414Y-46208444D01*
X161968413Y-46208443D01*
X161968412Y-46208443D01*
X161766243Y-46142754D01*
X161766241Y-46142753D01*
X161766240Y-46142753D01*
X161604957Y-46117208D01*
X161556287Y-46109500D01*
X161343713Y-46109500D01*
X161295042Y-46117208D01*
X161133760Y-46142753D01*
X160931585Y-46208444D01*
X160742179Y-46304951D01*
X160570213Y-46429890D01*
X160419890Y-46580213D01*
X160294949Y-46752182D01*
X160290484Y-46760946D01*
X160242509Y-46811742D01*
X160174688Y-46828536D01*
X160108553Y-46805998D01*
X160069516Y-46760946D01*
X160065050Y-46752182D01*
X159940109Y-46580213D01*
X159789786Y-46429890D01*
X159617820Y-46304951D01*
X159428414Y-46208444D01*
X159428413Y-46208443D01*
X159428412Y-46208443D01*
X159226243Y-46142754D01*
X159226241Y-46142753D01*
X159226240Y-46142753D01*
X159064957Y-46117208D01*
X159016287Y-46109500D01*
X158803713Y-46109500D01*
X158755042Y-46117208D01*
X158593760Y-46142753D01*
X158391585Y-46208444D01*
X158202179Y-46304951D01*
X158030213Y-46429890D01*
X157879890Y-46580213D01*
X157754949Y-46752182D01*
X157750484Y-46760946D01*
X157702509Y-46811742D01*
X157634688Y-46828536D01*
X157568553Y-46805998D01*
X157529516Y-46760946D01*
X157525050Y-46752182D01*
X157400109Y-46580213D01*
X157249786Y-46429890D01*
X157077820Y-46304951D01*
X156888414Y-46208444D01*
X156888413Y-46208443D01*
X156888412Y-46208443D01*
X156686243Y-46142754D01*
X156686241Y-46142753D01*
X156686240Y-46142753D01*
X156524957Y-46117208D01*
X156476287Y-46109500D01*
X156263713Y-46109500D01*
X156215042Y-46117208D01*
X156053760Y-46142753D01*
X155851585Y-46208444D01*
X155662179Y-46304951D01*
X155490213Y-46429890D01*
X155339890Y-46580213D01*
X155214949Y-46752182D01*
X155210484Y-46760946D01*
X155162509Y-46811742D01*
X155094688Y-46828536D01*
X155028553Y-46805998D01*
X154989516Y-46760946D01*
X154985050Y-46752182D01*
X154860109Y-46580213D01*
X154709786Y-46429890D01*
X154537820Y-46304951D01*
X154348414Y-46208444D01*
X154348413Y-46208443D01*
X154348412Y-46208443D01*
X154146243Y-46142754D01*
X154146241Y-46142753D01*
X154146240Y-46142753D01*
X153984957Y-46117208D01*
X153936287Y-46109500D01*
X153723713Y-46109500D01*
X153675042Y-46117208D01*
X153513760Y-46142753D01*
X153311585Y-46208444D01*
X153122179Y-46304951D01*
X152950213Y-46429890D01*
X152799890Y-46580213D01*
X152674951Y-46752179D01*
X152578444Y-46941585D01*
X152512753Y-47143760D01*
X152479500Y-47353713D01*
X125500500Y-47353713D01*
X125467246Y-47143757D01*
X125401557Y-46941588D01*
X125305051Y-46752184D01*
X125305049Y-46752181D01*
X125305048Y-46752179D01*
X125180109Y-46580213D01*
X125029786Y-46429890D01*
X124857820Y-46304951D01*
X124668414Y-46208444D01*
X124668413Y-46208443D01*
X124668412Y-46208443D01*
X124466243Y-46142754D01*
X124466241Y-46142753D01*
X124466240Y-46142753D01*
X124304957Y-46117208D01*
X124256287Y-46109500D01*
X124043713Y-46109500D01*
X123995042Y-46117208D01*
X123833760Y-46142753D01*
X123631585Y-46208444D01*
X123442179Y-46304951D01*
X123270213Y-46429890D01*
X123119890Y-46580213D01*
X122994949Y-46752182D01*
X122990484Y-46760946D01*
X122942509Y-46811742D01*
X122874688Y-46828536D01*
X122808553Y-46805998D01*
X122769516Y-46760946D01*
X122765050Y-46752182D01*
X122640109Y-46580213D01*
X122489786Y-46429890D01*
X122317820Y-46304951D01*
X122128414Y-46208444D01*
X122128413Y-46208443D01*
X122128412Y-46208443D01*
X121926243Y-46142754D01*
X121926241Y-46142753D01*
X121926240Y-46142753D01*
X121764957Y-46117208D01*
X121716287Y-46109500D01*
X121503713Y-46109500D01*
X121455042Y-46117208D01*
X121293760Y-46142753D01*
X121091585Y-46208444D01*
X120902179Y-46304951D01*
X120730213Y-46429890D01*
X120579890Y-46580213D01*
X120454949Y-46752182D01*
X120450484Y-46760946D01*
X120402509Y-46811742D01*
X120334688Y-46828536D01*
X120268553Y-46805998D01*
X120229516Y-46760946D01*
X120225050Y-46752182D01*
X120100109Y-46580213D01*
X119949786Y-46429890D01*
X119777820Y-46304951D01*
X119588414Y-46208444D01*
X119588413Y-46208443D01*
X119588412Y-46208443D01*
X119386243Y-46142754D01*
X119386241Y-46142753D01*
X119386240Y-46142753D01*
X119224957Y-46117208D01*
X119176287Y-46109500D01*
X118963713Y-46109500D01*
X118915042Y-46117208D01*
X118753760Y-46142753D01*
X118551585Y-46208444D01*
X118362179Y-46304951D01*
X118190213Y-46429890D01*
X118039890Y-46580213D01*
X117914949Y-46752182D01*
X117910484Y-46760946D01*
X117862509Y-46811742D01*
X117794688Y-46828536D01*
X117728553Y-46805998D01*
X117689516Y-46760946D01*
X117685050Y-46752182D01*
X117560109Y-46580213D01*
X117409786Y-46429890D01*
X117237820Y-46304951D01*
X117048414Y-46208444D01*
X117048413Y-46208443D01*
X117048412Y-46208443D01*
X116846243Y-46142754D01*
X116846241Y-46142753D01*
X116846240Y-46142753D01*
X116684957Y-46117208D01*
X116636287Y-46109500D01*
X116423713Y-46109500D01*
X116375042Y-46117208D01*
X116213760Y-46142753D01*
X116011585Y-46208444D01*
X115822179Y-46304951D01*
X115650213Y-46429890D01*
X115499890Y-46580213D01*
X115374949Y-46752182D01*
X115370484Y-46760946D01*
X115322509Y-46811742D01*
X115254688Y-46828536D01*
X115188553Y-46805998D01*
X115149516Y-46760946D01*
X115145050Y-46752182D01*
X115020109Y-46580213D01*
X114869786Y-46429890D01*
X114697820Y-46304951D01*
X114508414Y-46208444D01*
X114508413Y-46208443D01*
X114508412Y-46208443D01*
X114306243Y-46142754D01*
X114306241Y-46142753D01*
X114306240Y-46142753D01*
X114144957Y-46117208D01*
X114096287Y-46109500D01*
X113883713Y-46109500D01*
X113835042Y-46117208D01*
X113673760Y-46142753D01*
X113471585Y-46208444D01*
X113282179Y-46304951D01*
X113110213Y-46429890D01*
X112959890Y-46580213D01*
X112834949Y-46752182D01*
X112830484Y-46760946D01*
X112782509Y-46811742D01*
X112714688Y-46828536D01*
X112648553Y-46805998D01*
X112609516Y-46760946D01*
X112605050Y-46752182D01*
X112480109Y-46580213D01*
X112329786Y-46429890D01*
X112157820Y-46304951D01*
X111968414Y-46208444D01*
X111968413Y-46208443D01*
X111968412Y-46208443D01*
X111766243Y-46142754D01*
X111766241Y-46142753D01*
X111766240Y-46142753D01*
X111604957Y-46117208D01*
X111556287Y-46109500D01*
X111343713Y-46109500D01*
X111295042Y-46117208D01*
X111133760Y-46142753D01*
X110931585Y-46208444D01*
X110742179Y-46304951D01*
X110570213Y-46429890D01*
X110419890Y-46580213D01*
X110294951Y-46752179D01*
X110198444Y-46941585D01*
X110132753Y-47143760D01*
X110099500Y-47353713D01*
X110099500Y-47566286D01*
X110132753Y-47776239D01*
X110198444Y-47978414D01*
X110294951Y-48167820D01*
X110419890Y-48339786D01*
X110570213Y-48490109D01*
X110742182Y-48615050D01*
X110750946Y-48619516D01*
X110801742Y-48667491D01*
X110818536Y-48735312D01*
X110795998Y-48801447D01*
X110750946Y-48840484D01*
X110742182Y-48844949D01*
X110570213Y-48969890D01*
X110419890Y-49120213D01*
X110294949Y-49292182D01*
X110290484Y-49300946D01*
X110242509Y-49351742D01*
X110174688Y-49368536D01*
X110108553Y-49345998D01*
X110069516Y-49300946D01*
X110065050Y-49292182D01*
X109940109Y-49120213D01*
X109789786Y-48969890D01*
X109617820Y-48844951D01*
X109428414Y-48748444D01*
X109428413Y-48748443D01*
X109428412Y-48748443D01*
X109226243Y-48682754D01*
X109226241Y-48682753D01*
X109226240Y-48682753D01*
X109064833Y-48657189D01*
X109016287Y-48649500D01*
X108803713Y-48649500D01*
X108755167Y-48657189D01*
X108593760Y-48682753D01*
X108391585Y-48748444D01*
X108202179Y-48844951D01*
X108030213Y-48969890D01*
X107879890Y-49120213D01*
X107754949Y-49292182D01*
X107750484Y-49300946D01*
X107702509Y-49351742D01*
X107634688Y-49368536D01*
X107568553Y-49345998D01*
X107529516Y-49300946D01*
X107525050Y-49292182D01*
X107400109Y-49120213D01*
X107249786Y-48969890D01*
X107077820Y-48844951D01*
X107077115Y-48844591D01*
X107069054Y-48840485D01*
X107018259Y-48792512D01*
X107001463Y-48724692D01*
X107023999Y-48658556D01*
X107069054Y-48619515D01*
X107077816Y-48615051D01*
X107167554Y-48549853D01*
X107249786Y-48490109D01*
X107249788Y-48490106D01*
X107249792Y-48490104D01*
X107400104Y-48339792D01*
X107400106Y-48339788D01*
X107400109Y-48339786D01*
X107525048Y-48167820D01*
X107525047Y-48167820D01*
X107525051Y-48167816D01*
X107621557Y-47978412D01*
X107687246Y-47776243D01*
X107720500Y-47566287D01*
X107720500Y-47353713D01*
X107687246Y-47143757D01*
X107621557Y-46941588D01*
X107525051Y-46752184D01*
X107525049Y-46752181D01*
X107525048Y-46752179D01*
X107400109Y-46580213D01*
X107249786Y-46429890D01*
X107077820Y-46304951D01*
X106888414Y-46208444D01*
X106888413Y-46208443D01*
X106888412Y-46208443D01*
X106686243Y-46142754D01*
X106686241Y-46142753D01*
X106686240Y-46142753D01*
X106524957Y-46117208D01*
X106476287Y-46109500D01*
X106263713Y-46109500D01*
X106215042Y-46117208D01*
X106053760Y-46142753D01*
X105851585Y-46208444D01*
X105662179Y-46304951D01*
X105490213Y-46429890D01*
X105339890Y-46580213D01*
X105214949Y-46752182D01*
X105210484Y-46760946D01*
X105162509Y-46811742D01*
X105094688Y-46828536D01*
X105028553Y-46805998D01*
X104989516Y-46760946D01*
X104985050Y-46752182D01*
X104860109Y-46580213D01*
X104709786Y-46429890D01*
X104537820Y-46304951D01*
X104348414Y-46208444D01*
X104348413Y-46208443D01*
X104348412Y-46208443D01*
X104146243Y-46142754D01*
X104146241Y-46142753D01*
X104146240Y-46142753D01*
X103984957Y-46117208D01*
X103936287Y-46109500D01*
X103723713Y-46109500D01*
X103675042Y-46117208D01*
X103513760Y-46142753D01*
X103311585Y-46208444D01*
X103122179Y-46304951D01*
X102950213Y-46429890D01*
X102799890Y-46580213D01*
X102674951Y-46752179D01*
X102578444Y-46941585D01*
X102512753Y-47143760D01*
X102479500Y-47353713D01*
X96338688Y-47353713D01*
X96338714Y-47348254D01*
X96354927Y-43923913D01*
X96374929Y-43856967D01*
X96427949Y-43811463D01*
X96478926Y-43800500D01*
X247460118Y-43800500D01*
X247497575Y-43800500D01*
X247502443Y-43800596D01*
G37*
G04 #@! TD.AperFunction*
G04 #@! TD*
G04 #@! TA.AperFunction,Conductor*
G04 #@! TO.N,/CELL_14*
G36*
X94393855Y-43820185D02*
G01*
X94439610Y-43872989D01*
X94450816Y-43924507D01*
X94450191Y-54773820D01*
X94431618Y-54839090D01*
X94353079Y-54965933D01*
X94353075Y-54965942D01*
X94287668Y-55134780D01*
X94284423Y-55143156D01*
X94259675Y-55275547D01*
X94249500Y-55329975D01*
X94249500Y-86924502D01*
X94229815Y-86991541D01*
X94177011Y-87037296D01*
X94107853Y-87047240D01*
X94044297Y-87018215D01*
X94037819Y-87012183D01*
X94008025Y-86982389D01*
X94008023Y-86982387D01*
X93950959Y-86949441D01*
X93893896Y-86916495D01*
X93830248Y-86899441D01*
X93766601Y-86882387D01*
X93634817Y-86882387D01*
X93507521Y-86916495D01*
X93393395Y-86982387D01*
X93393392Y-86982389D01*
X93300211Y-87075570D01*
X93300209Y-87075573D01*
X93234317Y-87189699D01*
X93200209Y-87316995D01*
X93200209Y-87448778D01*
X93234317Y-87576074D01*
X93267263Y-87633137D01*
X93300209Y-87690201D01*
X93393395Y-87783387D01*
X93478333Y-87832426D01*
X93493654Y-87841272D01*
X93507523Y-87849279D01*
X93634817Y-87883387D01*
X93634819Y-87883387D01*
X93766599Y-87883387D01*
X93766601Y-87883387D01*
X93893895Y-87849279D01*
X94008023Y-87783387D01*
X94037819Y-87753591D01*
X94099142Y-87720106D01*
X94168834Y-87725090D01*
X94224767Y-87766962D01*
X94249184Y-87832426D01*
X94249500Y-87841272D01*
X94249500Y-210735118D01*
X94249500Y-210775000D01*
X94249500Y-210870027D01*
X94284423Y-211056842D01*
X94284423Y-211056843D01*
X94353075Y-211234057D01*
X94353079Y-211234066D01*
X94422596Y-211346340D01*
X94441169Y-211411624D01*
X94440768Y-218396709D01*
X94440618Y-221012988D01*
X94440545Y-222275507D01*
X94420857Y-222342545D01*
X94368050Y-222388297D01*
X94316545Y-222399500D01*
X80502425Y-222399500D01*
X80497557Y-222399404D01*
X80049855Y-222381813D01*
X80040149Y-222381050D01*
X79597586Y-222328670D01*
X79587968Y-222327146D01*
X79150912Y-222240209D01*
X79141445Y-222237936D01*
X78712549Y-222116975D01*
X78703290Y-222113967D01*
X78285201Y-221959726D01*
X78276205Y-221956000D01*
X77871507Y-221769432D01*
X77862832Y-221765011D01*
X77474016Y-221547263D01*
X77465714Y-221542176D01*
X77095189Y-221294600D01*
X77087312Y-221288877D01*
X76737349Y-221012988D01*
X76729946Y-221006665D01*
X76709196Y-220987484D01*
X76402704Y-220704166D01*
X76395833Y-220697295D01*
X76093329Y-220370047D01*
X76087011Y-220362650D01*
X75811122Y-220012687D01*
X75805399Y-220004810D01*
X75557823Y-219634285D01*
X75552736Y-219625983D01*
X75334988Y-219237167D01*
X75330573Y-219228504D01*
X75143998Y-218823791D01*
X75140273Y-218814798D01*
X74986032Y-218396709D01*
X74983024Y-218387450D01*
X74931830Y-218205931D01*
X74862062Y-217958550D01*
X74859790Y-217949087D01*
X74772850Y-217512016D01*
X74771329Y-217502413D01*
X74761587Y-217420106D01*
X74718948Y-217059845D01*
X74718186Y-217050144D01*
X74715841Y-216990471D01*
X74700596Y-216602443D01*
X74700500Y-216597575D01*
X74700500Y-215587378D01*
X79485277Y-215587378D01*
X79485277Y-215836495D01*
X79485278Y-215836512D01*
X79517794Y-216083498D01*
X79582275Y-216324144D01*
X79677607Y-216554298D01*
X79677614Y-216554313D01*
X79802177Y-216770063D01*
X79953837Y-216967711D01*
X79953843Y-216967718D01*
X80129995Y-217143870D01*
X80130002Y-217143876D01*
X80327650Y-217295536D01*
X80543400Y-217420099D01*
X80543415Y-217420106D01*
X80642602Y-217461190D01*
X80773570Y-217515439D01*
X81014212Y-217579919D01*
X81261212Y-217612437D01*
X81261219Y-217612437D01*
X81510335Y-217612437D01*
X81510342Y-217612437D01*
X81757342Y-217579919D01*
X81997984Y-217515439D01*
X82228150Y-217420101D01*
X82443904Y-217295536D01*
X82641553Y-217143875D01*
X82817715Y-216967713D01*
X82969376Y-216770064D01*
X83093941Y-216554310D01*
X83189279Y-216324144D01*
X83253759Y-216083502D01*
X83286277Y-215836502D01*
X83286277Y-215587372D01*
X83253759Y-215340372D01*
X83189279Y-215099730D01*
X83135030Y-214968762D01*
X83093946Y-214869575D01*
X83093939Y-214869560D01*
X82969376Y-214653810D01*
X82817716Y-214456162D01*
X82817710Y-214456155D01*
X82641558Y-214280003D01*
X82641551Y-214279997D01*
X82443903Y-214128337D01*
X82228153Y-214003774D01*
X82228138Y-214003767D01*
X81997984Y-213908435D01*
X81757338Y-213843954D01*
X81510352Y-213811438D01*
X81510347Y-213811437D01*
X81510342Y-213811437D01*
X81261212Y-213811437D01*
X81261206Y-213811437D01*
X81261201Y-213811438D01*
X81014215Y-213843954D01*
X80773569Y-213908435D01*
X80543415Y-214003767D01*
X80543400Y-214003774D01*
X80327650Y-214128337D01*
X80130002Y-214279997D01*
X80129995Y-214280003D01*
X79953843Y-214456155D01*
X79953837Y-214456162D01*
X79802177Y-214653810D01*
X79677614Y-214869560D01*
X79677607Y-214869575D01*
X79582275Y-215099729D01*
X79517794Y-215340375D01*
X79485278Y-215587361D01*
X79485277Y-215587378D01*
X74700500Y-215587378D01*
X74700500Y-50361218D01*
X79487563Y-50361218D01*
X79487563Y-50610335D01*
X79487564Y-50610352D01*
X79520080Y-50857338D01*
X79584561Y-51097984D01*
X79679893Y-51328138D01*
X79679900Y-51328153D01*
X79804463Y-51543903D01*
X79956123Y-51741551D01*
X79956129Y-51741558D01*
X80132281Y-51917710D01*
X80132288Y-51917716D01*
X80329936Y-52069376D01*
X80545686Y-52193939D01*
X80545701Y-52193946D01*
X80644888Y-52235030D01*
X80775856Y-52289279D01*
X81016498Y-52353759D01*
X81263498Y-52386277D01*
X81263505Y-52386277D01*
X81512621Y-52386277D01*
X81512628Y-52386277D01*
X81759628Y-52353759D01*
X82000270Y-52289279D01*
X82230436Y-52193941D01*
X82446190Y-52069376D01*
X82643839Y-51917715D01*
X82820001Y-51741553D01*
X82971662Y-51543904D01*
X83096227Y-51328150D01*
X83191565Y-51097984D01*
X83256045Y-50857342D01*
X83288563Y-50610342D01*
X83288563Y-50361212D01*
X83256045Y-50114212D01*
X83191565Y-49873570D01*
X83137316Y-49742602D01*
X83096232Y-49643415D01*
X83096225Y-49643400D01*
X82971662Y-49427650D01*
X82820002Y-49230002D01*
X82819996Y-49229995D01*
X82643844Y-49053843D01*
X82643837Y-49053837D01*
X82446189Y-48902177D01*
X82230439Y-48777614D01*
X82230424Y-48777607D01*
X82000270Y-48682275D01*
X81759624Y-48617794D01*
X81512638Y-48585278D01*
X81512633Y-48585277D01*
X81512628Y-48585277D01*
X81263498Y-48585277D01*
X81263492Y-48585277D01*
X81263487Y-48585278D01*
X81016501Y-48617794D01*
X80775855Y-48682275D01*
X80545701Y-48777607D01*
X80545686Y-48777614D01*
X80329936Y-48902177D01*
X80132288Y-49053837D01*
X80132281Y-49053843D01*
X79956129Y-49229995D01*
X79956123Y-49230002D01*
X79804463Y-49427650D01*
X79679900Y-49643400D01*
X79679893Y-49643415D01*
X79584561Y-49873569D01*
X79520080Y-50114215D01*
X79487564Y-50361201D01*
X79487563Y-50361218D01*
X74700500Y-50361218D01*
X74700500Y-49602424D01*
X74700596Y-49597556D01*
X74707272Y-49427650D01*
X74718186Y-49149847D01*
X74718949Y-49140149D01*
X74729164Y-49053843D01*
X74771331Y-48697571D01*
X74772849Y-48687987D01*
X74859793Y-48250897D01*
X74862063Y-48241445D01*
X74983027Y-47812538D01*
X74986032Y-47803290D01*
X75079228Y-47550672D01*
X75140278Y-47385188D01*
X75143993Y-47376217D01*
X75330577Y-46971485D01*
X75334988Y-46962832D01*
X75552736Y-46574016D01*
X75557823Y-46565714D01*
X75736151Y-46298827D01*
X75805409Y-46195173D01*
X75811110Y-46187327D01*
X76087026Y-45837331D01*
X76093318Y-45829964D01*
X76395845Y-45502691D01*
X76402691Y-45495845D01*
X76729964Y-45193318D01*
X76737331Y-45187026D01*
X77087327Y-44911110D01*
X77095173Y-44905409D01*
X77465716Y-44657821D01*
X77474016Y-44652736D01*
X77862832Y-44434988D01*
X77871485Y-44430577D01*
X78276217Y-44243993D01*
X78285188Y-44240278D01*
X78703301Y-44086028D01*
X78712538Y-44083027D01*
X79141455Y-43962060D01*
X79150897Y-43959793D01*
X79587987Y-43872849D01*
X79597571Y-43871331D01*
X80040156Y-43818948D01*
X80049847Y-43818186D01*
X80497557Y-43800596D01*
X80502425Y-43800500D01*
X94326816Y-43800500D01*
X94393855Y-43820185D01*
G37*
G04 #@! TD.AperFunction*
G04 #@! TD*
M02*
