%TF.GenerationSoftware,KiCad,Pcbnew,9.0.5*%
%TF.CreationDate,2025-11-12T01:12:09-05:00*%
%TF.ProjectId,Power Board,506f7765-7220-4426-9f61-72642e6b6963,rev?*%
%TF.SameCoordinates,Original*%
%TF.FileFunction,Drillmap*%
%TF.FilePolarity,Positive*%
%FSLAX45Y45*%
G04 Gerber Fmt 4.5, Leading zero omitted, Abs format (unit mm)*
G04 Created by KiCad (PCBNEW 9.0.5) date 2025-11-12 01:12:09*
%MOMM*%
%LPD*%
G01*
G04 APERTURE LIST*
%ADD10C,0.001000*%
%ADD11C,0.050000*%
%ADD12C,0.200000*%
G04 APERTURE END LIST*
D10*
X9445000Y-5542500D02*
X9445000Y-21077500D01*
X19105000Y-21077500D02*
G75*
G02*
X18940000Y-21077500I-82500J0D01*
G01*
X17885000Y-5542500D02*
G75*
G02*
X18050000Y-5542500I82500J0D01*
G01*
X21050000Y-5542500D02*
X21050000Y-21077500D01*
X11555000Y-5542500D02*
X11555000Y-21077500D01*
X11555000Y-5542500D02*
G75*
G02*
X11720000Y-5542500I82500J0D01*
G01*
X23160000Y-5542500D02*
X23160000Y-21077500D01*
X18940000Y-5542500D02*
G75*
G02*
X19105000Y-5542500I82500J0D01*
G01*
X15940000Y-21077500D02*
X15940000Y-5542500D01*
X22105000Y-5542500D02*
G75*
G02*
X22270000Y-5542500I82500J0D01*
G01*
D11*
X8050000Y-22260000D02*
G75*
G02*
X7450000Y-21660000I0J600000D01*
G01*
D10*
X15775000Y-5542500D02*
G75*
G02*
X15940000Y-5542500I82500J0D01*
G01*
X17885000Y-5542500D02*
X17885000Y-21077500D01*
X18050000Y-21077500D02*
G75*
G02*
X17885000Y-21077500I-82500J0D01*
G01*
X19105000Y-21077500D02*
X19105000Y-5542500D01*
D11*
X24750000Y-4360000D02*
G75*
G02*
X25350000Y-4960000I0J-600000D01*
G01*
X24831422Y-5048806D02*
G75*
G02*
X24491422Y-5048806I-170000J0D01*
G01*
X24491422Y-5048806D02*
G75*
G02*
X24831422Y-5048806I170000J0D01*
G01*
D10*
X10500000Y-5542500D02*
X10500000Y-21077500D01*
X23160000Y-5542500D02*
G75*
G02*
X23325000Y-5542500I82500J0D01*
G01*
X11720000Y-21077500D02*
G75*
G02*
X11555000Y-21077500I-82500J0D01*
G01*
D11*
X8308578Y-21571194D02*
G75*
G02*
X7968578Y-21571194I-170000J0D01*
G01*
X7968578Y-21571194D02*
G75*
G02*
X8308578Y-21571194I170000J0D01*
G01*
D10*
X19995000Y-5542500D02*
G75*
G02*
X20160000Y-5542500I82500J0D01*
G01*
X14885000Y-21077500D02*
G75*
G02*
X14720000Y-21077500I-82500J0D01*
G01*
D11*
X8308806Y-5048578D02*
G75*
G02*
X7968806Y-5048578I-170000J0D01*
G01*
X7968806Y-5048578D02*
G75*
G02*
X8308806Y-5048578I170000J0D01*
G01*
D10*
X9610000Y-21077500D02*
G75*
G02*
X9445000Y-21077500I-82500J0D01*
G01*
X21215000Y-21077500D02*
G75*
G02*
X21050000Y-21077500I-82500J0D01*
G01*
D11*
X25350000Y-4960000D02*
X25350000Y-21660000D01*
D10*
X14720000Y-5542500D02*
X14720000Y-21077500D01*
X23325000Y-21077500D02*
G75*
G02*
X23160000Y-21077500I-82500J0D01*
G01*
X16995000Y-21077500D02*
X16995000Y-5542500D01*
X18050000Y-21077500D02*
X18050000Y-5542500D01*
X21050000Y-5542500D02*
G75*
G02*
X21215000Y-5542500I82500J0D01*
G01*
X12610000Y-5542500D02*
G75*
G02*
X12775000Y-5542500I82500J0D01*
G01*
X23325000Y-21077500D02*
X23325000Y-5542500D01*
X22270000Y-21077500D02*
G75*
G02*
X22105000Y-21077500I-82500J0D01*
G01*
X13830000Y-21077500D02*
X13830000Y-5542500D01*
X13665000Y-5542500D02*
X13665000Y-21077500D01*
X11720000Y-21077500D02*
X11720000Y-5542500D01*
D11*
X25350000Y-21660000D02*
G75*
G02*
X24750000Y-22260000I-600000J0D01*
G01*
D10*
X10665000Y-21077500D02*
G75*
G02*
X10500000Y-21077500I-82500J0D01*
G01*
D11*
X24750000Y-22260000D02*
X8050000Y-22260000D01*
D10*
X13830000Y-21077500D02*
G75*
G02*
X13665000Y-21077500I-82500J0D01*
G01*
X22105000Y-5542500D02*
X22105000Y-21077500D01*
X18940000Y-5542500D02*
X18940000Y-21077500D01*
D11*
X7450000Y-21660000D02*
X7450000Y-4960000D01*
D10*
X19995000Y-5542500D02*
X19995000Y-21077500D01*
X12775000Y-21077500D02*
G75*
G02*
X12610000Y-21077500I-82500J0D01*
G01*
X20160000Y-21077500D02*
X20160000Y-5542500D01*
X13665000Y-5542500D02*
G75*
G02*
X13830000Y-5542500I82500J0D01*
G01*
D11*
X24831194Y-21571422D02*
G75*
G02*
X24491194Y-21571422I-170000J0D01*
G01*
X24491194Y-21571422D02*
G75*
G02*
X24831194Y-21571422I170000J0D01*
G01*
D10*
X10665000Y-21077500D02*
X10665000Y-5542500D01*
X14720000Y-5542500D02*
G75*
G02*
X14885000Y-5542500I82500J0D01*
G01*
X14885000Y-21077500D02*
X14885000Y-5542500D01*
X10500000Y-5542500D02*
G75*
G02*
X10665000Y-5542500I82500J0D01*
G01*
X16830000Y-5542500D02*
X16830000Y-21077500D01*
X16995000Y-21077500D02*
G75*
G02*
X16830000Y-21077500I-82500J0D01*
G01*
X12610000Y-5542500D02*
X12610000Y-21077500D01*
X16830000Y-5542500D02*
G75*
G02*
X16995000Y-5542500I82500J0D01*
G01*
X22270000Y-21077500D02*
X22270000Y-5542500D01*
X15775000Y-5542500D02*
X15775000Y-21077500D01*
D11*
X7450000Y-4960000D02*
G75*
G02*
X8050000Y-4360000I600000J0D01*
G01*
X24750000Y-4360000D02*
X8050000Y-4360000D01*
D10*
X9610000Y-21077500D02*
X9610000Y-5542500D01*
X21215000Y-21077500D02*
X21215000Y-5542500D01*
X20160000Y-21077500D02*
G75*
G02*
X19995000Y-21077500I-82500J0D01*
G01*
X12775000Y-21077500D02*
X12775000Y-5542500D01*
X15940000Y-21077500D02*
G75*
G02*
X15775000Y-21077500I-82500J0D01*
G01*
X9445000Y-5542500D02*
G75*
G02*
X9610000Y-5542500I82500J0D01*
G01*
D12*
X7708277Y-22573984D02*
X7708277Y-22373984D01*
X7708277Y-22373984D02*
X7755896Y-22373984D01*
X7755896Y-22373984D02*
X7784467Y-22383508D01*
X7784467Y-22383508D02*
X7803515Y-22402555D01*
X7803515Y-22402555D02*
X7813039Y-22421603D01*
X7813039Y-22421603D02*
X7822562Y-22459698D01*
X7822562Y-22459698D02*
X7822562Y-22488269D01*
X7822562Y-22488269D02*
X7813039Y-22526365D01*
X7813039Y-22526365D02*
X7803515Y-22545412D01*
X7803515Y-22545412D02*
X7784467Y-22564460D01*
X7784467Y-22564460D02*
X7755896Y-22573984D01*
X7755896Y-22573984D02*
X7708277Y-22573984D01*
X7908277Y-22573984D02*
X7908277Y-22440650D01*
X7908277Y-22478746D02*
X7917801Y-22459698D01*
X7917801Y-22459698D02*
X7927324Y-22450174D01*
X7927324Y-22450174D02*
X7946372Y-22440650D01*
X7946372Y-22440650D02*
X7965420Y-22440650D01*
X8032086Y-22573984D02*
X8032086Y-22440650D01*
X8032086Y-22373984D02*
X8022562Y-22383508D01*
X8022562Y-22383508D02*
X8032086Y-22393031D01*
X8032086Y-22393031D02*
X8041610Y-22383508D01*
X8041610Y-22383508D02*
X8032086Y-22373984D01*
X8032086Y-22373984D02*
X8032086Y-22393031D01*
X8155896Y-22573984D02*
X8136848Y-22564460D01*
X8136848Y-22564460D02*
X8127324Y-22545412D01*
X8127324Y-22545412D02*
X8127324Y-22373984D01*
X8260658Y-22573984D02*
X8241610Y-22564460D01*
X8241610Y-22564460D02*
X8232086Y-22545412D01*
X8232086Y-22545412D02*
X8232086Y-22373984D01*
X8489229Y-22573984D02*
X8489229Y-22373984D01*
X8489229Y-22373984D02*
X8555896Y-22516841D01*
X8555896Y-22516841D02*
X8622563Y-22373984D01*
X8622563Y-22373984D02*
X8622563Y-22573984D01*
X8803515Y-22573984D02*
X8803515Y-22469222D01*
X8803515Y-22469222D02*
X8793991Y-22450174D01*
X8793991Y-22450174D02*
X8774944Y-22440650D01*
X8774944Y-22440650D02*
X8736848Y-22440650D01*
X8736848Y-22440650D02*
X8717801Y-22450174D01*
X8803515Y-22564460D02*
X8784467Y-22573984D01*
X8784467Y-22573984D02*
X8736848Y-22573984D01*
X8736848Y-22573984D02*
X8717801Y-22564460D01*
X8717801Y-22564460D02*
X8708277Y-22545412D01*
X8708277Y-22545412D02*
X8708277Y-22526365D01*
X8708277Y-22526365D02*
X8717801Y-22507317D01*
X8717801Y-22507317D02*
X8736848Y-22497793D01*
X8736848Y-22497793D02*
X8784467Y-22497793D01*
X8784467Y-22497793D02*
X8803515Y-22488269D01*
X8898753Y-22440650D02*
X8898753Y-22640650D01*
X8898753Y-22450174D02*
X8917801Y-22440650D01*
X8917801Y-22440650D02*
X8955896Y-22440650D01*
X8955896Y-22440650D02*
X8974944Y-22450174D01*
X8974944Y-22450174D02*
X8984467Y-22459698D01*
X8984467Y-22459698D02*
X8993991Y-22478746D01*
X8993991Y-22478746D02*
X8993991Y-22535888D01*
X8993991Y-22535888D02*
X8984467Y-22554936D01*
X8984467Y-22554936D02*
X8974944Y-22564460D01*
X8974944Y-22564460D02*
X8955896Y-22573984D01*
X8955896Y-22573984D02*
X8917801Y-22573984D01*
X8917801Y-22573984D02*
X8898753Y-22564460D01*
X9079705Y-22554936D02*
X9089229Y-22564460D01*
X9089229Y-22564460D02*
X9079705Y-22573984D01*
X9079705Y-22573984D02*
X9070182Y-22564460D01*
X9070182Y-22564460D02*
X9079705Y-22554936D01*
X9079705Y-22554936D02*
X9079705Y-22573984D01*
X9079705Y-22450174D02*
X9089229Y-22459698D01*
X9089229Y-22459698D02*
X9079705Y-22469222D01*
X9079705Y-22469222D02*
X9070182Y-22459698D01*
X9070182Y-22459698D02*
X9079705Y-22450174D01*
X9079705Y-22450174D02*
X9079705Y-22469222D01*
M02*
