G04 #@! TF.GenerationSoftware,KiCad,Pcbnew,9.0.5*
G04 #@! TF.CreationDate,2025-11-12T01:12:09-05:00*
G04 #@! TF.ProjectId,Power Board,506f7765-7220-4426-9f61-72642e6b6963,rev?*
G04 #@! TF.SameCoordinates,Original*
G04 #@! TF.FileFunction,Soldermask,Bot*
G04 #@! TF.FilePolarity,Negative*
%FSLAX46Y46*%
G04 Gerber Fmt 4.6, Leading zero omitted, Abs format (unit mm)*
G04 Created by KiCad (PCBNEW 9.0.5) date 2025-11-12 01:12:09*
%MOMM*%
%LPD*%
G01*
G04 APERTURE LIST*
%ADD10C,2.000000*%
%ADD11R,1.700000X1.700000*%
%ADD12C,1.700000*%
G04 APERTURE END LIST*
D10*
G04 #@! TO.C,U17*
X238320000Y-143520000D03*
X238320000Y-146060000D03*
X238320000Y-148600000D03*
X238320000Y-151140000D03*
X238320000Y-153680000D03*
X240860000Y-143520000D03*
X240860000Y-146060000D03*
X240860000Y-148600000D03*
X240860000Y-151140000D03*
X240860000Y-153680000D03*
X243400000Y-143520000D03*
X243400000Y-146060000D03*
X243400000Y-148600000D03*
X243400000Y-151140000D03*
X243400000Y-153680000D03*
X245940000Y-143520000D03*
X245940000Y-146060000D03*
X245940000Y-148600000D03*
X245940000Y-151140000D03*
X245940000Y-153680000D03*
X248480000Y-143520000D03*
X248480000Y-146060000D03*
X248480000Y-148600000D03*
X248480000Y-151140000D03*
X248480000Y-153680000D03*
G04 #@! TD*
G04 #@! TO.C,U16*
X238320000Y-163520000D03*
X238320000Y-166060000D03*
X238320000Y-168600000D03*
X238320000Y-171140000D03*
X238320000Y-173680000D03*
X240860000Y-163520000D03*
X240860000Y-166060000D03*
X240860000Y-168600000D03*
X240860000Y-171140000D03*
X240860000Y-173680000D03*
X243400000Y-163520000D03*
X243400000Y-166060000D03*
X243400000Y-168600000D03*
X243400000Y-171140000D03*
X243400000Y-173680000D03*
X245940000Y-163520000D03*
X245940000Y-166060000D03*
X245940000Y-168600000D03*
X245940000Y-171140000D03*
X245940000Y-173680000D03*
X248480000Y-163520000D03*
X248480000Y-166060000D03*
X248480000Y-168600000D03*
X248480000Y-171140000D03*
X248480000Y-173680000D03*
G04 #@! TD*
D11*
G04 #@! TO.C,J3*
X224150000Y-50000000D03*
D12*
X224150000Y-47460000D03*
X221610000Y-50000000D03*
X221610000Y-47460000D03*
X219070000Y-50000000D03*
X219070000Y-47460000D03*
X216530000Y-50000000D03*
X216530000Y-47460000D03*
X213990000Y-50000000D03*
X213990000Y-47460000D03*
X211450000Y-50000000D03*
X211450000Y-47460000D03*
X208910000Y-50000000D03*
X208910000Y-47460000D03*
X206370000Y-50000000D03*
X206370000Y-47460000D03*
X203830000Y-50000000D03*
X203830000Y-47460000D03*
G04 #@! TD*
D10*
G04 #@! TO.C,U18*
X79220000Y-143520000D03*
X79220000Y-146060000D03*
X79220000Y-148600000D03*
X79220000Y-151140000D03*
X79220000Y-153680000D03*
X81760000Y-143520000D03*
X81760000Y-146060000D03*
X81760000Y-148600000D03*
X81760000Y-151140000D03*
X81760000Y-153680000D03*
X84300000Y-143520000D03*
X84300000Y-146060000D03*
X84300000Y-148600000D03*
X84300000Y-151140000D03*
X84300000Y-153680000D03*
X86840000Y-143520000D03*
X86840000Y-146060000D03*
X86840000Y-148600000D03*
X86840000Y-151140000D03*
X86840000Y-153680000D03*
X89380000Y-143520000D03*
X89380000Y-146060000D03*
X89380000Y-148600000D03*
X89380000Y-151140000D03*
X89380000Y-153680000D03*
G04 #@! TD*
D11*
G04 #@! TO.C,J1*
X174150000Y-50000000D03*
D12*
X174150000Y-47460000D03*
X171610000Y-50000000D03*
X171610000Y-47460000D03*
X169070000Y-50000000D03*
X169070000Y-47460000D03*
X166530000Y-50000000D03*
X166530000Y-47460000D03*
X163990000Y-50000000D03*
X163990000Y-47460000D03*
X161450000Y-50000000D03*
X161450000Y-47460000D03*
X158910000Y-50000000D03*
X158910000Y-47460000D03*
X156370000Y-50000000D03*
X156370000Y-47460000D03*
X153830000Y-50000000D03*
X153830000Y-47460000D03*
G04 #@! TD*
D10*
G04 #@! TO.C,U19*
X79220000Y-163520000D03*
X79220000Y-166060000D03*
X79220000Y-168600000D03*
X79220000Y-171140000D03*
X79220000Y-173680000D03*
X81760000Y-163520000D03*
X81760000Y-166060000D03*
X81760000Y-168600000D03*
X81760000Y-171140000D03*
X81760000Y-173680000D03*
X84300000Y-163520000D03*
X84300000Y-166060000D03*
X84300000Y-168600000D03*
X84300000Y-171140000D03*
X84300000Y-173680000D03*
X86840000Y-163520000D03*
X86840000Y-166060000D03*
X86840000Y-168600000D03*
X86840000Y-171140000D03*
X86840000Y-173680000D03*
X89380000Y-163520000D03*
X89380000Y-166060000D03*
X89380000Y-168600000D03*
X89380000Y-171140000D03*
X89380000Y-173680000D03*
G04 #@! TD*
D11*
G04 #@! TO.C,J2*
X124150000Y-50000000D03*
D12*
X124150000Y-47460000D03*
X121610000Y-50000000D03*
X121610000Y-47460000D03*
X119070000Y-50000000D03*
X119070000Y-47460000D03*
X116530000Y-50000000D03*
X116530000Y-47460000D03*
X113990000Y-50000000D03*
X113990000Y-47460000D03*
X111450000Y-50000000D03*
X111450000Y-47460000D03*
X108910000Y-50000000D03*
X108910000Y-47460000D03*
X106370000Y-50000000D03*
X106370000Y-47460000D03*
X103830000Y-50000000D03*
X103830000Y-47460000D03*
G04 #@! TD*
M02*
