G04 #@! TF.GenerationSoftware,KiCad,Pcbnew,9.0.5*
G04 #@! TF.CreationDate,2025-11-12T01:12:09-05:00*
G04 #@! TF.ProjectId,Power Board,506f7765-7220-4426-9f61-72642e6b6963,rev?*
G04 #@! TF.SameCoordinates,Original*
G04 #@! TF.FileFunction,Soldermask,Top*
G04 #@! TF.FilePolarity,Negative*
%FSLAX46Y46*%
G04 Gerber Fmt 4.6, Leading zero omitted, Abs format (unit mm)*
G04 Created by KiCad (PCBNEW 9.0.5) date 2025-11-12 01:12:09*
%MOMM*%
%LPD*%
G01*
G04 APERTURE LIST*
G04 Aperture macros list*
%AMRoundRect*
0 Rectangle with rounded corners*
0 $1 Rounding radius*
0 $2 $3 $4 $5 $6 $7 $8 $9 X,Y pos of 4 corners*
0 Add a 4 corners polygon primitive as box body*
4,1,4,$2,$3,$4,$5,$6,$7,$8,$9,$2,$3,0*
0 Add four circle primitives for the rounded corners*
1,1,$1+$1,$2,$3*
1,1,$1+$1,$4,$5*
1,1,$1+$1,$6,$7*
1,1,$1+$1,$8,$9*
0 Add four rect primitives between the rounded corners*
20,1,$1+$1,$2,$3,$4,$5,0*
20,1,$1+$1,$4,$5,$6,$7,0*
20,1,$1+$1,$6,$7,$8,$9,0*
20,1,$1+$1,$8,$9,$2,$3,0*%
G04 Aperture macros list end*
%ADD10C,0.000000*%
%ADD11C,2.000000*%
%ADD12R,15.240000X15.240000*%
%ADD13R,0.300000X1.100000*%
%ADD14R,2.300000X3.100000*%
%ADD15RoundRect,2.125000X-2.125000X-13.475000X2.125000X-13.475000X2.125000X13.475000X-2.125000X13.475000X0*%
%ADD16C,6.000000*%
%ADD17R,1.700000X1.700000*%
%ADD18C,1.700000*%
G04 APERTURE END LIST*
D10*
G04 #@! TO.C,G\u002A\u002A\u002A*
G36*
X99374179Y-217569993D02*
G01*
X99386412Y-217583760D01*
X99400679Y-217605064D01*
X99451264Y-217673973D01*
X99513972Y-217737137D01*
X99587349Y-217793254D01*
X99657149Y-217834507D01*
X99722468Y-217868547D01*
X99690325Y-217868131D01*
X99666893Y-217866592D01*
X99636048Y-217862946D01*
X99604368Y-217857975D01*
X99603624Y-217857841D01*
X99531147Y-217840354D01*
X99470824Y-217816394D01*
X99422856Y-217786095D01*
X99387445Y-217749594D01*
X99364792Y-217707024D01*
X99360942Y-217694705D01*
X99357446Y-217673057D01*
X99356207Y-217645721D01*
X99357019Y-217617070D01*
X99359673Y-217591480D01*
X99363962Y-217573325D01*
X99366954Y-217568083D01*
X99374179Y-217569993D01*
G37*
G36*
X100355287Y-217570312D02*
G01*
X100357298Y-217573330D01*
X100361211Y-217586891D01*
X100364064Y-217609964D01*
X100365287Y-217637785D01*
X100365297Y-217640426D01*
X100364444Y-217671231D01*
X100360907Y-217693922D01*
X100353268Y-217714618D01*
X100343966Y-217732564D01*
X100316931Y-217769079D01*
X100279163Y-217799733D01*
X100229915Y-217824920D01*
X100168442Y-217845035D01*
X100105461Y-217858537D01*
X100074130Y-217863416D01*
X100044899Y-217866945D01*
X100023117Y-217868501D01*
X100019746Y-217868514D01*
X100003391Y-217867909D01*
X100000027Y-217866051D01*
X100008361Y-217861568D01*
X100011754Y-217860041D01*
X100063693Y-217836568D01*
X100104706Y-217817283D01*
X100137030Y-217800829D01*
X100162904Y-217785848D01*
X100184565Y-217770982D01*
X100204252Y-217754873D01*
X100224204Y-217736165D01*
X100236859Y-217723507D01*
X100282386Y-217672415D01*
X100315650Y-217623685D01*
X100321716Y-217612616D01*
X100335405Y-217587152D01*
X100344496Y-217572792D01*
X100350590Y-217567767D01*
X100355287Y-217570312D01*
G37*
G36*
X103811754Y-216933284D02*
G01*
X103811754Y-220933284D01*
X99811754Y-220933284D01*
X95811754Y-220933284D01*
X95811754Y-217696741D01*
X97076979Y-217696741D01*
X97078576Y-217742349D01*
X97081852Y-217795546D01*
X97086549Y-217853067D01*
X97092407Y-217911650D01*
X97099167Y-217968029D01*
X97104738Y-218007322D01*
X97135767Y-218171484D01*
X97177315Y-218329199D01*
X97228972Y-218479274D01*
X97290331Y-218620519D01*
X97358666Y-218747852D01*
X97437792Y-218868313D01*
X97526799Y-218980255D01*
X97624657Y-219082716D01*
X97730336Y-219174734D01*
X97842804Y-219255345D01*
X97961032Y-219323586D01*
X97990325Y-219338100D01*
X98121612Y-219394048D01*
X98259610Y-219438997D01*
X98404801Y-219473018D01*
X98557667Y-219496186D01*
X98718691Y-219508572D01*
X98888356Y-219510249D01*
X99067144Y-219501290D01*
X99072468Y-219500872D01*
X99122468Y-219496911D01*
X99102529Y-219513141D01*
X99091203Y-219520337D01*
X99074932Y-219526635D01*
X99051346Y-219532650D01*
X99018074Y-219538996D01*
X98977529Y-219545553D01*
X98887858Y-219560021D01*
X98809806Y-219574157D01*
X98740737Y-219588585D01*
X98678016Y-219603929D01*
X98619008Y-219620815D01*
X98561078Y-219639864D01*
X98526039Y-219652483D01*
X98450310Y-219684640D01*
X98381658Y-219721974D01*
X98321603Y-219763338D01*
X98271666Y-219807587D01*
X98233367Y-219853574D01*
X98213434Y-219888007D01*
X98204803Y-219907720D01*
X98199155Y-219925386D01*
X98195869Y-219944936D01*
X98194324Y-219970304D01*
X98193901Y-220005421D01*
X98193896Y-220011855D01*
X98194135Y-220048129D01*
X98195337Y-220074203D01*
X98198228Y-220094161D01*
X98203536Y-220112086D01*
X98211988Y-220132062D01*
X98217338Y-220143500D01*
X98247559Y-220193044D01*
X98290414Y-220242118D01*
X98344274Y-220289390D01*
X98407514Y-220333529D01*
X98478507Y-220373201D01*
X98523130Y-220393870D01*
X98575773Y-220414447D01*
X98636303Y-220434794D01*
X98699538Y-220453387D01*
X98760298Y-220468702D01*
X98813175Y-220479178D01*
X98857308Y-220484375D01*
X98909796Y-220487554D01*
X98967377Y-220488794D01*
X99026789Y-220488174D01*
X99084771Y-220485776D01*
X99138062Y-220481679D01*
X99183400Y-220475961D01*
X99215247Y-220469349D01*
X99281631Y-220445927D01*
X99349246Y-220412856D01*
X99412558Y-220373068D01*
X99447026Y-220346479D01*
X99481207Y-220314810D01*
X99517442Y-220276370D01*
X99552350Y-220235138D01*
X99582550Y-220195092D01*
X99603361Y-220162551D01*
X99619293Y-220134204D01*
X99571792Y-220107641D01*
X99497549Y-220071554D01*
X99412194Y-220039798D01*
X99347468Y-220020762D01*
X99316439Y-220013261D01*
X99286349Y-220007815D01*
X99253430Y-220003991D01*
X99213916Y-220001354D01*
X99164039Y-219999473D01*
X99161754Y-219999407D01*
X99094246Y-219998664D01*
X99036273Y-220001103D01*
X98983313Y-220007360D01*
X98930843Y-220018073D01*
X98874341Y-220033879D01*
X98841070Y-220044586D01*
X98810867Y-220054318D01*
X98786042Y-220061712D01*
X98769463Y-220065955D01*
X98764010Y-220066492D01*
X98765516Y-220058768D01*
X98775356Y-220044316D01*
X98791110Y-220025810D01*
X98810359Y-220005926D01*
X98830683Y-219987338D01*
X98847477Y-219974218D01*
X98900673Y-219945072D01*
X98963673Y-219924209D01*
X99034748Y-219911482D01*
X99112170Y-219906745D01*
X99194209Y-219909852D01*
X99279135Y-219920657D01*
X99365219Y-219939012D01*
X99450733Y-219964773D01*
X99533947Y-219997793D01*
X99613131Y-220037924D01*
X99615325Y-220039179D01*
X99635673Y-220051635D01*
X99656116Y-220066057D01*
X99678346Y-220083927D01*
X99704055Y-220106728D01*
X99734936Y-220135943D01*
X99772680Y-220173054D01*
X99804611Y-220205047D01*
X99841805Y-220242230D01*
X99877319Y-220277216D01*
X99909428Y-220308345D01*
X99936405Y-220333956D01*
X99956525Y-220352388D01*
X99966700Y-220360986D01*
X100021417Y-220395462D01*
X100086742Y-220424501D01*
X100159816Y-220447437D01*
X100237783Y-220463605D01*
X100317783Y-220472338D01*
X100396960Y-220472972D01*
X100435062Y-220470074D01*
X100537766Y-220453376D01*
X100631664Y-220426269D01*
X100716367Y-220388997D01*
X100791485Y-220341803D01*
X100856630Y-220284929D01*
X100911411Y-220218619D01*
X100953864Y-220146362D01*
X100978926Y-220089346D01*
X100996152Y-220035028D01*
X101006565Y-219978714D01*
X101011193Y-219915709D01*
X101011660Y-219881799D01*
X101005795Y-219785736D01*
X100988034Y-219695419D01*
X100957777Y-219607848D01*
X100955999Y-219603660D01*
X100944384Y-219575435D01*
X100935772Y-219552367D01*
X100931205Y-219537385D01*
X100930964Y-219533284D01*
X100937115Y-219536412D01*
X100950251Y-219547903D01*
X100967829Y-219565478D01*
X100972660Y-219570600D01*
X101011796Y-219620136D01*
X101042372Y-219676304D01*
X101065008Y-219740765D01*
X101080326Y-219815180D01*
X101087336Y-219877926D01*
X101090274Y-219905786D01*
X101093926Y-219927251D01*
X101097680Y-219939094D01*
X101099205Y-219940426D01*
X101118776Y-219937574D01*
X101147033Y-219929959D01*
X101179781Y-219918995D01*
X101212822Y-219906097D01*
X101241963Y-219892676D01*
X101243896Y-219891677D01*
X101302018Y-219853627D01*
X101353911Y-219804461D01*
X101397971Y-219746578D01*
X101432596Y-219682377D01*
X101456183Y-219614257D01*
X101465953Y-219559300D01*
X101465428Y-219495504D01*
X101451623Y-219432737D01*
X101425435Y-219373769D01*
X101389352Y-219323159D01*
X101374500Y-219305514D01*
X101364903Y-219292597D01*
X101362659Y-219287553D01*
X101369397Y-219283279D01*
X101386201Y-219272993D01*
X101410882Y-219258024D01*
X101441252Y-219239701D01*
X101458182Y-219229521D01*
X101566169Y-219162305D01*
X101662778Y-219096978D01*
X101750421Y-219031705D01*
X101831512Y-218964653D01*
X101908466Y-218893991D01*
X101937089Y-218865847D01*
X102018657Y-218777945D01*
X102088141Y-218688972D01*
X102146434Y-218597067D01*
X102194428Y-218500369D01*
X102233016Y-218397016D01*
X102263089Y-218285146D01*
X102285541Y-218162899D01*
X102290235Y-218129220D01*
X102293714Y-218096918D01*
X102296980Y-218055597D01*
X102299999Y-218006905D01*
X102302739Y-217952491D01*
X102305164Y-217894003D01*
X102307241Y-217833090D01*
X102308936Y-217771399D01*
X102310215Y-217710579D01*
X102311044Y-217652278D01*
X102311388Y-217598145D01*
X102311215Y-217549828D01*
X102310490Y-217508975D01*
X102309179Y-217477235D01*
X102307247Y-217456256D01*
X102304662Y-217447686D01*
X102304282Y-217447569D01*
X102295798Y-217454210D01*
X102285286Y-217472706D01*
X102273576Y-217500911D01*
X102261500Y-217536685D01*
X102249886Y-217577883D01*
X102243396Y-217604712D01*
X102223594Y-217690364D01*
X102205606Y-217764124D01*
X102188727Y-217828157D01*
X102172247Y-217884634D01*
X102155461Y-217935722D01*
X102137662Y-217983588D01*
X102118142Y-218030402D01*
X102096195Y-218078331D01*
X102074353Y-218123071D01*
X102024323Y-218217747D01*
X101971245Y-218306493D01*
X101913858Y-218392212D01*
X101894721Y-218418821D01*
X101880572Y-218437141D01*
X101872145Y-218446441D01*
X101870172Y-218445992D01*
X101875387Y-218435063D01*
X101881565Y-218424355D01*
X101934218Y-218328754D01*
X101984849Y-218222961D01*
X102031965Y-218110847D01*
X102074071Y-217996282D01*
X102109675Y-217883137D01*
X102137281Y-217775281D01*
X102143552Y-217745669D01*
X102158359Y-217665268D01*
X102169295Y-217589242D01*
X102176672Y-217513711D01*
X102180799Y-217434793D01*
X102181988Y-217348610D01*
X102181122Y-217276141D01*
X102177997Y-217180448D01*
X102172462Y-217095186D01*
X102163949Y-217016618D01*
X102151889Y-216941009D01*
X102135713Y-216864623D01*
X102114852Y-216783723D01*
X102096448Y-216720036D01*
X102037215Y-216546498D01*
X101964174Y-216375542D01*
X101877210Y-216206930D01*
X101776209Y-216040423D01*
X101759794Y-216015544D01*
X101740018Y-215986566D01*
X101716743Y-215953542D01*
X101691395Y-215918379D01*
X101665406Y-215882986D01*
X101640202Y-215849269D01*
X101617213Y-215819135D01*
X101597868Y-215794492D01*
X101583595Y-215777247D01*
X101575824Y-215769307D01*
X101575102Y-215768998D01*
X101575099Y-215775490D01*
X101578382Y-215793397D01*
X101584439Y-215820362D01*
X101592757Y-215854028D01*
X101598058Y-215874355D01*
X101624685Y-215979631D01*
X101650687Y-216091866D01*
X101675359Y-216207506D01*
X101697998Y-216323003D01*
X101717902Y-216434805D01*
X101734366Y-216539361D01*
X101744153Y-216611855D01*
X101749291Y-216662477D01*
X101753556Y-216722162D01*
X101756879Y-216787827D01*
X101759193Y-216856387D01*
X101760433Y-216924756D01*
X101760531Y-216989850D01*
X101759421Y-217048584D01*
X101757034Y-217097873D01*
X101755162Y-217119757D01*
X101742891Y-217216521D01*
X101726881Y-217310394D01*
X101707990Y-217396565D01*
X101700918Y-217423791D01*
X101690890Y-217458922D01*
X101682329Y-217485634D01*
X101675722Y-217502817D01*
X101671554Y-217509358D01*
X101670310Y-217504148D01*
X101671798Y-217490426D01*
X101679111Y-217439480D01*
X101684626Y-217395622D01*
X101688583Y-217355242D01*
X101691222Y-217314729D01*
X101692783Y-217270474D01*
X101693506Y-217218867D01*
X101693637Y-217161855D01*
X101691237Y-217042744D01*
X101683866Y-216932867D01*
X101670910Y-216827856D01*
X101651756Y-216723339D01*
X101625791Y-216614948D01*
X101607741Y-216549873D01*
X101546779Y-216364560D01*
X101471715Y-216181293D01*
X101382600Y-216000161D01*
X101279482Y-215821253D01*
X101162411Y-215644658D01*
X101031436Y-215470463D01*
X100952735Y-215374820D01*
X100830681Y-215227457D01*
X100719970Y-215086183D01*
X100619739Y-214949663D01*
X100529126Y-214816562D01*
X100447268Y-214685546D01*
X100373302Y-214555281D01*
X100306365Y-214424433D01*
X100245594Y-214291666D01*
X100232489Y-214260934D01*
X100175863Y-214113509D01*
X100129856Y-213966136D01*
X100094608Y-213819954D01*
X100070260Y-213676101D01*
X100056952Y-213535714D01*
X100054827Y-213399933D01*
X100064024Y-213269894D01*
X100084684Y-213146737D01*
X100091197Y-213118998D01*
X100099348Y-213088620D01*
X100107743Y-213061316D01*
X100114899Y-213041803D01*
X100116591Y-213038156D01*
X100123146Y-213021955D01*
X100124556Y-213010980D01*
X100124528Y-213010892D01*
X100121051Y-213014504D01*
X100112957Y-213029477D01*
X100101064Y-213053962D01*
X100086190Y-213086110D01*
X100069152Y-213124069D01*
X100050769Y-213165992D01*
X100031859Y-213210028D01*
X100013240Y-213254327D01*
X99995730Y-213297039D01*
X99980147Y-213336316D01*
X99976989Y-213344494D01*
X99924198Y-213495059D01*
X99880692Y-213646895D01*
X99846763Y-213798233D01*
X99822702Y-213947309D01*
X99808803Y-214092354D01*
X99805356Y-214231602D01*
X99811169Y-214347569D01*
X99826436Y-214475815D01*
X99849334Y-214598440D01*
X99880695Y-214718235D01*
X99921351Y-214837992D01*
X99972134Y-214960502D01*
X100029362Y-215079712D01*
X100062437Y-215143103D01*
X100097006Y-215205841D01*
X100134259Y-215269865D01*
X100175387Y-215337118D01*
X100221580Y-215409540D01*
X100274030Y-215489072D01*
X100333927Y-215577655D01*
X100342658Y-215590426D01*
X100388139Y-215656902D01*
X100426463Y-215712978D01*
X100458553Y-215760036D01*
X100485335Y-215799454D01*
X100507735Y-215832614D01*
X100526676Y-215860895D01*
X100543086Y-215885678D01*
X100557887Y-215908341D01*
X100572007Y-215930265D01*
X100586369Y-215952831D01*
X100598843Y-215972569D01*
X100682193Y-216111850D01*
X100753028Y-216245920D01*
X100811658Y-216375859D01*
X100858391Y-216502751D01*
X100893537Y-216627676D01*
X100917406Y-216751717D01*
X100930308Y-216875955D01*
X100932552Y-217001472D01*
X100925808Y-217115426D01*
X100905405Y-217276677D01*
X100875185Y-217428093D01*
X100834836Y-217570502D01*
X100784050Y-217704730D01*
X100722517Y-217831605D01*
X100649926Y-217951954D01*
X100572914Y-218057871D01*
X100554546Y-218080620D01*
X100539681Y-218098087D01*
X100530332Y-218107954D01*
X100528211Y-218109265D01*
X100530031Y-218102250D01*
X100536782Y-218085212D01*
X100547277Y-218061036D01*
X100555323Y-218043342D01*
X100588756Y-217963227D01*
X100620603Y-217871899D01*
X100650066Y-217772407D01*
X100676347Y-217667803D01*
X100698649Y-217561135D01*
X100716174Y-217455455D01*
X100723224Y-217401141D01*
X100728721Y-217338039D01*
X100731432Y-217270145D01*
X100731433Y-217201190D01*
X100728802Y-217134906D01*
X100723615Y-217075025D01*
X100715949Y-217025279D01*
X100715429Y-217022777D01*
X100685007Y-216909499D01*
X100643272Y-216802093D01*
X100590975Y-216701656D01*
X100528867Y-216609290D01*
X100457699Y-216526094D01*
X100378224Y-216453168D01*
X100291192Y-216391612D01*
X100279226Y-216384422D01*
X100194568Y-216342473D01*
X100102055Y-216311078D01*
X100003713Y-216290473D01*
X99901570Y-216280896D01*
X99797651Y-216282582D01*
X99693982Y-216295768D01*
X99633731Y-216309045D01*
X99539410Y-216340394D01*
X99452063Y-216384113D01*
X99371799Y-216440047D01*
X99298724Y-216508038D01*
X99232945Y-216587932D01*
X99174568Y-216679571D01*
X99123702Y-216782799D01*
X99080453Y-216897460D01*
X99044928Y-217023399D01*
X99017234Y-217160458D01*
X99007788Y-217222569D01*
X99001242Y-217289306D01*
X98998525Y-217363293D01*
X98999512Y-217439918D01*
X99004080Y-217514569D01*
X99012105Y-217582634D01*
X99018382Y-217617691D01*
X99026854Y-217653549D01*
X99039408Y-217700256D01*
X99055255Y-217755232D01*
X99073604Y-217815897D01*
X99093665Y-217879670D01*
X99114649Y-217943972D01*
X99135764Y-218006222D01*
X99148066Y-218041227D01*
X99158779Y-218072625D01*
X99166852Y-218098969D01*
X99171492Y-218117471D01*
X99171936Y-218125317D01*
X99164674Y-218123079D01*
X99150813Y-218110963D01*
X99131921Y-218090811D01*
X99109565Y-218064465D01*
X99085313Y-218033768D01*
X99060733Y-218000563D01*
X99038922Y-217968998D01*
X98989813Y-217888663D01*
X98941904Y-217798086D01*
X98896965Y-217701295D01*
X98856767Y-217602321D01*
X98823079Y-217505197D01*
X98800794Y-217426742D01*
X98778829Y-217315539D01*
X98766220Y-217196188D01*
X98763122Y-217071472D01*
X98769691Y-216944172D01*
X98772338Y-216917136D01*
X98780946Y-216843528D01*
X98790919Y-216774074D01*
X98802747Y-216707136D01*
X98816923Y-216641074D01*
X98833937Y-216574249D01*
X98854282Y-216505021D01*
X98878448Y-216431751D01*
X98906928Y-216352799D01*
X98940212Y-216266527D01*
X98978792Y-216171294D01*
X99023160Y-216065461D01*
X99038394Y-216029712D01*
X99060266Y-215977731D01*
X99083187Y-215921837D01*
X99105493Y-215866185D01*
X99125519Y-215814930D01*
X99141603Y-215772227D01*
X99142781Y-215768998D01*
X99171440Y-215684806D01*
X99200856Y-215588225D01*
X99230603Y-215481103D01*
X99260257Y-215365286D01*
X99289391Y-215242624D01*
X99317579Y-215114963D01*
X99344397Y-214984151D01*
X99369419Y-214852036D01*
X99392218Y-214720465D01*
X99409321Y-214611855D01*
X99416939Y-214554661D01*
X99422847Y-214497305D01*
X99426998Y-214441758D01*
X99429343Y-214389991D01*
X99429833Y-214343975D01*
X99428421Y-214305683D01*
X99425058Y-214277084D01*
X99419695Y-214260150D01*
X99418011Y-214257944D01*
X99414122Y-214255266D01*
X99409694Y-214255901D01*
X99403911Y-214261149D01*
X99395963Y-214272308D01*
X99385035Y-214290679D01*
X99370315Y-214317561D01*
X99350989Y-214354252D01*
X99326245Y-214402053D01*
X99318762Y-214416581D01*
X99255013Y-214540031D01*
X99196571Y-214652288D01*
X99142510Y-214755012D01*
X99091905Y-214849866D01*
X99043830Y-214938510D01*
X98997361Y-215022606D01*
X98951571Y-215103815D01*
X98905534Y-215183798D01*
X98858326Y-215264216D01*
X98809021Y-215346731D01*
X98756693Y-215433003D01*
X98710529Y-215508284D01*
X98618650Y-215659645D01*
X98535502Y-215801328D01*
X98460547Y-215934521D01*
X98393244Y-216060413D01*
X98333054Y-216180196D01*
X98279438Y-216295057D01*
X98231857Y-216406188D01*
X98189770Y-216514776D01*
X98152639Y-216622012D01*
X98119923Y-216729086D01*
X98091084Y-216837187D01*
X98072818Y-216914536D01*
X98046361Y-217057076D01*
X98029422Y-217204447D01*
X98022051Y-217353616D01*
X98024298Y-217501551D01*
X98036212Y-217645219D01*
X98057841Y-217781586D01*
X98058646Y-217785556D01*
X98063603Y-217812067D01*
X98066615Y-217832697D01*
X98067191Y-217843894D01*
X98066860Y-217844843D01*
X98060411Y-217842015D01*
X98047429Y-217830028D01*
X98029906Y-217811187D01*
X98009830Y-217787800D01*
X97989192Y-217762173D01*
X97969982Y-217736611D01*
X97956280Y-217716685D01*
X97909945Y-217632851D01*
X97872657Y-217538574D01*
X97844419Y-217434472D01*
X97825233Y-217321161D01*
X97815103Y-217199257D01*
X97814030Y-217069377D01*
X97822019Y-216932136D01*
X97839072Y-216788153D01*
X97865191Y-216638041D01*
X97900380Y-216482419D01*
X97944641Y-216321903D01*
X97949838Y-216304712D01*
X97981377Y-216207302D01*
X98016333Y-216110150D01*
X98053836Y-216015166D01*
X98093021Y-215924262D01*
X98133017Y-215839349D01*
X98172957Y-215762336D01*
X98211974Y-215695137D01*
X98249200Y-215639660D01*
X98256107Y-215630460D01*
X98278589Y-215601141D01*
X98248103Y-215629712D01*
X98233207Y-215644657D01*
X98211250Y-215667960D01*
X98184497Y-215697158D01*
X98155212Y-215729787D01*
X98133224Y-215754712D01*
X97991889Y-215922764D01*
X97864442Y-216088117D01*
X97750778Y-216250964D01*
X97650794Y-216411494D01*
X97564387Y-216569897D01*
X97491453Y-216726364D01*
X97431889Y-216881086D01*
X97385591Y-217034252D01*
X97352455Y-217186054D01*
X97351191Y-217193322D01*
X97333139Y-217339535D01*
X97329261Y-217484785D01*
X97339453Y-217628604D01*
X97363612Y-217770527D01*
X97401635Y-217910087D01*
X97453417Y-218046818D01*
X97518857Y-218180254D01*
X97597850Y-218309928D01*
X97599146Y-218311855D01*
X97630483Y-218357558D01*
X97660771Y-218399787D01*
X97691686Y-218440595D01*
X97724900Y-218482035D01*
X97762088Y-218526160D01*
X97804923Y-218575025D01*
X97855080Y-218630683D01*
X97891409Y-218670397D01*
X97932177Y-218715148D01*
X97963617Y-218750567D01*
X97986416Y-218777506D01*
X98001263Y-218796818D01*
X98008846Y-218809356D01*
X98009854Y-218815971D01*
X98009407Y-218816582D01*
X97999153Y-218817394D01*
X97979269Y-218811021D01*
X97951768Y-218798561D01*
X97918661Y-218781110D01*
X97881959Y-218759765D01*
X97843675Y-218735622D01*
X97805820Y-218709777D01*
X97783627Y-218693516D01*
X97743908Y-218661201D01*
X97698402Y-218620337D01*
X97649940Y-218573771D01*
X97601353Y-218524346D01*
X97555474Y-218474908D01*
X97515132Y-218428301D01*
X97496161Y-218404686D01*
X97412456Y-218288534D01*
X97332024Y-218160488D01*
X97256099Y-218022795D01*
X97185912Y-217877699D01*
X97122696Y-217727446D01*
X97118087Y-217715556D01*
X97079611Y-217615686D01*
X97077320Y-217661985D01*
X97076979Y-217696741D01*
X95811754Y-217696741D01*
X95811754Y-216933284D01*
X95811754Y-212933284D01*
X99811754Y-212933284D01*
X103811754Y-212933284D01*
X103811754Y-216933284D01*
G37*
G04 #@! TD*
D11*
G04 #@! TO.C,U17*
X238320000Y-143520000D03*
X238320000Y-146060000D03*
X238320000Y-148600000D03*
X238320000Y-151140000D03*
X238320000Y-153680000D03*
X240860000Y-143520000D03*
X240860000Y-146060000D03*
X240860000Y-148600000D03*
X240860000Y-151140000D03*
X240860000Y-153680000D03*
X243400000Y-143520000D03*
X243400000Y-146060000D03*
X243400000Y-148600000D03*
D12*
X243400000Y-148600000D03*
D11*
X243400000Y-151140000D03*
X243400000Y-153680000D03*
X245940000Y-143520000D03*
X245940000Y-146060000D03*
X245940000Y-148600000D03*
X245940000Y-151140000D03*
X245940000Y-153680000D03*
X248480000Y-143520000D03*
X248480000Y-146060000D03*
X248480000Y-148600000D03*
X248480000Y-151140000D03*
X248480000Y-153680000D03*
G04 #@! TD*
D13*
G04 #@! TO.C,J4*
X88915000Y-58650000D03*
X89415000Y-58650000D03*
X89915000Y-58650000D03*
X90415000Y-58650000D03*
X90915000Y-58650000D03*
D14*
X87245000Y-60350000D03*
X92585000Y-60350000D03*
G04 #@! TD*
D11*
G04 #@! TO.C,U16*
X238320000Y-163520000D03*
X238320000Y-166060000D03*
X238320000Y-168600000D03*
X238320000Y-171140000D03*
X238320000Y-173680000D03*
X240860000Y-163520000D03*
X240860000Y-166060000D03*
X240860000Y-168600000D03*
X240860000Y-171140000D03*
X240860000Y-173680000D03*
X243400000Y-163520000D03*
X243400000Y-166060000D03*
X243400000Y-168600000D03*
D12*
X243400000Y-168600000D03*
D11*
X243400000Y-171140000D03*
X243400000Y-173680000D03*
X245940000Y-163520000D03*
X245940000Y-166060000D03*
X245940000Y-168600000D03*
X245940000Y-171140000D03*
X245940000Y-173680000D03*
X248480000Y-163520000D03*
X248480000Y-166060000D03*
X248480000Y-168600000D03*
X248480000Y-171140000D03*
X248480000Y-173680000D03*
G04 #@! TD*
D13*
G04 #@! TO.C,J7*
X152215000Y-58650000D03*
X152715000Y-58650000D03*
X153215000Y-58650000D03*
X153715000Y-58650000D03*
X154215000Y-58650000D03*
D14*
X150545000Y-60350000D03*
X155885000Y-60350000D03*
G04 #@! TD*
D15*
G04 #@! TO.C,U12*
X121650000Y-72200000D03*
X121650000Y-160400000D03*
G04 #@! TD*
G04 #@! TO.C,U13*
X111100000Y-105800000D03*
X111100000Y-194000000D03*
G04 #@! TD*
G04 #@! TO.C,U15*
X90000000Y-105800000D03*
X90000000Y-194000000D03*
G04 #@! TD*
D16*
G04 #@! TO.C,REF\u002A\u002A*
X80775000Y-82890000D03*
G04 #@! TD*
D17*
G04 #@! TO.C,J3*
X224150000Y-50000000D03*
D18*
X224150000Y-47460000D03*
X221610000Y-50000000D03*
X221610000Y-47460000D03*
X219070000Y-50000000D03*
X219070000Y-47460000D03*
X216530000Y-50000000D03*
X216530000Y-47460000D03*
X213990000Y-50000000D03*
X213990000Y-47460000D03*
X211450000Y-50000000D03*
X211450000Y-47460000D03*
X208910000Y-50000000D03*
X208910000Y-47460000D03*
X206370000Y-50000000D03*
X206370000Y-47460000D03*
X203830000Y-50000000D03*
X203830000Y-47460000D03*
G04 #@! TD*
D15*
G04 #@! TO.C,U11*
X132200000Y-105800000D03*
X132200000Y-194000000D03*
G04 #@! TD*
D11*
G04 #@! TO.C,U18*
X79220000Y-143520000D03*
X79220000Y-146060000D03*
X79220000Y-148600000D03*
X79220000Y-151140000D03*
X79220000Y-153680000D03*
X81760000Y-143520000D03*
X81760000Y-146060000D03*
X81760000Y-148600000D03*
X81760000Y-151140000D03*
X81760000Y-153680000D03*
X84300000Y-143520000D03*
X84300000Y-146060000D03*
X84300000Y-148600000D03*
D12*
X84300000Y-148600000D03*
D11*
X84300000Y-151140000D03*
X84300000Y-153680000D03*
X86840000Y-143520000D03*
X86840000Y-146060000D03*
X86840000Y-148600000D03*
X86840000Y-151140000D03*
X86840000Y-153680000D03*
X89380000Y-143520000D03*
X89380000Y-146060000D03*
X89380000Y-148600000D03*
X89380000Y-151140000D03*
X89380000Y-153680000D03*
G04 #@! TD*
D15*
G04 #@! TO.C,U8*
X163850000Y-72200000D03*
X163850000Y-160400000D03*
G04 #@! TD*
G04 #@! TO.C,U2*
X227150000Y-72200000D03*
X227150000Y-160400000D03*
G04 #@! TD*
G04 #@! TO.C,U4*
X206050000Y-72200000D03*
X206050000Y-160400000D03*
G04 #@! TD*
D13*
G04 #@! TO.C,J8*
X173315000Y-58650000D03*
X173815000Y-58650000D03*
X174315000Y-58650000D03*
X174815000Y-58650000D03*
X175315000Y-58650000D03*
D14*
X171645000Y-60350000D03*
X176985000Y-60350000D03*
G04 #@! TD*
D13*
G04 #@! TO.C,J5*
X110105000Y-58650000D03*
X110605000Y-58650000D03*
X111105000Y-58650000D03*
X111605000Y-58650000D03*
X112105000Y-58650000D03*
D14*
X108435000Y-60350000D03*
X113775000Y-60350000D03*
G04 #@! TD*
D13*
G04 #@! TO.C,J10*
X215515000Y-58650000D03*
X216015000Y-58650000D03*
X216515000Y-58650000D03*
X217015000Y-58650000D03*
X217515000Y-58650000D03*
D14*
X213845000Y-60350000D03*
X219185000Y-60350000D03*
G04 #@! TD*
D13*
G04 #@! TO.C,J6*
X131115000Y-58650000D03*
X131615000Y-58650000D03*
X132115000Y-58650000D03*
X132615000Y-58650000D03*
X133115000Y-58650000D03*
D14*
X129445000Y-60350000D03*
X134785000Y-60350000D03*
G04 #@! TD*
D17*
G04 #@! TO.C,J1*
X174150000Y-50000000D03*
D18*
X174150000Y-47460000D03*
X171610000Y-50000000D03*
X171610000Y-47460000D03*
X169070000Y-50000000D03*
X169070000Y-47460000D03*
X166530000Y-50000000D03*
X166530000Y-47460000D03*
X163990000Y-50000000D03*
X163990000Y-47460000D03*
X161450000Y-50000000D03*
X161450000Y-47460000D03*
X158910000Y-50000000D03*
X158910000Y-47460000D03*
X156370000Y-50000000D03*
X156370000Y-47460000D03*
X153830000Y-50000000D03*
X153830000Y-47460000D03*
G04 #@! TD*
D16*
G04 #@! TO.C,REF\u002A\u002A*
X138987500Y-48000000D03*
G04 #@! TD*
D15*
G04 #@! TO.C,U14*
X100550000Y-72200000D03*
X100550000Y-160400000D03*
G04 #@! TD*
D11*
G04 #@! TO.C,U19*
X79220000Y-163520000D03*
X79220000Y-166060000D03*
X79220000Y-168600000D03*
X79220000Y-171140000D03*
X79220000Y-173680000D03*
X81760000Y-163520000D03*
X81760000Y-166060000D03*
X81760000Y-168600000D03*
X81760000Y-171140000D03*
X81760000Y-173680000D03*
X84300000Y-163520000D03*
X84300000Y-166060000D03*
X84300000Y-168600000D03*
D12*
X84300000Y-168600000D03*
D11*
X84300000Y-171140000D03*
X84300000Y-173680000D03*
X86840000Y-163520000D03*
X86840000Y-166060000D03*
X86840000Y-168600000D03*
X86840000Y-171140000D03*
X86840000Y-173680000D03*
X89380000Y-163520000D03*
X89380000Y-166060000D03*
X89380000Y-168600000D03*
X89380000Y-171140000D03*
X89380000Y-173680000D03*
G04 #@! TD*
D13*
G04 #@! TO.C,J9*
X194415000Y-58650000D03*
X194915000Y-58650000D03*
X195415000Y-58650000D03*
X195915000Y-58650000D03*
X196415000Y-58650000D03*
D14*
X192745000Y-60350000D03*
X198085000Y-60350000D03*
G04 #@! TD*
D15*
G04 #@! TO.C,U7*
X174400000Y-105800000D03*
X174400000Y-194000000D03*
G04 #@! TD*
D16*
G04 #@! TO.C,REF\u002A\u002A*
X189000000Y-48000000D03*
G04 #@! TD*
D15*
G04 #@! TO.C,U9*
X153300000Y-105800000D03*
X153300000Y-194000000D03*
G04 #@! TD*
D17*
G04 #@! TO.C,J2*
X124150000Y-50000000D03*
D18*
X124150000Y-47460000D03*
X121610000Y-50000000D03*
X121610000Y-47460000D03*
X119070000Y-50000000D03*
X119070000Y-47460000D03*
X116530000Y-50000000D03*
X116530000Y-47460000D03*
X113990000Y-50000000D03*
X113990000Y-47460000D03*
X111450000Y-50000000D03*
X111450000Y-47460000D03*
X108910000Y-50000000D03*
X108910000Y-47460000D03*
X106370000Y-50000000D03*
X106370000Y-47460000D03*
X103830000Y-50000000D03*
X103830000Y-47460000D03*
G04 #@! TD*
D15*
G04 #@! TO.C,U3*
X216600000Y-105800000D03*
X216600000Y-194000000D03*
G04 #@! TD*
G04 #@! TO.C,U5*
X195500000Y-105800000D03*
X195500000Y-194000000D03*
G04 #@! TD*
G04 #@! TO.C,U1*
X237700000Y-105800000D03*
X237700000Y-194000000D03*
G04 #@! TD*
G04 #@! TO.C,U10*
X142750000Y-72200000D03*
X142750000Y-160400000D03*
G04 #@! TD*
D16*
G04 #@! TO.C,REF\u002A\u002A*
X238720000Y-74470000D03*
G04 #@! TD*
D15*
G04 #@! TO.C,U6*
X184950000Y-72200000D03*
X184950000Y-160400000D03*
G04 #@! TD*
M02*
