G04 #@! TF.GenerationSoftware,KiCad,Pcbnew,9.0.5*
G04 #@! TF.CreationDate,2025-11-12T01:12:09-05:00*
G04 #@! TF.ProjectId,Power Board,506f7765-7220-4426-9f61-72642e6b6963,rev?*
G04 #@! TF.SameCoordinates,Original*
G04 #@! TF.FileFunction,Profile,NP*
%FSLAX46Y46*%
G04 Gerber Fmt 4.6, Leading zero omitted, Abs format (unit mm)*
G04 Created by KiCad (PCBNEW 9.0.5) date 2025-11-12 01:12:09*
%MOMM*%
%LPD*%
G01*
G04 APERTURE LIST*
G04 #@! TA.AperFunction,Profile*
%ADD10C,0.001000*%
G04 #@! TD*
G04 #@! TA.AperFunction,Profile*
%ADD11C,0.050000*%
G04 #@! TD*
G04 APERTURE END LIST*
D10*
X94450000Y-55425000D02*
X94450000Y-210775000D01*
X191050000Y-210775000D02*
G75*
G02*
X189400000Y-210775000I-825000J0D01*
G01*
X178850000Y-55425000D02*
G75*
G02*
X180500000Y-55425000I825000J0D01*
G01*
X210500000Y-55425000D02*
X210500000Y-210775000D01*
X115550000Y-55425000D02*
X115550000Y-210775000D01*
X115550000Y-55425000D02*
G75*
G02*
X117200000Y-55425000I825000J0D01*
G01*
X231600000Y-55425000D02*
X231600000Y-210775000D01*
X189400000Y-55425000D02*
G75*
G02*
X191050000Y-55425000I825000J0D01*
G01*
X159400000Y-210775000D02*
X159400000Y-55425000D01*
X221050000Y-55425000D02*
G75*
G02*
X222700000Y-55425000I825000J0D01*
G01*
D11*
X80500000Y-222600000D02*
G75*
G02*
X74500000Y-216600000I0J6000000D01*
G01*
D10*
X157750000Y-55425000D02*
G75*
G02*
X159400000Y-55425000I825000J0D01*
G01*
X178850000Y-55425000D02*
X178850000Y-210775000D01*
X180500000Y-210775000D02*
G75*
G02*
X178850000Y-210775000I-825000J0D01*
G01*
X191050000Y-210775000D02*
X191050000Y-55425000D01*
D11*
X247500000Y-43600000D02*
G75*
G02*
X253500000Y-49600000I0J-6000000D01*
G01*
X248314223Y-50488063D02*
G75*
G02*
X244914223Y-50488063I-1700000J0D01*
G01*
X244914223Y-50488063D02*
G75*
G02*
X248314223Y-50488063I1700000J0D01*
G01*
D10*
X105000000Y-55425000D02*
X105000000Y-210775000D01*
X231600000Y-55425000D02*
G75*
G02*
X233250000Y-55425000I825000J0D01*
G01*
X117200000Y-210775000D02*
G75*
G02*
X115550000Y-210775000I-825000J0D01*
G01*
D11*
X83085777Y-215711937D02*
G75*
G02*
X79685777Y-215711937I-1700000J0D01*
G01*
X79685777Y-215711937D02*
G75*
G02*
X83085777Y-215711937I1700000J0D01*
G01*
D10*
X199950000Y-55425000D02*
G75*
G02*
X201600000Y-55425000I825000J0D01*
G01*
X148850000Y-210775000D02*
G75*
G02*
X147200000Y-210775000I-825000J0D01*
G01*
D11*
X83088063Y-50485777D02*
G75*
G02*
X79688063Y-50485777I-1700000J0D01*
G01*
X79688063Y-50485777D02*
G75*
G02*
X83088063Y-50485777I1700000J0D01*
G01*
D10*
X96100000Y-210775000D02*
G75*
G02*
X94450000Y-210775000I-825000J0D01*
G01*
X212150000Y-210775000D02*
G75*
G02*
X210500000Y-210775000I-825000J0D01*
G01*
D11*
X253500000Y-49600000D02*
X253500000Y-216600000D01*
D10*
X147200000Y-55425000D02*
X147200000Y-210775000D01*
X233250000Y-210775000D02*
G75*
G02*
X231600000Y-210775000I-825000J0D01*
G01*
X169950000Y-210775000D02*
X169950000Y-55425000D01*
X180500000Y-210775000D02*
X180500000Y-55425000D01*
X210500000Y-55425000D02*
G75*
G02*
X212150000Y-55425000I825000J0D01*
G01*
X126100000Y-55425000D02*
G75*
G02*
X127750000Y-55425000I825000J0D01*
G01*
X233250000Y-210775000D02*
X233250000Y-55425000D01*
X222700000Y-210775000D02*
G75*
G02*
X221050000Y-210775000I-825000J0D01*
G01*
X138300000Y-210775000D02*
X138300000Y-55425000D01*
X136650000Y-55425000D02*
X136650000Y-210775000D01*
X117200000Y-210775000D02*
X117200000Y-55425000D01*
D11*
X253500000Y-216600000D02*
G75*
G02*
X247500000Y-222600000I-6000000J0D01*
G01*
D10*
X106650000Y-210775000D02*
G75*
G02*
X105000000Y-210775000I-825000J0D01*
G01*
D11*
X247500000Y-222600000D02*
X80500000Y-222600000D01*
D10*
X138300000Y-210775000D02*
G75*
G02*
X136650000Y-210775000I-825000J0D01*
G01*
X221050000Y-55425000D02*
X221050000Y-210775000D01*
X189400000Y-55425000D02*
X189400000Y-210775000D01*
D11*
X74500000Y-216600000D02*
X74500000Y-49600000D01*
D10*
X199950000Y-55425000D02*
X199950000Y-210775000D01*
X127750000Y-210775000D02*
G75*
G02*
X126100000Y-210775000I-825000J0D01*
G01*
X201600000Y-210775000D02*
X201600000Y-55425000D01*
X136650000Y-55425000D02*
G75*
G02*
X138300000Y-55425000I825000J0D01*
G01*
D11*
X248311937Y-215714223D02*
G75*
G02*
X244911937Y-215714223I-1700000J0D01*
G01*
X244911937Y-215714223D02*
G75*
G02*
X248311937Y-215714223I1700000J0D01*
G01*
D10*
X106650000Y-210775000D02*
X106650000Y-55425000D01*
X147200000Y-55425000D02*
G75*
G02*
X148850000Y-55425000I825000J0D01*
G01*
X148850000Y-210775000D02*
X148850000Y-55425000D01*
X105000000Y-55425000D02*
G75*
G02*
X106650000Y-55425000I825000J0D01*
G01*
X168300000Y-55425000D02*
X168300000Y-210775000D01*
X169950000Y-210775000D02*
G75*
G02*
X168300000Y-210775000I-825000J0D01*
G01*
X126100000Y-55425000D02*
X126100000Y-210775000D01*
X168300000Y-55425000D02*
G75*
G02*
X169950000Y-55425000I825000J0D01*
G01*
X222700000Y-210775000D02*
X222700000Y-55425000D01*
X157750000Y-55425000D02*
X157750000Y-210775000D01*
D11*
X74500000Y-49600000D02*
G75*
G02*
X80500000Y-43600000I6000000J0D01*
G01*
X247500000Y-43600000D02*
X80500000Y-43600000D01*
D10*
X96100000Y-210775000D02*
X96100000Y-55425000D01*
X212150000Y-210775000D02*
X212150000Y-55425000D01*
X201600000Y-210775000D02*
G75*
G02*
X199950000Y-210775000I-825000J0D01*
G01*
X127750000Y-210775000D02*
X127750000Y-55425000D01*
X159400000Y-210775000D02*
G75*
G02*
X157750000Y-210775000I-825000J0D01*
G01*
X94450000Y-55425000D02*
G75*
G02*
X96100000Y-55425000I825000J0D01*
G01*
M02*
