%TF.GenerationSoftware,KiCad,Pcbnew,9.0.5*%
%TF.CreationDate,2025-12-09T01:39:53-05:00*%
%TF.ProjectId,Thermistors,54686572-6d69-4737-946f-72732e6b6963,rev?*%
%TF.SameCoordinates,Original*%
%TF.FileFunction,Legend,Top*%
%TF.FilePolarity,Positive*%
%FSLAX46Y46*%
G04 Gerber Fmt 4.6, Leading zero omitted, Abs format (unit mm)*
G04 Created by KiCad (PCBNEW 9.0.5) date 2025-12-09 01:39:53*
%MOMM*%
%LPD*%
G01*
G04 APERTURE LIST*
%ADD10C,0.300000*%
%ADD11C,0.120000*%
%ADD12C,0.000000*%
G04 APERTURE END LIST*
D10*
X88729445Y-50476733D02*
X88729445Y-53476733D01*
D11*
%TO.C,TH3*%
X138955804Y-51591733D02*
X139263086Y-51591733D01*
X138955804Y-52351733D02*
X139263086Y-52351733D01*
%TO.C,TH2*%
X246414445Y-138030374D02*
X246414445Y-137723092D01*
X247174445Y-138030374D02*
X247174445Y-137723092D01*
D12*
%TO.C,kibuzzard-6936739F*%
G36*
X72133110Y-39064225D02*
G01*
X72162795Y-39123595D01*
X72172690Y-39211236D01*
X72172690Y-39254855D01*
X71872205Y-39254855D01*
X71868166Y-39222544D01*
X71867359Y-39195081D01*
X71876648Y-39123595D01*
X71904515Y-39067456D01*
X71952173Y-39031107D01*
X72020832Y-39018990D01*
X72133110Y-39064225D01*
G37*
G36*
X72133110Y-43910751D02*
G01*
X72162795Y-43970121D01*
X72172690Y-44057763D01*
X72172690Y-44101381D01*
X71872205Y-44101381D01*
X71868166Y-44069071D01*
X71867359Y-44041607D01*
X71876648Y-43970121D01*
X71904515Y-43913982D01*
X71952173Y-43877633D01*
X72020832Y-43865517D01*
X72133110Y-43910751D01*
G37*
G36*
X72105848Y-36570687D02*
G01*
X72157342Y-36607036D01*
X72185816Y-36667213D01*
X72195307Y-36750816D01*
X72195307Y-36831591D01*
X71872205Y-36831591D01*
X71868166Y-36782318D01*
X71867359Y-36733045D01*
X71876446Y-36661761D01*
X71903708Y-36606228D01*
X71952779Y-36570485D01*
X72027294Y-36558570D01*
X72105848Y-36570687D01*
G37*
G36*
X72275275Y-39787771D02*
G01*
X72340703Y-39792011D01*
X72451365Y-39814628D01*
X72526486Y-39863094D01*
X72553950Y-39944677D01*
X72526486Y-40027068D01*
X72452173Y-40074725D01*
X72341511Y-40097342D01*
X72275477Y-40101583D01*
X72205000Y-40102997D01*
X72134725Y-40101583D01*
X72069297Y-40097342D01*
X71958635Y-40074725D01*
X71883514Y-40027068D01*
X71856050Y-39944677D01*
X71883514Y-39862286D01*
X71957827Y-39814628D01*
X72068489Y-39792011D01*
X72134523Y-39787771D01*
X72205000Y-39786357D01*
X72275275Y-39787771D01*
G37*
G36*
X72555565Y-31867132D02*
G01*
X72533150Y-31938619D01*
X72465905Y-31991527D01*
X72396887Y-32015759D01*
X72309380Y-32030299D01*
X72203384Y-32035145D01*
X72098287Y-32030299D01*
X72011318Y-32015759D01*
X71942480Y-31991527D01*
X71875234Y-31938619D01*
X71852819Y-31867132D01*
X71853318Y-31865517D01*
X72078990Y-31865517D01*
X72111300Y-31931753D01*
X72187229Y-31955985D01*
X72262351Y-31931753D01*
X72293853Y-31865517D01*
X72262351Y-31801704D01*
X72187229Y-31776664D01*
X72111300Y-31801704D01*
X72078990Y-31865517D01*
X71853318Y-31865517D01*
X71875234Y-31794637D01*
X71942480Y-31741931D01*
X72011318Y-31718147D01*
X72098287Y-31703876D01*
X72203384Y-31699120D01*
X72309380Y-31703876D01*
X72396887Y-31718147D01*
X72465905Y-31741931D01*
X72533150Y-31794637D01*
X72555066Y-31865517D01*
X72555565Y-31867132D01*
G37*
G36*
X72996061Y-32673271D02*
G01*
X72996061Y-33145000D01*
X72996061Y-34380864D01*
X72996061Y-35831591D01*
X72996061Y-36831591D01*
X72996061Y-37823514D01*
X72996061Y-38750816D01*
X72996061Y-39943061D01*
X72996061Y-40652270D01*
X72996061Y-41589265D01*
X72996061Y-42684580D01*
X72996061Y-42808974D01*
X72996061Y-43597342D01*
X72996061Y-45093304D01*
X72996061Y-45267779D01*
X72996061Y-46306551D01*
X72996061Y-46770202D01*
X72996061Y-47174079D01*
X72205000Y-47701453D01*
X71413939Y-47174079D01*
X71413939Y-46770202D01*
X71413939Y-46043223D01*
X71705808Y-46043223D01*
X71705808Y-46770202D01*
X71870590Y-46770202D01*
X71870590Y-46506874D01*
X72705808Y-46506874D01*
X72705808Y-46306551D01*
X71870590Y-46306551D01*
X71870590Y-46043223D01*
X71705808Y-46043223D01*
X71413939Y-46043223D01*
X71413939Y-45267779D01*
X71705808Y-45267779D01*
X71705808Y-45466486D01*
X72099992Y-45466486D01*
X72099992Y-45731430D01*
X71705808Y-45731430D01*
X71705808Y-45930137D01*
X72705808Y-45930137D01*
X72705808Y-45731430D01*
X72264774Y-45731430D01*
X72264774Y-45466486D01*
X72705808Y-45466486D01*
X72705808Y-45267779D01*
X71705808Y-45267779D01*
X71413939Y-45267779D01*
X71413939Y-44487488D01*
X71705808Y-44487488D01*
X71705808Y-45093304D01*
X72705808Y-45093304D01*
X72705808Y-44451947D01*
X72541026Y-44451947D01*
X72541026Y-44894596D01*
X72259927Y-44894596D01*
X72259927Y-44540800D01*
X72095145Y-44540800D01*
X72095145Y-44894596D01*
X71870590Y-44894596D01*
X71870590Y-44487488D01*
X71705808Y-44487488D01*
X71413939Y-44487488D01*
X71413939Y-44041607D01*
X71694499Y-44041607D01*
X71696115Y-44098150D01*
X71700153Y-44166002D01*
X71708231Y-44236276D01*
X71720347Y-44300089D01*
X72705808Y-44300089D01*
X72705808Y-44101381D01*
X72337472Y-44101381D01*
X72337472Y-43997989D01*
X72428950Y-43943263D01*
X72519216Y-43892173D01*
X72610695Y-43845929D01*
X72705808Y-43805743D01*
X72705808Y-43597342D01*
X72599992Y-43643384D01*
X72488522Y-43699120D01*
X72381898Y-43758893D01*
X72289006Y-43817052D01*
X72243368Y-43746373D01*
X72180767Y-43699120D01*
X72105646Y-43672464D01*
X72022447Y-43663578D01*
X71943893Y-43670242D01*
X71876244Y-43690234D01*
X71773659Y-43766971D01*
X71738522Y-43821898D01*
X71713885Y-43886519D01*
X71699346Y-43960024D01*
X71694499Y-44041607D01*
X71413939Y-44041607D01*
X71413939Y-42868748D01*
X71705808Y-42868748D01*
X71705808Y-43033530D01*
X71791430Y-43062609D01*
X71902092Y-43098150D01*
X72024871Y-43138538D01*
X72148457Y-43178926D01*
X72032141Y-43216082D01*
X71907746Y-43254855D01*
X71793045Y-43291204D01*
X71705808Y-43319475D01*
X71705808Y-43484257D01*
X71815258Y-43494960D01*
X71933595Y-43504451D01*
X72058393Y-43512730D01*
X72187229Y-43519798D01*
X72318489Y-43526058D01*
X72450557Y-43531914D01*
X72580606Y-43537367D01*
X72705808Y-43542415D01*
X72705808Y-43359863D01*
X71928748Y-43367940D01*
X72352011Y-43250008D01*
X72352011Y-43104612D01*
X71928748Y-42981834D01*
X72705808Y-42991527D01*
X72705808Y-42808974D01*
X72577981Y-42812609D01*
X72452981Y-42817052D01*
X72329798Y-42822504D01*
X72207423Y-42829168D01*
X72084847Y-42837246D01*
X71961058Y-42846939D01*
X71835048Y-42857641D01*
X71705808Y-42868748D01*
X71413939Y-42868748D01*
X71413939Y-42049685D01*
X71705808Y-42049685D01*
X71705808Y-42684580D01*
X71870590Y-42684580D01*
X71870590Y-42466486D01*
X72541026Y-42466486D01*
X72541026Y-42684580D01*
X72705808Y-42684580D01*
X72705808Y-42049685D01*
X72541026Y-42049685D01*
X72541026Y-42266163D01*
X71870590Y-42266163D01*
X71870590Y-42049685D01*
X71705808Y-42049685D01*
X71413939Y-42049685D01*
X71413939Y-41542415D01*
X71683191Y-41542415D01*
X71691986Y-41641410D01*
X71718373Y-41725147D01*
X71762351Y-41793627D01*
X71856858Y-41862084D01*
X71982060Y-41884903D01*
X72100800Y-41859055D01*
X72180767Y-41793627D01*
X72234079Y-41705582D01*
X72271236Y-41611882D01*
X72299507Y-41544031D01*
X72333433Y-41482641D01*
X72376244Y-41437407D01*
X72431171Y-41419637D01*
X72478829Y-41426906D01*
X72520832Y-41453562D01*
X72549911Y-41506066D01*
X72560412Y-41589265D01*
X72554758Y-41669838D01*
X72537795Y-41737084D01*
X72489330Y-41841284D01*
X72650880Y-41899443D01*
X72700153Y-41787973D01*
X72720145Y-41701139D01*
X72726809Y-41589265D01*
X72718283Y-41475910D01*
X72692704Y-41383557D01*
X72650073Y-41312205D01*
X72557383Y-41243748D01*
X72432787Y-41220929D01*
X72357464Y-41227795D01*
X72296276Y-41248393D01*
X72205808Y-41318667D01*
X72147649Y-41412367D01*
X72108069Y-41510105D01*
X72083837Y-41572302D01*
X72053950Y-41628845D01*
X72015178Y-41670040D01*
X71964289Y-41686195D01*
X71900566Y-41668604D01*
X71862333Y-41615831D01*
X71849588Y-41527876D01*
X71865743Y-41413982D01*
X71904515Y-41324321D01*
X71751042Y-41266163D01*
X71704192Y-41381672D01*
X71688441Y-41456187D01*
X71683191Y-41542415D01*
X71413939Y-41542415D01*
X71413939Y-40388942D01*
X71705808Y-40388942D01*
X71705808Y-41115921D01*
X71870590Y-41115921D01*
X71870590Y-40852593D01*
X72705808Y-40852593D01*
X72705808Y-40652270D01*
X71870590Y-40652270D01*
X71870590Y-40388942D01*
X71705808Y-40388942D01*
X71413939Y-40388942D01*
X71413939Y-39944677D01*
X71683191Y-39944677D01*
X71697820Y-40049505D01*
X71741708Y-40137820D01*
X71814855Y-40209620D01*
X71888613Y-40251321D01*
X71978223Y-40281107D01*
X72083685Y-40298978D01*
X72205000Y-40304935D01*
X72326315Y-40299130D01*
X72431777Y-40281712D01*
X72521387Y-40252684D01*
X72595145Y-40212044D01*
X72668292Y-40140871D01*
X72712180Y-40051211D01*
X72726809Y-39943061D01*
X72712180Y-39837515D01*
X72668292Y-39749200D01*
X72595145Y-39678118D01*
X72521387Y-39637124D01*
X72431777Y-39607843D01*
X72326315Y-39590275D01*
X72205000Y-39584418D01*
X72083685Y-39590174D01*
X71978223Y-39607439D01*
X71888613Y-39636216D01*
X71814855Y-39676502D01*
X71741708Y-39747226D01*
X71697820Y-39836617D01*
X71683191Y-39944677D01*
X71413939Y-39944677D01*
X71413939Y-39195081D01*
X71694499Y-39195081D01*
X71696115Y-39251624D01*
X71700153Y-39319475D01*
X71708231Y-39389750D01*
X71720347Y-39453562D01*
X72705808Y-39453562D01*
X72705808Y-39254855D01*
X72337472Y-39254855D01*
X72337472Y-39151462D01*
X72428950Y-39096737D01*
X72519216Y-39045646D01*
X72610695Y-38999402D01*
X72705808Y-38959216D01*
X72705808Y-38750816D01*
X72599992Y-38796858D01*
X72488522Y-38852593D01*
X72381898Y-38912367D01*
X72289006Y-38970525D01*
X72243368Y-38899847D01*
X72180767Y-38852593D01*
X72105646Y-38825937D01*
X72022447Y-38817052D01*
X71943893Y-38823716D01*
X71876244Y-38843708D01*
X71773659Y-38920444D01*
X71738522Y-38975372D01*
X71713885Y-39039992D01*
X71699346Y-39113498D01*
X71694499Y-39195081D01*
X71413939Y-39195081D01*
X71413939Y-37211236D01*
X71705808Y-37211236D01*
X71705808Y-37823514D01*
X72705808Y-37823514D01*
X72705808Y-37624806D01*
X72277698Y-37624806D01*
X72277698Y-37262932D01*
X72112916Y-37262932D01*
X72112916Y-37624806D01*
X71870590Y-37624806D01*
X71870590Y-37211236D01*
X71705808Y-37211236D01*
X71413939Y-37211236D01*
X71413939Y-36755662D01*
X71694499Y-36755662D01*
X71696115Y-36818667D01*
X71700153Y-36891365D01*
X71707423Y-36964871D01*
X71718732Y-37030299D01*
X72705808Y-37030299D01*
X72705808Y-36831591D01*
X72368166Y-36831591D01*
X72368166Y-36760509D01*
X72359281Y-36641051D01*
X72332625Y-36541159D01*
X72288199Y-36460832D01*
X72223848Y-36402045D01*
X72137418Y-36366773D01*
X72028910Y-36355016D01*
X71921478Y-36366684D01*
X71836125Y-36401686D01*
X71772851Y-36460024D01*
X71729322Y-36539543D01*
X71703205Y-36638089D01*
X71694499Y-36755662D01*
X71413939Y-36755662D01*
X71413939Y-35812205D01*
X71683191Y-35812205D01*
X71691874Y-35906914D01*
X71717924Y-35993950D01*
X71760735Y-36071494D01*
X71819701Y-36137730D01*
X71894216Y-36191648D01*
X71983675Y-36232237D01*
X72087472Y-36257682D01*
X72205000Y-36266163D01*
X72323033Y-36259196D01*
X72426729Y-36238296D01*
X72516086Y-36203461D01*
X72591107Y-36154693D01*
X72666497Y-36069251D01*
X72711731Y-35961550D01*
X72726809Y-35831591D01*
X72721357Y-35743344D01*
X72705000Y-35666002D01*
X72657342Y-35552108D01*
X72500638Y-35602189D01*
X72536179Y-35683772D01*
X72553950Y-35812205D01*
X72531131Y-35927512D01*
X72462674Y-36005258D01*
X72392938Y-36038017D01*
X72305431Y-36057673D01*
X72200153Y-36064225D01*
X72109685Y-36058772D01*
X72035372Y-36042415D01*
X71929556Y-35985872D01*
X71873013Y-35906712D01*
X71856050Y-35815436D01*
X71873013Y-35695081D01*
X71914208Y-35605420D01*
X71755889Y-35553724D01*
X71736502Y-35586842D01*
X71712270Y-35640961D01*
X71692076Y-35716082D01*
X71683191Y-35812205D01*
X71413939Y-35812205D01*
X71413939Y-33909136D01*
X71946519Y-33909136D01*
X71946519Y-34111074D01*
X72009927Y-34127835D01*
X72077375Y-34149039D01*
X72147044Y-34172868D01*
X72217116Y-34197504D01*
X72286381Y-34222746D01*
X72353627Y-34248393D01*
X72474790Y-34295242D01*
X72353627Y-34339669D01*
X72286381Y-34362892D01*
X72217116Y-34385711D01*
X72147044Y-34407722D01*
X72077375Y-34428522D01*
X72009927Y-34447302D01*
X71946519Y-34463255D01*
X71946519Y-34671656D01*
X72058948Y-34637276D01*
X72166834Y-34601987D01*
X72270176Y-34565790D01*
X72368974Y-34528683D01*
X72492202Y-34478872D01*
X72604479Y-34429599D01*
X72705808Y-34380864D01*
X72705808Y-34214467D01*
X72604479Y-34164925D01*
X72492202Y-34113228D01*
X72368974Y-34059378D01*
X72270176Y-34019091D01*
X72166834Y-33980622D01*
X72058948Y-33943970D01*
X71946519Y-33909136D01*
X71413939Y-33909136D01*
X71413939Y-33343708D01*
X71705808Y-33343708D01*
X71705808Y-33479410D01*
X71768813Y-33548877D01*
X71826971Y-33634499D01*
X71877052Y-33724968D01*
X71914208Y-33808974D01*
X72078990Y-33744354D01*
X72039410Y-33645808D01*
X71982060Y-33542415D01*
X72541026Y-33542415D01*
X72541026Y-33752431D01*
X72705808Y-33752431D01*
X72705808Y-33145000D01*
X72541026Y-33145000D01*
X72541026Y-33343708D01*
X71705808Y-33343708D01*
X71413939Y-33343708D01*
X71413939Y-32673271D01*
X72436018Y-32673271D01*
X72445711Y-32728199D01*
X72473174Y-32774241D01*
X72517601Y-32806551D01*
X72578183Y-32818667D01*
X72640380Y-32806551D01*
X72685614Y-32774241D01*
X72713885Y-32728199D01*
X72723578Y-32673271D01*
X72686422Y-32573110D01*
X72578183Y-32529491D01*
X72473174Y-32573110D01*
X72436018Y-32673271D01*
X71413939Y-32673271D01*
X71413939Y-31867132D01*
X71683191Y-31867132D01*
X71697551Y-31969628D01*
X71740631Y-32055250D01*
X71812431Y-32123998D01*
X71885331Y-32163578D01*
X71974790Y-32191850D01*
X72080808Y-32208813D01*
X72203384Y-32214467D01*
X72327375Y-32208914D01*
X72434402Y-32192254D01*
X72524467Y-32164487D01*
X72597569Y-32125614D01*
X72669369Y-32057404D01*
X72712449Y-31971243D01*
X72726809Y-31867132D01*
X72712449Y-31763022D01*
X72669369Y-31676861D01*
X72597569Y-31608651D01*
X72524467Y-31569778D01*
X72434402Y-31542011D01*
X72327375Y-31525351D01*
X72203384Y-31519798D01*
X72080151Y-31525351D01*
X71973780Y-31542011D01*
X71884271Y-31569778D01*
X71811624Y-31608651D01*
X71740272Y-31676861D01*
X71697461Y-31763022D01*
X71683191Y-31867132D01*
X71413939Y-31867132D01*
X71413939Y-31519798D01*
X71413939Y-31115921D01*
X72205000Y-30588547D01*
X72996061Y-31115921D01*
X72996061Y-31519798D01*
X72996061Y-31867132D01*
X72996061Y-32673271D01*
G37*
D11*
%TO.C,TH1*%
X138644445Y-137238092D02*
X138644445Y-137545374D01*
X139404445Y-137238092D02*
X139404445Y-137545374D01*
%TO.C,TH4*%
X246414445Y-51793092D02*
X246414445Y-52100374D01*
X247174445Y-51793092D02*
X247174445Y-52100374D01*
%TD*%
M02*
