%TF.GenerationSoftware,KiCad,Pcbnew,9.0.5*%
%TF.CreationDate,2025-12-09T01:39:53-05:00*%
%TF.ProjectId,Thermistors,54686572-6d69-4737-946f-72732e6b6963,rev?*%
%TF.SameCoordinates,Original*%
%TF.FileFunction,Profile,NP*%
%FSLAX46Y46*%
G04 Gerber Fmt 4.6, Leading zero omitted, Abs format (unit mm)*
G04 Created by KiCad (PCBNEW 9.0.5) date 2025-12-09 01:39:53*
%MOMM*%
%LPD*%
G01*
G04 APERTURE LIST*
%TA.AperFunction,Profile*%
%ADD10C,0.010000*%
%TD*%
G04 APERTURE END LIST*
D10*
X72859445Y-53471733D02*
X136874445Y-53471733D01*
X73714445Y-28001733D02*
X73714445Y-49721733D01*
X247834445Y-53476733D02*
X247834445Y-50475086D01*
X136874445Y-53471733D02*
G75*
G02*
X137624471Y-54220086I2755J-747267D01*
G01*
X136869445Y-50475086D02*
X247834445Y-50475086D01*
X141371645Y-53476733D02*
X247834445Y-53476733D01*
X141371645Y-136360086D02*
X247834445Y-136360086D01*
X72859445Y-53471733D02*
G75*
G02*
X70714367Y-51326733I-45J2145033D01*
G01*
X139769445Y-139365086D02*
X247834445Y-139365086D01*
X74467845Y-50475086D02*
X136869445Y-50475086D01*
X137624445Y-54220086D02*
X137624445Y-137220086D01*
X140624445Y-54225086D02*
X140624445Y-135611733D01*
X139769445Y-139365086D02*
G75*
G02*
X137624414Y-137220086I-45J2144986D01*
G01*
X247834445Y-139365086D02*
X247834445Y-136360086D01*
X70714445Y-28001733D02*
X70714445Y-51326733D01*
X140624445Y-54225086D02*
G75*
G02*
X141374445Y-53476749I747255J1086D01*
G01*
X141374445Y-136360086D02*
G75*
G02*
X140624510Y-135611733I-2745J747186D01*
G01*
X74467798Y-50475086D02*
G75*
G02*
X73714414Y-49721733I2J753386D01*
G01*
%TO.C,J101*%
X70714445Y-23301733D02*
X70714445Y-28001733D01*
X70714445Y-23301733D02*
X71014445Y-23001733D01*
X71014445Y-23001733D02*
X73414445Y-23001733D01*
X73714445Y-23301733D02*
X73414445Y-23001733D01*
X73714445Y-23301733D02*
X73714445Y-28001733D01*
%TD*%
M02*
