%TF.GenerationSoftware,KiCad,Pcbnew,9.0.5*%
%TF.CreationDate,2025-12-09T01:39:53-05:00*%
%TF.ProjectId,Thermistors,54686572-6d69-4737-946f-72732e6b6963,rev?*%
%TF.SameCoordinates,Original*%
%TF.FileFunction,Copper,L2,Bot*%
%TF.FilePolarity,Positive*%
%FSLAX46Y46*%
G04 Gerber Fmt 4.6, Leading zero omitted, Abs format (unit mm)*
G04 Created by KiCad (PCBNEW 9.0.5) date 2025-12-09 01:39:53*
%MOMM*%
%LPD*%
G01*
G04 APERTURE LIST*
%TA.AperFunction,ViaPad*%
%ADD10C,0.600000*%
%TD*%
G04 APERTURE END LIST*
D10*
%TO.N,GND*%
X245784445Y-52451733D03*
X73213445Y-28385000D03*
X245779445Y-137361733D03*
X139759445Y-138661733D03*
X140419445Y-51966733D03*
%TD*%
%TA.AperFunction,Conductor*%
%TO.N,GND*%
G36*
X73347072Y-23221918D02*
G01*
X73367714Y-23238552D01*
X73477626Y-23348464D01*
X73511111Y-23409787D01*
X73513945Y-23436145D01*
X73513945Y-49670017D01*
X73513940Y-49671127D01*
X73513937Y-49671462D01*
X73513912Y-49671544D01*
X73513916Y-49805192D01*
X73513917Y-49805199D01*
X73542903Y-49969549D01*
X73542905Y-49969555D01*
X73542906Y-49969560D01*
X73566957Y-50035634D01*
X73599995Y-50126396D01*
X73599996Y-50126397D01*
X73683450Y-50270935D01*
X73683455Y-50270943D01*
X73790729Y-50398781D01*
X73790738Y-50398790D01*
X73918595Y-50506071D01*
X74063139Y-50589521D01*
X74063142Y-50589522D01*
X74063148Y-50589525D01*
X74219975Y-50646603D01*
X74219978Y-50646604D01*
X74384346Y-50675586D01*
X74427963Y-50675586D01*
X136829563Y-50675586D01*
X247509945Y-50675586D01*
X247576984Y-50695271D01*
X247622739Y-50748075D01*
X247633945Y-50799586D01*
X247633945Y-53152233D01*
X247614260Y-53219272D01*
X247561456Y-53265027D01*
X247509945Y-53276233D01*
X141369976Y-53276233D01*
X141369556Y-53276232D01*
X141292005Y-53275969D01*
X141291990Y-53275970D01*
X141128061Y-53304350D01*
X141128057Y-53304351D01*
X140971575Y-53360857D01*
X140971571Y-53360859D01*
X140827326Y-53443762D01*
X140827321Y-53443766D01*
X140699722Y-53550530D01*
X140592676Y-53677890D01*
X140592673Y-53677893D01*
X140509450Y-53821955D01*
X140509448Y-53821960D01*
X140452594Y-53978317D01*
X140452594Y-53978318D01*
X140423849Y-54142187D01*
X140423945Y-54224520D01*
X140423945Y-135661959D01*
X140423903Y-135694609D01*
X140451159Y-135850068D01*
X140452635Y-135858484D01*
X140509476Y-136014849D01*
X140592691Y-136158919D01*
X140699732Y-136286288D01*
X140827327Y-136393061D01*
X140971573Y-136475971D01*
X140971575Y-136475972D01*
X141083376Y-136516346D01*
X141128058Y-136532482D01*
X141291994Y-136560866D01*
X141292002Y-136560865D01*
X141292003Y-136560866D01*
X141374590Y-136560587D01*
X141375010Y-136560586D01*
X247509945Y-136560586D01*
X247576984Y-136580271D01*
X247622739Y-136633075D01*
X247633945Y-136684586D01*
X247633945Y-139040586D01*
X247614260Y-139107625D01*
X247561456Y-139153380D01*
X247509945Y-139164586D01*
X139823760Y-139164586D01*
X139809324Y-139164585D01*
X139809323Y-139164585D01*
X139793473Y-139164585D01*
X139773501Y-139164585D01*
X139773500Y-139164584D01*
X139765396Y-139164320D01*
X139523739Y-139148486D01*
X139507657Y-139146369D01*
X139274132Y-139099922D01*
X139258464Y-139095724D01*
X139032997Y-139019192D01*
X139018012Y-139012985D01*
X138804468Y-138907681D01*
X138790420Y-138899571D01*
X138592443Y-138767290D01*
X138579575Y-138757416D01*
X138400560Y-138600426D01*
X138389091Y-138588957D01*
X138330491Y-138522139D01*
X138232097Y-138409944D01*
X138222225Y-138397078D01*
X138089943Y-138199104D01*
X138081833Y-138185057D01*
X137976522Y-137971509D01*
X137970315Y-137956523D01*
X137893782Y-137731062D01*
X137889584Y-137715395D01*
X137843132Y-137481864D01*
X137841017Y-137465805D01*
X137825210Y-137224603D01*
X137824945Y-137216494D01*
X137824945Y-54242509D01*
X137824971Y-54220377D01*
X137825068Y-54137188D01*
X137812939Y-54068048D01*
X137796322Y-53973312D01*
X137739464Y-53816946D01*
X137663574Y-53685580D01*
X137656237Y-53672879D01*
X137549184Y-53545513D01*
X137514647Y-53516615D01*
X137421579Y-53438744D01*
X137277328Y-53355840D01*
X137277325Y-53355839D01*
X137120837Y-53299333D01*
X136956891Y-53270951D01*
X136874296Y-53271232D01*
X136873875Y-53271233D01*
X72913760Y-53271233D01*
X72899324Y-53271232D01*
X72899323Y-53271232D01*
X72883473Y-53271232D01*
X72863501Y-53271232D01*
X72863500Y-53271231D01*
X72855396Y-53270967D01*
X72613734Y-53255133D01*
X72597653Y-53253016D01*
X72364125Y-53206570D01*
X72348457Y-53202372D01*
X72122991Y-53125841D01*
X72108005Y-53119634D01*
X71894459Y-53014330D01*
X71880412Y-53006221D01*
X71682422Y-52873934D01*
X71669562Y-52864066D01*
X71490536Y-52707069D01*
X71479076Y-52695609D01*
X71344697Y-52542386D01*
X71322073Y-52516588D01*
X71312211Y-52503738D01*
X71179908Y-52305739D01*
X71171812Y-52291717D01*
X71066489Y-52078153D01*
X71060289Y-52063186D01*
X70983746Y-51837707D01*
X70979548Y-51822040D01*
X70933092Y-51588511D01*
X70930975Y-51572430D01*
X70915211Y-51331976D01*
X70914945Y-51323864D01*
X70914945Y-23436145D01*
X70923589Y-23406704D01*
X70930113Y-23376718D01*
X70933867Y-23371702D01*
X70934630Y-23369106D01*
X70951264Y-23348464D01*
X71061176Y-23238552D01*
X71122499Y-23205067D01*
X71148857Y-23202233D01*
X73280033Y-23202233D01*
X73347072Y-23221918D01*
G37*
%TD.AperFunction*%
%TD*%
M02*
